<svg width="565" height="300" viewBox="0 0 565 300" fill="none" xmlns="http://www.w3.org/2000/svg">
<path d="M65.2908 299.181C65.2908 299.181 -11.9304 217.246 42.2162 140.813C62.4219 112.292 114.005 96.2772 161.423 109.27C189.432 116.943 231.909 115.811 273.414 48.1671C330.015 -44.0821 564.975 -2.13552 519.112 159.491C499.793 227.572 571.798 230.671 536.131 299.328L65.2908 299.181Z" fill="#EBF3FA"/>
<path d="M483.356 135.042L315.152 275.535L226.652 200.263C210.089 214.825 184.506 237.304 158.772 259.86C141.186 275.275 126.946 287.73 115.405 297.812L35.024 297.718C57.3146 278.771 147.064 200.028 207.53 146.812L226.018 130.542L315.479 206.633L446.789 96.9531L483.356 135.042Z" fill="#D5E5FB"/>
<path d="M425.494 79.6783L505.603 159.903L528.233 68.2554L425.494 79.6783Z" fill="#D5E5FB"/>
<path d="M162.88 248.719C162.581 241.374 161.936 234.982 161.165 230.527C159.934 223.422 158.826 219.336 158.813 219.293C158.651 218.669 156.309 216.141 151.104 216.218C145.898 216.297 146.391 219.611 146.391 219.611C146.391 219.722 146.406 219.827 146.428 219.905C146.477 220.076 151.257 237.377 151.05 259.713C151.048 260.026 151.012 260.568 151.035 260.929C151.035 260.931 163.1 261.24 163.102 260.929C163.523 258.977 163.318 253.569 162.88 248.719Z" fill="#B7D3F3"/>
<path d="M164.397 259.602C164.393 259.913 164.228 260.163 164.027 260.163H164.023C163.822 260.158 163.662 259.909 163.66 259.602H153.321C153.317 259.913 153.152 260.163 152.951 260.163H152.947C152.742 260.158 152.58 259.9 152.584 259.585C152.644 253.191 152.279 247.219 151.725 241.951C150.352 228.809 147.81 220.027 147.773 219.905C147.75 219.826 147.737 219.722 147.737 219.611C147.737 219.611 147.244 216.297 152.449 216.218C157.657 216.139 159.999 218.668 160.161 219.293C160.169 219.325 160.797 221.639 161.631 225.8C161.906 227.178 162.205 228.758 162.511 230.526C163.282 234.984 163.927 241.373 164.226 248.718C164.664 253.568 164.818 257.65 164.397 259.602Z" fill="#D2E3FC"/>
<path d="M151.819 260.163H192.355C192.355 260.163 191.411 256.35 167.937 256.917C151.324 257.32 151.819 260.163 151.819 260.163Z" fill="#C5DCF8"/>
<path d="M148.521 300C153.22 276.246 152.011 261.669 152.007 261.485C151.994 261.12 152.671 260.788 153.035 260.775C153.402 260.768 155.025 260.666 155.211 260.98C155.457 261.389 156.403 279.349 149.399 300H148.521Z" fill="#B7D3F3"/>
<path d="M186.367 300C181.667 276.246 182.876 261.669 182.881 261.485C182.893 261.12 182.218 260.788 181.853 260.775C181.486 260.768 179.862 260.666 179.676 260.98C179.431 261.389 178.484 279.349 185.489 300H186.367Z" fill="#B7D3F3"/>
<path d="M193.869 300C189.17 276.246 190.379 261.669 190.383 261.485C190.396 261.12 189.719 260.788 189.356 260.775C188.988 260.768 187.365 260.666 187.179 260.98C186.933 261.389 185.987 279.349 192.991 300H193.869Z" fill="#B7D3F3"/>
<path d="M156.072 300C160.772 276.246 159.562 261.669 159.558 261.485C159.545 261.12 160.223 260.788 160.586 260.775C160.953 260.768 162.577 260.666 162.762 260.98C163.008 261.389 163.954 279.349 156.95 300H156.072Z" fill="#B7D3F3"/>
<path d="M192.378 261.381H151.845C151.388 261.381 151.014 261.008 151.014 260.551V260.007C151.014 259.551 151.388 259.178 151.845 259.178H192.38C192.837 259.178 193.211 259.551 193.211 260.007V260.551C193.209 261.008 192.835 261.381 192.378 261.381Z" fill="#B7D3F3"/>
<path d="M190.955 224.832L204.43 221.918L205.222 223.849C205.222 223.849 190.355 232.68 188.962 232.249C187.569 231.816 190.955 224.832 190.955 224.832Z" fill="#FFB27D"/>
<path d="M178.704 285.674C178.367 286.06 178.324 286.491 178.491 286.952C178.491 286.954 178.493 286.956 178.495 286.958C178.805 287.811 179.824 288.763 181.009 289.712C181.161 289.833 181.296 289.944 181.413 290.049C181.443 290.076 181.475 290.102 181.503 290.13C181.526 290.151 181.55 290.172 181.573 290.192C182.678 291.209 182.263 291.441 184.248 293.506C186.512 295.858 188.071 295.901 188.513 295.685C188.889 295.502 188.127 294.254 187.281 292.853C187.24 292.785 187.2 292.717 187.157 292.648C187.044 292.463 186.933 292.273 186.822 292.085C185.833 290.398 186.087 289.605 186.32 287.095C186.51 285.054 189.5 275.693 189.5 275.693L185.162 274.947C185.162 274.947 183.855 282.401 182.415 283.548C181.646 284.16 180.783 284.169 180.044 284.621C179.992 284.653 179.941 284.685 179.89 284.719C179.471 284.998 179.044 285.286 178.704 285.674Z" fill="#FFB27D"/>
<path d="M178.704 285.674C178.367 286.06 178.324 286.491 178.491 286.952C178.491 286.954 178.493 286.956 178.495 286.958C178.873 287.809 179.869 288.756 181.014 289.703C181.163 289.827 181.296 289.942 181.413 290.049C181.443 290.076 181.475 290.102 181.503 290.13C181.526 290.151 181.55 290.172 181.573 290.192C182.678 291.209 182.263 291.441 184.248 293.506C186.512 295.858 188.071 295.901 188.513 295.686C188.889 295.502 188.127 294.254 187.281 292.853C186.841 292.691 184.792 291.862 183.246 289.884C181.883 288.148 180.973 285.915 180.044 284.623C179.992 284.655 179.941 284.687 179.89 284.721C179.471 284.998 179.044 285.286 178.704 285.674Z" fill="#1C468A"/>
<path d="M213.692 282.968C213.959 284.305 215.869 284.081 218.003 283.561C220.137 283.04 219.628 283.659 222.664 283.324C225.699 282.989 226.62 281.859 226.712 281.407C226.795 281.006 225.296 280.865 223.685 280.682C223.482 280.658 223.279 280.635 223.076 280.609C221.26 280.381 219.93 279.212 218.278 278.25C216.715 277.34 214.382 273.631 214.382 273.631L210.219 273.959C210.219 273.959 212.404 277.271 213.248 278.713C213.746 279.56 213.718 280.68 213.656 281.545C213.628 282.017 213.598 282.497 213.692 282.968Z" fill="#FFB27D"/>
<path d="M218.003 283.561C220.137 283.04 219.628 283.659 222.664 283.324C225.699 282.989 226.62 281.859 226.712 281.407C226.795 281.006 225.296 280.865 223.685 280.682L223.67 280.711C223.67 280.711 221.85 282 219.323 282.062C217.264 282.111 215.083 281.522 213.66 281.545C213.628 282.015 213.598 282.497 213.692 282.968C213.959 284.305 215.869 284.081 218.003 283.561Z" fill="#1C468A"/>
<path d="M204.43 221.919C204.43 221.919 205.421 219.491 206.513 219.393C207.604 219.295 211.075 218.749 211.323 219.244C211.571 219.739 211.323 221.522 210.58 222.166C209.836 222.81 205.225 223.849 205.225 223.849L204.43 221.919Z" fill="#FFB27D"/>
<path d="M197.737 256.39L188.765 280.498C188.765 280.498 187.388 280.633 186.065 280.251C184.85 279.901 183.455 278.982 183.455 278.982C183.455 278.982 185.681 255.833 189.761 251.02C193.843 246.204 197.737 256.39 197.737 256.39Z" fill="#163560"/>
<path d="M162.249 246.637C162.249 246.637 188.03 237.934 193.781 239.785C199.531 241.636 216.796 275.93 216.796 275.93C216.796 275.93 216.407 276.449 215.343 276.845C214.354 277.216 211.959 277.193 211.959 277.193C211.959 277.193 196.378 263.859 194.524 259.971C192.67 256.083 191.927 252.378 190.073 252.75C188.218 253.121 166.146 261.824 161.139 256.638C156.132 251.453 157.441 244.716 157.441 244.716L162.249 246.637Z" fill="#1C468A"/>
<path d="M176.948 185.264C175.833 184.632 174.498 184.562 173.565 184.617C173.806 184.37 174.278 184.278 174.278 184.278C173.699 184.193 172.407 184.767 172.407 184.767C164.35 181.668 163.083 193.513 163.252 196.264C163.42 199.015 163.44 202.183 159.417 204.652C151.503 209.509 158.18 217.986 158.18 217.986C158.242 218.022 161.863 224.152 161.863 224.152C161.66 221.927 171.937 210.193 177.299 206.678C178.604 204.759 179.067 201.37 179.102 201.103C178.877 203.791 178.416 205.298 178.004 206.147C182.545 201.976 179.903 186.94 176.948 185.264Z" fill="#B5453C"/>
<path d="M176.981 206.853C177.008 206.866 174.392 208.221 172.424 207.685C170.574 207.182 169.365 204.785 169.389 204.78C170.173 204.625 170.399 203.55 170.382 198.928L170.737 198.999L176.694 200.176C176.694 200.176 176.56 202.048 176.556 203.81C176.551 205.29 176.641 206.696 176.981 206.853Z" fill="#FFB27D"/>
<path d="M176.694 200.173C176.694 200.173 176.559 202.046 176.555 203.807C173.221 203.713 171.458 200.676 170.736 198.994L176.694 200.173Z" fill="#ED975D"/>
<path d="M170.121 198.35C170.121 198.35 168.374 195.594 167.955 193.238C167.656 191.555 168.515 185.319 174.791 186.217C174.791 186.217 176.613 186.396 178.328 187.552C179.691 188.471 181.658 190.455 179.458 195.897L178.888 197.736L170.121 198.35Z" fill="#B5453C"/>
<path d="M177.807 201.843C177.807 201.843 169.92 201.973 169.914 197.068C169.908 192.163 168.887 188.876 173.924 188.586C178.958 188.296 179.939 190.166 180.34 191.802C180.742 193.44 179.86 201.683 177.807 201.843Z" fill="#FFB27D"/>
<path d="M177.517 188.467C177.517 188.467 175.357 194.221 172.042 195.072C168.726 195.923 167.289 195.036 167.289 195.036C167.289 195.036 169.831 193.02 170.358 189.499C170.361 189.501 175.887 185.726 177.517 188.467Z" fill="#B5453C"/>
<path d="M176.981 188.934C176.981 188.934 178.593 190.218 178.986 191.468C179.379 192.717 179.557 195.287 180.306 195.2C180.306 195.2 181.934 191.288 180.106 189.075C178.168 186.729 176.981 188.934 176.981 188.934Z" fill="#B5453C"/>
<path d="M159.417 228.038C158.64 224.781 161.286 218.462 164.048 213.228C166.554 208.485 169.156 204.639 169.391 204.776C176.002 208.694 176.598 205.437 176.598 205.437C176.6 205.437 182.603 206.233 184.303 209.154C186.411 212.78 188.691 222.911 190.955 224.83C190.607 225.892 190.756 226.457 191.126 227.773C191.205 228.055 191.292 228.323 191.389 228.577C191.73 229.503 192.155 230.254 192.525 230.906C191.374 231.604 189.152 232.932 187.516 231.977C185.021 230.518 183.073 226.08 181.977 224.312C181.973 224.305 181.968 224.299 181.964 224.293C179.582 237.752 182.821 240.819 181.182 242.237C179.452 243.737 176.978 241.523 171.538 243.877C167.968 245.424 163.017 247.659 159.682 248.047C157.933 248.252 156.629 247.949 156.204 246.769C154.965 243.346 160.902 234.248 159.417 228.038Z" fill="#1C468A"/>
<path d="M176.055 198.87C176.055 198.87 176.203 199.493 177.756 199.397C177.756 199.397 179.059 199.316 179.02 198.631C179.018 198.631 177.753 198.145 176.055 198.87Z" fill="white"/>
<path d="M156.202 246.774C156.627 247.953 157.933 248.256 159.68 248.051C161.987 247.047 171.956 243.191 171.845 240.58C171.679 236.712 169.929 236.588 171.166 231.815C172.159 227.982 162.948 220.853 161.479 219.304C158.717 224.536 158.64 224.783 159.417 228.04C160.902 234.248 154.965 243.346 156.202 246.774Z" fill="#163560"/>
<path d="M155.074 232.821C156.843 230.343 158.684 229.031 159.896 228.372C159.616 227.656 167.332 218.212 167.332 216.749C167.332 215.267 169.391 204.776 169.391 204.776C169.391 204.776 162.963 205.173 160.737 208.271C157.954 212.149 152.171 227.063 155.074 232.821Z" fill="#1C468A"/>
<path d="M159.895 228.375L172.74 231.721L171.535 233.881C171.535 233.881 155.903 233.772 155.074 232.821C154.245 231.872 159.895 228.375 159.895 228.375Z" fill="#FFB27D"/>
<path d="M181.975 224.315C183.07 226.083 185.016 230.522 187.514 231.98C189.15 232.934 191.371 231.607 192.523 230.91C192.155 230.257 191.728 229.506 191.386 228.581C190.468 228.79 189.349 229.059 188.624 229.276C187.219 229.698 181.975 224.315 181.975 224.315Z" fill="#163560"/>
<path d="M172.74 231.721C172.74 231.721 176.773 230.582 177.735 230.849C178.696 231.115 181.988 233.291 181.524 233.883C181.061 234.474 178.162 233.529 176.827 233.709C175.492 233.888 174.46 234.545 173.499 234.402C172.537 234.259 171.534 233.883 171.534 233.883L172.74 231.721Z" fill="#FFB27D"/>
<path d="M172.74 231.721C172.74 231.721 174.714 230.708 175.276 230.132C175.346 230.059 175.466 230.074 175.522 230.16C175.671 230.396 175.812 230.855 175.12 231.309C174.124 231.964 172.74 231.721 172.74 231.721Z" fill="#FFB27D"/>
<path d="M191.382 237.387H172.563C172.563 236.56 173.234 235.89 174.063 235.89H191.382V237.387Z" fill="#ED7D2B"/>
<path d="M191.329 216.922H220.425L213.447 237.388H184.16L191.329 216.922Z" fill="#ED7D2B"/>
<path d="M220.855 216.924L213.874 237.385H184.59L191.759 216.924H220.855Z" fill="#F99746"/>
<path d="M205.167 226.965C204.985 227.748 204.206 228.381 203.422 228.381C202.638 228.381 202.151 227.748 202.33 226.965C202.512 226.182 203.291 225.549 204.075 225.549C204.859 225.549 205.348 226.184 205.167 226.965Z" fill="#F9DDBF"/>
<path d="M220.854 216.924L213.874 237.387H194.48C207.326 233.009 210.746 219.66 211.321 216.924H220.854Z" fill="#ED893E"/>
<path d="M136.383 300C136.751 300 137.067 299.742 137.129 299.39L140.784 278.709L146.041 248.966L147.511 240.648L143.766 240.542L143.117 245.37L138.556 279.3L135.852 299.411C135.809 299.723 136.059 300 136.383 300Z" fill="#95C0F4"/>
<path d="M143.117 245.37C145.543 246.439 146.041 248.966 146.041 248.966L147.511 240.648L143.766 240.542L143.117 245.37Z" fill="#78ACEA"/>
<path d="M229.506 300C229.139 300 228.822 299.742 228.76 299.39L225.106 278.709L219.849 248.966L218.379 240.648L222.123 240.542L222.773 245.37L227.333 279.3L230.038 299.411C230.081 299.723 229.831 300 229.506 300Z" fill="#95C0F4"/>
<path d="M222.773 245.37C220.348 246.439 219.849 248.966 219.849 248.966L218.379 240.648L222.123 240.542L222.773 245.37Z" fill="#78ACEA"/>
<path d="M133.884 243.914H229.76C231.016 243.914 232.044 242.888 232.044 241.634V239.663C232.044 238.409 231.016 237.383 229.76 237.383H133.884C132.628 237.383 131.601 238.409 131.601 239.663V241.634C131.601 242.888 132.628 243.914 133.884 243.914Z" fill="#78ACEA"/>
<path d="M564.334 299.802H0.64084C0.288378 299.802 0 299.514 0 299.162V298.945C0 298.593 0.288378 298.305 0.64084 298.305H564.334C564.687 298.305 564.975 298.593 564.975 298.945V299.162C564.975 299.516 564.687 299.802 564.334 299.802Z" fill="#2E3552"/>
<path d="M372.031 233.903C372.031 233.903 369.545 236.983 370.322 237.403C371.1 237.823 373.155 238.608 373.64 238.113C374.125 237.618 374.276 233.988 374.276 233.988L372.031 233.903Z" fill="#FFB27D"/>
<path d="M372.132 233.954C372.132 233.954 371.115 234.306 370.716 234.834C370.316 235.363 369.432 236.167 369.648 236.391C369.863 236.615 371.134 235.628 371.134 235.628L372.132 233.954Z" fill="#FFB27D"/>
<path d="M381.433 192.777C381.433 192.777 378.63 218.832 378.38 219.575C378.327 219.737 378.107 220.56 377.797 221.748C377.355 223.443 376.733 225.879 376.142 228.193C375.249 231.691 374.43 234.92 374.43 234.92L371.997 234.12C371.997 234.12 371.871 221.458 372.497 218.542C373.125 215.625 375.127 197.712 376.137 195.302C377.148 192.89 381.433 192.777 381.433 192.777Z" fill="#AEC3FF"/>
<path d="M375.603 255.258L360.315 251.255C358.326 250.734 357.124 248.682 357.645 246.695L359.382 240.079C359.903 238.091 361.958 236.893 363.949 237.413L379.237 241.416C381.226 241.937 382.428 243.988 381.905 245.976L380.168 252.592C379.649 254.579 377.594 255.778 375.603 255.258Z" fill="#A02E2E"/>
<path d="M361.4 240.603L359.642 247.296C359.302 248.593 359.691 249.915 360.552 250.825C360.838 251.128 361.176 251.386 361.556 251.58C361.556 251.58 361.556 251.58 361.558 251.58C361.795 251.704 362.049 251.802 362.318 251.873L377.581 255.867C379.578 256.39 381.64 255.187 382.165 253.193L383.923 246.5C384.447 244.506 383.242 242.446 381.245 241.923L375.99 240.548L376.366 239.121C376.539 238.462 376.141 237.784 375.481 237.611L374.905 237.46L371.709 236.624L370.914 236.417C370.596 236.334 370.261 236.378 369.974 236.545C369.688 236.711 369.485 236.98 369.402 237.298L369.026 238.724L365.982 237.927C365.86 237.895 365.741 237.871 365.621 237.852C365.619 237.852 365.619 237.852 365.619 237.852C364.395 237.658 363.184 238.091 362.351 238.933C361.908 239.383 361.571 239.951 361.4 240.603ZM375.24 240.352L369.778 238.923L370.154 237.496C370.218 237.251 370.472 237.101 370.718 237.167L372.089 237.526L374.606 238.185L375.285 238.362C375.332 238.375 375.375 238.394 375.413 238.417C375.58 238.522 375.667 238.726 375.616 238.925L375.24 240.352Z" fill="#BC3F3F"/>
<path d="M373.484 238.181C373.484 238.181 374.163 237.04 373.909 236.641C373.655 236.242 372.739 237.825 372.739 237.825C372.739 237.825 373.364 236.466 373.132 236.242C372.899 236.018 371.94 237.58 371.94 237.58C371.94 237.58 372.536 236.259 372.326 236.215C372.117 236.17 371.406 237.324 371.406 237.324C371.406 237.324 371.775 236.336 371.438 236.383C371.1 236.43 370.37 237.332 370.37 237.332L373.484 238.181Z" fill="#FFB27D"/>
<path d="M377.797 221.746C377.354 223.441 376.733 225.877 376.141 228.191C375.759 227.12 375.276 225.416 374.968 223.081C374.404 218.769 376.137 209.583 376.137 209.583L377.797 221.746Z" fill="#9DB0F4"/>
<path d="M409.867 232.83C409.867 232.83 412.577 235.029 412.913 235.716C413.248 236.402 414.09 238.945 414.045 239.764C414 240.583 411.968 237.889 411.37 237.671C410.772 237.454 411.994 238.778 411.857 239.062C411.721 239.346 410.45 238.418 409.963 238.115C409.478 237.812 409.136 235.756 408.414 234.636C407.692 233.519 409.867 232.83 409.867 232.83Z" fill="#FFB27D"/>
<path d="M374.3 298.655H387.813C388.781 298 387.553 291.589 387.553 291.589C387.553 291.589 383.863 290.192 383.227 293.033C382.588 295.872 378.529 296.776 376.381 297.121C374.911 297.362 374.445 298.169 374.3 298.655Z" fill="#233862"/>
<path d="M394.341 298.655H407.854C408.822 298 407.594 291.589 407.594 291.589C407.594 291.589 403.905 290.192 403.268 293.033C402.629 295.872 398.571 296.776 396.422 297.121C394.954 297.362 394.489 298.169 394.341 298.655Z" fill="#233862"/>
<path d="M377.936 233.267C377.936 233.267 378.542 240.834 379.258 249.928C380.228 262.283 382.845 292.915 382.845 292.915C382.845 292.915 384.56 294.376 388.36 293.577C388.36 293.577 391.594 283.009 392.562 270.946C392.577 270.748 392.592 270.55 392.607 270.351C393.506 258.073 394.905 232.216 394.905 232.216L377.936 233.267Z" fill="#2B478B"/>
<path d="M377.729 230.652C377.729 230.652 378.542 240.834 379.258 249.927L392.564 270.948C392.579 270.749 392.594 270.551 392.609 270.353C393.508 258.075 394.907 232.217 394.907 232.217L377.729 230.652Z" fill="#233862"/>
<path d="M381.605 230.652C381.605 230.652 391.257 254.637 394.341 263.727C396.539 270.204 402.736 292.919 402.736 292.919C402.736 292.919 405.432 293.738 407.696 292.156C407.696 292.156 410.001 268.945 405.344 262.402C402.873 258.93 404.729 226.308 394.711 226.028C384.692 225.751 381.605 230.652 381.605 230.652Z" fill="#2B478B"/>
<path d="M399.995 232.83C395.971 235.097 378.732 235.046 377.933 233.267C376.15 229.294 375.703 209.107 376.545 202.914C376.545 202.914 376.981 193.398 377.933 193.818C384.301 190.896 394.608 193.549 394.608 193.549C397.387 194.366 397.148 200.707 397.923 209.611C398.024 210.758 398.133 211.955 398.256 213.19C398.805 218.688 399.602 225.005 400.816 231.667C400.899 232.107 400.593 232.495 399.995 232.83Z" fill="#AEC3FF"/>
<path d="M389.847 192.481C389.74 194.183 387.516 193.991 384.842 193.381C382.169 192.773 383.137 191.199 383.137 191.199C383.137 191.199 383.175 189.99 383.346 188.542C383.408 188.015 383.485 187.454 383.588 186.91C383.635 186.644 383.688 186.381 383.748 186.127C384.096 184.63 389.088 186.074 389.052 186.477C388.954 187.565 389.742 191.144 389.847 192.481Z" fill="#FFB27D"/>
<path d="M384.117 195.452L383.906 193.1L386.865 193.658L385.726 195.757L384.117 195.452Z" fill="#233862"/>
<path d="M383.201 190.092L381.433 192.777C381.433 192.777 381.433 194.428 382.966 195.626L385.384 193.378C385.387 193.378 383.823 192.783 383.201 190.092Z" fill="#9DB0F4"/>
<path d="M385.386 193.379C385.386 193.379 385.888 195.174 386.856 195.998C386.856 195.998 390.631 194.984 391.532 193.052L389.565 190.519C389.565 190.519 389.469 192.436 385.386 193.379Z" fill="#9DB0F4"/>
<path d="M389.08 187.324C389.08 187.324 386.677 188.919 383.346 188.541C383.408 188.015 383.485 187.454 383.588 186.91C384.246 186.75 384.795 186.652 384.795 186.652L389.08 187.324Z" fill="#E2915A"/>
<path d="M390.605 185.511C389.43 188.738 385.145 187.914 383.319 187.396C382.804 187.251 382.486 187.129 382.486 187.129C381.922 186.874 381.747 185.89 381.796 184.649C381.894 182.192 382.864 178.724 383.423 177.888C384.263 176.63 385.662 175.353 389.819 177.133C393.98 178.914 392.111 181.375 390.605 185.511Z" fill="#FFB27D"/>
<path d="M393.816 183.854C392.504 184.922 389.685 186.899 389.685 186.899C389.685 186.899 389.999 186.528 390.381 185.462C390.424 185.34 390.439 185.163 390.432 184.976C390.415 184.453 390.543 183.931 390.817 183.485C390.988 183.206 391.052 182.918 390.834 182.713C390.477 182.376 389.868 182.685 389.471 182.958C389.208 183.137 388.862 183.148 388.591 182.979C388.589 182.979 388.587 182.977 388.587 182.977C387.465 182.276 388.702 181.041 387.792 180.015C386.88 178.989 382.937 178.848 383.095 178.206C381.749 177.447 382.597 174.645 382.623 174.495C382.623 174.495 384.556 174.666 386.967 174.065C388.926 173.574 391.086 174.83 391.769 175.346C391.769 175.223 391.748 175.05 391.661 174.869C391.661 174.869 391.957 175.161 391.951 175.502C391.981 175.532 391.994 175.553 391.985 175.558C391.985 175.558 392.376 175.549 392.603 175.7C392.603 175.7 392.436 175.647 392.357 175.747C392.348 175.758 392.336 175.767 392.323 175.773C394.944 177.624 394.905 182.965 393.816 183.854Z" fill="#233862"/>
<path d="M384.406 185.044C384.406 185.044 384.195 185.451 383.135 185.114C383.135 185.114 382.244 184.831 382.392 184.364C382.392 184.362 383.353 184.244 384.406 185.044Z" fill="white"/>
<path d="M384.118 195.452C384.118 195.452 381.757 225.242 381.789 227.724C381.821 230.207 384.406 232.832 384.406 232.832C384.406 232.832 386.465 230.582 386.867 228.208C387.268 225.835 385.728 195.759 385.728 195.759L384.118 195.452Z" fill="#2A4E96"/>
<path d="M394.61 193.551C394.61 193.551 398.421 194.462 401.435 200.242C404.449 206.021 406.829 217.677 408.267 220.754C409.706 223.832 410.691 233.521 410.691 233.521L408.414 234.636C408.414 234.636 402.913 224.706 402.102 221.45C401.662 219.688 394.937 205.584 394.937 205.584L394.61 193.551Z" fill="#AEC3FF"/>
<path d="M399.995 232.83C399.993 232.83 399.993 232.83 399.991 232.83C392.814 231.8 394.871 208.084 395.435 207.99C395.999 207.896 398.062 212.23 398.062 212.23L398.259 213.192C398.808 218.69 399.604 225.007 400.818 231.67C400.899 232.107 400.593 232.495 399.995 232.83Z" fill="#9DB0F4"/>
<path d="M489.542 284.636C489.542 284.636 492.53 287.359 491.947 289.294C491.364 291.228 488.668 292.518 488.303 294.884C487.937 297.249 486.481 298.537 485.169 298.537C483.857 298.537 478.914 298.537 478.914 298.537C478.914 298.537 477.949 296.873 480.281 296.372C482.614 295.871 483.494 293.092 483.347 290.514C483.202 287.935 483.565 284.495 483.565 284.495L488.521 283.348L489.542 284.636Z" fill="#233862"/>
<path d="M452.881 291.678C452.881 291.678 453.418 297.873 452.106 298.52L435.316 298.486C435.316 298.486 435.316 296.551 438.014 296.12C440.71 295.69 445.448 294.113 446.251 290.603C447.05 287.092 452.881 291.678 452.881 291.678Z" fill="#233862"/>
<path d="M438.706 204.148C438.706 204.148 439.593 215.01 440.633 228.067C442.047 245.803 443.75 267.589 443.916 271.715C444.207 278.881 445.375 290.345 445.375 290.345C445.375 290.345 448.144 293.068 453.685 291.921C453.685 291.921 458.621 275.556 460.031 258.241C460.053 257.957 460.076 257.671 460.097 257.386C461.409 239.758 463.449 202.643 463.449 202.643L438.706 204.148Z" fill="#2A4E96"/>
<path d="M438.706 204.148C438.706 204.148 439.593 215.01 440.633 228.067L460.031 258.243C460.053 257.959 460.076 257.673 460.097 257.387C461.409 239.76 463.449 202.645 463.449 202.645L438.706 204.148Z" fill="#233862"/>
<path d="M442.75 205.439C442.75 205.439 458.711 244.775 469.208 263.261C479.705 281.748 482.984 286.907 482.984 286.907C482.984 286.907 488.997 284.542 489.544 282.93C489.544 282.93 485.53 247.24 478.502 238.541C474.531 233.625 471.105 222.718 471.278 217.557C471.572 208.657 468.225 198.343 468.225 198.343L442.75 205.439Z" fill="#2A4E96"/>
<path d="M430.004 206.017C430.004 206.017 427.024 210.046 426.804 211.121C426.584 212.196 426.327 216.035 426.684 217.158C427.041 218.282 428.899 213.806 429.651 213.29C430.403 212.774 429.181 215.051 429.474 215.399C429.766 215.744 431.202 214 431.768 213.403C432.334 212.808 432.069 209.824 432.672 208.009C433.274 206.194 430.004 206.017 430.004 206.017Z" fill="#FFB27D"/>
<path d="M443.147 147.465C443.147 147.465 439.121 184.896 438.762 185.963C438.683 186.195 438.369 187.379 437.922 189.085C437.288 191.521 436.393 195.018 435.542 198.345C434.261 203.37 432.877 207.717 432.877 207.717C432.877 207.717 432.268 208.109 430.802 207.985C429.803 207.9 429.262 207.047 429.262 207.047C429.262 207.047 429.41 188.669 430.307 184.481C431.208 180.29 434.083 154.556 435.538 151.093C436.989 147.627 443.147 147.465 443.147 147.465Z" fill="white"/>
<path d="M437.922 189.085C437.288 191.521 436.393 195.018 435.543 198.345C434.996 196.808 434.299 194.359 433.859 191.005C433.05 184.811 435.538 171.614 435.538 171.614L437.922 189.085Z" fill="#DCEAFF"/>
<path d="M469.814 205.008C464.034 208.265 439.268 208.192 438.121 205.635C435.557 199.928 434.916 170.927 436.126 162.031C436.126 162.031 436.751 148.361 438.121 148.964C447.268 144.769 462.075 148.578 462.075 148.578C466.068 149.753 465.724 158.86 466.839 171.652C466.982 173.301 467.14 175.02 467.319 176.794C468.108 184.694 469.253 193.767 470.996 203.338C471.113 203.967 470.673 204.526 469.814 205.008Z" fill="white"/>
<path d="M455.236 147.04C455.082 149.487 451.888 149.209 448.047 148.333C444.209 147.461 445.597 145.198 445.597 145.198C445.597 145.198 445.653 143.46 445.896 141.378C445.986 140.621 446.095 139.817 446.242 139.034C446.311 138.652 446.386 138.275 446.471 137.91C446.973 135.758 454.144 137.836 454.093 138.414C453.952 139.979 455.084 145.119 455.236 147.04Z" fill="#FFB27D"/>
<path d="M447.003 151.308L446.699 147.93L450.95 148.729L449.314 151.747L447.003 151.308Z" fill="#233862"/>
<path d="M445.687 143.607L443.147 147.465C443.147 147.465 443.147 149.839 445.352 151.56L448.825 148.331C448.825 148.331 446.58 147.476 445.687 143.607Z" fill="#DCEAFF"/>
<path d="M448.825 148.331C448.825 148.331 449.545 150.909 450.936 152.093C450.936 152.093 456.359 150.636 457.652 147.864L454.828 144.223C454.828 144.221 454.691 146.977 448.825 148.331Z" fill="#DCEAFF"/>
<path d="M454.131 139.631C454.131 139.631 450.679 141.924 445.896 141.38C445.986 140.623 446.095 139.819 446.242 139.036C447.187 138.808 447.977 138.665 447.977 138.665L454.131 139.631Z" fill="#E2915A"/>
<path d="M456.323 137.027C454.635 141.664 448.477 140.48 445.856 139.736C445.117 139.527 444.66 139.354 444.66 139.354C443.85 138.987 443.598 137.575 443.668 135.792C443.807 132.262 445.204 127.28 446.005 126.08C447.21 124.273 449.22 122.437 455.195 124.994C461.17 127.549 458.487 131.085 456.323 137.027Z" fill="#FFB27D"/>
<path d="M460.937 134.645C459.051 136.18 455.001 139.021 455.001 139.021C455.001 139.021 455.452 138.49 456.003 136.957C456.065 136.782 456.086 136.528 456.077 136.257C456.054 135.506 456.235 134.756 456.631 134.116C456.878 133.715 456.966 133.301 456.654 133.007C456.142 132.523 455.268 132.966 454.695 133.359C454.317 133.617 453.822 133.632 453.433 133.391C453.431 133.388 453.429 133.388 453.426 133.386C451.816 132.38 453.593 130.605 452.286 129.132C450.974 127.658 445.309 127.457 445.536 126.532C443.6 125.442 444.82 121.415 444.856 121.202C444.856 121.202 447.631 121.447 451.098 120.584C453.911 119.878 457.013 121.682 457.996 122.426C457.996 122.249 457.966 122 457.84 121.739C457.84 121.739 458.265 122.16 458.258 122.65C458.301 122.693 458.32 122.723 458.308 122.731C458.308 122.731 458.869 122.721 459.196 122.936C459.196 122.936 458.957 122.861 458.844 123.004C458.831 123.021 458.814 123.032 458.795 123.043C462.556 125.696 462.501 133.369 460.937 134.645Z" fill="#BC3F3F"/>
<path d="M447.417 136.357C447.417 136.357 447.114 136.942 445.593 136.458C445.593 136.458 444.314 136.05 444.527 135.378C444.525 135.376 445.905 135.208 447.417 136.357Z" fill="white"/>
<path d="M447.003 151.308C447.003 151.308 443.611 194.106 443.658 197.672C443.705 201.237 447.415 205.008 447.415 205.008C447.415 205.008 450.371 201.777 450.95 198.365C451.527 194.952 449.314 151.747 449.314 151.747L447.003 151.308Z" fill="#2A4E96"/>
<path d="M469.815 205.008C469.813 205.008 469.813 205.008 469.808 205.008C459.497 203.526 462.452 169.457 463.261 169.323C464.071 169.189 467.036 175.412 467.036 175.412L467.32 176.794C468.108 184.694 469.253 193.766 470.996 203.338C471.114 203.967 470.674 204.526 469.815 205.008Z" fill="#DCEAFF"/>
<path d="M500.124 230.387L478.321 236.722C475.484 237.547 472.485 235.903 471.66 233.07L468.911 223.637C468.084 220.805 469.731 217.811 472.568 216.987L494.372 210.653C497.208 209.828 500.208 211.472 501.032 214.304L503.781 223.738C504.608 226.57 502.963 229.562 500.124 230.387Z" fill="#A02E2E"/>
<path d="M471.784 222.795L474.565 232.337C475.104 234.184 476.563 235.527 478.297 236.016C478.872 236.178 479.478 236.246 480.094 236.205C480.096 236.205 480.096 236.205 480.096 236.205H480.098C480.48 236.182 480.867 236.116 481.251 236.005L503.014 229.681C505.862 228.854 507.515 225.851 506.686 223.008L503.905 213.464C503.074 210.621 500.066 208.97 497.219 209.798L489.725 211.975L489.132 209.939C488.858 208.998 487.867 208.456 486.925 208.729L486.103 208.968L481.544 210.293L480.412 210.621C479.957 210.753 479.579 211.056 479.35 211.472C479.122 211.89 479.068 212.37 479.201 212.824L479.795 214.861L475.454 216.121C475.281 216.17 475.116 216.23 474.954 216.294C474.954 216.296 474.952 216.296 474.95 216.296H474.948C473.296 216.96 472.122 218.384 471.72 220.037V220.039C471.508 220.918 471.513 221.863 471.784 222.795ZM488.655 212.283L480.867 214.545L480.273 212.509C480.171 212.159 480.373 211.79 480.726 211.687L482.683 211.12L486.269 210.077L487.237 209.796C487.303 209.777 487.369 209.768 487.436 209.77C487.717 209.774 487.978 209.962 488.061 210.248L488.655 212.283Z" fill="#BC3F3F"/>
<path d="M482.123 206.192C482.123 206.192 481.446 211.837 482.715 211.756C483.984 211.675 487.083 211.067 487.297 210.097C487.508 209.124 484.922 204.59 484.922 204.59L482.123 206.192Z" fill="#FFB27D"/>
<path d="M482.286 206.177C482.286 206.177 481.316 207.38 481.232 208.327C481.149 209.274 480.686 210.928 481.121 211.035C481.555 211.142 482.35 208.975 482.35 208.975L482.286 206.177Z" fill="#FFB27D"/>
<path d="M462.078 148.578C462.078 148.578 467.555 149.888 471.882 158.19C476.212 166.493 479.63 183.239 481.698 187.66C483.766 192.079 485.338 205.343 485.338 205.343C485.338 205.343 485.015 206.002 483.902 206.243C483.037 206.431 482.151 206.356 482.151 206.356C482.151 206.356 474.01 193.336 472.841 188.659C472.209 186.127 462.55 165.866 462.55 165.866L462.078 148.578Z" fill="white"/>
<path d="M101.439 293.135L100.619 287.233L104.064 284.358L105.151 292.171L101.439 293.135Z" fill="#FFB27D"/>
<path d="M112.884 298.404H98.8324C98.8324 298.404 98.4949 296.267 99.2297 294.644C99.9325 293.087 101.028 292.128 101.127 290.936C102.019 291.853 103.117 292.443 105.149 292.17C105.399 292.573 106.755 294.73 107.586 295.325C108.507 295.984 112.602 295.749 112.884 298.404Z" fill="#233862"/>
<path d="M110.06 213.464C109.142 220.843 108.39 227.803 107.779 234.286C104.508 268.838 105.151 289.957 105.151 289.957C105.151 289.957 104.914 290.582 102.887 290.59C101.742 290.597 100.619 290.347 100.619 290.347C100.619 290.347 93.2981 267.785 93.862 254.946C93.9304 253.402 94.1119 251.998 94.4324 250.789C96.1883 244.22 87.9321 219.099 96.9081 209.743C105.882 200.388 110.483 210.077 110.06 213.464Z" fill="#F99746"/>
<path d="M110.06 213.464C109.142 220.843 108.39 227.803 107.779 234.286L93.862 254.946C93.9304 253.402 94.1119 251.998 94.4324 250.789C96.1883 244.22 87.9321 219.099 96.9081 209.743C105.882 200.388 110.483 210.077 110.06 213.464Z" fill="#ED7D2B"/>
<path d="M121.119 143.069C121.119 143.069 120.779 141.382 120.399 140.096C120.23 139.527 121.407 135.788 122.221 135.328C123.035 134.867 125.156 137.386 124.556 139.32C124.248 140.314 123.742 143.545 123.742 143.545L121.119 143.069Z" fill="#FFB27D"/>
<path d="M121.119 143.07C121.119 143.07 120.677 142.093 120.277 141.933C119.878 141.775 119.449 140.176 119.156 139.542C119.156 139.542 119.44 139.128 119.936 139.662C120.239 139.988 120.912 140.941 120.912 140.941L121.119 143.07Z" fill="#FFB27D"/>
<path d="M63.1143 148.74C63.0289 148.917 62.9093 149.235 62.8024 149.533C62.8003 149.452 62.8003 149.371 62.7982 149.292C62.7918 148.699 60.5723 145.466 59.6581 145.264C58.7438 145.061 57.4557 148.089 58.5964 149.764C59.1817 150.623 60.6129 153.566 60.6129 153.566L62.9797 152.346C62.9797 152.346 63.1165 151.282 63.4518 151.013C63.7872 150.745 63.7274 149.092 63.8235 148.399C63.8257 148.399 63.4326 148.085 63.1143 148.74Z" fill="#FFB27D"/>
<path d="M77.8749 291.365C77.6762 289.473 77.6271 284.497 77.6271 284.497C77.6271 284.497 82.7047 282.876 82.5188 283.99C81.6003 289.46 81.8502 292.169 81.8502 292.169L79.7974 293.393L77.8749 291.365Z" fill="#FFB27D"/>
<path d="M105.82 213.113C105.82 213.113 86.2039 266.8 82.3418 290.087C82.3418 290.087 81.4467 290.701 79.7784 290.497C77.8858 290.266 77.3667 288.953 77.3667 288.953C77.3667 288.953 73.8228 261.042 80.8657 251.35C85.704 244.694 78.7787 215.454 90.0489 213.111C101.321 210.769 105.82 213.113 105.82 213.113Z" fill="#F99746"/>
<path d="M102.336 161.468C102.336 161.466 102.336 161.466 102.336 161.468C102.331 161.443 102.327 161.419 102.319 161.398C102.203 160.924 102.079 160.459 101.945 159.999C101.945 159.997 101.945 159.997 101.945 159.997C101.535 158.585 101.046 157.241 100.518 156.053C100.215 155.373 99.9006 154.742 99.578 154.181C99.5289 154.093 99.4819 154.012 99.4349 153.931L99.4328 153.929C98.6744 152.658 97.8947 151.777 97.192 151.506C95.9103 151.011 94.4833 151.15 93.5007 151.353C93.7165 151.052 94.2056 150.881 94.2056 150.881C93.5776 150.881 92.2959 151.692 92.2959 151.692C83.2601 149.674 83.7899 162.434 84.4051 165.326C85.0181 168.218 82.1087 169.624 78.0073 172.584C70.1784 178.231 70.3087 184.216 70.3087 184.216C70.3792 184.246 70.4561 184.28 70.5373 184.32C70.8513 183.546 71.5199 182.081 72.2206 181.77C72.2013 181.838 71.631 183.738 71.4686 184.8C72.6606 185.457 74.3118 186.472 76.1041 187.62C76.1041 187.62 76.1041 187.62 76.1062 187.622C78.5051 189.153 81.1496 190.917 83.2708 192.348C83.1704 191.766 83.07 190.934 83.2174 190.465L83.8924 192.555L83.98 192.828C85.3343 193.743 86.4024 194.477 86.9428 194.852C86.9983 194.89 87.0475 194.924 87.0923 194.954C87.2504 195.063 87.3358 195.123 87.3358 195.123C87.1564 194.385 87.9446 192.459 89.2712 190.032C89.363 189.863 89.4592 189.691 89.5574 189.516C89.9846 188.748 90.4631 187.94 90.978 187.106C91.1638 186.805 91.3496 186.502 91.544 186.197C91.544 186.195 91.5462 186.195 91.5462 186.195C91.7021 185.948 91.8602 185.702 92.0225 185.453L92.0246 185.451C92.4092 184.858 92.8065 184.261 93.2123 183.664C94.2633 182.115 95.3741 180.577 96.4742 179.168C98.0699 177.114 99.6357 175.329 100.947 174.162C100.99 174.075 101.031 173.983 101.067 173.894C101.272 173.418 101.43 172.889 101.552 172.352C101.59 172.189 101.624 172.027 101.654 171.865C101.981 170.148 101.988 168.444 101.983 168.039C102.088 169.698 102.047 170.95 101.936 171.895C101.911 172.102 101.883 172.294 101.853 172.473V172.475C101.783 172.878 101.703 173.213 101.616 173.49C101.83 173.224 102.02 172.934 102.186 172.614C102.295 172.407 102.396 172.187 102.483 171.959C103.536 169.259 103.252 165.239 102.336 161.468Z" fill="#163560"/>
<path d="M100.638 174.397C100.668 174.406 98.1087 176.255 95.9363 175.997C93.8941 175.753 92.2322 173.403 92.26 173.395C93.0674 173.107 93.1358 171.929 92.3881 167.033L92.7748 167.05L99.2793 167.361C99.2793 167.361 99.431 169.368 99.7065 171.238C99.9372 172.806 100.253 174.282 100.638 174.397Z" fill="#FFB27D"/>
<path d="M99.2812 167.359C99.2812 167.359 99.4329 169.366 99.7084 171.237C96.1582 171.663 93.8106 168.72 92.7788 167.048L99.2812 167.359Z" fill="#ED975D"/>
<path d="M92.0204 166.459C92.0204 166.459 89.7326 163.812 88.9145 161.379C88.3313 159.643 88.2566 152.893 95.0538 152.856C95.0538 152.856 97.0147 152.758 99.0163 153.716C100.608 154.475 103.007 156.271 101.535 162.388L101.219 164.426L92.0204 166.459Z" fill="#163560"/>
<path d="M110.88 212.082C110.88 212.082 102.417 217.105 91.7898 214.522C91.6638 214.492 83.0402 213.117 83.0402 213.117C83.1876 212.712 84.3027 206.06 84.4479 205.689C86.3341 200.832 89.7776 174.47 92.6571 173.169C93.3919 173.968 95.4939 174.514 97.2904 174.357C99.3603 174.173 100.055 173.282 99.8815 172.32C102.174 173.401 103.934 174.408 103.934 174.408C106.029 177.539 110.88 212.082 110.88 212.082Z" fill="white"/>
<path d="M100.725 168.954C100.725 168.954 92.3813 170.334 91.5995 165.132C90.8198 159.931 89.2156 156.606 94.5111 155.505C99.8065 154.405 101.142 156.235 101.825 157.907C102.507 159.581 102.874 168.461 100.725 168.954Z" fill="#FFB27D"/>
<path d="M98.3008 154.812C98.3008 154.812 96.9208 161.255 93.5393 162.68C90.16 164.104 88.4938 163.39 88.4938 163.39C88.4938 163.39 90.8713 160.852 90.8756 157.037C90.8756 157.037 96.1411 152.165 98.3008 154.812Z" fill="#163560"/>
<path d="M97.8073 155.392C97.8073 155.392 99.7213 156.501 100.334 157.764C100.95 159.026 101.543 161.726 102.325 161.515C102.325 161.515 103.432 157.111 101.144 155.053C98.7173 152.869 97.8073 155.392 97.8073 155.392Z" fill="#163560"/>
<path d="M123.797 143.189C123.458 143.069 122.958 142.788 122.306 142.728C121.725 142.677 120.995 142.865 120.995 142.865C120.995 142.865 118.641 157.476 118.466 158.25C118.29 159.024 108.368 170.185 105.694 170.14C103.278 170.1 100.415 171.961 99.8856 172.32C99.8856 172.32 105.512 184.197 105.792 186.428C106.097 188.855 109.009 226.242 109.009 226.242C109.009 226.242 108.836 227.982 112.091 227.046C115.347 226.111 116.161 225.337 116.161 225.337C116.161 225.337 113.17 195.906 112.544 186.752C112.461 185.523 112.26 184.387 111.974 183.337C111.698 182.326 111.916 181.243 112.534 180.396C116.648 174.757 123.146 165.619 123.509 163.678C124.037 160.822 123.797 143.189 123.797 143.189Z" fill="#2B478B"/>
<path d="M89.581 298.404H75.5295C75.5295 298.404 75.192 296.267 75.9268 294.644C76.6296 293.087 77.7255 292.128 77.8237 290.936C78.7166 291.853 79.8146 292.443 81.8461 292.17C82.096 292.573 83.4524 294.73 84.2834 295.325C85.2041 295.984 89.299 295.749 89.581 298.404Z" fill="#233862"/>
<path d="M99.234 187.582C98.7598 184.673 92.7145 172.99 92.7145 172.99C92.7145 172.99 88.893 171.849 86.3766 172.759C83.8603 173.67 70.8448 166.331 70.4283 165.657C70.0117 164.981 63.0394 152.012 63.0394 152.012C63.0394 152.012 62.4605 151.677 61.5355 152.159C60.6191 152.637 60.6149 153.567 60.6149 153.567C60.6149 153.567 65.9958 169.897 67.427 172.422C68.29 173.945 75.5464 179.249 81.173 183.22C82.2475 183.98 82.8114 185.27 82.6341 186.571C81.8779 192.154 81.6857 195.3 80.8141 204.88C80.0921 212.829 79.8166 228.217 79.8166 228.217C79.8166 228.217 86.1118 230.392 90.4588 230.68C94.8037 230.968 95.75 226.395 95.75 226.395C95.75 226.395 99.721 190.574 99.234 187.582Z" fill="#2B478B"/>
<path d="M97.9911 166.382C97.9911 166.382 99.0058 166.977 100.202 166.798C101.022 166.674 101.208 165.704 101.208 165.704C101.208 165.704 100.638 165.525 99.7278 165.706C98.8178 165.89 97.9911 166.382 97.9911 166.382Z" fill="white"/>
<path d="M364.508 67.232C364.508 67.232 360.603 60.3049 364.508 58.8951C368.413 57.4854 370.18 58.7863 370.365 60.3624C370.551 61.9407 368.879 68.1597 368.879 68.1597L364.508 67.232Z" fill="#FFB27D"/>
<path d="M367.635 111.537C360.516 112.819 353.971 113.412 348.064 113.544C342.457 113.67 337.424 113.38 333.019 112.868C331.836 112.731 330.702 112.58 329.61 112.416C318.084 110.671 311.72 107.576 311.72 107.576C311.72 107.576 322.251 85.5667 330.757 86.4113C340.737 87.4051 357.651 96.3455 359.332 93.8396C361.225 91.0137 362.81 66.7837 362.81 66.7837C367.236 63.7574 369.876 66.948 369.876 66.948C369.876 66.948 378.521 109.577 367.635 111.537Z" fill="#F99746"/>
<path d="M367.635 111.537C360.516 112.819 353.971 113.412 348.064 113.544C342.457 113.67 337.424 113.38 333.019 112.868C330.364 104.437 328.454 95.8251 333.795 101.016C343.217 110.174 367.635 111.537 367.635 111.537Z" fill="#ED7D2B"/>
<path d="M310.921 289.241C310.921 289.241 310.162 297.989 312.017 298.9L335.723 298.851C335.723 298.851 335.723 296.119 331.915 295.513C328.106 294.905 321.418 292.681 320.286 287.722C319.153 282.766 310.921 289.241 310.921 289.241Z" fill="#233862"/>
<path d="M328.326 183.346C328.209 189.068 327.933 194.97 327.395 200.272C324.834 225.438 323.934 255.846 323.567 261.707C322.928 271.884 320.916 288.142 320.916 288.142C320.916 288.142 316.922 291.928 309.137 290.121C309.137 290.121 302.686 266.706 301.247 242.05C301.225 241.644 301.202 241.239 301.182 240.832C301.016 237.571 300.841 233.845 300.661 229.825C299.476 202.903 298.188 162.912 298.188 162.912L327.938 155.938C327.933 155.938 328.619 169.083 328.326 183.346Z" fill="#2A4E96"/>
<path d="M328.326 183.346C320.787 196.332 306.416 220.259 300.659 229.825C299.473 202.903 298.185 162.912 298.185 162.912L327.935 155.938C327.933 155.938 328.619 169.083 328.326 183.346Z" fill="#233862"/>
<path d="M253 158.188C253 158.188 248.159 163.872 247.723 165.448C247.288 167.024 246.512 172.702 246.929 174.408C247.343 176.114 250.562 169.65 251.733 168.961C252.904 168.27 250.855 171.531 251.254 172.077C251.654 172.621 253.965 170.172 254.867 169.345C255.768 168.517 255.678 164.058 256.761 161.422C257.844 158.786 253 158.188 253 158.188Z" fill="#FFB27D"/>
<path d="M251.865 279.298C251.865 279.298 247.647 283.143 248.469 285.873C249.291 288.605 253.1 290.427 253.615 293.764C254.13 297.102 256.187 298.923 258.041 298.923C259.893 298.923 266.872 298.923 266.872 298.923C266.872 298.923 268.235 296.573 264.943 295.865C261.649 295.157 260.408 291.233 260.613 287.592C260.818 283.95 260.303 279.093 260.303 279.093L253.305 277.475L251.865 279.298Z" fill="#233862"/>
<path d="M323.246 163.522C323.246 163.522 295.397 223.013 280.577 249.115C265.756 275.218 261.125 282.503 261.125 282.503C261.125 282.503 252.634 279.163 251.863 276.888C251.863 276.888 257.53 226.496 267.455 214.211C273.062 207.269 279.65 186.439 279.959 179.155C280.269 171.87 286.774 154.484 286.774 154.484L323.246 163.522Z" fill="#2A4E96"/>
<path d="M331.387 166.327C331.387 166.327 320.313 173.719 304.638 173.033C297.76 172.732 284.114 170.785 281.912 165.323C281.395 164.041 281.773 162.414 282.551 159.914C284.563 153.422 289.256 141.059 287.84 113.647C287.707 111.096 287.78 108.699 288.024 106.453C289.5 92.9506 297.25 84.955 304.741 82.3424C323.009 75.9677 329.099 84.7993 329.099 84.7993C329.099 84.7993 337.174 91.1868 338.391 104.516C340.825 131.184 331.387 166.327 331.387 166.327Z" fill="#F99746"/>
<path d="M310.094 80.8151C310.094 80.8151 318.476 85.9059 327.568 84.4664C327.568 84.4664 329.364 84.0099 328.482 81.9028C329.035 80.203 328.969 80.3566 329.289 79.0919C330.086 76.185 330.33 74.5065 330.33 74.5065L325.171 69.0915L320.283 63.9175C318.933 76.2831 310.094 80.8151 310.094 80.8151Z" fill="#FFB27D"/>
<path d="M319.502 68.6074C319.502 68.6074 322.309 76.0997 329.29 79.0919C330.086 76.185 330.605 73.1416 330.605 73.1416L325.171 69.0916L319.502 68.6074Z" fill="#ED985F"/>
<path d="M336.119 74.2442C336.119 74.2442 320.119 76.2404 318.995 66.4234C317.872 56.6065 315.05 50.2531 325.22 48.5639C335.388 46.8748 337.806 50.4024 338.992 53.5908C340.175 56.7771 340.252 73.4721 336.119 74.2442Z" fill="#FFB27D"/>
<path d="M313.944 46.9684C313.805 46.7978 313.478 46.6528 312.739 46.5845C312.739 46.5845 313.346 46.2369 314.138 46.2476C314.332 45.2239 314.95 43.4238 316.74 43.0485C316.74 43.0485 315.768 43.5198 315.601 44.6096C317.735 42.5814 322.193 41.2143 334.346 42.6347C350.358 44.5073 344.676 54.5737 342.551 55.719C340.425 56.8643 335.318 53.3112 331.432 53.4711C327.547 53.6311 326.598 59.1932 325.254 59.9098C323.911 60.6264 324.479 59.2913 322.732 58.4212C320.984 57.551 320.702 60.4878 321.145 62.4201C321.587 64.3523 319.047 66.7836 319.047 66.7836C319.047 66.7836 319.047 66.7836 316.678 64.0345C314.309 61.2855 312.408 49.9543 313.621 47.5997C313.728 47.3907 313.835 47.1796 313.944 46.9684Z" fill="#2C3A64"/>
<path d="M362.809 62.6354L335.646 62.8785L335.461 58.7986L362.538 56.7021L362.809 62.6354Z" fill="#2A4E96"/>
<path d="M383.314 63.318L353.739 63.7446L353.402 56.3269L382.891 54.0449L383.314 63.318Z" fill="#2A4E96"/>
<path d="M403.255 63.9004L378.315 63.9302L377.86 53.9171L402.699 51.6606L403.255 63.9004Z" fill="#233862"/>
<path d="M403.611 65.5892C404.38 65.5551 404.976 64.9025 404.942 64.1347L404.357 51.27C404.323 50.5022 403.669 49.9072 402.9 49.9435C402.131 49.9776 401.535 50.6302 401.571 51.398L402.157 64.2626C402.191 65.0304 402.842 65.6255 403.611 65.5892Z" fill="#233862"/>
<path d="M335.561 63.7484C334.877 63.7804 334.296 63.2515 334.266 62.569L334.115 59.2313C334.083 58.5488 334.612 57.9709 335.296 57.9389C335.98 57.9069 336.561 58.4358 336.59 59.1183L336.742 62.456C336.774 63.1385 336.244 63.7164 335.561 63.7484Z" fill="#2A4E96"/>
<path d="M282.551 159.916C284.563 153.424 289.256 141.061 287.84 113.649C287.708 111.098 287.78 108.701 288.024 106.455H288.026C294.037 105.939 303.229 112.429 303.229 112.429C303.229 112.429 297.568 146.881 282.551 159.916Z" fill="#ED7D2B"/>
<path d="M310.094 80.8149C310.094 80.8149 294.678 83.4617 286.637 93.2616C278.597 103.061 265.662 116.879 262.606 121.719C259.547 126.558 251.058 159.489 251.058 159.489C251.058 159.489 251.617 160.547 253.959 161.163C256.199 161.752 257.825 160.839 257.825 160.839C257.825 160.839 269.072 141.621 273.306 132.02C275.064 128.031 305.48 112.234 316.915 113.87C321.407 114.512 310.094 80.8149 310.094 80.8149Z" fill="#F99746"/>
<path d="M362.647 55.5335C362.647 55.5335 365.962 57.5574 367.947 56.7022C369.931 55.8448 369.756 55.0621 369.756 55.0621C369.756 55.0621 363.762 53.4007 362.647 55.5335Z" fill="#FFB27D"/>
<path d="M325.053 91.5494C325.053 91.5494 318.288 134.193 270.287 146.61L265.058 156.909L274.243 158.462C274.243 158.462 328.89 142.656 328.155 90.7944L325.053 91.5494Z" fill="#BC3F3F"/>
<path d="M324.004 84.7437L321.789 84.9591V88.1624L325.053 91.5492L328.157 90.7963V86.3517L325.925 84.7437H324.004Z" fill="#A02E2E"/>
<path d="M315.311 76.2637C315.311 76.2637 313.166 76.7478 308.263 80.8149C308.263 80.8149 313.14 91.1501 323.428 92.3871C323.428 92.3871 323.261 87.5906 324.005 84.7455C324.005 84.7434 315.851 81.828 315.311 76.2637Z" fill="#ED7D2B"/>
<path d="M324.005 84.7436C324.005 84.7436 329.025 87.4053 329.396 91.5513C329.396 91.5513 331.314 88.5164 330.759 86.4136C330.202 84.3107 328.482 81.9028 328.482 81.9028C328.482 81.9028 328.653 84.4344 324.005 84.7436Z" fill="#ED7D2B"/>
</svg>
