<svg width="467" height="428" viewBox="0 0 467 428" fill="none" xmlns="http://www.w3.org/2000/svg">
<path opacity="0.1" d="M436 376.499C436 365.179 339.63 355.999 220.74 355.999C101.85 355.999 5.47998 365.179 5.47998 376.499C5.47998 382.719 34.59 388.299 80.54 392.059C86.91 398.259 123.09 402.999 166.77 402.999C198.04 402.999 225.46 400.569 240.86 396.909C350.31 395.939 436 387.179 436 376.499Z" fill="#320032"/>
<path opacity="0.1" d="M379.78 427.999C427.95 427.999 467 422.224 467 415.099C467 407.975 427.95 402.199 379.78 402.199C331.61 402.199 292.56 407.975 292.56 415.099C292.56 422.224 331.61 427.999 379.78 427.999Z" fill="#320032"/>
<path d="M294.83 203.099C292.93 200.409 290.74 197.909 288.31 195.669C284.03 191.719 279.09 188.569 273.62 186.319C268.54 184.229 263.22 183.029 257.79 182.759C257.74 182.689 257.67 182.619 257.6 182.569C257.59 182.459 257.59 182.339 257.58 182.229C257.57 181.879 257.56 181.519 257.57 181.169C257.59 180.459 257.66 179.759 257.78 179.079C258.01 177.719 258.41 176.409 258.97 175.189C259.56 173.909 260.31 172.719 261.2 171.669C261.41 171.419 261.63 171.179 261.85 170.929C262.56 170.129 263.3 169.309 263.81 168.309C264.91 166.179 264.56 163.519 262.9 161.539C261.24 159.549 258.56 158.899 256.23 159.919C254.91 160.499 253.8 161.519 253.11 162.789C252.75 163.449 252.52 164.139 252.43 164.859C252.31 165.759 252.46 166.599 252.64 167.379C252.7 167.659 252.9 167.869 253.17 167.949C253.45 168.029 253.76 167.959 253.98 167.759C254.19 167.559 254.27 167.279 254.21 166.989C254.04 166.239 253.94 165.609 254.04 164.979C254.12 164.469 254.3 163.969 254.57 163.499C255.13 162.509 256.05 161.709 257.08 161.309C258.11 160.909 259.19 160.929 260.13 161.359C261.01 161.769 261.78 162.509 262.29 163.449C262.79 164.389 262.98 165.419 262.82 166.359C262.61 167.569 261.8 168.579 260.91 169.579C260.04 170.559 259.05 171.719 258.29 173.049C257.56 174.309 256.99 175.669 256.61 177.079C256.17 178.689 255.96 180.339 256 181.979C256 182.179 256.01 182.379 256.02 182.589C255.97 182.629 255.93 182.669 255.89 182.709C250.25 182.909 244.7 184.119 239.38 186.309C233.92 188.559 228.98 191.709 224.69 195.659C222.26 197.899 220.07 200.399 218.17 203.089C218.01 203.319 217.98 203.599 218.09 203.849C218.21 204.109 218.47 204.289 218.77 204.319C219.06 204.349 219.34 204.219 219.51 203.979C222.76 199.369 226.86 195.409 231.69 192.199C236.44 189.039 241.64 186.789 247.12 185.489C250.21 184.759 253.37 184.349 256.5 184.289C259.65 184.359 262.81 184.759 265.9 185.489C271.39 186.789 276.58 189.039 281.33 192.199C286.16 195.409 290.26 199.369 293.51 203.979C293.67 204.209 293.92 204.329 294.17 204.329C294.34 204.329 294.51 204.279 294.66 204.169C295 203.919 295.08 203.459 294.83 203.099Z" fill="#213150"/>
<path d="M214.37 232.029C219.26 233.359 224.02 235.439 228.4 237.999C230.82 239.409 233.1 240.969 235.25 242.669C236.51 237.279 237.21 231.739 237.3 226.189C237.43 218.089 236.94 198.669 229.43 193.279C228.05 192.289 226.15 191.899 224.22 192.209C222.66 192.459 221.06 193.139 219.33 194.289C212.41 198.879 210.15 206.409 208.84 213.169C207.95 217.759 207.32 222.549 206.65 227.629C206.52 228.609 206.39 229.599 206.26 230.589C209.05 230.729 211.88 231.349 214.37 232.029Z" fill="#F0626E"/>
<path d="M283.65 239.459C284.27 237.789 284.93 236.119 285.67 234.359C285.7 234.409 285.72 234.449 285.75 234.499C286.23 232.899 286.91 231.349 287.69 229.819C289.23 226.779 290.75 223.719 292.34 220.709C295.39 214.909 299.09 209.049 303.18 203.869C294.24 193.019 282.64 186.309 269.23 183.069C267.16 189.949 263.63 197.769 256.59 199.179C246.98 201.099 241.71 191.509 241.92 182.879C232.13 185.299 223.08 190.359 215.77 197.589C215.94 197.439 216.56 197.989 217.39 198.889C220.7 204.359 223.52 210.119 225.79 216.089C226.55 218.089 227.24 220.109 227.88 222.149C227.18 229.409 226.59 236.679 226.14 243.959C225.3 257.429 222.4 270.359 219.66 283.479C222.34 284.029 225.05 284.409 227.6 284.749C243.94 286.929 260.56 287.059 276.69 283.419C282.05 282.209 287.33 280.709 292.56 279.039C291.41 273.509 290.16 267.709 288.77 261.489C287.15 254.199 285.42 246.789 283.65 239.459Z" fill="#213150"/>
<path d="M282.52 235.029C282.75 236.799 282.97 238.569 283.19 240.339C284.74 239.459 286.3 238.669 287.7 237.989C292.07 235.829 296.65 234.169 301.39 233.019C305.27 232.079 309.15 231.449 313.05 231.109C312.71 229.319 312.32 227.549 311.85 225.789C309.79 217.979 304.09 199.529 295.46 196.279C295.43 196.269 295.4 196.259 295.37 196.239C293.77 195.659 291.84 195.799 290.07 196.619C288.63 197.289 287.28 198.369 285.92 199.949C280.5 206.239 280.36 214.099 280.94 220.969C281.31 225.509 281.9 230.139 282.52 235.029Z" fill="#F0626E"/>
<path d="M273.62 194.379C273.49 190.309 272.28 185.779 269.08 183.019C266.99 189.779 263.46 197.289 256.58 198.659C246.8 200.609 241.52 190.649 241.93 181.899C241.34 182.199 240.77 182.569 240.24 183.029C237.04 185.789 235.83 190.319 235.7 194.389C235.56 199.059 236.98 203.859 240.44 207.129C243.38 209.909 248.89 212.229 252.04 208.529C253.38 206.949 254.1 204.879 254.65 202.889C255.2 204.879 255.91 206.949 257.26 208.529C260.41 212.239 265.92 209.909 268.86 207.129C272.34 203.849 273.77 199.049 273.62 194.379Z" fill="#F0626E"/>
<path d="M337.68 215.419C335.78 212.729 333.59 210.229 331.16 207.989C326.88 204.039 321.94 200.889 316.47 198.639C311.39 196.549 306.07 195.349 300.64 195.079C300.59 195.009 300.52 194.939 300.45 194.889C300.44 194.779 300.44 194.659 300.43 194.549C300.42 194.199 300.41 193.839 300.42 193.489C300.44 192.779 300.51 192.079 300.63 191.399C300.86 190.039 301.26 188.729 301.82 187.509C302.41 186.229 303.16 185.039 304.05 183.989C304.26 183.739 304.48 183.499 304.7 183.249C305.41 182.449 306.15 181.629 306.66 180.629C307.76 178.499 307.41 175.839 305.75 173.859C304.09 171.869 301.41 171.219 299.08 172.239C297.76 172.819 296.65 173.839 295.96 175.109C295.6 175.769 295.37 176.459 295.28 177.179C295.16 178.079 295.31 178.919 295.49 179.699C295.55 179.979 295.75 180.189 296.02 180.269C296.3 180.349 296.61 180.279 296.83 180.079C297.04 179.879 297.12 179.599 297.06 179.309C296.89 178.559 296.79 177.929 296.89 177.299C296.97 176.789 297.15 176.289 297.42 175.819C297.98 174.829 298.9 174.029 299.93 173.629C300.96 173.229 302.04 173.249 302.98 173.679C303.86 174.089 304.63 174.829 305.14 175.769C305.64 176.709 305.83 177.739 305.67 178.679C305.46 179.889 304.65 180.899 303.76 181.899C302.89 182.879 301.9 184.039 301.14 185.369C300.41 186.629 299.84 187.989 299.46 189.399C299.02 191.009 298.81 192.659 298.85 194.299C298.85 194.499 298.86 194.699 298.87 194.909C298.82 194.949 298.78 194.989 298.74 195.029C293.1 195.229 287.55 196.439 282.23 198.629C276.77 200.879 271.83 204.029 267.54 207.979C265.11 210.219 262.92 212.719 261.02 215.409C260.86 215.639 260.83 215.919 260.94 216.169C261.06 216.429 261.32 216.609 261.62 216.639C261.91 216.669 262.19 216.539 262.36 216.299C265.61 211.689 269.71 207.729 274.54 204.519C279.29 201.359 284.49 199.109 289.97 197.809C293.06 197.079 296.22 196.669 299.35 196.609C302.5 196.679 305.66 197.079 308.75 197.809C314.24 199.109 319.43 201.359 324.18 204.519C329.01 207.729 333.11 211.689 336.36 216.299C336.52 216.529 336.77 216.649 337.02 216.649C337.19 216.649 337.36 216.599 337.51 216.489C337.85 216.239 337.93 215.779 337.68 215.419Z" fill="#00BCC0"/>
<path d="M270.77 221.689C266.13 221.689 261.55 221.319 257.08 220.449C256.34 222.059 255.72 223.699 255.15 225.299C253.6 229.709 252.26 234.349 250.85 239.269L250.32 241.099C249.67 242.919 249.15 244.449 248.68 245.909C247.15 250.629 245.8 255.449 244.66 260.259C244.06 262.789 243.51 265.409 242.96 268.279C241.53 268.169 240.25 268.099 239.05 268.039C236.52 267.929 234.05 267.899 231.98 267.899C230.66 267.889 229.32 267.899 227.98 267.899C223.49 267.909 218.84 267.929 214.32 267.579L214.05 267.559L214.03 267.829C213.86 270.179 213.37 272.759 212.51 275.699C212 277.449 211.38 279.159 210.65 280.789L210.55 281.019L210.77 281.139C212.28 281.949 213.46 282.519 214.59 282.999C218.85 284.819 223.37 286.099 227.74 287.339L228.57 287.569C232.62 288.719 236.77 289.709 240.9 290.509C245.43 291.389 249.86 292.169 254.25 292.119C254.56 292.119 254.86 292.099 255.14 292.009C255.22 291.979 255.29 291.949 255.37 291.919C255.62 291.799 255.84 291.629 256.03 291.469C261.13 287.439 264.66 283.479 268.19 277.799C278.18 261.729 283.32 242.559 282.28 225.209C282.25 224.709 282.22 224.169 282.2 223.589C282.16 222.769 282.12 221.879 282.05 220.959C278.3 221.469 274.49 221.679 270.77 221.689Z" fill="#FE9E54"/>
<path d="M269.02 247.139C273.77 257.929 279.43 268.529 274.7 280.369C272.11 286.859 267.97 292.449 263.71 297.959C265.95 299.109 268.12 300.479 270.25 301.599C274.43 303.789 278.8 305.649 283.33 306.969C300.07 311.849 317.59 311.899 334.56 308.509C334.38 307.819 334.2 307.129 334.02 306.449C331.56 297.309 328.42 288.459 323.93 280.089C319.61 272.019 321.78 267.789 324.47 259.579C328.82 246.299 335.45 234.109 341.37 223.929C341.42 223.849 341.44 223.759 341.44 223.659C341.44 222.019 341.23 220.439 340.81 218.959C340.07 216.389 338.9 214.069 337.41 211.979C326.55 218.969 314.32 224.189 301.34 223.999C292.51 223.869 283.69 220.829 275.83 216.959C271.48 214.819 267.36 212.339 263.6 209.419C260.79 212.039 258.59 215.179 257.5 218.959C257.08 220.429 256.86 222.009 256.87 223.659C256.87 223.749 256.9 223.849 256.94 223.929C261.28 231.479 265.49 239.139 269.02 247.139Z" fill="#FE9E54"/>
<path d="M310.42 239.179H208.06V366.419H310.42V239.179Z" fill="#77758A"/>
<path d="M346.97 239.179H244.61V366.419H346.97V239.179Z" fill="#908DA6"/>
<path d="M279.95 245.909H250.89V262.779H279.95V245.909Z" fill="#F2EDF7"/>
<path d="M385.04 290.179H304.52V370.699H385.04V290.179Z" fill="#4D9998"/>
<path d="M356.29 290.179H275.77V370.699H356.29V290.179Z" fill="#00BCC0"/>
<path d="M351.35 294.609H328.49V307.879H351.35V294.609Z" fill="#F2EDF7"/>
<path d="M191 134.219C184.11 127.929 179.84 119.229 179.84 109.629C179.84 90.4294 196.89 74.8594 217.91 74.8594C238.94 74.8594 255.98 90.4294 255.98 109.629C255.98 128.829 238.93 144.399 217.91 144.399C211.65 144.399 205.75 143.009 200.54 140.569C197.19 142.749 193.62 144.639 190.13 146.559C189.44 146.939 188.77 146.319 188.89 145.609C189.52 141.789 190.24 137.999 191 134.219Z" fill="#F2EDF7"/>
<path d="M237 102.989C237.1 97.9191 232.67 94.6691 227.81 95.3791C224.43 95.8691 219.96 98.1491 218.01 101.439C216.7 98.9191 214.79 96.7191 212.3 95.3291C209.25 93.6291 205.03 93.6291 202.16 95.7191C199 98.0191 198.75 102.029 199.5 105.569C200.4 109.789 202.5 113.669 205.2 116.999C208.45 121.019 212.74 125.239 217.46 127.459C217.57 127.509 217.68 127.519 217.8 127.499C217.94 127.569 218.1 127.579 218.29 127.499C220.8 126.419 223.04 124.539 225.18 122.859C227.39 121.129 229.38 119.109 231.11 116.899C234.18 112.969 236.9 108.089 237 102.989Z" fill="#F0626E"/>
<path d="M204.61 207.289C203.9 205.799 203.12 204.349 202.27 202.939C201.42 201.529 200.47 200.189 199.6 198.809C198.69 197.369 197.89 195.869 197.48 194.199C197.06 192.509 196.99 190.759 196.94 189.029C196.88 187.309 196.84 185.569 196.5 183.879C196.22 182.489 195.72 181.139 195 179.909C194.11 178.369 192.9 176.999 191.49 175.909C191.21 173.299 190.39 170.749 189.16 168.439C187.49 165.309 185.06 162.579 182.13 160.579C179.18 158.569 175.73 157.329 172.16 157.179C170.53 157.109 168.88 157.279 167.3 157.709C167.42 157.599 167.55 157.499 167.67 157.399C168.27 156.849 168.88 156.299 169.43 155.699C169.82 155.279 170.16 154.749 170.03 154.149C169.79 153.039 168.38 152.609 167.43 152.999C166.18 153.509 165.46 154.909 164.83 156.029C164.7 156.259 164.58 156.489 164.46 156.729C164.63 156.179 164.78 155.629 164.9 155.069C165.07 154.259 165.19 153.429 165.25 152.599C165.3 151.869 165.24 151.069 164.76 150.479C164.36 149.989 163.7 149.689 163.08 149.909C162.55 150.099 162.23 150.589 162.07 151.109C161.86 151.779 161.88 152.499 161.9 153.189C161.92 154.059 162 154.939 162.11 155.799C162.14 155.999 162.18 156.189 162.21 156.389C159.44 153.429 154.81 152.259 150.86 152.539C146.03 152.889 141.54 154.959 137.89 158.059C134.4 157.819 130.85 158.659 127.77 160.309C123.37 162.669 120.13 166.709 118.27 171.289C118.11 171.689 117.96 172.099 117.82 172.509C114.68 173.989 111.89 176.239 109.75 178.979C105.72 184.139 103.98 190.779 104.03 197.259C104.06 200.869 104.56 204.459 104.45 208.069C104.4 209.849 104.19 211.629 103.69 213.349C103.26 214.829 102.6 216.229 101.86 217.579C100.41 220.209 98.62 222.659 97.36 225.389C96.11 228.099 95.57 231.009 96.17 233.959C96.77 236.889 98.38 239.609 100.71 241.499C102.88 243.259 105.57 244.299 108.35 244.549C109.35 246.199 110.45 247.819 111.86 249.139C113.41 250.579 115.31 251.509 117.39 251.879C119.54 252.259 121.75 252.089 123.87 251.579C124.42 251.449 124.97 251.279 125.51 251.109C126.33 253.359 127.7 255.429 129.41 257.119C132.66 260.349 137.07 262.159 141.51 262.999C146.28 263.909 151.37 263.959 156.02 262.449C159.86 261.199 163.32 258.949 166.22 256.149C167.76 254.669 169.14 253.039 170.38 251.309C173.27 254.179 177.05 256.149 181.09 256.729C186.73 257.539 193.22 255.489 195.7 249.979C196.38 248.459 196.73 246.789 196.65 245.139C198.54 244.059 200.27 242.689 201.77 241.109C205.65 237.019 207.96 231.729 208.47 226.139C209.04 219.649 207.39 213.119 204.61 207.289Z" fill="#213150"/>
<path d="M133.64 247.409C110.03 239.429 78.97 235.409 69.02 210.139C67.63 210.469 66.24 210.809 64.85 211.179C62.75 211.729 60.41 212.699 58.16 212.659C58.75 214.689 59.12 216.819 59.63 218.779C62.51 229.929 65.61 241.069 73.12 249.979C76.76 254.299 81.03 258.039 85.75 261.199C95.11 267.489 105.89 271.629 117.04 273.329C124.9 274.529 144.16 276.729 150.47 270.049C151.67 268.779 152.2 266.969 152.16 265.229C152.12 263.479 151.55 261.789 150.79 260.209C147.37 253.169 140.71 249.799 133.64 247.409Z" fill="#FFBAA6"/>
<path d="M120.19 243.019C103.9 238.289 87.06 233.389 76.51 221.739C76.41 221.629 76.24 221.619 76.13 221.719C71.6 225.749 66.95 227.949 62.3 228.279C62.22 228.289 62.14 228.329 62.1 228.399C62.05 228.469 62.04 228.549 62.07 228.629C64.98 238.069 68.32 244.709 72.91 250.149C76.46 254.359 80.73 258.159 85.59 261.419C94.88 267.659 105.74 271.869 116.99 273.599C124.97 274.819 144.17 276.939 150.59 270.319C150.61 270.299 150.64 270.269 150.66 270.249C151.83 269.019 152.47 267.189 152.42 265.239C152.38 263.659 151.92 261.979 151.02 260.109C147.41 252.639 140.25 249.369 133.73 247.169C129.4 245.689 124.93 244.389 120.19 243.019Z" fill="#00BCC0"/>
<path d="M113.48 262.929C118.82 244.339 146.69 238.959 163.04 241.999C174.66 244.159 192.07 250.059 195.77 262.929C196.2 264.429 196.39 265.949 196.38 267.479C189.73 278.929 183.59 290.569 179.44 303.239C177.12 310.319 175.37 317.559 174.5 324.969C174.38 325.989 174.29 326.999 174.22 328.019C173.73 328.399 173.22 328.759 172.67 329.089C162.55 335.279 146.83 335.359 136.58 329.089C136.03 328.749 135.51 328.389 135.03 328.019C134.96 326.999 134.87 325.989 134.75 324.969C133.88 317.569 132.13 310.319 129.81 303.239C125.66 290.569 119.52 278.929 112.87 267.479C112.87 265.949 113.05 264.429 113.48 262.929Z" fill="#FFBAA6"/>
<path d="M113.48 262.929C118.82 244.339 146.69 238.959 163.04 241.999C174.66 244.159 192.07 250.059 195.77 262.929C196.2 264.429 196.39 265.949 196.38 267.479C189.73 278.929 183.59 290.569 179.44 303.239C177.12 310.319 175.37 317.559 174.5 324.969C174.38 325.989 174.29 326.999 174.22 328.019C173.73 328.399 173.22 328.759 172.67 329.089C162.55 335.279 146.83 335.359 136.58 329.089C136.03 328.749 135.51 328.389 135.03 328.019C134.96 326.999 134.87 325.989 134.75 324.969C133.88 317.569 132.13 310.319 129.81 303.239C125.66 290.569 119.52 278.929 112.87 267.479C112.87 265.949 113.05 264.429 113.48 262.929Z" fill="#FFBAA6"/>
<path d="M113.48 262.929C118.82 244.339 146.69 238.959 163.04 241.999C174.66 244.159 192.07 250.059 195.77 262.929C196.2 264.429 196.39 265.949 196.38 267.479C189.73 278.929 183.59 290.569 179.44 303.239C177.12 310.319 175.37 317.559 174.5 324.969C174.38 325.989 174.29 326.999 174.22 328.019C173.73 328.399 173.22 328.759 172.67 329.089C162.55 335.279 146.83 335.359 136.58 329.089C136.03 328.749 135.51 328.389 135.03 328.019C134.96 326.999 134.87 325.989 134.75 324.969C133.88 317.569 132.13 310.319 129.81 303.239C125.66 290.569 119.52 278.929 112.87 267.479C112.87 265.949 113.05 264.429 113.48 262.929Z" fill="#FFBAA6"/>
<path d="M196.03 262.859C191.92 248.559 171.63 243.329 163.09 241.739C146.09 238.579 118.56 244.279 113.22 262.859C112.8 264.309 112.59 265.869 112.6 267.489C112.6 267.539 112.61 267.579 112.64 267.619C118.56 277.809 125.2 290.019 129.56 303.319C132.05 310.939 133.67 318.029 134.49 324.999C134.61 325.979 134.7 326.999 134.77 328.039C134.78 328.119 134.81 328.189 134.87 328.229C135.38 328.629 135.91 328.989 136.44 329.319C141.54 332.439 148.08 333.999 154.62 333.999C161.16 333.999 167.7 332.439 172.8 329.319C173.34 328.989 173.86 328.619 174.37 328.229C174.43 328.179 174.47 328.109 174.47 328.039C174.54 327.019 174.63 325.999 174.75 324.999C175.57 318.029 177.18 310.939 179.68 303.319C184.04 290.019 190.68 277.809 196.6 267.619C196.62 267.579 196.64 267.529 196.64 267.489C196.66 265.859 196.45 264.309 196.03 262.859Z" fill="#00BCC0"/>
<path d="M125.02 203.749C124.94 203.419 124.85 203.079 124.75 202.759C123.95 200.179 122.42 197.799 120.19 196.299C112.71 191.289 104.87 199.719 107.23 207.379C108.54 211.649 112.91 214.769 117.37 214.619C120.14 214.529 122.95 213.169 124.34 210.769C125.56 208.679 125.58 206.089 125.02 203.749Z" fill="#FFBAA6"/>
<path opacity="0.4" d="M119.97 206.869C115.77 208.309 110.56 207.349 106.82 204.649C106.83 205.549 106.96 206.459 107.24 207.359C108.55 211.629 112.92 214.749 117.38 214.599C120.15 214.509 122.96 213.149 124.35 210.749C125.49 208.769 125.57 206.339 125.1 204.099C123.54 205.279 121.83 206.229 119.97 206.869Z" fill="#320032"/>
<path d="M178.98 203.749C179.06 203.419 179.15 203.079 179.25 202.759C180.05 200.179 181.58 197.799 183.81 196.299C191.29 191.289 199.13 199.719 196.77 207.379C195.46 211.649 191.09 214.769 186.63 214.619C183.86 214.529 181.05 213.169 179.66 210.769C178.45 208.679 178.43 206.089 178.98 203.749Z" fill="#FFBAA6"/>
<path opacity="0.4" d="M184.04 206.869C188.24 208.309 193.45 207.349 197.19 204.649C197.18 205.549 197.05 206.459 196.77 207.359C195.46 211.629 191.09 214.749 186.63 214.599C183.86 214.509 181.05 213.149 179.66 210.749C178.52 208.769 178.44 206.339 178.91 204.099C180.47 205.279 182.18 206.229 184.04 206.869Z" fill="#320032"/>
<path d="M164.16 222.319C157.65 224.929 150.21 224.599 143.09 222.639C142.16 230.709 141.75 238.859 141.82 246.989C141.86 251.729 142.39 256.859 145.12 260.259C147.97 263.799 152.58 264.479 156.56 263.359C159.88 262.419 163.14 260.179 164.69 256.509C165.8 253.889 165.93 250.849 165.92 247.909C165.91 246.699 165.89 245.479 165.85 244.269C165.59 236.939 164.84 229.619 164.16 222.319Z" fill="#FFBAA6"/>
<path opacity="0.4" d="M164.16 222.319C157.65 224.929 150.22 224.599 143.09 222.639C142.44 228.249 142.05 233.899 141.89 239.559C147.7 247.159 156.96 248.799 165.89 246.789C165.88 245.949 165.86 245.109 165.83 244.269C165.59 236.939 164.84 229.619 164.16 222.319Z" fill="#320032"/>
<path d="M115.88 202.319C115.87 202.909 115.86 203.499 115.86 204.089C115.85 211.779 116.97 219.719 121.04 226.339C127.35 236.609 140.06 242.139 152.45 242.519C161.46 242.799 170.83 240.499 177.57 234.729C187.83 225.949 189.95 211.299 189.22 198.089C188.32 181.889 179.18 165.509 161.09 162.779C144.66 160.299 126.93 167.389 120.01 182.399C117.14 188.639 116.05 195.499 115.88 202.319Z" fill="#FFBAA6"/>
<path opacity="0.4" d="M133.11 224.209C138.732 224.209 143.29 221.33 143.29 217.779C143.29 214.228 138.732 211.349 133.11 211.349C127.488 211.349 122.93 214.228 122.93 217.779C122.93 221.33 127.488 224.209 133.11 224.209Z" fill="#320032"/>
<path opacity="0.4" d="M171.68 224.209C177.302 224.209 181.86 221.33 181.86 217.779C181.86 214.228 177.302 211.349 171.68 211.349C166.058 211.349 161.5 214.228 161.5 217.779C161.5 221.33 166.058 224.209 171.68 224.209Z" fill="#320032"/>
<path d="M155.43 211.449C155.23 211.169 154.8 211.489 155 211.769C155.28 212.169 155.23 212.829 154.83 213.149C154.45 213.459 153.79 213.449 153.44 213.079C153.43 213.069 153.42 213.059 153.41 213.059C153.4 213.049 153.39 213.039 153.38 213.029C153.37 213.019 153.35 213.009 153.34 213.009C153.33 212.999 153.32 212.999 153.3 212.999C153.22 212.969 153.14 212.979 153.07 213.029C153.06 213.039 153.05 213.049 153.04 213.059C152.19 213.539 151.07 213.339 150.37 212.679C149.58 211.929 149.6 210.769 150.21 209.909C150.54 209.439 151.06 209.079 151.63 208.999C151.79 209.069 152.01 208.989 152.02 208.769C152.08 207.549 152.09 206.319 152.05 205.099C152.04 204.759 151.5 204.749 151.51 205.099C151.54 206.229 151.53 207.369 151.49 208.499C150.26 208.739 149.33 209.829 149.22 211.079C149.11 212.389 150.1 213.489 151.34 213.789C151.97 213.939 152.63 213.879 153.21 213.579C153.63 213.899 154.19 213.999 154.71 213.839C155.3 213.649 155.69 213.079 155.72 212.469C155.73 212.099 155.64 211.749 155.43 211.449Z" fill="#213150"/>
<path d="M170.15 206.109C170.57 206.109 170.98 206.139 171.39 206.189C171.5 205.839 171.57 205.459 171.57 205.069C171.57 203.439 170.51 202.119 169.21 202.119C167.91 202.119 166.85 203.439 166.85 205.069C166.85 205.559 166.95 206.029 167.12 206.429C168.19 206.199 169.26 206.109 170.15 206.109Z" fill="#213150"/>
<path d="M131.86 200.829C132.06 199.159 133.23 197.669 134.8 197.089C136.41 196.499 138.31 196.939 139.53 198.129C139.78 198.369 139.42 198.769 139.17 198.529C138.08 197.469 136.41 197.069 134.96 197.599C133.55 198.119 132.55 199.459 132.37 200.939C132.34 201.289 131.82 201.169 131.86 200.829Z" fill="#213150"/>
<path d="M173.36 200.829C173.16 199.159 171.99 197.669 170.42 197.089C168.81 196.499 166.91 196.939 165.69 198.129C165.44 198.369 165.8 198.769 166.05 198.529C167.14 197.469 168.81 197.069 170.26 197.599C171.67 198.119 172.67 199.459 172.85 200.939C172.88 201.289 173.4 201.169 173.36 200.829Z" fill="#213150"/>
<path d="M156.44 217.029C156.4 217.019 156.37 217.019 156.33 217.019C153.88 217.029 151.43 217.029 148.99 217.039C148.47 217.039 148.3 217.249 148.56 218.229C149.33 221.149 150.98 223.079 152.64 223.009C154.3 222.939 155.91 220.889 156.62 217.909C156.67 217.699 156.71 217.439 156.65 217.249C156.61 217.099 156.53 217.049 156.44 217.029Z" fill="#F0626E"/>
<path d="M150.5 217.239C150.51 217.349 150.52 217.459 150.53 217.579C150.54 217.669 150.54 217.769 150.56 217.869C150.59 218.029 150.65 218.179 150.75 218.249C150.84 218.319 150.94 218.329 151.03 218.339C151.32 218.369 151.61 218.399 151.9 218.429C152.01 218.439 152.14 218.289 152.16 218.109C152.2 217.749 152.21 217.399 152.19 217.039C151.63 217.039 151.06 217.039 150.5 217.039C150.5 217.099 150.49 217.169 150.5 217.239Z" fill="#F2EDF7"/>
<path d="M153.14 217.029C153.14 217.039 153.14 217.039 153.14 217.049C153.14 217.059 153.14 217.059 153.14 217.069C153.14 217.089 153.14 217.099 153.14 217.119C153.15 217.219 153.15 217.319 153.16 217.419C153.17 217.619 153.17 217.819 153.17 218.019C153.17 218.249 153.29 218.469 153.44 218.459C153.63 218.439 153.82 218.429 154.01 218.409C154.21 218.389 154.45 218.429 154.62 218.219C154.72 218.099 154.77 217.929 154.78 217.729C154.8 217.549 154.81 217.379 154.82 217.199C154.82 217.139 154.82 217.089 154.82 217.029C154.27 217.019 153.7 217.029 153.14 217.029Z" fill="#F2EDF7"/>
<path d="M177.77 203.299C176.19 204.109 174.62 204.919 173.04 205.719C172.73 205.879 173 206.339 173.31 206.179L178.04 203.759C178.35 203.609 178.08 203.139 177.77 203.299Z" fill="#213150"/>
<path d="M177.55 207.659C176.19 207.409 174.84 207.169 173.48 206.919C173.14 206.859 173 207.369 173.34 207.439C174.7 207.689 176.05 207.929 177.41 208.179C177.74 208.239 177.89 207.719 177.55 207.659Z" fill="#213150"/>
<path d="M134.71 206.109C134.29 206.109 133.88 206.139 133.47 206.189C133.36 205.839 133.29 205.459 133.29 205.069C133.29 203.439 134.35 202.119 135.65 202.119C136.95 202.119 138.01 203.439 138.01 205.069C138.01 205.559 137.91 206.029 137.74 206.429C136.68 206.199 135.6 206.109 134.71 206.109Z" fill="#213150"/>
<path d="M127.09 203.299C128.67 204.109 130.24 204.919 131.82 205.719C132.13 205.879 131.86 206.339 131.55 206.179L126.82 203.759C126.51 203.609 126.78 203.139 127.09 203.299Z" fill="#213150"/>
<path d="M127.31 207.659C128.67 207.409 130.02 207.169 131.38 206.919C131.72 206.859 131.86 207.369 131.52 207.439C130.16 207.689 128.81 207.929 127.45 208.179C127.12 208.239 126.98 207.719 127.31 207.659Z" fill="#213150"/>
<path d="M168.74 254.499C185.34 235.909 210.37 217.079 206.55 190.189C207.93 189.789 209.3 189.399 210.69 189.029C212.79 188.469 215.31 188.159 217.24 187.009C217.72 189.069 218.45 191.099 218.98 193.059C221.98 204.169 224.78 215.389 222.64 226.849C221.61 232.399 219.73 237.769 217.2 242.839C212.16 252.929 204.83 261.849 195.97 268.839C189.73 273.769 174.06 285.179 165.27 282.489C163.6 281.979 162.25 280.669 161.42 279.129C160.6 277.589 160.25 275.829 160.14 274.089C159.64 266.289 163.76 260.079 168.74 254.499Z" fill="#FFBAA6"/>
<path d="M178.26 244.049C190.09 231.899 202.33 219.329 205.75 203.979C205.78 203.839 205.92 203.749 206.07 203.779C212 205.049 217.13 204.669 221.33 202.659C221.4 202.619 221.49 202.619 221.56 202.659C221.63 202.699 221.69 202.759 221.7 202.839C223.83 212.479 224.2 219.909 222.9 226.909C221.89 232.329 220.05 237.729 217.43 242.969C212.43 252.989 205.06 262.009 196.13 269.059C189.79 274.059 174.14 285.379 165.29 282.789C165.26 282.779 165.23 282.769 165.19 282.759C163.57 282.259 162.11 280.989 161.19 279.269C160.44 277.879 160.01 276.189 159.88 274.119C159.34 265.839 163.95 259.469 168.53 254.329C171.57 250.919 174.82 247.589 178.26 244.049Z" fill="#00BCC0"/>
<path d="M215.72 189.629C214.01 190.419 211.83 190.529 210.12 190.759C208.04 191.039 205.98 191.049 204.11 189.979C202.42 189.009 201.35 187.529 200.08 186.229C199.43 185.709 198.74 185.229 197.96 184.849C197.48 184.619 196.97 184.429 196.47 184.239C196 184.069 195.48 183.909 195.05 183.659C194.7 183.459 194.49 183.129 194.65 182.779C194.79 182.479 195.11 182.269 195.44 182.119C195.78 181.959 196.14 181.849 196.52 181.769C198.87 181.279 201.57 181.999 203.63 183.159C203.67 182.109 203.45 181.059 203.24 180.039C202.59 176.769 202.51 173.449 202.91 170.139C203.05 168.999 203 167.789 203.47 166.699C203.99 165.489 205.36 165.169 205.84 166.679C206.19 167.769 206.43 168.899 206.68 170.009C207.05 171.259 207.34 172.519 207.57 173.779C208.41 170.009 209.83 164.799 211.31 164.409C212.62 164.069 212.68 168.159 212.47 171.829C213.25 170.269 214.18 168.769 215.26 167.349C215.46 167.079 215.67 166.819 215.88 166.549C216.66 165.579 217.9 165.539 218 166.839C218.11 168.199 217.5 169.709 217.07 170.989C216.89 171.669 216.69 172.339 216.48 173.009C216.34 173.459 216.18 173.909 216.03 174.349C216.32 174.069 216.64 173.809 216.96 173.559C218.63 171.669 220.98 169.559 222.32 169.489C225.46 169.339 218.78 176.469 217.86 177.539C217.78 177.639 217.69 177.739 217.63 177.849C217.6 178.269 217.64 178.699 217.71 179.119C217.76 179.359 217.81 179.589 217.85 179.829C218.11 180.939 218.51 182.039 218.58 183.149C218.67 184.439 218.61 185.809 218.16 187.039C217.72 188.339 216.82 189.119 215.72 189.629Z" fill="#FFBAA6"/>
<path opacity="0.4" d="M213.43 188.839C212.9 186.569 211.73 184.229 209.63 183.049C207.93 182.089 205.63 181.999 204.06 183.269C203.79 183.489 203.45 183.069 203.72 182.849C205.05 181.779 206.83 181.569 208.45 181.999C210.3 182.489 211.74 183.839 212.69 185.459C213.29 186.479 213.69 187.609 213.96 188.759C214.04 189.089 213.51 189.169 213.43 188.839Z" fill="#320032"/>
<path opacity="0.4" d="M206.12 179.179C205.84 178.979 206.15 178.539 206.43 178.739C209.08 180.679 212.54 179.879 215.16 178.329C215.46 178.149 215.67 178.649 215.38 178.819C212.6 180.479 208.92 181.229 206.12 179.179Z" fill="#320032"/>
<path opacity="0.4" d="M213.69 181.429C212.58 181.839 211.34 181.829 210.25 181.379C209.93 181.249 210.12 180.749 210.44 180.879C211.4 181.279 212.5 181.299 213.48 180.939C213.8 180.819 214.02 181.309 213.69 181.429Z" fill="#320032"/>
<path opacity="0.4" d="M207.85 176.579C207.71 176.599 207.56 176.499 207.54 176.359C207.47 175.519 207.4 174.689 207.33 173.849C207.32 173.709 207.4 173.569 207.55 173.539C207.69 173.519 207.84 173.619 207.86 173.759C207.93 174.599 208 175.429 208.07 176.269C208.09 176.409 208 176.549 207.85 176.579Z" fill="#320032"/>
<path opacity="0.4" d="M211.45 174.779C211.81 173.819 212.12 172.839 212.38 171.839C212.42 171.699 212.6 171.639 212.73 171.679C212.88 171.729 212.92 171.879 212.89 172.019C212.62 173.009 212.31 173.989 211.96 174.959C211.83 175.289 211.33 175.099 211.45 174.779Z" fill="#320032"/>
<path opacity="0.4" d="M214.93 176.659C214.81 176.609 214.71 176.439 214.77 176.319C215.13 175.619 215.49 174.929 215.84 174.229C215.91 174.099 216.04 174.019 216.18 174.069C216.3 174.119 216.4 174.289 216.34 174.409C215.98 175.109 215.62 175.799 215.27 176.499C215.21 176.629 215.08 176.719 214.93 176.659Z" fill="#320032"/>
<path d="M141.03 355.499C144.17 351.149 150.32 348.809 156.12 347.429C168.93 344.369 181.14 340.049 193.71 336.049C202.58 333.229 212.06 328.919 221.44 329.069C225.67 329.139 229.72 330.479 232.97 332.649C240.78 337.839 244.25 349.579 233.27 355.779C223.94 361.049 211.16 364.419 200.94 368.239C192 371.569 183.02 374.819 174 377.979C171.11 378.999 167.99 380.359 164.81 381.499C153.76 385.459 143.56 382.819 140.4 373.549C138.6 368.249 137.11 360.929 141.03 355.499Z" fill="#FFBBA6"/>
<path d="M169.14 347.999C165.37 344.189 158.94 342.809 152.99 342.329C139.87 341.259 127.14 338.859 114.1 336.819C104.91 335.379 94.87 332.579 85.63 334.159C81.46 334.869 77.67 336.819 74.78 339.459C67.85 345.789 66.22 357.919 78.02 362.359C88.05 366.139 101.19 367.529 111.88 369.729C121.23 371.659 130.6 373.489 139.99 375.239C143 375.799 146.29 376.669 149.61 377.309C161.13 379.529 170.81 375.359 172.51 365.729C173.49 360.219 173.85 352.769 169.14 347.999Z" fill="#FFBBA6"/>
<path d="M158.74 362.169C161.54 358.179 164.79 354.269 168.32 350.819C173.98 345.299 180.84 341.179 188.28 338.209C184.41 331.879 179.63 326.109 173.76 321.169C173.09 321.249 172.42 321.439 171.76 321.609C161.57 324.299 150.8 324.199 140.48 322.189C139.32 321.959 137.26 321.149 135.43 320.809C129.71 326.189 124.2 331.709 120.59 338.359C136.66 342.089 148.63 356.049 154.27 370.619C155.24 367.619 156.9 364.789 158.74 362.169Z" fill="#FFBBA6"/>
<path d="M233.12 332.419C229.71 330.149 225.56 328.859 221.44 328.799C214.09 328.679 206.74 331.259 199.62 333.759C197.64 334.449 195.59 335.169 193.62 335.799C191.8 336.379 189.99 336.969 188.17 337.559C184.2 331.169 179.41 325.589 173.92 320.969L173.83 320.889L173.71 320.899C173.06 320.979 172.42 321.149 171.81 321.309L171.68 321.339C162.06 323.869 151.58 324.069 140.52 321.909C140.04 321.819 139.39 321.619 138.64 321.379C137.65 321.069 136.52 320.719 135.46 320.529L135.33 320.509L135.23 320.599C129.88 325.629 124.38 331.089 120.69 337.599C118.51 337.239 116.33 336.889 114.13 336.539C112.09 336.219 109.95 335.829 107.89 335.439C100.47 334.059 92.8 332.639 85.57 333.879C81.51 334.569 77.61 336.479 74.58 339.239C70.45 343.009 68.37 348.539 69.29 353.329C69.86 356.289 71.81 360.299 77.9 362.589C84.97 365.259 93.51 366.719 101.77 368.139C105.29 368.739 108.62 369.319 111.79 369.969C121 371.869 130.46 373.719 139.91 375.479C140.28 375.549 140.65 375.619 141.03 375.699C142.43 378.399 144.56 380.509 147.31 381.839C149.64 382.959 152.33 383.519 155.24 383.519C158.26 383.519 161.52 382.919 164.87 381.719C166.43 381.159 167.99 380.539 169.49 379.949C171.08 379.319 172.59 378.719 174.06 378.209C183.13 375.029 192.19 371.749 201 368.459C204.03 367.329 207.24 366.259 210.63 365.119C218.58 362.459 226.79 359.699 233.37 355.989C239.04 352.789 240.36 348.529 240.47 345.519C240.68 340.669 237.78 335.519 233.12 332.419Z" fill="#F0626E"/>
<path opacity="0.4" d="M154.26 363.639C151.35 361.529 148.07 359.939 144.62 358.949C144.29 358.849 144.15 359.369 144.48 359.469C147.9 360.449 151.12 362.029 153.99 364.109C154.27 364.309 154.54 363.839 154.26 363.639Z" fill="#320032"/>
<path d="M198.87 294.959H135.39V358.439H198.87V294.959Z" fill="#ED823A"/>
<path d="M112.61 295.069L112.822 358.549L176.302 358.338L176.09 294.858L112.61 295.069Z" fill="#FE9E54"/>
<path d="M140.78 338.58C140.78 338.24 140.79 337.89 140.79 337.55L140.8 336.63C140.81 335.74 140.82 334.86 140.83 333.98C140.83 333.86 140.84 333.49 140.58 333.22C140.41 333.05 140.17 332.96 139.87 332.95C138.45 332.94 137.03 332.92 135.61 332.91L133.66 332.89C133.59 332.89 133.49 332.89 133.37 332.91C133.82 332.15 134.26 331.4 134.7 330.66C135.34 329.58 135.99 328.49 136.62 327.4C136.63 327.4 136.63 327.41 136.64 327.41C137.34 327.84 138.09 328.28 138.99 328.81C139.04 328.84 139.09 328.87 139.14 328.9C139.35 329.04 139.62 329.21 139.99 329.25C140.14 329.26 140.28 329.21 140.38 329.11C140.48 329.01 140.53 328.86 140.51 328.71C140.51 328.69 140.51 328.67 140.51 328.66C140.51 328.59 140.5 328.49 140.44 328.38L138.56 324.63C137.81 323.13 137.05 321.63 136.3 320.13C136.1 319.73 135.76 319.54 135.31 319.56C134.66 319.59 134.01 319.61 133.36 319.63L130.84 319.71C129.32 319.76 127.81 319.8 126.29 319.85H126.25C125.65 319.81 125.52 320.23 125.5 320.36C125.46 320.57 125.51 320.88 125.94 321.09C125.95 321.1 125.97 321.1 125.98 321.11L126.32 321.31C127.07 321.76 127.82 322.2 128.6 322.65C128.66 322.68 128.71 322.72 128.77 322.75C128.74 322.81 128.7 322.88 128.65 322.95C128.4 323.38 128.14 323.81 127.88 324.22C127.34 325.1 126.79 326 126.33 326.95C125.46 328.76 125.51 330.4 126.49 331.96C127.07 332.88 127.6 333.86 128.11 334.8C128.36 335.26 128.61 335.72 128.87 336.18C130.35 338.81 132.12 341.65 135.42 342C136.3 342.09 137.19 342.09 138.05 342.1C138.57 342.1 139.12 342.1 139.65 342.12C139.67 342.12 139.69 342.12 139.71 342.12C140.04 342.12 140.28 342.04 140.47 341.86C140.73 341.61 140.76 341.26 140.76 341.01C140.76 340.22 140.77 339.39 140.78 338.58Z" fill="#F2EDF7"/>
<path d="M162.21 326.029C161.92 325.499 161.63 324.979 161.33 324.459C161.02 323.919 160.71 323.369 160.41 322.819C160.31 322.639 160.15 322.389 159.84 322.299C159.54 322.209 159.26 322.339 159.08 322.439C157.12 323.559 155.08 324.709 152.83 325.949C152.63 326.059 152.38 326.229 152.29 326.539C152.2 326.849 152.34 327.129 152.44 327.319L152.67 327.719C153.48 329.119 154.31 330.569 155.07 332.019C155.2 332.269 155.39 332.629 155.68 332.919C155.35 332.919 155.01 332.909 154.69 332.909C153.89 332.899 153.08 332.899 152.28 332.889C151.31 332.879 150.3 332.859 149.31 332.869C149.28 332.869 149.26 332.869 149.24 332.869C149.24 332.859 149.24 332.839 149.24 332.819C149.26 332.399 149.26 331.979 149.26 331.579C149.26 331.409 149.26 331.249 149.26 331.079V330.809C149.26 330.399 149.27 329.999 149.27 329.589V329.559C149.28 329.229 149.16 328.999 148.91 328.889C148.79 328.839 148.39 328.699 148.1 329.179C148.03 329.259 147.98 329.339 147.94 329.409L146.74 331.249C145.58 333.029 144.38 334.859 143.19 336.659C142.86 337.149 142.86 337.609 143.19 338.119C144.28 339.839 145.37 341.599 146.43 343.299C146.89 344.029 147.34 344.759 147.8 345.489C147.81 345.509 147.82 345.529 147.83 345.549C147.91 345.689 148.05 345.949 148.39 346.049C148.43 346.059 148.48 346.069 148.52 346.069C148.64 346.069 148.77 346.019 148.86 345.939C149.13 345.679 149.12 345.359 149.11 345.189C149.11 345.169 149.11 345.139 149.11 345.119L149.12 344.489C149.13 343.689 149.15 342.859 149.14 342.039C149.14 342.019 149.14 341.989 149.14 341.979C149.16 341.979 149.17 341.979 149.2 341.979L149.68 341.989C151.02 342.019 152.4 342.059 153.76 342.019C155.82 341.959 157.32 341.089 158.21 339.429C158.71 338.509 159.26 337.589 159.8 336.699C160.05 336.279 160.3 335.869 160.55 335.449C162.36 332.439 164.1 329.469 162.21 326.029Z" fill="#F2EDF7"/>
<path d="M159.47 313.219C159.39 313.069 159.24 312.979 159.08 312.969C158.78 312.949 158.57 313.089 158.44 313.169C158.42 313.179 158.4 313.199 158.37 313.209L157.75 313.559C157.09 313.929 156.4 314.309 155.74 314.709C155.7 314.739 155.66 314.749 155.64 314.759C155.63 314.739 155.61 314.709 155.59 314.669L155.33 314.189C154.68 312.999 154.01 311.779 153.27 310.619C152.2 308.949 150.69 308.119 148.8 308.149C147 308.179 145.16 308.149 143.39 308.119C140.89 308.079 137.87 308.249 136.08 310.359C135.32 311.249 134.75 312.259 134.2 313.239C133.92 313.739 133.63 314.249 133.32 314.729C133.19 314.929 133.15 315.129 133.2 315.329C133.27 315.639 133.52 315.779 133.69 315.879C134.23 316.199 134.76 316.509 135.3 316.829L139.99 319.599C140.11 319.669 140.3 319.779 140.52 319.779C140.58 319.779 140.64 319.769 140.7 319.759C140.9 319.709 141.07 319.569 141.2 319.359C142.1 317.819 143.01 316.289 143.92 314.759L144.46 313.849C144.5 313.769 144.54 313.699 144.56 313.629C145.03 314.469 145.5 315.299 145.97 316.129C146.55 317.159 147.13 318.189 147.72 319.219C146.92 319.649 146.12 320.109 145.35 320.549L144.87 320.819L144.84 320.829C144.53 320.969 144.37 321.189 144.37 321.479C144.37 321.599 144.42 321.719 144.5 321.809C144.71 322.029 144.97 322.039 145.1 322.039H145.14C146.43 322.119 147.72 322.189 149.01 322.259C149.52 322.289 150.03 322.309 150.54 322.339C151.71 322.399 152.92 322.459 154.11 322.539C154.14 322.539 154.18 322.539 154.21 322.539C154.67 322.549 154.99 322.349 155.21 321.939C155.97 320.499 156.74 319.059 157.51 317.619C158.14 316.439 158.76 315.269 159.39 314.089C159.4 314.079 159.41 314.059 159.42 314.049C159.46 313.929 159.67 313.609 159.47 313.219Z" fill="#F2EDF7"/>
<path d="M192.85 378.679C192.83 378.659 192.81 378.649 192.79 378.629C188.52 375.169 184.04 371.899 178.14 371.909C172.76 371.919 169.29 370.339 164.18 369.709C161.34 369.359 158.63 370.469 156.21 371.689C153.36 373.129 150.31 375.459 150.94 378.449C151.25 379.949 152.47 381.219 153.76 382.259C159.7 387.059 164.63 384.999 171.46 387.419C175.9 388.999 179.44 390.769 184.15 389.619C187.45 388.809 190.44 387.339 193.41 385.879C194.26 385.459 195.16 384.999 195.61 384.229C196.69 382.369 194.68 380.159 192.85 378.679Z" fill="#213150"/>
<path d="M167.79 368.719C154.8 364.179 141.88 359.329 129.86 352.529C114.68 343.949 99.3801 337.189 81.7201 340.839C69.8701 343.289 64.61 352.379 75.28 361.329C90.93 374.459 112.38 376.819 132.02 378.129C141.52 378.759 150.99 379.919 160.39 381.479C165.33 382.299 170.1 384.169 175.14 384.369C178.32 384.499 185.82 383.529 185.27 378.959C184.61 373.439 172.4 370.329 168.07 368.809C167.98 368.779 167.89 368.749 167.79 368.719Z" fill="#FFBAA6"/>
<path d="M160.46 365.819C150.59 362.219 139.94 357.919 130 352.299C116.4 344.609 100.32 336.729 81.67 340.579C75.12 341.939 70.56 345.289 69.48 349.559C68.51 353.419 70.5 357.669 75.11 361.529C90.74 374.639 111.78 377.049 132 378.389C139.3 378.869 146.94 379.709 154.77 380.869C158.21 376.469 160.47 371.139 160.46 365.819Z" fill="#F0626E"/>
<path d="M118.52 380.499C118.54 380.479 118.56 380.469 118.58 380.449C122.59 376.909 126.8 373.539 132.54 373.299C137.77 373.079 141.08 371.409 146.02 370.579C148.77 370.119 151.45 371.079 153.85 372.179C156.68 373.459 159.74 375.599 159.26 378.529C159.02 380.009 157.89 381.289 156.68 382.349C151.11 387.259 146.23 385.469 139.69 388.109C135.44 389.829 132.07 391.699 127.44 390.779C124.2 390.129 121.23 388.829 118.29 387.529C117.44 387.159 116.55 386.749 116.08 386.019C114.94 384.249 116.8 382.019 118.52 380.499Z" fill="#213150"/>
<path d="M143.05 369.059C155.79 363.599 168.42 357.839 180.02 350.199C194.67 340.549 209.57 332.709 227.55 335.099C239.62 336.699 245.5 345.399 235.4 355.089C220.58 369.309 199.21 373.199 179.59 375.899C170.09 377.209 160.67 379.039 151.34 381.259C146.44 382.429 141.77 384.639 136.73 385.199C133.55 385.549 125.95 385.119 126.19 380.529C126.48 374.969 138.52 370.989 142.77 369.179C142.87 369.139 142.96 369.099 143.05 369.059Z" fill="#FFBBA6"/>
<path d="M240.43 342.929C239.06 338.739 234.26 335.719 227.59 334.829C208.62 332.309 193.01 341.319 179.88 349.969C173.27 354.319 166.27 358.079 159.4 361.399C159.32 367.469 161.58 373.379 164.99 378.599C169.98 377.639 174.87 376.819 179.63 376.169C199.83 373.389 220.79 369.479 235.59 355.289C239.95 351.099 241.67 346.719 240.43 342.929Z" fill="#F0626E"/>
<path opacity="0.4" d="M210.85 336.279C209.57 336.069 208.27 336.019 206.99 336.129C207.84 335.419 208.69 334.699 209.55 333.989C209.66 333.899 209.65 333.709 209.55 333.609C209.44 333.499 209.28 333.519 209.17 333.609C208.16 334.459 207.14 335.309 206.13 336.159C206.11 336.179 206.09 336.209 206.08 336.229C204.04 336.529 202.06 337.219 200.28 338.299C199.99 338.479 200.25 338.939 200.55 338.759C203.57 336.929 207.22 336.209 210.71 336.789C211.04 336.849 211.19 336.339 210.85 336.279Z" fill="#320032"/>
<path opacity="0.4" d="M110.73 342.489C109.66 341.219 108.25 340.259 106.7 339.709C106.2 338.789 105.55 337.959 104.77 337.269C104.51 337.039 104.13 337.419 104.39 337.649C104.99 338.189 105.51 338.799 105.94 339.479C104.96 339.209 103.93 339.099 102.9 339.169C102.56 339.189 102.56 339.729 102.9 339.709C104.08 339.629 105.25 339.799 106.35 340.169C106.41 340.229 106.48 340.249 106.55 340.239C108.01 340.769 109.33 341.679 110.35 342.879C110.57 343.129 110.95 342.749 110.73 342.489Z" fill="#320032"/>
<path d="M184.08 188.109C184.4 189.719 185 191.249 186.16 192.549C187.13 193.629 188.41 194.339 189.86 194.599C188.02 179.409 178.64 164.779 161.11 162.219C144.17 159.739 125.88 166.829 118.75 181.839C116.56 186.449 115.38 191.399 114.84 196.429C115.89 196.509 116.95 196.439 118 196.189C120.75 195.539 123.19 193.879 125.01 191.799C126.57 190.019 127.67 187.919 128.51 185.739C130.41 185.359 132.27 184.659 133.9 183.869C137.58 182.089 140.78 179.409 143.18 176.179C143.34 175.969 143.48 175.739 143.63 175.519C145.82 175.939 148.07 176.089 150.31 175.929C154.51 175.619 158.56 174.129 161.9 171.659C160.63 174.109 159.95 176.839 159.93 179.599C159.93 179.939 160.48 179.949 160.48 179.599C160.5 176.779 161.24 174.009 162.59 171.539C162.31 173.889 162.75 176.309 163.91 178.409C164.08 178.709 164.56 178.439 164.39 178.139C163.15 175.899 162.78 173.269 163.26 170.789C163.3 170.989 163.34 171.179 163.4 171.379C163.93 173.339 165.04 175.159 166.71 176.399C168.23 177.529 170.09 178.049 171.97 178.149C172.15 179.939 172.76 181.699 173.75 183.199C174.93 184.989 176.62 186.369 178.63 187.199C180.33 187.919 182.21 188.199 184.08 188.109Z" fill="#213150"/>
<path d="M59.39 195.539C60.15 195.089 60.93 195.559 61.53 196.139V196.129C61.52 196.089 61.51 196.049 61.5 195.999C61.51 196.039 61.53 196.069 61.54 196.109C61.7 195.679 61.93 195.269 62.29 194.969C62.77 194.569 63.4 194.449 64.01 194.529C64.64 194.609 65.21 194.929 65.7 195.329C65.92 195.509 66.12 195.709 66.32 195.909C66.32 195.909 66.32 195.909 66.33 195.909C67.33 194.469 68.88 195.729 69.54 196.789C70.14 197.749 69.79 198.709 69.57 199.729C70.4 200.409 71.13 201.199 71.75 202.089C72.62 203.339 72.01 204.519 71.57 205.829C71 207.539 70.42 209.249 69.85 210.959C69.69 211.439 69.58 212.009 69.17 212.349C68.75 212.709 68.12 212.859 67.62 213.069L64.09 214.509L60 216.179C59.92 216.209 59.8 216.209 59.73 216.149C57.91 214.469 56.81 212.289 56.15 209.929C56.02 209.489 55.95 209.029 55.89 208.559C55.23 207.449 54.74 206.229 54.48 204.949C54.22 203.639 54.21 202.269 54.46 200.959C54.58 200.309 54.77 199.679 55.02 199.069C55.23 198.569 55.47 198.019 55.94 197.719C56.44 197.399 57.06 197.509 57.5 197.869C57.51 197.879 57.51 197.879 57.52 197.889C57.92 196.929 58.51 196.069 59.39 195.539Z" fill="#FFBAA6"/>
<path opacity="0.4" d="M61.85 196.259C62.25 196.939 62.47 197.719 62.5 198.499C63.52 198.279 64.56 198.159 65.6 198.149C65.71 198.149 65.82 198.149 65.93 198.149C65.97 197.489 65.99 196.819 65.96 196.159C65.95 195.819 66.48 195.789 66.49 196.129C66.52 196.809 66.51 197.489 66.46 198.169C67.58 198.249 68.72 198.549 69.4 199.489C69.6 199.769 69.18 200.099 68.98 199.819C68.33 198.929 67.18 198.719 66.15 198.679C64.91 198.629 63.65 198.759 62.44 199.039C61.81 199.179 61.19 199.369 60.58 199.599C60.15 199.759 59.39 199.959 59.24 200.449C59.07 200.989 59.74 201.439 60.14 201.639C60.68 201.919 61.26 202.139 61.85 202.289C62.08 202.349 62.3 202.389 62.53 202.429C62.62 202.399 62.71 202.409 62.78 202.469C63.87 202.609 64.99 202.539 66.05 202.239C66.38 202.149 66.59 202.639 66.26 202.729C66.05 202.789 65.83 202.839 65.61 202.889C65.58 202.929 65.55 202.959 65.49 202.979C63.84 203.509 63.17 205.329 63.56 206.919C64 208.709 65.49 209.959 67.06 210.789C67.36 210.949 67.16 211.449 66.85 211.279C65.07 210.349 63.44 208.929 63 206.889C62.7 205.499 63.15 203.959 64.22 203.069C63.77 203.089 63.31 203.069 62.86 203.019C62.9 204.259 62.81 205.679 61.69 206.439C60.77 207.059 59.54 206.939 58.76 206.209C58.63 206.609 58.44 206.979 58.16 207.309C57.64 207.929 56.92 208.309 56.1 208.289C55.76 208.279 55.83 207.749 56.17 207.759C56.92 207.779 57.58 207.289 57.97 206.669C58.17 206.349 58.3 205.999 58.38 205.629C58.38 205.609 58.38 205.589 58.39 205.579C58.49 205.079 58.49 204.569 58.46 204.069C58.35 202.219 57.95 200.369 57.41 198.599C57.31 198.269 57.8 198.059 57.9 198.389C58.21 199.419 58.47 200.459 58.66 201.509C58.85 202.549 59.02 203.619 59 204.679C59 204.979 58.97 205.279 58.92 205.579C59.53 206.369 60.65 206.569 61.47 205.949C62.37 205.259 62.38 203.999 62.33 202.949C62.2 202.929 62.07 202.909 61.94 202.879C61.24 202.719 60.56 202.479 59.92 202.149C59.43 201.889 58.91 201.519 58.73 200.969C58.28 199.599 60.35 199.089 61.26 198.809C61.49 198.739 61.73 198.679 61.97 198.619C61.95 197.859 61.74 197.119 61.35 196.459C61.28 196.339 61.37 196.159 61.49 196.109C61.65 196.059 61.78 196.139 61.85 196.259Z" fill="#320032"/>
<path d="M98.58 223.199C96.68 220.509 94.49 218.009 92.06 215.769C87.78 211.819 82.84 208.669 77.37 206.419C72.29 204.329 66.97 203.129 61.54 202.859C61.49 202.789 61.42 202.719 61.35 202.669C61.34 202.559 61.34 202.439 61.33 202.329C61.32 201.979 61.31 201.619 61.32 201.269C61.34 200.559 61.41 199.859 61.53 199.179C61.76 197.819 62.16 196.509 62.72 195.289C63.31 194.009 64.06 192.819 64.95 191.769C65.16 191.519 65.38 191.279 65.6 191.029C66.31 190.229 67.05 189.409 67.56 188.409C68.66 186.279 68.31 183.619 66.65 181.639C64.99 179.649 62.31 178.999 59.98 180.019C58.66 180.599 57.55 181.619 56.86 182.889C56.5 183.549 56.27 184.239 56.18 184.959C56.06 185.859 56.21 186.699 56.4 187.479C56.46 187.759 56.66 187.969 56.93 188.049C57.21 188.129 57.52 188.059 57.74 187.859C57.95 187.659 58.03 187.379 57.97 187.089C57.8 186.339 57.7 185.709 57.8 185.079C57.88 184.569 58.06 184.069 58.33 183.599C58.89 182.609 59.81 181.809 60.84 181.409C61.87 181.009 62.95 181.029 63.89 181.459C64.77 181.869 65.54 182.609 66.05 183.549C66.55 184.489 66.74 185.519 66.58 186.459C66.37 187.669 65.56 188.679 64.67 189.679C63.8 190.659 62.81 191.819 62.05 193.149C61.32 194.409 60.75 195.769 60.37 197.179C59.93 198.789 59.72 200.439 59.76 202.079C59.76 202.279 59.77 202.479 59.78 202.689C59.73 202.729 59.69 202.769 59.65 202.809C54.01 203.009 48.46 204.219 43.14 206.409C37.68 208.659 32.74 211.809 28.45 215.759C26.02 217.999 23.83 220.499 21.93 223.189C21.77 223.419 21.74 223.699 21.85 223.949C21.97 224.209 22.23 224.389 22.53 224.419C22.82 224.449 23.1 224.319 23.27 224.079C26.52 219.469 30.62 215.509 35.45 212.299C40.2 209.139 45.4 206.889 50.88 205.589C53.97 204.859 57.13 204.449 60.26 204.389C63.41 204.459 66.57 204.859 69.66 205.589C75.15 206.889 80.34 209.139 85.09 212.299C89.92 215.509 94.02 219.469 97.27 224.079C97.43 224.309 97.68 224.429 97.93 224.429C98.1 224.429 98.27 224.379 98.42 224.269C98.75 224.019 98.83 223.549 98.58 223.199Z" fill="#FE9E54"/>
<path d="M36.4 278.139C28.68 292.099 18.58 304.709 12.24 319.739C7.73 330.439 3.59 341.339 0 352.419C6.6 356.649 13.81 359.909 21.38 362.169C43.42 368.759 67.55 369.009 89.74 363.109C99.59 360.489 109.06 356.739 118.16 352.169C115.9 344.859 113.38 337.619 110.54 330.519C103.65 313.259 94.23 298.509 84.31 282.969C81.54 278.629 79.07 274.129 77.44 269.269C77.43 269.239 77.42 269.199 77.42 269.169C78.2 265.319 79.25 261.379 80.6 257.259C83.26 249.129 89.05 241.019 90.14 232.469C90.09 232.419 90.04 232.379 89.99 232.329C80.64 224.169 67.67 221.529 55.61 223.529C49.23 224.589 42.88 226.709 37.13 229.679C33.77 231.419 30.35 233.589 27.69 236.389C31.06 242.819 34.31 249.849 36.74 257.269C38.11 261.459 39.18 265.469 39.96 269.379C39.73 270.649 39.37 271.889 38.93 273.079C38.16 274.799 37.32 276.489 36.4 278.139Z" fill="#213150"/>
<path d="M77.42 269.169C77.67 267.919 77.96 266.659 78.27 265.389C65.94 270.019 52.31 271.209 39.68 268.069C39.77 268.509 39.87 268.939 39.95 269.379C39.72 270.649 39.36 271.889 38.92 273.079C38.48 274.079 38.01 275.069 37.52 276.049C41.22 277.479 45.06 278.549 49 279.199C59.61 280.959 70.34 279.549 80.14 275.669C79.11 273.599 78.19 271.469 77.45 269.269C77.43 269.239 77.42 269.199 77.42 269.169Z" fill="#F0626E"/>
<path d="M50 225.419C49.15 219.989 48.03 213.709 45.37 208.029C44.86 206.939 44.29 205.889 43.68 204.889C42.91 205.289 42.11 205.669 41.28 205.989C40.5 206.299 39.65 206.649 38.77 206.949C41.2 210.599 42.85 215.149 44.11 221.639C44.37 223.009 44.62 224.469 44.92 226.379C45.13 227.709 46.16 228.629 47.37 228.649C47.53 228.649 47.69 228.639 47.85 228.609C49.27 228.359 50.23 226.929 50 225.419Z" fill="#213150"/>
<path d="M81.81 210.039C81.81 209.119 81.79 208.179 81.76 207.239C80 206.579 78.27 205.859 76.56 205.109C76.55 205.229 76.54 205.349 76.55 205.469C76.77 210.919 76.65 216.409 76.2 221.799C76.08 223.299 75.92 224.839 75.74 226.379C75.56 227.889 76.53 229.219 77.94 229.409C78.04 229.419 78.13 229.429 78.23 229.429C79.54 229.449 80.69 228.419 80.85 226.999C81.52 221.389 81.84 215.679 81.81 210.039Z" fill="#213150"/>
<path opacity="0.4" d="M115.78 347.279C112.55 349.749 108.82 351.439 105.07 352.949C101.56 354.359 97.97 355.599 94.34 356.649C87.01 358.779 79.47 360.179 71.86 360.889C64.28 361.589 56.64 361.599 49.05 360.949C44.87 360.589 40.7 360.029 36.57 359.279C36.96 353.999 37.75 348.759 38.81 343.569C39.88 338.339 41.22 333.179 42.69 328.049C44.16 322.919 45.77 317.829 47.38 312.739C48.99 307.639 50.61 302.549 52.1 297.409C53.59 292.289 54.95 287.129 56.06 281.919C56.2 281.259 56.34 280.599 56.47 279.939C56.53 279.649 56.08 279.519 56.02 279.819C54.97 285.069 53.65 290.259 52.19 295.409C50.72 300.579 49.12 305.699 47.5 310.819C45.88 315.929 44.26 321.049 42.75 326.189C41.25 331.309 39.87 336.469 38.74 341.679C37.62 346.859 36.75 352.089 36.27 357.369C36.21 357.979 36.17 358.589 36.12 359.189C32.85 358.589 29.6 357.869 26.39 357.019C18.96 355.069 11.7 352.489 4.70999 349.309C3.84999 348.919 2.99999 348.519 2.14999 348.109C1.87999 347.979 1.63999 348.379 1.90999 348.509C8.83999 351.839 16.04 354.589 23.43 356.699C30.82 358.809 38.4 360.289 46.04 361.119C53.71 361.949 61.45 362.109 69.14 361.569C76.77 361.029 84.35 359.799 91.74 357.849C95.49 356.859 99.19 355.679 102.82 354.309C106.47 352.939 110.14 351.449 113.47 349.409C114.34 348.879 115.19 348.299 116 347.679C116.26 347.499 116.02 347.089 115.78 347.279Z" fill="#320032"/>
<path opacity="0.4" d="M85.86 342.349C84.79 337.179 83.49 332.059 82.08 326.979C80.67 321.899 79.15 316.849 77.61 311.809C76.07 306.739 74.51 301.659 73.05 296.569C71.59 291.479 70.22 286.359 69.05 281.199C68.91 280.559 68.76 279.919 68.63 279.279C68.57 278.989 68.11 279.109 68.18 279.399C69.29 284.549 70.62 289.649 72.04 294.729C73.47 299.809 75 304.859 76.54 309.909C78.07 314.959 79.61 319.999 81.05 325.079C82.48 330.139 83.82 335.219 84.95 340.359C86.08 345.509 87.01 350.709 87.61 355.949C87.69 356.599 87.76 357.249 87.82 357.899C87.85 358.199 88.32 358.199 88.29 357.899C87.78 352.669 86.93 347.479 85.86 342.349Z" fill="#320032"/>
<path d="M86.15 231.869C82.67 230.329 79.03 229.159 75.29 228.389C71.58 227.619 67.78 227.239 63.99 227.229C60.19 227.219 56.4 227.589 52.67 228.319C48.92 229.059 45.25 230.159 41.73 231.639C38.23 233.099 34.88 234.919 31.77 237.089C31.38 237.359 31 237.639 30.61 237.919C30.37 238.099 30.6 238.499 30.85 238.319C33.88 236.089 37.14 234.189 40.56 232.649C44.01 231.099 47.62 229.909 51.31 229.079C54.99 228.259 58.75 227.799 62.52 227.709C66.29 227.619 70.06 227.899 73.77 228.569C77.48 229.239 81.12 230.279 84.61 231.719C85.04 231.899 85.48 232.079 85.9 232.269C86.19 232.399 86.43 231.999 86.15 231.869Z" fill="#320032"/>
<path d="M58.87 252.639C58.66 247.589 58.13 242.529 56.94 237.609C56.28 234.869 55.4 232.189 54.3 229.589C54.18 229.309 53.78 229.549 53.9 229.829C55.87 234.459 57.06 239.389 57.72 244.369C58.38 249.359 58.54 254.409 58.52 259.439C58.51 262.289 58.44 265.139 58.36 267.979C58.35 268.279 58.82 268.279 58.83 267.979C58.96 262.879 59.08 257.759 58.87 252.639Z" fill="#320032"/>
<path d="M72.5801 229.359C72.5401 229.059 72.0701 229.059 72.1101 229.359C72.7001 234.189 72.1501 239.049 71.2301 243.799C70.2901 248.609 69.0101 253.349 68.1201 258.169C67.6301 260.859 67.2601 263.569 67.1501 266.299C67.1401 266.599 67.6101 266.599 67.6201 266.299C67.8101 261.389 68.8501 256.569 69.9501 251.799C71.0301 247.069 72.1901 242.329 72.6401 237.489C72.8901 234.779 72.9101 232.059 72.5801 229.359Z" fill="#320032"/>
<path d="M65.96 196.169C65.99 196.829 65.98 197.499 65.93 198.159C65.82 198.159 65.71 198.159 65.6 198.159C64.56 198.169 63.52 198.289 62.5 198.509C62.47 197.719 62.24 196.949 61.85 196.269C61.78 196.149 61.66 196.079 61.53 196.119C61.52 196.079 61.51 196.049 61.5 196.009C61.51 196.049 61.53 196.079 61.54 196.119C61.7 195.689 61.93 195.279 62.29 194.979C62.77 194.579 63.4 194.459 64.01 194.539C64.64 194.619 65.21 194.939 65.7 195.339C65.92 195.519 66.12 195.709 66.31 195.909C66.15 195.869 65.95 195.959 65.96 196.169Z" fill="#FFBAA6"/>
<path d="M69.58 210.739C69.48 210.769 69.36 210.779 69.21 210.769C66.59 210.669 64.25 209.699 63.57 206.929C63.18 205.339 63.85 203.519 65.5 202.989C65.56 202.969 65.59 202.939 65.62 202.899C65.84 202.859 66.05 202.809 66.27 202.749C66.6 202.659 66.39 202.159 66.06 202.259C65 202.559 63.88 202.629 62.79 202.489C62.72 202.429 62.63 202.419 62.54 202.449C62.31 202.409 62.08 202.369 61.86 202.309C61.27 202.159 60.69 201.939 60.15 201.659C59.75 201.449 59.08 200.999 59.25 200.469C59.41 199.969 60.16 199.779 60.59 199.619C61.2 199.389 61.82 199.209 62.45 199.059C63.66 198.779 64.92 198.649 66.16 198.699C67.19 198.739 68.34 198.949 68.99 199.839C69.19 200.119 69.62 199.789 69.41 199.509C68.72 198.569 67.59 198.269 66.47 198.189C66.52 197.509 66.53 196.829 66.5 196.149C66.49 196.019 66.42 195.949 66.33 195.919C67.33 194.489 68.88 195.739 69.54 196.809C70.14 197.769 69.79 198.729 69.57 199.749C70.4 200.429 71.13 201.219 71.75 202.109C72.62 203.359 72.01 204.539 71.57 205.849C71.17 207.049 70.76 208.259 70.36 209.459C70.14 210.039 70.11 210.599 69.58 210.739Z" fill="#FFBAA6"/>
<path d="M61.98 198.629C61.74 198.689 61.51 198.749 61.27 198.819C60.36 199.099 58.28 199.609 58.74 200.979C58.92 201.529 59.44 201.899 59.93 202.159C60.57 202.489 61.25 202.729 61.95 202.889C62.08 202.919 62.21 202.939 62.34 202.959C62.39 204.009 62.38 205.259 61.48 205.959C60.67 206.589 59.54 206.379 58.93 205.589C58.98 205.289 59.01 204.989 59.01 204.689C59.02 203.629 58.86 202.559 58.67 201.519C58.48 200.459 58.22 199.419 57.91 198.399C57.81 198.069 57.32 198.279 57.42 198.609C57.95 200.379 58.35 202.229 58.47 204.079C58.5 204.569 58.49 205.089 58.4 205.589C58.39 205.609 58.39 205.629 58.39 205.649C58.3 206.459 57.66 207.539 56.76 207.549C54.98 207.579 54.78 206.579 54.46 204.969C54.2 203.659 54.19 202.289 54.44 200.979C54.56 200.329 54.75 199.699 55 199.089C55.21 198.589 55.45 198.039 55.92 197.739C56.42 197.419 57.04 197.529 57.48 197.889C57.49 197.899 57.49 197.899 57.5 197.909C57.92 196.939 58.51 196.069 59.39 195.549C60.14 195.109 60.91 195.549 61.5 196.129C61.38 196.179 61.29 196.359 61.36 196.479C61.74 197.129 61.95 197.869 61.98 198.629Z" fill="#FFBAA6"/>
<path d="M375.06 258.779C369.98 255.599 366.52 252.569 364.15 249.239C364.06 249.109 363.91 249.029 363.75 249.019C363.59 249.009 363.44 249.069 363.33 249.179C360.65 251.929 357.62 254.379 354.69 256.749L354.02 257.289C351.42 246.979 347.96 235.919 343.44 223.509C342.02 219.589 340.19 215.459 337.32 212.019C330.63 216.319 323.43 219.939 315.85 222.039C315.85 222.069 315.85 222.109 315.85 222.139C315.83 222.719 315.81 223.269 315.78 223.759C314.91 241.169 320.26 260.339 330.45 276.349C332.7 279.879 335.16 282.949 337.78 285.479C338.15 285.839 338.55 286.239 338.98 286.679C341.4 289.129 344.75 292.529 348.13 292.529C349.24 292.529 350.34 292.169 351.42 291.289C351.48 291.239 351.54 291.189 351.6 291.139L351.68 291.069C354.68 288.789 357.16 285.809 359.56 282.929L360.37 281.959C363.07 278.729 365.67 275.339 368.1 271.889C370.54 268.419 372.61 264.489 374.61 260.699L375.25 259.489C375.38 259.239 375.3 258.929 375.06 258.779Z" fill="#FE9E54"/>
<path d="M405.35 414.319C406.66 413.059 408.3 412.399 409.91 411.619C411 411.089 412.01 410.429 412.94 409.669C415.14 406.959 417.52 404.359 419.72 401.629C421.61 399.279 421.82 399.329 420.25 396.789C419.18 395.049 417.99 393.379 416.87 391.669C412.02 384.249 407.26 376.769 402.64 369.209C392.09 351.919 380.08 334.419 374.63 314.669C369.1 294.669 364.69 274.239 360.69 253.869C359.23 246.459 357.55 238.699 358.54 231.119C359.1 226.839 361.48 224.549 365.47 223.199C369.24 221.919 373.18 220.949 377.16 220.969C387.8 221.009 391.17 228.399 392.59 237.009C396.94 263.429 401.4 289.839 405.7 316.269C411.85 332.149 417.93 348.059 423.89 364.009C428.27 375.779 432.07 387.699 436.35 399.489C438.1 404.309 437 405.619 432.74 407.779C428.89 409.729 425 411.589 421.06 413.359C419.46 414.079 403.06 421.899 402.27 418.729C402.01 417.729 404.69 414.959 405.35 414.319Z" fill="#FFBAA6"/>
<path d="M416.2 392.119C416.61 392.739 417.03 393.359 417.44 393.989C417.54 394.139 417.64 394.289 417.74 394.439C418.31 394.199 418.89 393.959 419.45 393.709C421.94 392.609 424.43 391.519 426.94 390.449C428.99 389.579 431.05 388.749 433.12 387.939C432.56 386.319 432.01 384.709 431.46 383.109C429.28 376.749 427.02 370.159 424.63 363.729C419.28 349.389 413.5 334.239 406.47 316.059C403.97 300.689 401.37 285.069 398.86 269.959C397.03 258.929 395.19 247.909 393.38 236.879C392.1 229.129 389.11 220.219 377.16 220.169C377.13 220.169 377.09 220.169 377.06 220.169C373.56 220.169 369.79 220.889 365.21 222.449C360.68 223.989 358.31 226.709 357.75 231.029C356.8 238.309 358.26 245.669 359.66 252.789L359.91 254.039C364.77 278.789 369.07 297.549 373.86 314.899C378.57 331.939 388.12 347.319 397.36 362.199C398.91 364.689 400.45 367.169 401.96 369.649C406.4 376.899 411.05 384.249 416.2 392.119Z" fill="#908DA6"/>
<path d="M401.39 419.889C401.02 419.339 401.36 418.289 401.48 417.719C401.73 416.489 402.22 415.309 402.86 414.219C404.13 412.069 405.97 410.269 408 408.829C410.66 406.949 413.67 405.669 416.8 404.819C416.81 402.639 417.3 400.459 418.25 398.489C418.65 397.659 419.14 396.879 419.7 396.149C421.55 396.199 423.46 395.829 425.25 395.379C428.43 394.589 431.25 393.469 434.03 391.759C434.94 393.099 435.38 395.049 435.92 396.579C436.57 398.429 437.16 400.309 437.66 402.209C437.9 403.089 438.15 403.979 438.32 404.879C438.65 406.629 436.54 407.679 435.27 408.309C433.04 409.409 430.82 410.539 428.56 411.579C423.4 413.959 418.07 415.979 412.64 417.629C409.43 418.599 406.18 419.449 402.91 420.159C402.59 420.229 402.27 420.299 401.95 420.229C401.68 420.179 401.5 420.059 401.39 419.889Z" fill="#F2EDF7"/>
<path d="M401.6 417.279C405.86 416.349 410.08 415.229 414.25 413.959C419.64 412.319 424.88 410.229 429.88 407.629C432.11 406.469 435.92 405.069 437.83 402.769C438.02 403.469 438.2 404.179 438.34 404.889C438.67 406.639 436.56 407.689 435.29 408.319C433.06 409.419 430.84 410.549 428.58 411.589C423.42 413.969 418.09 415.989 412.66 417.639C409.45 418.609 406.2 419.459 402.93 420.169C402.61 420.239 402.29 420.309 401.97 420.239C401.7 420.189 401.53 420.059 401.42 419.899C401.05 419.349 401.39 418.299 401.51 417.729C401.51 417.569 401.56 417.429 401.6 417.279Z" fill="#213150"/>
<path d="M432.3 401.659C433.631 401.659 434.71 400.58 434.71 399.249C434.71 397.918 433.631 396.839 432.3 396.839C430.969 396.839 429.89 397.918 429.89 399.249C429.89 400.58 430.969 401.659 432.3 401.659Z" fill="#213150"/>
<path d="M416.47 397.98C417.01 397.3 417.94 397.19 418.75 397.25C419.09 397.27 419.12 397.81 418.77 397.79C418.03 397.74 417.08 397.8 416.73 398.57C416.38 399.33 417.14 399.78 417.74 400.05C419.1 400.66 420.66 400.82 422.13 400.52C422.46 400.45 422.63 400.96 422.29 401.03C420.88 401.32 419.42 401.24 418.06 400.75C417.45 400.53 416.76 400.26 416.37 399.72C415.97 399.18 416.08 398.48 416.47 397.98Z" fill="#213150"/>
<path d="M414.9 401.849C415.44 401.169 416.37 401.059 417.18 401.119C417.52 401.139 417.55 401.679 417.2 401.659C416.46 401.609 415.51 401.669 415.16 402.439C414.81 403.199 415.57 403.649 416.17 403.919C417.53 404.529 419.09 404.689 420.56 404.389C420.89 404.319 421.06 404.829 420.72 404.899C419.31 405.189 417.85 405.109 416.49 404.619C415.88 404.399 415.19 404.129 414.8 403.589C414.39 403.049 414.5 402.359 414.9 401.849Z" fill="#213150"/>
<path d="M435.18 248.909C438.3 240.769 439.13 232.689 429.97 227.279C426.54 225.259 422.65 224.109 418.76 223.309C414.64 222.459 411.42 223.239 408.78 226.649C404.11 232.689 401.63 240.239 399.15 247.369C385.68 285.979 374.53 325.599 366.81 365.759C365.14 374.459 363.62 383.199 362.23 391.949C361.91 393.969 361.66 396.009 361.28 398.009C360.73 400.949 360.61 400.769 357.63 401.229C354.17 401.769 350.66 402.099 347.21 402.619C346.01 402.549 344.82 402.359 343.66 402.019C341.94 401.509 340.29 400.899 338.47 400.949C337.55 400.969 333.71 401.219 333.22 402.129C331.67 405.009 349.06 410.249 350.73 410.799C354.83 412.129 358.97 413.369 363.13 414.519C367.73 415.789 369.43 415.559 371.38 410.819C376.14 399.219 381.36 387.839 386.03 376.189C402.9 333.969 418.88 291.369 435.18 248.909Z" fill="#FFBAA6"/>
<path d="M430.37 226.589C427.33 224.789 423.69 223.499 418.91 222.519C414.22 221.559 410.8 222.709 408.13 226.149C403.64 231.959 401.17 239.049 398.79 245.899L398.38 247.089C384.2 287.749 373.31 327.619 366.01 365.599C364.4 373.969 362.9 382.539 361.42 391.819C361.3 392.559 361.19 393.299 361.09 394.039C361.06 394.229 361.03 394.429 361 394.629C366.3 396.369 371.64 397.949 377 399.549C377.6 398.159 378.19 396.789 378.78 395.419C381.45 389.239 384.21 382.859 386.76 376.489C399.33 345.079 411.59 312.939 423.45 281.859C427.61 270.969 431.76 260.079 435.94 249.199C438.74 241.859 440.66 232.669 430.37 226.589Z" fill="#908DA6"/>
<path d="M331.12 402.449C331.24 401.799 332.2 401.269 332.68 400.939C333.71 400.219 334.88 399.699 336.09 399.349C338.49 398.659 341.07 398.619 343.53 398.979C346.76 399.449 349.82 400.579 352.67 402.119C354.17 400.539 356.03 399.299 358.08 398.529C358.94 398.209 359.83 397.979 360.74 397.829C362.05 399.139 363.69 400.179 365.3 401.089C368.15 402.709 370.96 403.829 374.16 404.499C373.89 406.099 372.87 407.819 372.22 409.289C371.42 411.079 370.55 412.849 369.61 414.569C369.17 415.369 368.74 416.189 368.25 416.959C367.29 418.449 365.03 417.769 363.68 417.349C361.3 416.609 358.91 415.899 356.56 415.099C351.18 413.269 345.92 411.079 340.84 408.529C337.84 407.029 334.91 405.409 332.04 403.669C331.76 403.499 331.48 403.329 331.29 403.059C331.13 402.859 331.09 402.649 331.12 402.449Z" fill="#F2EDF7"/>
<path d="M333.07 400.689C336.8 402.949 340.64 405.039 344.53 406.979C349.57 409.499 354.81 411.579 360.23 413.139C362.64 413.829 366.37 415.439 369.34 415.079C368.99 415.719 368.64 416.359 368.25 416.969C367.29 418.459 365.03 417.779 363.68 417.359C361.3 416.619 358.91 415.909 356.56 415.109C351.18 413.279 345.92 411.089 340.84 408.539C337.84 407.039 334.91 405.419 332.04 403.679C331.76 403.509 331.48 403.339 331.29 403.069C331.13 402.849 331.09 402.639 331.13 402.439C331.25 401.789 332.21 401.259 332.69 400.929C332.81 400.849 332.94 400.769 333.07 400.689Z" fill="#213150"/>
<path d="M367.75 411.149C369.081 411.149 370.16 410.07 370.16 408.739C370.16 407.408 369.081 406.329 367.75 406.329C366.419 406.329 365.34 407.408 365.34 408.739C365.34 410.07 366.419 411.149 367.75 411.149Z" fill="#213150"/>
<path d="M357.15 396.929C358.01 396.799 358.76 397.369 359.31 397.969C359.54 398.219 359.19 398.629 358.96 398.369C358.46 397.819 357.73 397.209 356.95 397.529C356.17 397.839 356.42 398.699 356.66 399.299C357.23 400.679 358.25 401.869 359.52 402.659C359.81 402.839 359.58 403.319 359.29 403.139C358.07 402.379 357.06 401.309 356.41 400.029C356.12 399.449 355.81 398.779 355.89 398.119C355.96 397.449 356.51 397.019 357.15 396.929Z" fill="#213150"/>
<path d="M353.33 398.65C354.19 398.52 354.94 399.09 355.49 399.69C355.72 399.94 355.37 400.35 355.14 400.09C354.64 399.54 353.91 398.93 353.13 399.25C352.35 399.56 352.6 400.42 352.84 401.02C353.41 402.4 354.43 403.59 355.7 404.38C355.99 404.56 355.76 405.04 355.47 404.86C354.25 404.1 353.24 403.03 352.59 401.75C352.3 401.17 351.99 400.5 352.07 399.84C352.14 399.17 352.7 398.74 353.33 398.65Z" fill="#213150"/>
<path d="M360.14 206.989C362.1 196.929 364.23 186.909 366.46 176.909C368.67 166.979 371 157.079 373.45 147.209C373.36 147.049 373.44 146.809 373.63 146.799C373.75 146.729 373.93 146.779 374 146.899C376.74 147.819 379.53 148.579 382.36 149.189C387.51 150.289 392.77 150.849 398.04 150.889C398.08 150.889 398.11 150.889 398.15 150.889C398.19 150.889 398.22 150.889 398.26 150.889C403.53 150.859 408.79 150.289 413.94 149.189C416.77 148.589 419.56 147.819 422.3 146.899C422.38 146.779 422.55 146.729 422.67 146.799C422.86 146.819 422.94 147.049 422.85 147.209C425.3 157.079 427.63 166.989 429.84 176.909C432.07 186.909 434.2 196.939 436.16 206.989C438.07 216.819 439.69 226.939 438.47 236.969C438.36 237.889 438.21 238.869 437.64 239.639C437.07 240.399 436.19 240.739 435.29 240.909C432.97 241.349 430.55 241.349 428.2 241.319C423.21 241.259 418.16 240.719 413.21 241.579C407.35 242.599 402.08 246.649 396 245.609C391.51 244.839 387.62 242.369 383.11 241.579C378.16 240.719 373.11 241.259 368.12 241.319C365.77 241.349 363.34 241.339 361.03 240.909C360.13 240.739 359.24 240.399 358.68 239.639C358.11 238.869 357.96 237.899 357.85 236.969C356.61 226.939 358.23 216.819 360.14 206.989Z" fill="#FFBAA6"/>
<path d="M359.88 206.939C359.96 206.549 360.03 206.159 360.11 205.769L360.34 204.619L360.6 204.669C369.81 206.439 379.18 207.579 388.46 208.059C397.65 208.529 407.04 208.369 416.11 208.209L417.31 208.189C422.5 208.099 429.33 207.819 436.05 206.449L436.32 206.399L436.43 206.949C438.21 216.079 440 226.689 438.74 237.009C438.62 238.029 438.45 239.009 437.86 239.809C437.33 240.519 436.51 240.969 435.34 241.189C433.01 241.629 430.53 241.639 428.19 241.609C426.93 241.589 425.64 241.549 424.39 241.499C420.72 241.369 416.92 241.229 413.24 241.869C411.06 242.249 408.92 243.069 406.85 243.859C404.01 244.949 401.08 246.069 397.99 246.069C397.31 246.069 396.63 246.019 395.94 245.899C393.67 245.509 391.52 244.679 389.45 243.869C387.4 243.079 385.28 242.249 383.05 241.869C379.38 241.229 375.58 241.369 371.9 241.499C370.65 241.549 369.37 241.589 368.1 241.609C365.77 241.639 363.29 241.629 360.95 241.189C359.78 240.969 358.96 240.519 358.43 239.809C357.83 239.009 357.67 238.029 357.55 237.009C356.31 226.679 358.1 216.069 359.88 206.939Z" fill="#908DA6"/>
<path d="M438.84 118.949C433.5 100.359 405.63 94.9791 389.28 98.0191C377.66 100.179 360.25 106.079 356.55 118.949C356.12 120.449 355.93 121.969 355.94 123.499C362.59 134.949 368.73 146.589 372.88 159.259C375.2 166.339 376.95 173.579 377.82 180.989C377.94 182.009 378.03 183.019 378.1 184.039C378.59 184.419 379.1 184.779 379.65 185.109C389.77 191.299 405.49 191.379 415.74 185.109C416.29 184.769 416.81 184.409 417.29 184.039C417.36 183.019 417.45 182.009 417.57 180.989C418.44 173.589 420.19 166.339 422.51 159.259C426.66 146.589 432.8 134.949 439.45 123.499C439.46 121.969 439.27 120.449 438.84 118.949Z" fill="#FFBAA6"/>
<path d="M370.92 155.289C369.19 162.469 367.52 169.669 365.93 176.789C363.46 187.889 361.39 197.739 359.61 206.889C359.32 208.369 359.04 209.889 358.76 211.429C365.2 212.039 371.65 213.039 378.04 213.459C388.32 214.139 398.6 214.319 408.89 213.919C418.49 213.549 428.01 212.529 437.5 211.279C437.23 209.789 436.96 208.319 436.68 206.889C434.9 197.739 432.83 187.899 430.36 176.789C428.66 169.179 426.87 161.469 425.01 153.799C429.25 142.699 434.84 132.489 439.91 123.769L439.98 123.649V123.509C439.98 121.869 439.77 120.289 439.34 118.809C433.96 100.079 406.26 94.3193 389.16 97.4993C380.58 99.0993 360.17 104.369 356.01 118.809C355.59 120.279 355.37 121.869 355.37 123.509V123.649L355.44 123.769C360.76 132.879 366.63 143.609 370.92 155.289Z" fill="#213150"/>
<path opacity="0.4" d="M425.36 216.009C429.52 215.669 433.67 215.189 437.8 214.579C437.83 214.759 437.86 214.929 437.88 215.109C433.83 215.709 429.76 216.179 425.68 216.519C425.78 217.859 425.87 219.189 425.97 220.529C426.07 221.859 426.14 223.209 426.32 224.529C426.63 226.739 427.39 228.839 428.64 230.699C430.96 234.139 434.65 236.399 438.75 236.879C438.75 236.919 438.74 236.959 438.74 236.999C438.72 237.139 438.7 237.279 438.69 237.409C436.97 237.209 435.27 236.729 433.72 235.929C429.86 233.939 426.97 230.199 426.03 225.959C425.7 224.439 425.6 222.879 425.49 221.329C425.38 219.739 425.26 218.149 425.15 216.559C425.15 216.499 425.16 216.449 425.19 216.409C425.09 216.249 425.14 216.019 425.36 216.009Z" fill="#320032"/>
<path opacity="0.4" d="M362.58 230.159C363.83 228.309 364.59 226.199 364.9 223.989C365.08 222.659 365.16 221.319 365.25 219.989C365.35 218.649 365.44 217.309 365.54 215.979C363.15 215.779 360.77 215.529 358.39 215.249C358.42 215.069 358.44 214.899 358.47 214.719C360.93 215.019 363.39 215.269 365.85 215.469C366.07 215.489 366.12 215.719 366.03 215.869C366.05 215.909 366.07 215.959 366.07 216.019C365.96 217.609 365.84 219.199 365.73 220.789C365.62 222.339 365.53 223.899 365.19 225.419C364.25 229.669 361.36 233.399 357.5 235.389C357.47 235.409 357.43 235.419 357.4 235.439C357.38 235.239 357.36 235.039 357.35 234.839C359.43 233.749 361.24 232.149 362.58 230.159Z" fill="#320032"/>
<path d="M366.31 57.5992C366.22 57.2292 366.12 56.8592 366.01 56.4892C365.12 53.6292 363.43 50.9792 360.94 49.3092C352.63 43.7392 343.92 53.1092 346.54 61.6192C348 66.3592 352.85 69.8292 357.81 69.6692C360.89 69.5692 364.02 68.0592 365.56 65.3992C366.9 63.0792 366.92 60.1992 366.31 57.5992Z" fill="#FFBAA6"/>
<path opacity="0.4" d="M360.69 61.069C356.02 62.669 350.23 61.599 346.08 58.609C346.09 59.609 346.24 60.619 346.55 61.629C348.01 66.369 352.86 69.839 357.82 69.679C360.9 69.579 364.03 68.069 365.57 65.409C366.84 63.2091 366.92 60.509 366.4 58.019C364.65 59.299 362.76 60.359 360.69 61.069Z" fill="#320032"/>
<path d="M426.26 57.5992C426.35 57.2292 426.45 56.8592 426.56 56.4892C427.45 53.6292 429.14 50.9792 431.63 49.3092C439.94 43.7392 448.65 53.1092 446.03 61.6192C444.57 66.3592 439.72 69.8292 434.76 69.6692C431.68 69.5692 428.55 68.0592 427.01 65.3992C425.67 63.0792 425.65 60.1992 426.26 57.5992Z" fill="#FFBAA6"/>
<path opacity="0.4" d="M431.88 61.069C436.55 62.669 442.34 61.599 446.49 58.609C446.48 59.609 446.33 60.619 446.02 61.629C444.56 66.369 439.71 69.839 434.75 69.679C431.67 69.579 428.54 68.069 427 65.409C425.73 63.2091 425.65 60.509 426.17 58.019C427.92 59.299 429.81 60.359 431.88 61.069Z" fill="#320032"/>
<path d="M408.44 75.729C401.93 78.339 394.49 78.009 387.37 76.049C386.44 84.119 386.03 92.269 386.1 100.399C386.14 105.139 386.67 110.269 389.4 113.669C392.25 117.209 396.86 117.889 400.84 116.769C404.16 115.829 407.42 113.589 408.97 109.919C410.08 107.299 410.21 104.259 410.2 101.319C410.19 100.109 410.17 98.889 410.13 97.679C409.87 90.359 409.12 83.039 408.44 75.729Z" fill="#FFBAA6"/>
<path opacity="0.4" d="M408.44 75.729C401.93 78.339 394.5 78.009 387.37 76.049C386.72 81.659 386.33 87.309 386.17 92.969C391.98 100.569 401.24 102.209 410.17 100.199C410.16 99.359 410.14 98.519 410.11 97.679C409.87 90.359 409.12 83.039 408.44 75.729Z" fill="#320032"/>
<path d="M360.16 56.2693C360.15 56.8593 360.14 57.4493 360.14 58.0393C360.13 65.7293 361.25 73.6693 365.32 80.2893C371.63 90.5593 384.34 96.0893 396.73 96.4693C405.74 96.7493 415.11 94.4493 421.85 88.6793C432.11 79.8993 434.23 65.2493 433.5 52.0393C432.6 35.8393 423.46 19.4593 405.37 16.7293C388.94 14.2493 371.21 21.3393 364.29 36.3493C361.43 42.5893 360.33 49.4493 360.16 56.2693Z" fill="#FFBAA6"/>
<path opacity="0.4" d="M377.39 78.1691C383.012 78.1691 387.57 75.2903 387.57 71.7391C387.57 68.1879 383.012 65.3091 377.39 65.3091C371.768 65.3091 367.21 68.1879 367.21 71.7391C367.21 75.2903 371.768 78.1691 377.39 78.1691Z" fill="#320032"/>
<path opacity="0.4" d="M416.49 78.1691C422.112 78.1691 426.67 75.2903 426.67 71.7391C426.67 68.1879 422.112 65.3091 416.49 65.3091C410.868 65.3091 406.31 68.1879 406.31 71.7391C406.31 75.2903 410.868 78.1691 416.49 78.1691Z" fill="#320032"/>
<path d="M399.71 65.3993C399.51 65.1193 399.08 65.4293 399.28 65.7193C399.56 66.1193 399.51 66.7793 399.11 67.0993C398.73 67.4093 398.07 67.3993 397.72 67.0293C397.71 67.0193 397.7 67.0093 397.69 67.0093C397.68 66.9993 397.67 66.9893 397.66 66.9793C397.65 66.9693 397.63 66.9593 397.62 66.9593C397.61 66.9493 397.6 66.9493 397.58 66.9493C397.5 66.9193 397.42 66.9293 397.35 66.9793C397.34 66.9893 397.33 66.9993 397.32 67.0093C396.47 67.4893 395.35 67.2893 394.65 66.6293C393.86 65.8793 393.88 64.7193 394.49 63.8593C394.82 63.3893 395.34 63.0293 395.91 62.9493C396.07 63.0193 396.29 62.9393 396.3 62.7193C396.36 61.4993 396.37 60.2693 396.33 59.0493C396.32 58.7093 395.78 58.6993 395.79 59.0493C395.82 60.1793 395.81 61.3193 395.77 62.4493C394.54 62.6893 393.61 63.7793 393.5 65.0293C393.39 66.3393 394.38 67.4393 395.62 67.7393C396.25 67.8893 396.91 67.8293 397.49 67.5293C397.91 67.8493 398.47 67.9493 398.99 67.7893C399.58 67.5993 399.97 67.0293 400 66.4193C400.01 66.0493 399.92 65.6993 399.71 65.3993Z" fill="#213150"/>
<path d="M375.38 53.3091C375.58 51.6391 376.75 50.1491 378.32 49.5691C379.93 48.9791 381.83 49.4191 383.05 50.6091C383.3 50.8491 382.94 51.2491 382.69 51.0091C381.6 49.9491 379.93 49.5491 378.48 50.0791C377.07 50.5991 376.07 51.9391 375.89 53.4191C375.86 53.7691 375.34 53.6491 375.38 53.3091Z" fill="#213150"/>
<path d="M416.88 53.3091C416.68 51.6391 415.51 50.1491 413.94 49.5691C412.33 48.9791 410.43 49.4191 409.21 50.6091C408.96 50.8491 409.32 51.2491 409.57 51.0091C410.66 49.9491 412.33 49.5491 413.78 50.0791C415.19 50.5991 416.19 51.9391 416.37 53.4191C416.4 53.7691 416.92 53.6491 416.88 53.3091Z" fill="#213150"/>
<path d="M379.52 60.4894C380.823 60.4894 381.88 59.1686 381.88 57.5394C381.88 55.9101 380.823 54.5894 379.52 54.5894C378.217 54.5894 377.16 55.9101 377.16 57.5394C377.16 59.1686 378.217 60.4894 379.52 60.4894Z" fill="#213150"/>
<path d="M413.27 60.4894C414.573 60.4894 415.63 59.1686 415.63 57.5394C415.63 55.9101 414.573 54.5894 413.27 54.5894C411.967 54.5894 410.91 55.9101 410.91 57.5394C410.91 59.1686 411.967 60.4894 413.27 60.4894Z" fill="#213150"/>
<path d="M393.03 71.499C393.74 73.019 395.31 74.079 396.99 74.139C398.7 74.199 400.37 73.189 401.16 71.679C401.32 71.369 400.86 71.099 400.7 71.409C399.99 72.759 398.53 73.659 396.99 73.599C395.49 73.549 394.12 72.579 393.49 71.229C393.34 70.909 392.88 71.189 393.03 71.499Z" fill="#F0626E"/>
<path opacity="0.4" d="M407.61 321.649C405.91 326.229 404.21 330.799 402.51 335.379C400.81 339.959 399.11 344.529 397.41 349.109C396.45 351.699 395.48 354.289 394.52 356.879C394.4 357.199 394.92 357.339 395.04 357.019L400.14 343.289C401.84 338.709 403.54 334.139 405.24 329.559C406.2 326.969 407.17 324.379 408.13 321.789C408.24 321.469 407.73 321.329 407.61 321.649Z" fill="#320032"/>
<path opacity="0.4" d="M395.99 252.869C394.26 257.199 392.65 261.579 391.13 265.999C389.62 270.389 388.21 274.819 386.87 279.259C385.52 283.729 384.25 288.219 383.03 292.729C381.81 297.239 380.64 301.759 379.5 306.299C378.36 310.829 377.24 315.369 376.13 319.909C375.99 320.459 375.86 321.019 375.72 321.569C375.64 321.899 376.15 322.049 376.24 321.709C377.35 317.169 378.46 312.629 379.6 308.099C380.73 303.589 381.89 299.079 383.09 294.589C384.3 290.079 385.55 285.579 386.88 281.099C388.21 276.629 389.6 272.169 391.1 267.749C392.59 263.329 394.18 258.939 395.88 254.599C396.09 254.069 396.3 253.539 396.51 253.009C396.63 252.689 396.11 252.549 395.99 252.869Z" fill="#320032"/>
<path d="M414.52 111.169H338.46V187.229H414.52V111.169Z" fill="#ED823A"/>
<path d="M387.36 111.169H311.3V187.229H387.36V111.169Z" fill="#FE9E54"/>
<path d="M382.68 115.35H361.09V127.89H382.68V115.35Z" fill="#F2EDF7"/>
<path d="M316.539 150.76C315.903 150.767 315.34 150.613 314.849 150.297C314.358 149.978 313.971 149.525 313.69 148.938C313.408 148.348 313.262 147.649 313.253 146.84C313.244 146.038 313.373 145.34 313.641 144.747C313.91 144.154 314.287 143.694 314.774 143.367C315.261 143.04 315.826 142.873 316.469 142.865C316.966 142.86 317.359 142.938 317.65 143.1C317.943 143.259 318.167 143.442 318.322 143.649C318.48 143.853 318.603 144.021 318.691 144.152L318.79 144.151L318.747 140.393L319.92 140.38L320.037 150.56L318.904 150.573L318.89 149.4L318.751 149.402C318.667 149.542 318.546 149.719 318.389 149.933C318.233 150.144 318.008 150.333 317.715 150.502C317.422 150.668 317.03 150.754 316.539 150.76ZM316.686 149.704C317.157 149.699 317.553 149.571 317.875 149.322C318.197 149.07 318.44 148.724 318.604 148.285C318.768 147.842 318.847 147.332 318.84 146.756C318.834 146.186 318.745 145.688 318.574 145.262C318.404 144.833 318.155 144.502 317.827 144.267C317.5 144.028 317.097 143.912 316.62 143.918C316.123 143.923 315.71 144.056 315.382 144.315C315.056 144.57 314.813 144.916 314.653 145.352C314.495 145.785 314.42 146.27 314.426 146.807C314.432 147.35 314.521 147.843 314.691 148.285C314.865 148.724 315.118 149.072 315.449 149.33C315.784 149.585 316.196 149.71 316.686 149.704ZM325.453 150.657C324.763 150.665 324.157 150.508 323.633 150.186C323.112 149.864 322.702 149.409 322.404 148.823C322.109 148.236 321.957 147.549 321.948 146.76C321.938 145.964 322.075 145.268 322.356 144.672C322.641 144.075 323.04 143.61 323.553 143.276C324.07 142.942 324.673 142.771 325.362 142.763C326.051 142.755 326.656 142.912 327.177 143.234C327.701 143.556 328.111 144.012 328.406 144.602C328.704 145.192 328.858 145.885 328.867 146.68C328.876 147.469 328.738 148.16 328.454 148.753C328.172 149.346 327.773 149.81 327.256 150.144C326.743 150.478 326.142 150.649 325.453 150.657ZM325.441 149.603C325.964 149.597 326.393 149.458 326.728 149.186C327.063 148.913 327.31 148.558 327.467 148.118C327.624 147.679 327.7 147.204 327.694 146.694C327.688 146.183 327.602 145.709 327.434 145.27C327.267 144.831 327.012 144.478 326.671 144.21C326.33 143.942 325.898 143.811 325.374 143.817C324.85 143.823 324.421 143.964 324.086 144.239C323.751 144.515 323.505 144.874 323.348 145.317C323.191 145.759 323.115 146.236 323.121 146.746C323.127 147.257 323.213 147.73 323.381 148.165C323.548 148.601 323.802 148.951 324.143 149.215C324.485 149.48 324.917 149.609 325.441 149.603ZM331.822 145.831L331.875 150.424L330.702 150.438L330.614 142.802L331.747 142.789L331.761 143.982L331.86 143.981C332.035 143.591 332.303 143.276 332.665 143.037C333.027 142.794 333.496 142.669 334.072 142.663C334.589 142.657 335.043 142.758 335.433 142.965C335.823 143.17 336.129 143.484 336.349 143.909C336.569 144.331 336.683 144.867 336.691 145.516L336.746 150.368L335.573 150.382L335.518 145.609C335.511 145.01 335.35 144.544 335.035 144.213C334.72 143.878 334.29 143.714 333.747 143.721C333.372 143.725 333.038 143.81 332.745 143.976C332.455 144.141 332.228 144.381 332.062 144.695C331.897 145.008 331.817 145.387 331.822 145.831ZM341.139 150.497C340.655 150.502 340.215 150.416 339.819 150.238C339.422 150.057 339.106 149.794 338.87 149.449C338.634 149.1 338.513 148.677 338.507 148.18C338.502 147.743 338.584 147.387 338.754 147.113C338.923 146.836 339.151 146.618 339.437 146.459C339.724 146.3 340.041 146.18 340.388 146.1C340.738 146.017 341.09 145.95 341.444 145.899C341.908 145.834 342.283 145.785 342.571 145.752C342.862 145.715 343.074 145.658 343.206 145.581C343.341 145.503 343.407 145.369 343.405 145.181L343.404 145.141C343.399 144.65 343.26 144.271 342.989 144.002C342.72 143.733 342.316 143.602 341.776 143.608C341.216 143.615 340.778 143.742 340.463 143.991C340.147 144.24 339.927 144.505 339.801 144.785L338.683 144.4C338.876 143.933 339.137 143.569 339.466 143.307C339.797 143.041 340.16 142.855 340.553 142.747C340.949 142.637 341.34 142.579 341.724 142.575C341.969 142.572 342.252 142.599 342.57 142.655C342.892 142.707 343.204 142.821 343.504 142.997C343.808 143.172 344.061 143.44 344.264 143.799C344.467 144.157 344.572 144.64 344.579 145.247L344.637 150.277L343.464 150.291L343.452 149.257L343.392 149.258C343.314 149.424 343.184 149.603 343 149.794C342.817 149.985 342.572 150.149 342.265 150.285C341.959 150.421 341.583 150.491 341.139 150.497ZM341.306 149.441C341.77 149.435 342.16 149.34 342.476 149.154C342.795 148.968 343.035 148.73 343.194 148.44C343.356 148.149 343.435 147.845 343.432 147.527L343.419 146.453C343.37 146.513 343.262 146.569 343.093 146.621C342.928 146.669 342.736 146.713 342.518 146.752C342.303 146.788 342.093 146.82 341.888 146.849C341.686 146.874 341.522 146.896 341.396 146.914C341.092 146.957 340.808 147.025 340.543 147.118C340.283 147.207 340.072 147.34 339.912 147.518C339.755 147.692 339.678 147.928 339.681 148.226C339.686 148.634 339.84 148.94 340.144 149.146C340.451 149.348 340.839 149.446 341.306 149.441ZM350.011 142.579L350.022 143.573L346.065 143.619L346.054 142.624L350.011 142.579ZM347.186 140.782L348.359 140.768L348.443 148.046C348.447 148.377 348.498 148.625 348.596 148.79C348.697 148.951 348.824 149.059 348.977 149.114C349.134 149.165 349.298 149.19 349.47 149.188C349.6 149.186 349.706 149.178 349.788 149.164C349.871 149.147 349.937 149.133 349.987 149.122L350.237 150.173C350.158 150.204 350.048 150.235 349.905 150.267C349.763 150.301 349.583 150.32 349.364 150.322C349.033 150.326 348.707 150.259 348.387 150.12C348.071 149.981 347.807 149.767 347.594 149.478C347.386 149.188 347.279 148.822 347.274 148.378L347.186 140.782ZM351.864 150.194L351.776 142.559L352.949 142.545L353.037 150.181L351.864 150.194ZM352.358 141.279C352.129 141.282 351.931 141.206 351.763 141.052C351.599 140.898 351.516 140.712 351.513 140.493C351.511 140.275 351.59 140.087 351.75 139.929C351.914 139.771 352.111 139.691 352.339 139.688C352.568 139.686 352.764 139.761 352.929 139.915C353.096 140.069 353.181 140.255 353.184 140.474C353.186 140.693 353.105 140.881 352.941 141.039C352.781 141.196 352.586 141.277 352.358 141.279ZM358.289 150.279C357.6 150.287 356.993 150.13 356.469 149.808C355.948 149.486 355.539 149.032 355.24 148.445C354.945 147.859 354.793 147.171 354.784 146.382C354.775 145.587 354.911 144.891 355.193 144.294C355.477 143.698 355.876 143.232 356.39 142.898C356.906 142.564 357.509 142.393 358.198 142.385C358.888 142.377 359.493 142.535 360.014 142.857C360.538 143.179 360.947 143.635 361.242 144.225C361.541 144.815 361.695 145.507 361.704 146.303C361.713 147.091 361.575 147.782 361.29 148.376C361.009 148.969 360.61 149.432 360.093 149.767C359.58 150.101 358.979 150.272 358.289 150.279ZM358.277 149.226C358.801 149.22 359.23 149.08 359.565 148.808C359.9 148.536 360.146 148.18 360.303 147.741C360.461 147.301 360.537 146.826 360.531 146.316C360.525 145.806 360.438 145.331 360.271 144.892C360.103 144.453 359.849 144.1 359.508 143.832C359.167 143.564 358.734 143.433 358.211 143.439C357.687 143.445 357.258 143.586 356.923 143.862C356.588 144.137 356.342 144.497 356.184 144.939C356.027 145.382 355.951 145.858 355.957 146.369C355.963 146.879 356.05 147.352 356.217 147.788C356.385 148.223 356.639 148.573 356.98 148.838C357.321 149.102 357.753 149.232 358.277 149.226ZM364.658 145.453L364.711 150.046L363.538 150.06L363.45 142.424L364.584 142.411L364.597 143.604L364.697 143.603C364.871 143.213 365.14 142.899 365.501 142.659C365.863 142.417 366.332 142.292 366.909 142.285C367.426 142.279 367.88 142.38 368.27 142.588C368.66 142.792 368.965 143.107 369.186 143.532C369.406 143.953 369.52 144.489 369.527 145.139L369.583 149.99L368.41 150.004L368.355 145.232C368.348 144.632 368.187 144.166 367.871 143.835C367.556 143.501 367.127 143.337 366.583 143.343C366.209 143.347 365.875 143.432 365.582 143.598C365.292 143.764 365.064 144.003 364.899 144.317C364.734 144.63 364.653 145.009 364.658 145.453Z" fill="#213150"/>
<path d="M418.11 201.239C417.85 201.339 417.57 201.359 417.29 201.379C412.83 201.659 408.19 201.059 403.78 200.439C395.28 199.229 386.97 197.009 378.88 194.179C374.24 192.559 370.03 189.849 365.23 188.639C362.92 188.059 360.43 187.689 358.12 188.429C355.11 189.389 353 192.099 349.76 192.609C348.2 192.849 346.58 192.799 345.02 192.619C343.5 192.449 341.99 192.119 340.54 191.659C339.81 191.429 339.1 191.159 338.4 190.849C337.71 190.549 336.99 190.239 336.37 189.819C335.86 189.469 335.35 188.949 335.35 188.289C335.36 187.669 335.78 187.219 336.34 187.019C336.96 186.799 337.63 186.819 338.28 186.879C339.11 186.959 339.94 187.029 340.77 187.079C342.15 187.159 343.53 187.179 344.91 187.159C346.74 186.639 348.4 185.549 349.88 184.359C350.3 184.019 350.71 183.669 351.12 183.309C350.72 183.359 350.33 183.379 349.92 183.379C349.36 183.369 348.8 183.299 348.25 183.179C347.81 183.079 347.09 182.999 346.91 182.509C346.53 181.509 348.49 181.219 349.04 181.069C350.63 180.629 352.23 180.229 353.81 179.739C355.42 179.029 357.09 178.359 358.8 177.949C359.88 177.579 361.02 177.379 362.21 177.369C365.51 177.329 368.7 178.639 371.98 178.949C379.18 179.639 386.41 178.909 393.61 178.579C395.99 178.469 398.37 178.379 400.75 178.369C402.15 178.359 403.55 178.379 404.95 178.419C405.34 175.609 405.77 172.799 406.29 170.009C407.2 165.069 408.31 160.179 409.62 155.329C410.06 153.679 410.54 152.039 411.03 150.399C412.34 144.809 413.59 139.299 415.1 134.199C417.25 126.959 420.4 120.099 427.39 116.389C428.95 115.559 430.65 114.919 432.41 114.809C434.17 114.699 436.02 115.169 437.35 116.329C441.06 119.579 441.49 128.089 441.99 132.669C444 150.849 439.28 170.419 430.46 186.349C427.25 192.149 423.9 196.359 418.93 200.709C418.66 200.899 418.41 201.119 418.11 201.239Z" fill="#FFBAA6"/>
<path d="M442.24 132.629C442.18 132.129 442.13 131.579 442.07 130.989C441.6 126.239 440.89 119.069 437.51 116.109C436.22 114.979 434.35 114.399 432.38 114.519C430.78 114.619 429.11 115.149 427.25 116.129C419.83 120.069 416.81 127.429 414.83 134.099C413.48 138.639 412.37 143.409 411.19 148.449L410.76 150.289C410.19 152.179 409.75 153.749 409.35 155.229C408.05 160.069 406.92 165.019 406.02 169.929C405.55 172.499 405.12 175.179 404.71 178.119C403.26 178.079 401.96 178.069 400.74 178.079C398.19 178.089 395.69 178.199 393.59 178.289C392.03 178.359 390.47 178.449 388.91 178.539C385.14 178.759 381.29 178.969 377.44 178.929C377.15 183.619 376.21 188.279 374.6 192.679C375.96 193.299 377.36 193.909 378.78 194.399C387.63 197.489 395.8 199.539 403.74 200.669C407.53 201.209 411.25 201.689 414.91 201.689C415.71 201.689 416.51 201.669 417.31 201.619C417.62 201.599 417.92 201.569 418.21 201.459C418.56 201.319 418.84 201.079 419.08 200.869C424.03 196.539 427.39 192.359 430.67 186.439C439.95 169.719 444.17 150.099 442.24 132.629Z" fill="#213150"/>
<path d="M435.74 42.5492C435.63 40.9092 435.29 39.2992 434.8 37.7392C434.6 37.1092 434.38 36.4792 434.14 35.8692C434.5 35.4892 434.81 35.0592 435.02 34.5692C436.18 31.8792 433.7 29.2792 432.06 27.4392C431.21 26.4792 430.29 25.5392 429.29 24.7192C429.8 24.8792 430.32 25.0292 430.85 25.1392C431.44 25.2692 432.03 25.3492 432.63 25.2692C433.16 25.2092 433.69 25.0192 434.04 24.5992C434.43 24.1292 434.49 23.4992 434.26 22.9392C433.69 21.4992 431.91 21.2792 430.56 21.1692C429.61 21.0892 428.66 21.1292 427.71 21.2492C428.05 21.0292 428.37 20.7892 428.66 20.5092C429.55 19.6492 430.2 18.4392 430.11 17.1692C430.03 16.0492 429.2 14.9792 427.97 15.2992C426.65 15.6392 426.22 17.0192 425.93 18.1892C425.74 18.9392 425.58 19.6992 425.44 20.4592C425.43 20.3292 425.42 20.1992 425.41 20.0792C425.91 18.5092 426.1 16.8392 425.98 15.1992C425.84 13.3992 425.35 11.6392 424.49 10.0492C423.65 8.5092 422.4 7.0092 420.62 6.5892C419.09 6.2292 417.63 6.7992 416.76 8.0392C416.31 7.1992 415.78 6.3992 415.19 5.6492C414 4.1492 412.54 2.8592 410.9 1.8792C409.26 0.889201 407.41 0.149201 405.49 0.0192006C403.63 -0.110799 401.73 0.409199 400.49 1.8892C400.36 2.0392 400.25 2.2092 400.14 2.3692C397.44 1.8292 394.7 1.5292 391.95 1.4992C389.57 1.4692 387.12 1.5692 384.78 2.0392C382.61 2.4792 380.5 3.3792 379.05 5.0992C376.93 4.5992 374.72 4.4792 372.56 4.7992C370.05 5.1692 367.1 6.1792 365.95 8.6592C365.43 9.7892 365.41 11.0392 365.6 12.2592C363.83 11.8692 362 11.7592 360.2 11.9992C357.55 12.3492 354.94 13.5192 353.27 15.6592C351.69 17.6692 351.13 20.3192 351.39 22.8292C351.62 25.0092 352.52 26.9392 353.81 28.5692C352.97 29.0792 352.24 29.7692 351.84 30.6692C351.29 31.9092 351.46 33.3492 352 34.5592C352.62 35.9392 353.68 36.9092 354.92 37.6492C354.92 37.6892 354.92 37.7292 354.93 37.7692C355.06 39.8792 355.49 41.9592 356.25 43.9392C356.97 45.8092 357.98 47.8692 359.71 49.0092C361.45 50.1492 363.65 49.8492 365.31 48.7292C367.15 47.4892 368.19 45.4392 368.96 43.4292C368.98 43.3692 369 43.3092 369.03 43.2492C369.35 43.3692 369.68 43.4592 370.02 43.5092C371.76 43.7592 373.49 43.0392 374.89 42.0592C376.95 40.6192 378.51 38.6292 379.7 36.4392C381.28 37.6792 383.32 38.3892 385.31 38.4292C389.04 38.5092 392.65 36.7492 395.5 34.3592C395.69 34.5392 395.89 34.7092 396.1 34.8592C397.68 36.0392 399.67 36.4292 401.6 36.1392C405.42 35.5792 408.2 32.6892 409.78 29.3292C409.97 30.1792 410.25 31.0092 410.65 31.7692C411.63 33.6092 413.52 34.5792 415.52 34.7892C415.57 35.0592 415.62 35.3292 415.67 35.5992C415.95 36.9692 416.34 38.3292 416.97 39.5792C417.58 40.7892 418.42 41.8692 419.52 42.6692C420.5 43.3692 421.64 43.7992 422.81 44.0292C424.59 45.8892 426.65 47.4892 428.99 48.5892C429.59 48.8692 430.2 49.1192 430.83 49.3292C431.54 49.5692 432.3 49.7992 433.05 49.6792C434.33 49.4792 435.04 48.2592 435.37 47.1192C435.79 45.6192 435.85 44.0392 435.74 42.5492Z" fill="#213150"/>
<path opacity="0.4" d="M423.9 217.739C416.68 218.659 409.41 219.139 402.13 219.169C394.85 219.209 387.57 218.799 380.35 217.949C376.29 217.469 372.24 216.859 368.22 216.099C367.88 216.039 367.74 216.549 368.08 216.619C375.26 217.969 382.51 218.879 389.8 219.339C392 219.479 394.21 219.579 396.42 219.629C396.42 219.639 396.42 219.639 396.41 219.649C395.91 224.979 395.58 230.319 395.42 235.669C395.38 237.169 395.35 238.679 395.33 240.179C395.33 240.519 395.86 240.529 395.87 240.179C395.93 234.829 396.16 229.479 396.56 224.139C396.67 222.639 396.8 221.139 396.94 219.639C401.83 219.759 406.73 219.679 411.61 219.399C415.72 219.159 419.82 218.779 423.9 218.259C424.24 218.229 424.24 217.699 423.9 217.739Z" fill="#320032"/>
<path opacity="0.4" d="M394.76 235.149C393.25 233.909 392.06 232.319 391.29 230.529C390.91 229.629 390.64 228.679 390.48 227.719C390.3 226.549 390.31 225.369 390.31 224.189C390.31 222.819 390.31 221.449 390.31 220.089C390.31 219.749 389.77 219.739 389.77 220.089C389.77 221.349 389.77 222.609 389.77 223.859C389.77 225.089 389.75 226.329 389.91 227.549C390.17 229.519 390.92 231.419 392.06 233.039C392.71 233.969 393.49 234.809 394.37 235.539C394.64 235.749 395.02 235.369 394.76 235.149Z" fill="#320032"/>
<path opacity="0.4" d="M435.69 237.989C431.27 248.149 426.85 258.319 422.48 268.499C418.14 278.619 413.84 288.749 409.65 298.929C405.42 309.169 401.3 319.459 397.32 329.799C393.32 340.179 389.48 350.619 385.83 361.129C382.2 371.589 378.78 382.119 375.6 392.729C375.21 394.039 374.82 395.359 374.43 396.679C374.33 397.009 374.85 397.149 374.95 396.819C378.05 386.239 381.4 375.739 384.96 365.309C388.54 354.829 392.32 344.419 396.25 334.069C400.17 323.759 404.25 313.509 408.42 303.309C412.65 292.979 416.99 282.689 421.38 272.419C425.72 262.279 430.11 252.149 434.51 242.039C435.06 240.779 435.6 239.519 436.15 238.259C436.29 237.939 435.82 237.669 435.69 237.989Z" fill="#320032"/>
<path opacity="0.4" d="M431.41 184.699C429.35 188.419 426.98 191.969 424.33 195.289C423.67 196.109 423 196.919 422.31 197.719C421.67 198.459 421.02 199.199 420.27 199.839C419.5 200.499 418.62 200.999 417.62 201.249C416.58 201.509 415.5 201.509 414.44 201.449C410.1 201.219 405.75 200.619 401.47 199.889C397.16 199.149 392.88 198.209 388.66 197.049C384.44 195.899 380.28 194.539 376.19 192.969C375.68 192.779 375.17 192.579 374.67 192.379C374.35 192.249 374.21 192.769 374.53 192.899C378.68 194.539 382.9 195.979 387.19 197.199C391.46 198.409 395.79 199.419 400.15 200.199C404.52 200.989 408.93 201.559 413.36 201.909C415.39 202.069 417.54 202.169 419.38 201.129C421.14 200.139 422.45 198.429 423.72 196.899C426.47 193.599 428.95 190.069 431.1 186.349C431.36 185.889 431.62 185.439 431.88 184.979C432.04 184.669 431.58 184.389 431.41 184.699Z" fill="#320032"/>
</svg>
