<svg width="560" height="300" viewBox="0 0 560 300" fill="none" xmlns="http://www.w3.org/2000/svg">
<path opacity="0.5" d="M543.219 297.675V297.677C543.175 297.755 543.133 297.829 543.09 297.907C542.781 298.46 542.463 299.019 542.138 299.581L43.7768 299.431C43.7768 299.431 43.2914 298.89 42.4232 297.852C42.3737 297.793 42.3242 297.734 42.2728 297.671C40.0473 294.998 35.5659 289.374 30.321 281.443C30.321 281.442 30.3191 281.44 30.3172 281.436C16.4007 260.383 -2.88247 223.105 0.361541 181.727C1.27725 170.048 3.9863 158.041 9.11884 145.981C24.6859 109.403 71.1301 84.7464 112.969 84.2514C129.162 84.0572 144.67 87.4863 157.426 95.2451C159.689 96.6198 162.533 97.6822 165.842 98.4039C168.631 99.015 171.75 99.3863 175.134 99.5044C202.307 100.462 246.501 85.1463 272.712 46.6168C286.63 26.1564 307.998 12.7617 332.556 5.78543C333.701 5.46175 334.854 5.14949 336.01 4.85437C341.596 3.42065 347.332 2.30871 353.172 1.51474C354.223 1.37194 355.28 1.23866 356.338 1.11871C382.254 -1.88962 410.013 1.22153 435.472 9.82192C438.824 10.9529 442.139 12.181 445.404 13.5043C493.316 32.9099 530.591 72.5341 527.313 127.863C527.184 130.05 526.991 132.263 526.731 134.5C526.241 138.761 525.51 143.11 524.534 147.546C523.957 150.16 523.294 152.805 522.54 155.476C502.796 225.614 581.74 228.781 543.219 297.675Z" fill="#DCEAFF"/>
<path d="M543.219 297.675V297.677L155.309 297.717L158.654 181.77V150.269H173.162V125.665H202.107V146.548H210.946V107.926H212.869V105.226H213.214V107.926H220.195V105.226H220.541V107.926H230.424V105.226H230.77V107.926H236.992V105.226H237.334V107.926H239.889V143.98H249.659V138.148L261.181 138.199V128.75H263.498V126.882H263.806V128.75H272.704V128.753H274.484V126.88H274.791V128.753H276.936V147.542H290.653V154.458H298.279V150.442H305.352V134.5H308.879V127.063H309.412V134.5H317.863V120.561H318.693V134.5H324.285V134.306H324.275V132.537H324.285V130.863H324.275V128.078H324.285V126.299H324.275V123.512H324.285V121.733H324.275V118.946H324.285V117.023H324.275V114.239H324.285V111.791H324.275V109.007H324.285V107.16H325.95V105.077H326.217V107.162H338.561V105.077H338.826V107.162H341.08V121.735L342.664 121.745V121.735H342.65V118.948H342.664V117.025H342.65V114.241H342.664V112.326H342.65V109.538H342.664V109.531H357.631V109.538H360.203C360.334 109.612 360.469 109.687 360.605 109.761V128.344H363.359V125.665H394.952V146.548H404.601V107.926H406.697V105.226H407.075V107.926H414.692V105.226H415.069V107.926H425.858V105.226H426.235V107.926H433.026V105.226H433.401V107.926H436.192V143.98H446.855V138.148L459.429 138.199V128.752H461.961V126.882H462.298V128.752H472.005V128.753H473.949V126.88H474.282V128.753H476.624V147.544H491.593V154.458H499.918V150.442H507.638V134.498H511.487V127.063H512.07V134.498H521.295V120.561H522.2V134.498H526.736C526.247 138.759 525.516 143.108 524.539 147.544C523.963 150.158 523.3 152.803 522.546 155.474C502.797 225.614 581.74 228.78 543.219 297.675Z" fill="#DFEBFA"/>
<path d="M445.406 13.5041V297.673H435.474V9.82178C438.828 10.9528 442.143 12.1808 445.406 13.5041Z" fill="#AFCDFB"/>
<path d="M165.844 98.4059V297.856H42.4232C42.3738 297.797 42.3243 297.738 42.2729 297.675C40.0474 295.002 35.5659 289.378 30.321 281.447C30.321 281.446 30.3191 281.444 30.3172 281.44C16.4007 260.387 -2.88247 223.109 0.361541 181.731C1.27725 170.052 3.9863 158.045 9.11884 145.985C24.6859 109.407 71.1301 84.7504 112.969 84.2554C129.012 84.4324 144.303 87.8958 157.001 95.2491C159.379 96.62 162.368 97.6824 165.844 98.4059Z" fill="#CEE1FD"/>
<path d="M356.342 1.11865V36.1143C356.342 38.8427 355.675 41.0685 354.864 41.0685H354.653C353.84 41.0685 353.178 38.8427 353.178 36.1143V1.51469C354.227 1.37189 355.283 1.2386 356.342 1.11865Z" fill="#9FC1F4"/>
<path d="M353.934 32.6489C342.401 32.6489 333.053 42.5345 333.053 54.7316H374.814C374.814 42.5364 365.465 32.6489 353.934 32.6489Z" fill="#FF9843"/>
<path d="M355.598 32.9197C354.998 32.7883 354.385 32.7197 353.764 32.7197C346.25 32.7197 340.16 42.5749 340.16 54.7319H343.829C343.827 43.5802 348.952 34.3686 355.598 32.9197Z" fill="#FFC48A"/>
<path d="M491.448 265.105C491.448 265.105 485.891 258.622 491.106 254.504C491.106 254.504 494.915 252.198 498.02 252.385C498.02 252.385 493.619 259.765 495.043 260.5C496.467 261.235 499.353 251.922 499.353 251.922C499.353 251.922 508.02 251.081 510.808 252.423C510.808 252.423 503.398 258.487 504.959 258.849C506.52 259.211 514.524 253.257 514.524 253.257C514.524 253.257 522.59 254.63 522.16 259.551C521.729 264.473 518.95 265.993 517.728 265.861C516.506 265.73 509.359 263.001 509.205 264.003C509.05 265.004 513.351 268.276 516.363 268.43C516.363 268.43 510.676 274.704 506.895 272.893C503.116 271.082 502.793 268.213 500.438 267.137C498.081 266.061 496.071 266.063 497.043 267.162C498.016 268.26 502.281 269.327 503.628 271.71C504.976 274.094 506.185 275.701 502.275 275.113C498.365 274.525 492.008 271.663 491.728 268.386C491.448 265.105 491.448 265.105 491.448 265.105Z" fill="#77A4E5"/>
<path d="M518.196 259.683C518.196 259.683 496.286 258.837 491.448 265.105C491.448 265.105 490.378 268.31 487.085 271.229L486.571 272.628C486.571 272.628 490.367 268.624 491.726 268.382C491.726 268.382 489.602 260.618 518.196 259.683Z" fill="#77A4E5"/>
<path d="M487.085 271.229C487.085 271.229 482.382 274.708 482.055 280.922L482.908 280.998C482.908 280.998 484.41 274.572 487.125 272.059C489.841 269.546 487.085 271.229 487.085 271.229Z" fill="#77A4E5"/>
<path d="M472.018 256.951C472.018 256.951 480.858 252 476.732 245.281C476.732 245.281 473.433 241.155 469.896 240.095C469.896 240.095 471.782 250.114 469.896 250.35C468.009 250.586 468.599 239.034 468.599 239.034C468.599 239.034 459.288 234.554 455.635 234.908C455.635 234.908 461.411 244.691 459.524 244.457C457.637 244.223 451.155 234.32 451.155 234.32C451.155 234.32 441.608 232.551 440.077 238.21C438.545 243.868 441.019 246.696 442.434 247.05C443.848 247.404 452.924 247.286 452.688 248.465C452.452 249.643 446.323 251.53 442.906 250.47C442.906 250.47 446.677 259.782 451.627 259.31C456.577 258.838 458.11 255.774 461.175 255.538C464.24 255.302 466.478 256.128 464.946 256.953C463.413 257.777 458.228 257.223 455.753 259.327C453.278 261.431 451.273 262.728 455.871 263.672C460.468 264.614 468.717 264.026 470.368 260.489C472.018 256.951 472.018 256.951 472.018 256.951Z" fill="#77A4E5"/>
<path d="M444.441 239.977C444.441 239.977 469.192 247.992 472.021 256.951C472.021 256.951 471.903 260.959 474.378 265.555V267.324C474.378 267.324 471.785 261.313 470.37 260.486C470.37 260.486 475.908 252.707 444.441 239.977Z" fill="#77A4E5"/>
<path d="M474.378 265.557C474.378 265.557 478.195 271.354 476.019 278.411L475.037 278.146C475.037 278.146 475.99 270.374 473.993 266.465C471.994 262.554 474.378 265.557 474.378 265.557Z" fill="#77A4E5"/>
<path d="M486.082 250.122C486.082 250.122 474.429 243.596 479.868 234.74C479.868 234.74 484.218 229.302 488.878 227.903C488.878 227.903 486.392 241.111 488.878 241.421C491.364 241.732 490.588 226.505 490.588 226.505C490.588 226.505 502.861 220.601 507.678 221.067C507.678 221.067 500.065 233.963 502.551 233.653C505.037 233.342 513.581 220.291 513.581 220.291C513.581 220.291 526.165 217.96 528.185 225.418C530.205 232.876 526.942 236.606 525.078 237.072C523.214 237.539 511.251 237.383 511.562 238.936C511.872 240.49 519.951 242.977 524.456 241.577C524.456 241.577 519.485 253.852 512.959 253.232C506.433 252.611 504.415 248.571 500.375 248.26C496.335 247.95 493.384 249.037 495.404 250.124C497.424 251.212 504.261 250.48 507.522 253.255C510.783 256.029 513.425 257.738 507.366 258.982C501.306 260.225 490.432 259.448 488.256 254.787C486.08 250.126 486.082 250.122 486.082 250.122Z" fill="#9FC1F4"/>
<path d="M522.437 227.749C522.437 227.749 489.811 238.314 486.083 250.125C486.083 250.125 486.239 255.409 482.976 261.467V263.798C482.976 263.798 486.393 255.873 488.259 254.786C488.257 254.784 480.954 244.529 522.437 227.749Z" fill="#9FC1F4"/>
<path d="M482.974 261.467C482.974 261.467 477.943 269.107 480.812 278.41L482.106 278.062C482.106 278.062 480.85 267.817 483.483 262.664C486.116 257.512 482.974 261.467 482.974 261.467Z" fill="#9FC1F4"/>
<path d="M485.689 298.582C498.294 298.582 508.514 288.361 508.514 275.755H462.863C462.865 288.361 473.085 298.582 485.689 298.582Z" fill="#9FC1F4"/>
<path d="M491.305 298.407C490.376 298.523 489.43 298.582 488.469 298.582C475.864 298.582 465.645 288.361 465.645 275.755H471.316C471.318 287.402 480.039 297.009 491.305 298.407Z" fill="#AFCDFB"/>
<path d="M509.033 275.752H462.115V276.453H509.033V275.752Z" fill="#9FC1F4"/>
<path d="M379.431 297.458L357.002 204.356L358.569 200.691L380.788 297.447C380.845 297.694 380.657 297.93 380.402 297.93H380.03C379.747 297.932 379.497 297.736 379.431 297.458Z" fill="#77A4E5"/>
<path d="M278.21 297.932C277.749 297.932 277.399 297.519 277.473 297.064L284.079 257.019H286.91L279.032 297.256C278.954 297.649 278.611 297.932 278.21 297.932Z" fill="#77A4E5"/>
<path d="M341.579 297.932C341.118 297.932 340.768 297.519 340.842 297.064L347.448 257.019H350.279L342.401 297.256C342.325 297.649 341.98 297.932 341.579 297.932Z" fill="#77A4E5"/>
<path d="M356.943 257.103H278.052L294.395 154.62H373.289L356.943 257.103Z" fill="#F5FBFF"/>
<path d="M362.847 256.322H272.24V259.336H362.847V256.322Z" fill="#77A4E5"/>
<path d="M325.64 176.062C325.581 176.873 325.461 177.671 325.286 178.448C323.641 185.773 317.121 191.384 309.751 191.397C301.598 191.411 295.494 184.569 296.117 176.114C296.739 167.658 303.852 160.794 312.005 160.781C313.715 160.777 315.333 161.076 316.82 161.63C317.488 161.878 318.132 162.176 318.743 162.521C320.062 163.269 321.237 164.235 322.229 165.377C322.781 166.011 323.276 166.702 323.706 167.437C323.957 167.864 324.186 168.305 324.391 168.76C324.964 170.029 325.36 171.405 325.551 172.858C325.648 173.585 325.69 174.335 325.68 175.099C325.676 175.417 325.663 175.739 325.64 176.062Z" fill="#BDD1F9"/>
<path d="M324.392 168.761L310.881 176.087C310.881 176.087 316.455 166.269 318.743 162.52C320.063 163.268 321.237 164.233 322.229 165.376C322.781 166.01 323.276 166.701 323.706 167.436C323.958 167.862 324.186 168.304 324.392 168.761Z" fill="white"/>
<path d="M325.794 166.908L313.452 173.601C313.452 173.601 318.545 164.631 320.635 161.208C321.84 161.891 322.914 162.773 323.818 163.816C324.323 164.397 324.774 165.027 325.168 165.699C325.398 166.087 325.606 166.491 325.794 166.908Z" fill="#F99746"/>
<path d="M350.661 249.313L285.726 249.31L292.3 211.839L357.235 211.843L350.661 249.313ZM286.251 248.931L350.271 248.935L356.713 212.218L292.694 212.214L286.251 248.931Z" fill="#BDD1F9"/>
<path d="M346.789 244.174L289.199 244.171C289.199 244.171 299.414 238.691 302.217 238.978C305.019 239.266 309.047 241.484 311.636 241.57C314.226 241.656 317.032 233.88 319.914 234.247C322.796 234.613 323.881 241.492 325.374 240.82C326.867 240.148 331.35 239.856 333.931 240.82C336.513 241.783 340.275 237.758 342.544 237.884C344.815 238.011 346.789 244.174 346.789 244.174Z" fill="#F99746"/>
<path d="M303.048 233.162L292.048 233.16L292.151 232.577H303.149L303.048 233.162Z" fill="#F99746"/>
<path d="M302.83 234.407H291.83L291.932 233.823L302.932 233.825L302.83 234.407Z" fill="#F99746"/>
<path d="M292.496 225.388L350.087 225.392C350.087 225.392 341.794 219.912 338.891 220.197C335.987 220.485 331.182 222.701 328.563 222.787C325.943 222.873 325.867 215.097 322.855 215.462C319.843 215.828 316.346 222.707 315.088 222.035C313.831 221.363 309.451 221.071 306.53 222.035C303.612 222.998 301.261 218.973 298.948 219.099C296.633 219.225 292.496 225.388 292.496 225.388Z" fill="#BDD1F9"/>
<path d="M306.155 215.449H295.155L295.258 214.867H306.258L306.155 215.449Z" fill="#BDD1F9"/>
<path d="M305.936 216.696H294.937L295.039 216.112H306.039L305.936 216.696Z" fill="#BDD1F9"/>
<path d="M296.229 206.611H293.703L295.898 194.773H298.424L296.229 206.611Z" fill="#BDD1F9"/>
<path d="M299.669 206.611H297.142L298.843 197.441H301.369L299.669 206.611Z" fill="#BDD1F9"/>
<path d="M303.111 206.611H300.584L302.357 197.047H304.883L303.111 206.611Z" fill="#BDD1F9"/>
<path d="M306.551 206.611H304.025L305.374 199.337H307.901L306.551 206.611Z" fill="#BDD1F9"/>
<path d="M309.993 206.611H307.467L308.914 198.808H311.44L309.993 206.611Z" fill="#BDD1F9"/>
<path d="M313.433 206.611H310.907L312.03 200.56H314.555L313.433 206.611Z" fill="#BDD1F9"/>
<path d="M330.018 206.611H327.492L329.687 194.773H332.214L330.018 206.611Z" fill="#F99746"/>
<path d="M333.459 206.611H330.935L332.635 197.441H335.159L333.459 206.611Z" fill="#F99746"/>
<path d="M336.901 206.611H334.374L336.147 197.047H338.673L336.901 206.611Z" fill="#F99746"/>
<path d="M340.341 206.611H337.815L339.164 199.337H341.691L340.341 206.611Z" fill="#F99746"/>
<path d="M343.783 206.611H341.257L342.704 198.808H345.23L343.783 206.611Z" fill="#F99746"/>
<path d="M347.223 206.611H344.697L345.82 200.56H348.346L347.223 206.611Z" fill="#F99746"/>
<path d="M342.18 167.967H333.958L334.169 166.841H342.391L342.18 167.967Z" fill="#BDD1F9"/>
<path d="M352.268 167.967H343.187L343.4 166.841H352.479L352.268 167.967Z" fill="#BDD1F9"/>
<path d="M358.739 167.967H352.95L353.161 166.841H358.95L358.739 167.967Z" fill="#BDD1F9"/>
<path d="M364.142 167.967H359.676L359.887 166.841H364.353L364.142 167.967Z" fill="#BDD1F9"/>
<path d="M341.278 172.775H333.055L333.267 171.647H341.489L341.278 172.775Z" fill="#BDD1F9"/>
<path d="M351.364 172.775H342.285L342.496 171.647H351.577L351.364 172.775Z" fill="#BDD1F9"/>
<path d="M357.837 172.775H352.047L352.259 171.647H358.048L357.837 172.775Z" fill="#BDD1F9"/>
<path d="M363.239 172.775H358.773L358.985 171.647H363.451L363.239 172.775Z" fill="#BDD1F9"/>
<path d="M347.067 165.339H334.451L334.662 164.212H347.278L347.067 165.339Z" fill="#BDD1F9"/>
<path d="M355.541 165.339H348.268L348.48 164.212H355.752L355.541 165.339Z" fill="#BDD1F9"/>
<path d="M364.643 165.339H356.567L356.778 164.212H364.854L364.643 165.339Z" fill="#BDD1F9"/>
<path d="M346.108 170.449H333.492L333.703 169.322H346.319L346.108 170.449Z" fill="#BDD1F9"/>
<path d="M354.582 170.449H347.309L347.521 169.322H354.793L354.582 170.449Z" fill="#BDD1F9"/>
<path d="M363.684 170.449H355.608L355.819 169.322H363.895L363.684 170.449Z" fill="#BDD1F9"/>
<path d="M340.375 177.58H332.153L332.364 176.453H340.587L340.375 177.58Z" fill="#BDD1F9"/>
<path d="M350.461 177.58H341.382L341.594 176.453H350.673L350.461 177.58Z" fill="#BDD1F9"/>
<path d="M356.934 177.58H351.145L351.356 176.453H357.146L356.934 177.58Z" fill="#BDD1F9"/>
<path d="M362.338 177.58H357.871L358.083 176.453H362.549L362.338 177.58Z" fill="#BDD1F9"/>
<path d="M345.205 175.256H332.589L332.8 174.13H345.416L345.205 175.256Z" fill="#BDD1F9"/>
<path d="M353.678 175.256H346.406L346.617 174.13H353.89L353.678 175.256Z" fill="#BDD1F9"/>
<path d="M362.778 175.256H354.702L354.916 174.13H362.991L362.778 175.256Z" fill="#BDD1F9"/>
<path d="M339.53 182.087H331.306L331.517 180.959H339.741L339.53 182.087Z" fill="#BDD1F9"/>
<path d="M349.616 182.087H340.537L340.748 180.959H349.827L349.616 182.087Z" fill="#BDD1F9"/>
<path d="M356.087 182.087H350.3L350.511 180.959H356.298L356.087 182.087Z" fill="#BDD1F9"/>
<path d="M361.492 182.087H357.026L357.237 180.959H361.703L361.492 182.087Z" fill="#BDD1F9"/>
<path d="M344.358 179.762H331.743L331.955 178.635H344.569L344.358 179.762Z" fill="#BDD1F9"/>
<path d="M352.832 179.762H345.56L345.773 178.635H353.043L352.832 179.762Z" fill="#BDD1F9"/>
<path d="M361.934 179.762H353.858L354.069 178.635H362.145L361.934 179.762Z" fill="#BDD1F9"/>
<path d="M320.816 196.533H316.791L316.896 195.982H320.921L320.816 196.533Z" fill="#BDD1F9"/>
<path d="M325.754 196.533H321.31L321.413 195.982H325.857L325.754 196.533Z" fill="#BDD1F9"/>
<path d="M320.374 198.886H316.349L316.454 198.333H320.479L320.374 198.886Z" fill="#BDD1F9"/>
<path d="M325.312 198.886H320.869L320.972 198.333H325.415L325.312 198.886Z" fill="#BDD1F9"/>
<path d="M323.209 195.247H317.033L317.138 194.695H323.311L323.209 195.247Z" fill="#BDD1F9"/>
<path d="M327.355 195.247H323.797L323.9 194.695H327.46L327.355 195.247Z" fill="#BDD1F9"/>
<path d="M322.738 197.749H316.564L316.667 197.197H322.841L322.738 197.749Z" fill="#BDD1F9"/>
<path d="M326.887 197.749H323.327L323.43 197.197H326.99L326.887 197.749Z" fill="#BDD1F9"/>
<path d="M353.056 196.533H349.031L349.136 195.982H353.161L353.056 196.533Z" fill="#BDD1F9"/>
<path d="M357.994 196.533H353.549L353.654 195.982H358.097L357.994 196.533Z" fill="#BDD1F9"/>
<path d="M352.614 198.886H348.59L348.695 198.333H352.719L352.614 198.886Z" fill="#BDD1F9"/>
<path d="M357.553 198.886H353.108L353.212 198.333H357.656L357.553 198.886Z" fill="#BDD1F9"/>
<path d="M355.449 195.247H349.273L349.378 194.695H355.552L355.449 195.247Z" fill="#BDD1F9"/>
<path d="M359.595 195.247H356.037L356.14 194.695H359.7L359.595 195.247Z" fill="#BDD1F9"/>
<path d="M354.979 197.749H348.803L348.908 197.197H355.082L354.979 197.749Z" fill="#BDD1F9"/>
<path d="M359.127 197.749H355.567L355.67 197.197H359.23L359.127 197.749Z" fill="#BDD1F9"/>
<path d="M374.47 296.413C374.329 298.34 371.61 298.36 368.528 298.003C365.444 297.645 366.265 298.425 361.947 298.486C357.629 298.547 356.141 297.119 355.931 296.502C355.745 295.954 357.825 295.493 360.049 294.952C360.329 294.886 360.611 294.815 360.89 294.743C363.4 294.105 365.06 292.228 367.207 290.588C369.24 289.035 371.862 283.414 371.862 283.414L377.76 283.147C377.76 283.147 375.275 288.185 374.342 290.358C373.794 291.636 374.026 293.206 374.266 294.41C374.392 295.065 374.519 295.735 374.47 296.413Z" fill="#FFB27D"/>
<path d="M368.527 298.003C365.442 297.645 366.263 298.425 361.945 298.486C357.628 298.547 356.139 297.119 355.929 296.502C355.743 295.954 357.824 295.493 360.047 294.952L360.074 294.992C360.074 294.992 362.853 296.485 366.41 296.127C369.307 295.836 372.266 294.627 374.265 294.41C374.392 295.065 374.52 295.735 374.468 296.413C374.327 298.34 371.611 298.361 368.527 298.003Z" fill="#233862"/>
<path d="M415.207 296.812C415.068 298.739 412.349 298.762 409.265 298.408C406.181 298.054 407.001 298.832 402.684 298.897C398.366 298.962 396.875 297.536 396.666 296.919C396.479 296.371 398.558 295.908 400.782 295.365C401.062 295.299 401.342 295.226 401.623 295.156C404.131 294.516 405.791 292.637 407.934 290.994C409.966 289.438 407.936 280.232 407.936 280.232L414.424 279.6C414.424 279.6 414.114 287.351 414.118 290.878C414.12 292.267 414.759 293.606 414.999 294.809C415.129 295.464 415.256 296.134 415.207 296.812Z" fill="#FFB27D"/>
<path d="M409.265 298.409C406.181 298.054 407.002 298.833 402.684 298.898C398.366 298.963 396.876 297.537 396.666 296.92C396.48 296.371 398.559 295.909 400.782 295.366L400.809 295.406C400.809 295.406 403.59 296.895 407.146 296.535C410.044 296.242 413 295.029 414.999 294.81C415.127 295.465 415.256 296.135 415.205 296.813C415.068 298.74 412.349 298.763 409.265 298.409Z" fill="#233862"/>
<path d="M396.274 137.684C395.156 133.089 396.776 130.949 398.236 129.811C398.929 128.12 399.719 126.901 400.528 126.441C402.004 125.603 403.771 125.511 405.006 125.584C404.688 125.254 404.062 125.136 404.062 125.136C404.829 125.022 406.539 125.782 406.539 125.782C417.2 121.673 418.875 137.371 418.65 141.019C418.428 144.666 418.458 148.961 424.004 151.834C434.587 157.318 420.488 177.978 420.488 177.978C420.756 175.031 407.159 159.477 400.066 154.82C398.339 152.278 397.726 147.784 397.679 147.432C397.977 150.995 398.587 152.992 399.131 154.117C395.897 151.143 395.417 143.995 396.274 137.684Z" fill="#A9453D"/>
<path d="M400.485 155.054C400.448 155.069 403.91 156.866 406.514 156.154C408.962 155.486 410.563 152.312 410.529 152.304C409.491 152.099 409.192 150.673 409.215 144.549L408.747 144.641L400.865 146.202C400.865 146.202 401.044 148.683 401.05 151.019C401.052 152.984 400.934 154.844 400.485 155.054Z" fill="#FFB27D"/>
<path d="M400.861 146.204C400.861 146.204 401.04 148.685 401.046 151.021C405.457 150.897 407.787 146.872 408.743 144.643L400.861 146.204Z" fill="#ED975D"/>
<path d="M368.793 286.537C368.407 287.748 369.275 288.997 370.546 289.056L373.625 289.2L376.882 289.299C377.697 289.324 378.476 288.968 378.991 288.336C381.592 285.145 389.597 274.511 394.452 259.06C394.589 258.626 394.732 258.188 394.886 257.744C398.092 248.392 404.74 236.654 408.245 226.029C408.802 224.337 409.303 222.745 409.752 221.237C409.895 220.753 410.036 220.279 410.169 219.813C412.751 210.841 413.499 204.95 414.188 198.657L388.891 198.859C388.891 198.859 383.564 240.258 368.793 286.537Z" fill="#2A4E96"/>
<path d="M392.431 184.32C392.494 196.359 390.665 201.525 390.665 201.525C390.665 201.525 401.495 207.029 414.368 202.977C414.521 202.93 423.579 200.365 423.579 200.365C423.364 199.878 421.574 191.822 421.363 191.374C418.644 185.537 417.904 183.086 417.582 181.291C416.984 177.94 416.971 174.474 417.27 171.203C418.056 162.548 420.392 155.364 420.392 155.364C416.885 154.566 413.599 153.163 409.948 151.794C409.108 152.839 406.542 153.934 404.315 153.885C401.75 153.827 400.918 152.731 401.052 151.531C398.32 153.053 396.138 154.488 396.138 154.488C393.815 158.523 389.106 162.441 388.765 168.629C388.681 170.152 392.43 183.983 392.431 184.32Z" fill="white"/>
<path d="M414.188 185.663C415.294 187.228 417.415 196.742 422.688 197.938C419.97 191.157 417.906 188.183 417.584 186.099C416.987 182.207 416.973 178.18 417.272 174.381C415.507 171.285 414.188 169.164 414.188 169.164C414.049 168.664 411.382 160.415 410.527 167.788C409.674 175.164 412.953 183.913 414.188 185.663Z" fill="#5F9AA8"/>
<path d="M399.39 148.417C399.39 148.417 409.827 148.588 409.832 142.088C409.84 135.587 411.192 131.231 404.528 130.846C397.865 130.462 396.569 132.941 396.038 135.109C395.509 137.278 396.675 148.203 399.39 148.417Z" fill="#FFB27D"/>
<path d="M399.777 130.686C399.777 130.686 402.634 138.314 407.019 139.441C411.403 140.568 413.305 139.393 413.305 139.393C413.305 139.393 409.941 136.722 409.244 132.057C409.244 132.057 401.932 127.055 399.777 130.686Z" fill="#A9453D"/>
<path d="M400.485 131.305C400.485 131.305 398.351 133.007 397.831 134.663C397.311 136.318 397.077 139.726 396.083 139.612C396.083 139.612 393.93 134.427 396.35 131.495C398.914 128.384 400.485 131.305 400.485 131.305Z" fill="#A9453D"/>
<path d="M382.97 192.677L378.041 207.707L380.851 208.834L389.001 195.556L382.97 192.677Z" fill="#FFB27D"/>
<path d="M396.258 153.604C396.258 153.604 390.446 155.91 388.765 159.507C387.082 163.104 384.537 187.224 383.522 189.701C382.507 192.178 381.746 194.139 381.746 194.139C381.746 194.139 384.676 196.608 387.623 196.789C390.568 196.972 396.258 153.604 396.258 153.604Z" fill="#F99746"/>
<path d="M401.052 151.533C401.052 151.533 395.015 166.451 394.836 169.469C394.659 172.489 394.126 218.838 394.126 218.838C394.126 218.838 394.482 220.968 390.397 220.081C386.313 219.194 385.247 218.305 385.247 218.305C385.247 218.305 389.154 189.714 388.087 179.77C387.021 169.825 396.255 153.605 396.255 153.605L401.052 151.533Z" fill="#F99746"/>
<path d="M373.625 289.2L377.162 289.309C377.794 289.328 378.399 289.056 378.803 288.568C381.181 285.688 389.473 274.907 394.454 259.062C394.591 258.628 394.734 258.19 394.888 257.746C398.094 248.394 404.742 236.656 408.246 226.031C408.804 224.339 409.305 222.747 409.754 221.239C409.897 220.755 410.038 220.281 410.171 219.815L406.445 216.987C406.445 216.987 395.261 235.1 391.798 252.147C388.788 266.952 376.743 284.768 373.625 289.2Z" fill="#1E3D70"/>
<path d="M406.055 253.732C405.994 261.575 406.365 279.054 407.321 287.599C407.409 288.381 408.069 288.972 408.857 288.972H411.496C412.608 288.972 413.442 288.964 413.994 288.956C414.471 288.949 414.881 288.606 414.972 288.136C417.597 274.777 419.476 263.679 420.851 254.088C422.001 246.061 423.025 239.18 423.811 233.257C424.603 227.295 425.153 222.303 425.351 218.085C425.382 217.421 425.405 216.775 425.416 216.147C425.43 215.517 425.431 214.904 425.428 214.31L403.571 212.179C403.845 226.701 406.091 248.913 406.055 253.732Z" fill="#2A4E96"/>
<path d="M411.496 288.97C412.496 288.97 413.269 288.964 413.817 288.957C414.398 288.949 414.896 288.532 415.007 287.963C417.615 274.681 419.483 263.637 420.851 254.089C422.001 246.062 423.026 239.18 423.812 233.257C424.604 227.296 425.154 222.303 425.352 218.086L417.331 222.804C417.331 222.804 422.451 224.611 420.497 238.284C418.544 251.956 414.215 287.036 411.496 288.97Z" fill="#1E3D70"/>
<path d="M410.462 217.949C410.462 217.949 412.003 223.512 417.329 222.802C422.656 222.092 430.231 218.895 430.231 218.895C430.231 218.895 427.954 211.702 425.123 202.25C421.696 190.809 417.455 176.059 415.456 166.754C414.894 164.147 414.512 161.969 414.369 160.41L409.95 151.834C409.95 151.834 403.361 166.624 403.005 170.354C402.651 174.086 410.462 217.949 410.462 217.949Z" fill="#F99746"/>
<path d="M415.782 169.801L409.949 151.836C409.964 151.844 417.316 154.024 421.013 155.892C421.013 155.892 423.324 158.872 424.754 165.747C424.754 165.747 426.266 182.255 422.892 188.292C422.892 188.292 412.239 190.423 395.193 184.562V180.655C395.193 180.655 413.836 181.632 417.655 182.076L415.782 169.801Z" fill="#FFB27D"/>
<path d="M410.699 178.17C410.937 184.208 412.357 195.929 425.023 202.203C425.057 202.218 425.089 202.237 425.123 202.25C421.697 190.809 417.455 176.059 415.456 166.754C413.13 170.233 410.569 174.846 410.699 178.17Z" fill="#ED7D2B"/>
<path d="M409.95 151.836C409.95 151.836 420.762 152.598 423.366 158.4C425.97 164.201 426.798 183.498 423.484 189.182C423.484 189.182 418.921 190.482 410.851 188.972C410.752 188.953 410.653 188.934 410.552 188.915C410.552 188.915 407.978 182.611 410.285 181.368C410.285 181.368 417.091 181.724 416.381 179.473C415.671 177.223 409.95 151.836 409.95 151.836Z" fill="#F99746"/>
<path d="M382.841 183.071L383.159 184.096L400.9 178.576C400.9 178.576 401.136 178.306 401.02 177.948C400.891 177.552 400.582 177.552 400.582 177.552L382.841 183.071Z" fill="#A9453D"/>
<path d="M381.558 184.039L382.841 183.071L383.159 184.094L381.558 184.039Z" fill="#A9453D"/>
<path d="M378.742 207.296C378.742 207.296 374.241 209.783 373.649 211.679C373.057 213.575 373.465 217.543 374.179 217.484C374.892 217.425 375.959 213.219 376.551 212.924C377.143 212.627 377.973 211.74 377.973 212.391C377.973 213.042 377.381 214.226 377.676 214.405C377.973 214.583 378.919 212.747 379.57 212.391C380.221 212.035 380.495 209.107 381.127 208.32C381.759 207.534 378.742 207.296 378.742 207.296Z" fill="#FFB27D"/>
<path d="M395.192 180.657C395.192 180.657 391.167 178.178 389.479 178.559C387.79 178.94 383.488 182.056 385.557 182.732C387.626 183.408 389.304 182.7 390.099 183.189C390.895 183.681 391.484 184.575 395.192 184.564C398.901 184.553 395.192 180.657 395.192 180.657Z" fill="#FFB27D"/>
<g opacity="0.6">
<path d="M200.258 297.927H200.192C199.8 297.927 199.485 297.605 199.495 297.213L200.552 251.402L203.664 251.039L201.01 297.216C200.988 297.616 200.656 297.927 200.258 297.927Z" fill="#77A4E5"/>
<path d="M182.117 297.927H182.051C181.658 297.927 181.344 297.605 181.354 297.213L182.41 251.402L185.523 251.039L182.869 297.216C182.846 297.616 182.515 297.927 182.117 297.927Z" fill="#77A4E5"/>
<path d="M232.175 297.927H232.242C232.634 297.927 232.948 297.605 232.938 297.213L231.882 251.402L228.769 251.039L231.423 297.216C231.446 297.616 231.777 297.927 232.175 297.927Z" fill="#77A4E5"/>
<path d="M180.054 248.562V217.17C180.054 211.647 184.531 207.168 190.054 207.168H212.669C218.192 207.168 222.669 211.647 222.669 217.17V249.761L180.054 248.562Z" fill="#77A4E5"/>
<path d="M226.721 253.518H183.056C181.398 253.518 180.054 252.173 180.054 250.515V248.562H226.721V253.518Z" fill="#77A4E5"/>
<path d="M231.954 253.518H198.92C197.694 253.518 196.7 252.524 196.7 251.298V250.784C196.7 249.557 197.694 248.563 198.92 248.563H231.954C233.18 248.563 234.174 249.557 234.174 250.784V251.298C234.174 252.524 233.18 253.518 231.954 253.518Z" fill="#77A4E5"/>
</g>
<path d="M256.667 279.66C256.983 281.238 259.231 280.973 261.744 280.36C264.257 279.747 263.659 280.476 267.234 280.08C270.81 279.684 271.893 278.352 272.003 277.818C272.1 277.346 270.334 277.181 268.439 276.962C268.201 276.935 267.962 276.906 267.722 276.876C265.582 276.607 264.015 275.227 262.071 274.092C260.23 273.018 257.483 268.641 257.483 268.641L252.579 269.03C252.579 269.03 255.153 272.938 256.149 274.639C256.735 275.638 256.703 276.96 256.63 277.98C256.592 278.538 256.556 279.104 256.667 279.66Z" fill="#FFB27D"/>
<path d="M261.744 280.36C264.257 279.747 263.659 280.476 267.234 280.08C270.81 279.684 271.893 278.351 272.003 277.818C272.1 277.346 270.334 277.18 268.44 276.961L268.422 276.998C268.422 276.998 266.279 278.519 263.301 278.589C260.876 278.648 258.306 277.953 256.631 277.98C256.592 278.534 256.556 279.102 256.669 279.657C256.983 281.238 259.231 280.975 261.744 280.36Z" fill="#233862"/>
<path d="M214.525 286.718C213.551 287.999 215.235 289.511 217.358 290.988C219.481 292.466 218.538 292.502 221.2 294.922C223.861 297.342 225.579 297.271 226.049 297.003C226.468 296.765 225.422 295.329 224.333 293.762C224.196 293.566 224.059 293.366 223.924 293.168C222.71 291.386 222.71 289.297 222.274 287.089C221.86 284.998 225.276 277.312 225.276 277.312L219.789 276.621C219.789 276.621 219.073 281.263 218.457 283.132C218.095 284.233 216.57 284.958 215.757 285.579C215.317 285.918 214.868 286.266 214.525 286.718Z" fill="#FFB27D"/>
<path d="M217.358 290.988C219.481 292.466 218.538 292.502 221.2 294.922C223.861 297.342 225.579 297.272 226.049 297.003C226.468 296.765 225.422 295.33 224.334 293.763L224.294 293.774C224.294 293.774 221.735 293.172 219.713 290.987C218.064 289.206 216.886 286.819 215.757 285.581C215.315 285.92 214.866 286.268 214.523 286.72C213.551 287.999 215.235 289.511 217.358 290.988Z" fill="#233862"/>
<path d="M236.929 247.425L231.918 260.909L225.377 278.515C225.377 278.515 223.602 278.687 221.902 278.197C220.337 277.744 218.542 276.562 218.542 276.562C218.542 276.562 220.358 257.657 223.747 246.806C224.615 244.021 225.588 241.768 226.662 240.5C231.914 234.291 236.929 247.425 236.929 247.425Z" fill="#163560"/>
<path d="M231.834 226.01C228.552 224.951 218.66 225.584 209.255 227.425L207.816 224.904L187.503 223.318C187.503 223.318 180.8 238.184 184.47 247.657C185.009 249.049 186.081 249.942 187.908 249.972C187.908 249.972 188.204 249.972 188.205 249.972C188.205 249.972 200.296 249.964 204.222 249.964C214.323 249.964 225.601 243.019 227.059 242.727C229.447 242.249 230.402 247.027 232.79 252.042C235.177 257.057 255.235 274.252 255.235 274.252C255.235 274.252 258.317 274.282 259.591 273.804C260.96 273.29 261.462 272.624 261.462 272.624C261.462 272.624 239.238 228.398 231.834 226.01Z" fill="#2A4E96"/>
<path d="M200.702 163.408C197.842 162.727 193.961 163.526 193.315 163.603C185.601 164.503 183.876 176.487 184.45 179.84C185.506 186.018 182.54 187.759 178.999 192.7C171.9 202.608 176.804 210.765 182.582 212.787C186.049 214 190.774 210.696 190.774 210.696C190.861 210.729 203.04 199.101 209.063 193.452C219.193 189.278 207.99 165.145 200.702 163.408Z" fill="#233862"/>
<path d="M202.354 191.666C202.39 191.678 199.213 193.753 196.624 193.317C194.189 192.908 191.611 189.73 191.644 189.72C192.628 189.42 193.498 188.271 192.883 182.344L193.346 182.388L201.128 183.134C201.128 183.134 201.195 185.554 201.418 187.816C201.602 189.717 201.899 191.506 202.354 191.666Z" fill="#FFB27D"/>
<path d="M201.13 183.133C201.13 183.133 201.197 185.553 201.42 187.815C197.136 188.123 194.49 184.452 193.348 182.384L201.13 183.133Z" fill="#ED975D"/>
<path d="M202.769 185.133C202.769 185.133 192.683 186.312 192.045 180.019C191.407 173.725 189.677 169.639 196.091 168.62C202.505 167.601 204.001 169.877 204.724 171.925C205.448 173.974 205.377 184.663 202.769 185.133Z" fill="#FFB27D"/>
<path d="M203.521 168.69C203.521 168.69 198.649 175.665 194.514 177.182C190.378 178.7 188.422 177.746 188.422 177.746C188.422 177.746 190.395 175.029 191.046 171.289C191.238 170.187 192.003 169.269 193.058 168.902C196.024 167.866 201.743 166.28 203.521 168.69Z" fill="#233862"/>
<path d="M199.495 169.204C199.495 169.204 202.1 170.691 203.139 172.022C204.142 173.306 205.214 176.716 205.06 178.218C205.06 178.218 206.701 171.059 204.074 168.454C201.289 165.691 199.495 169.204 199.495 169.204Z" fill="#233862"/>
<path d="M210.111 208.364C209.806 228.743 210.027 224.483 207.797 226.418C207.261 226.884 205.751 227.16 203.763 227.292C197.515 227.707 186.532 226.677 186.115 225.523C184.674 221.527 185.691 220.287 184.49 214.169C184.364 213.518 184.21 212.814 184.027 212.048C183.024 207.846 182.049 206.418 185.605 199.669C188.83 193.555 192.314 188.671 192.615 188.85C201.125 193.901 201.679 189.577 201.679 189.577C201.679 189.577 210.259 198.425 210.111 208.364Z" fill="white"/>
<path d="M231.918 260.909L225.228 279.248C225.228 279.248 222.826 280.031 221.074 279.777C219.29 279.518 218.314 278.545 218.314 278.545C218.314 278.545 220.358 257.659 223.745 246.808L231.918 260.909Z" fill="#2A4E96"/>
<path d="M201.679 189.573C201.679 189.573 210.434 191.058 211.462 194.828C212.49 198.598 220.01 219.375 220.01 219.375C220.01 219.375 214.091 221.562 212.033 219.506C209.977 217.45 204.879 200.426 204.879 200.426L201.679 189.573Z" fill="white"/>
<path d="M203.763 227.292C197.515 227.707 186.532 226.677 186.115 225.523C184.674 221.526 185.691 220.287 184.49 214.169L187.419 207.496C187.419 207.496 187.004 215.133 189.792 217.617C192.575 220.102 201.201 222.415 202.556 224.493C203.209 225.49 203.639 226.49 203.763 227.292Z" fill="#DFEBFD"/>
<path d="M204.274 222.943C204.274 222.943 206.134 224.548 206.665 224.677C207.194 224.807 207.495 224.687 207.495 224.687L206.139 223.099L204.274 222.943Z" fill="#FFB27D"/>
<path d="M203.535 221.052L208.247 222.269C208.247 222.269 208.125 222.604 207.592 222.688C207.059 222.77 205.627 222.553 205.627 222.553L203.535 221.052Z" fill="#FFB27D"/>
<path d="M195.546 223.65C195.546 223.65 202.272 220.657 203.534 221.053C204.797 221.449 208.035 223.162 208.543 223.884C209.052 224.606 205.891 223.794 204.905 223.732C204.265 223.692 202.782 224.569 202.046 224.992C198.946 226.772 196.793 226.614 196.793 226.614L195.546 223.65Z" fill="#FFB27D"/>
<path d="M192.615 188.848C192.615 188.848 183.1 190.634 181.337 193.271C177.491 199.027 169.303 222.873 173.889 226.07C179.052 229.67 197.391 227.012 197.391 227.012C197.391 227.012 198.002 224.16 197.153 222.779C196.304 221.399 182.508 219.169 181.87 218.533C181.234 217.898 188.16 208.688 187.423 206.925C185.057 201.279 192.615 188.848 192.615 188.848Z" fill="white"/>
<path d="M230.231 222.633C230.231 222.633 236.891 224.432 237.574 225.466C238.26 226.5 239.6 229.66 239.543 230.485C239.486 231.309 237.667 228.853 236.986 228.225C236.544 227.817 234.947 227.579 234.163 227.452C232.183 227.13 231.229 226.224 230.486 225.774C229.99 225.472 229.384 225.529 229.384 225.529L230.231 222.633Z" fill="#FFB27D"/>
<path d="M236.993 227.276C236.993 227.276 237.397 229.544 237.707 229.95C238.018 230.355 238.305 230.448 238.305 230.448L238.257 228.491L236.993 227.276Z" fill="#FFB27D"/>
<path d="M237.574 225.466L240.281 229.135C240.281 229.135 239.993 229.306 239.557 229.051C239.122 228.796 238.21 227.793 238.21 227.793L237.574 225.466Z" fill="#FFB27D"/>
<path d="M230.488 225.772C230.488 225.772 231.105 227.27 232.339 227.807C233.57 228.344 234.476 229.152 234.674 228.862C234.872 228.573 233.742 227.046 233.742 227.046L230.488 225.772Z" fill="#FFB27D"/>
<path d="M218.241 214.463L232.245 223.318C232.245 223.318 230.774 225.287 230.282 225.466C227.69 226.418 216.025 225.506 212.031 219.509L218.241 214.463Z" fill="white"/>
<path d="M212.692 224.085C213.518 224.084 221.739 223.516 221.739 223.516C221.739 223.516 221.501 224.973 222.009 225.753L213.998 227.286L212.351 226.802L212.692 224.085Z" fill="#F9DDBF"/>
<path d="M198.981 225.407L212.692 224.085C212.692 224.085 212.21 226.622 214 227.284L198.884 228.39C198.884 228.392 197.666 226.677 198.981 225.407Z" fill="#F99746"/>
<path d="M221.716 223.697L212.45 224.411C212.45 224.411 212.521 224.091 212.692 224.087C212.865 224.084 221.897 223.427 221.897 223.427L221.864 223.68L221.716 223.697Z" fill="#F99746"/>
<path d="M213.998 227.286L222.159 225.734L222.083 225.523L213.387 227.189L213.998 227.286Z" fill="#F99746"/>
<path d="M119.036 297.854H118.962C118.528 297.854 118.177 297.494 118.189 297.058L119.362 245.905L122.817 245.5L119.87 297.062C119.845 297.505 119.48 297.854 119.036 297.854Z" fill="#77A4E5"/>
<path d="M98.898 297.854H98.8238C98.3897 297.854 98.0394 297.494 98.0509 297.058L99.2236 245.905L102.679 245.5L99.7319 297.062C99.7071 297.505 99.3416 297.854 98.898 297.854Z" fill="#77A4E5"/>
<path d="M154.467 297.854H154.541C154.976 297.854 155.326 297.494 155.314 297.058L154.142 245.905L150.686 245.5L153.633 297.062C153.658 297.505 154.026 297.854 154.467 297.854Z" fill="#77A4E5"/>
<path d="M96.6078 242.733V207.681C96.6078 201.514 101.579 196.514 107.709 196.514H132.814C138.946 196.514 143.914 201.514 143.914 207.681V244.072L96.6078 242.733Z" fill="#77A4E5"/>
<path d="M148.413 248.266H99.9507C98.1041 248.266 96.6077 246.769 96.6077 244.923V242.733H148.413V248.266Z" fill="#77A4E5"/>
<path d="M154.214 248.266H117.557C116.192 248.266 115.086 247.16 115.086 245.795V245.206C115.086 243.841 116.192 242.735 117.557 242.735H154.214C155.579 242.735 156.685 243.841 156.685 245.206V245.795C156.685 247.16 155.579 248.266 154.214 248.266Z" fill="#77A4E5"/>
<path d="M134.502 183.566C134.502 183.566 132.401 185.354 131.946 189.99C131.599 193.511 134.042 220.841 135.879 223.013C141.048 229.125 147.528 226.543 150.066 227.47L152.461 225.319C152.461 225.319 144.042 219.104 143.403 217.078C140.933 209.272 142.462 186.513 134.502 183.566Z" fill="#F9DDBF"/>
<path d="M132.993 161.274C132.993 161.274 133.136 156.261 126.526 155.278C119.916 154.294 118.09 155.84 116.967 157.527C115.844 159.212 113.736 166.097 113.948 168.837C114.159 171.577 121.698 174.964 121.574 176.563C121.448 178.161 132.993 161.274 132.993 161.274Z" fill="#163560"/>
<path d="M163.649 293.53C163.434 295.224 165.745 295.721 168.431 295.957C171.117 296.193 170.285 296.725 173.95 297.54C177.615 298.356 179.13 297.382 179.414 296.885C179.667 296.443 177.978 295.676 176.177 294.813C175.951 294.705 175.724 294.594 175.498 294.484C173.474 293.488 172.385 291.567 170.843 289.767C169.383 288.061 168.128 282.728 168.128 282.728L163.154 281.455C163.154 281.455 164.393 286.258 164.81 288.305C165.056 289.509 164.584 290.828 164.17 291.83C163.95 292.374 163.723 292.932 163.649 293.53Z" fill="#FFB27D"/>
<path d="M168.431 295.958C171.117 296.194 170.285 296.725 173.95 297.54C177.615 298.357 179.13 297.382 179.414 296.885C179.667 296.443 177.979 295.676 176.178 294.814L176.147 294.844C176.147 294.844 173.522 295.646 170.558 294.707C168.142 293.944 165.834 292.371 164.171 291.83C163.948 292.375 163.723 292.932 163.649 293.53C163.436 295.223 165.745 295.722 168.431 295.958Z" fill="#233862"/>
<path d="M126.405 224.471C126.405 224.471 159.66 227.921 165.143 233.013C170.624 238.104 169.647 285.539 169.647 285.539C168.795 286.424 168.164 286.403 166.817 286.298C165.522 286.197 162.885 285.084 162.885 285.084C162.885 285.084 155.763 261.792 155.674 256.4C155.584 251.006 154.459 241.855 152.196 241.316C149.934 240.777 123.011 243.795 120.06 235.29C117.109 226.785 122.01 219.788 122.01 219.788L126.405 224.471Z" fill="#ED7D2B"/>
<path d="M110.871 233.028C112.306 233.99 114.871 235.471 119.177 235.623C126.882 235.903 136.494 234.985 138.386 233.198C138.877 232.737 139.117 231.971 139.186 231.002C139.395 228.045 137.982 223.182 137.034 219.157C136.419 216.541 136.001 214.283 136.343 213.127C137.388 209.613 140.636 202.45 140.916 200.094C141.196 197.741 138.388 185.127 134.504 183.566C130.619 182.003 115.63 183.566 115.63 183.566C109.774 184.754 109.529 197.24 111.473 207.869C111.524 208.143 111.573 208.415 111.627 208.683C113.732 219.475 106.867 230.345 110.871 233.028Z" fill="#F9DDBF"/>
<path d="M130.236 185.862C130.131 186.548 128.256 187.658 124.251 186.601C120.411 185.588 119.95 184.339 119.952 183.513C119.952 182.536 121.62 181.218 121.599 175.206L122.059 175.297L129.8 176.83C129.8 176.83 129.623 179.265 129.619 181.561C129.612 183.488 130.411 184.724 130.236 185.862Z" fill="#FFB27D"/>
<path d="M129.798 176.83C129.798 176.83 129.621 179.265 129.618 181.561C125.287 181.439 122.996 177.486 122.058 175.297L129.798 176.83Z" fill="#ED975D"/>
<path d="M131.245 179.002C131.245 179.002 120.997 179.171 120.989 172.787C120.982 166.403 119.655 162.125 126.198 161.748C132.741 161.371 134.015 163.804 134.535 165.935C135.054 168.065 133.91 178.794 131.245 179.002Z" fill="#FFB27D"/>
<path d="M130.864 161.592C130.864 161.592 128.058 169.082 123.752 170.188C119.445 171.297 117.578 170.143 117.578 170.143C117.578 170.143 120.881 167.519 121.566 162.938C121.568 162.936 128.749 158.026 130.864 161.592Z" fill="#163560"/>
<path d="M130.169 162.199C130.169 162.199 132.266 163.871 132.776 165.497C133.286 167.123 133.516 170.47 134.491 170.356C134.491 170.356 136.604 165.265 134.228 162.386C131.712 159.332 130.169 162.199 130.169 162.199Z" fill="#163560"/>
<path d="M138.673 294.921C138.649 296.629 141 296.858 143.696 296.783C146.391 296.707 145.622 297.332 149.355 297.72C153.087 298.109 154.484 296.966 154.713 296.439C154.916 295.97 153.152 295.403 151.267 294.754C151.029 294.674 150.793 294.588 150.555 294.504C148.432 293.748 147.138 291.964 145.405 290.354C143.764 288.829 147.387 281.447 147.387 281.447L142.639 279.097C142.639 279.097 141.739 284.367 140.579 288.977C140.28 290.169 139.304 292.13 139.005 293.173C138.843 293.739 138.681 294.32 138.673 294.921Z" fill="#FFB27D"/>
<path d="M111.076 231.758C112.512 232.72 114.872 235.469 119.177 235.623C126.282 234.007 134.371 232.126 139.184 231.002C139.393 228.045 137.98 223.183 137.032 219.157C131.42 220.871 123.07 215.033 120.264 212.726C117.313 210.302 117.406 202.227 117.406 202.227L111.47 207.871C111.522 208.145 111.571 208.417 111.625 208.685C113.732 219.475 107.073 229.075 111.076 231.758Z" fill="#F2CCAA"/>
<path d="M143.694 296.782C146.39 296.706 145.62 297.33 149.354 297.719C153.085 298.107 154.482 296.965 154.711 296.437C154.915 295.969 153.15 295.401 151.265 294.752L151.238 294.786C151.238 294.786 148.718 295.885 145.668 295.295C143.182 294.815 140.714 293.518 139.001 293.172C138.841 293.739 138.679 294.32 138.672 294.922C138.649 296.63 140.998 296.858 143.694 296.782Z" fill="#233862"/>
<path d="M119.23 226.501C127.674 226.262 152.891 228.274 157.736 231.928C163.698 236.425 146.664 285.05 146.664 285.05C146.664 285.05 144.686 285.242 144.059 285.17C141.354 284.863 140.252 284.039 140.252 284.039C140.252 284.039 140.318 255.418 142.308 249.944C144.147 244.885 145.274 243.095 142.97 242.794C140.667 242.493 111.909 246.16 109.508 237.478C107.633 230.696 110.403 224.418 110.403 224.418C110.403 224.418 111.44 226.722 119.23 226.501Z" fill="#F99746"/>
<path d="M115.628 183.566C115.628 183.566 109.763 184.065 109.306 188.701C108.959 192.222 106.408 217.193 108.246 219.363C113.414 225.475 130.653 226.77 133.191 227.697L133.889 224.807C133.889 224.807 115.487 215.534 115.767 213.427C116.051 211.319 121.254 182.732 115.628 183.566Z" fill="#F9DDBF"/>
<path d="M120.158 157.799C120.158 157.799 120.578 155.124 116.87 154.435C113.161 153.744 113.093 161.623 112.695 163.523C112.297 165.423 113.289 166.56 114.702 166.676C116.116 166.79 120.158 157.799 120.158 157.799Z" fill="#163560"/>
<path d="M134.091 224.679C134.091 224.679 139.332 223.196 140.581 223.542C141.83 223.889 146.106 226.722 145.506 227.491C144.905 228.26 141.137 227.03 139.403 227.263C137.668 227.495 136.328 228.352 135.079 228.167C133.83 227.982 132.526 227.491 132.526 227.491L134.091 224.679Z" fill="#FFB27D"/>
<path d="M134.091 224.68C134.091 224.68 136.656 223.362 137.385 222.612C137.476 222.517 137.632 222.538 137.703 222.648C137.899 222.956 138.081 223.552 137.181 224.143C135.886 224.997 134.091 224.68 134.091 224.68Z" fill="#FFB27D"/>
<path d="M152.458 225.317C152.458 225.317 157.897 225.614 158.965 226.349C160.033 227.082 163.161 231.149 162.343 231.682C161.524 232.216 158.36 229.828 156.643 229.487C154.928 229.144 153.382 229.52 152.26 228.939C151.139 228.358 150.063 227.471 150.063 227.471L152.458 225.317Z" fill="#FFB27D"/>
<path d="M115.097 298.302H92.9699C91.9057 297.003 92.2979 292.209 92.4597 290.644C92.4921 290.328 92.5149 290.145 92.5149 290.145C92.5149 290.145 100.071 284.1 101.108 288.728C101.141 288.873 101.179 289.016 101.221 289.155C102.529 293.484 108.394 295.451 111.781 296C113.982 296.358 114.797 297.502 115.097 298.302Z" fill="#1B3051"/>
<path d="M54.7177 226.389C55.5173 226.389 92.6235 233.358 98.7612 240.955C101.828 244.751 102.283 288.589 102.283 288.589C102.283 288.589 98.489 293.294 90.2971 290.562C90.2971 290.562 84.2907 260.568 84.7343 251.471C84.8561 248.955 59.3819 251.107 54.7196 249.9C50.0573 248.693 38.6633 238.548 41.1743 233.605C43.6816 228.664 54.7177 226.389 54.7177 226.389Z" fill="#233862"/>
<path d="M81.5833 224.329C81.5833 224.329 83.9573 226.378 86.3941 226.959C87.7839 227.29 89.1279 227.665 89.9294 228.032C92.1321 229.043 96.3127 233.56 95.9243 234.007C94.6774 235.447 89.6591 231.698 88.6977 231.962C87.7382 232.227 90.2721 234.405 89.2669 234.997C88.7415 235.306 87.7515 233.425 86.8263 233.16C85.5736 232.802 84.7416 230.909 84.3666 230.78C83.6356 230.529 80.5876 227.794 80.5876 227.794L81.5833 224.329Z" fill="#FFB27D"/>
<path d="M124.877 298.302H102.75C101.685 297.003 102.078 292.209 102.239 290.644C102.272 290.328 102.295 290.145 102.295 290.145C102.295 290.145 109.851 284.1 110.888 288.728C110.921 288.873 110.959 289.016 111 289.155C112.308 293.484 118.174 295.451 121.561 296C123.763 296.358 124.576 297.502 124.877 298.302Z" fill="#1E3C68"/>
<path d="M65.6507 226.389C66.4503 226.389 103.556 233.358 109.694 240.955C112.761 244.751 113.216 288.589 113.216 288.589C113.216 288.589 109.422 293.294 101.23 290.562C101.23 290.562 95.2237 260.568 95.6673 251.471C95.7891 248.955 70.3149 251.107 65.6526 249.9C60.9903 248.693 49.5982 238.548 52.1073 233.605C54.6165 228.664 65.6507 226.389 65.6507 226.389Z" fill="#2B478B"/>
<path d="M63.3283 181.291C60.6592 181.07 57.8607 180.36 55.441 179.574C52.4178 178.593 49.9791 177.158 51.5497 174.395C52.9965 171.847 55.3401 166.156 55.1821 161.442L60.8096 165.977L64.6323 169.058C64.6323 169.058 64.6171 170.874 64.1983 174.056C64.1221 174.637 64.0326 175.263 63.9279 175.931C63.8423 176.472 64.0917 177.011 64.5562 177.3C64.5847 177.317 64.6133 177.337 64.6418 177.354C66.5418 178.547 65.5652 181.476 63.3283 181.291Z" fill="#FFB27D"/>
<path d="M64.6323 168.308C64.6323 168.308 64.8284 168.966 64.4915 171.402C61.0837 170.846 57.8987 168.127 57.8987 168.127C59.6331 167.651 60.2651 165.775 61.5559 165.95L64.6323 168.308Z" fill="#ED975D"/>
<path d="M67.783 168.861C67.783 168.861 54.6756 171.04 53.4458 162.854C52.216 154.671 49.6954 149.439 58.011 147.702C66.3266 145.966 68.4265 148.845 69.5021 151.476C70.5777 154.109 71.1622 168.085 67.783 168.861Z" fill="#FFB27D"/>
<path d="M71.4308 147.857C71.9943 149.827 70.4865 152.228 67.9583 153.018C64.2041 154.191 65.0341 158.797 63.3455 158.734C61.6569 158.671 60.9753 156.088 59.4656 158.152C58.1787 159.913 60.5375 162 60.3737 162.967C60.0958 164.625 57.4991 168.016 55.1574 167.847C52.8177 167.677 48.4391 156.554 49.3148 153.114C50.1905 149.673 53.6934 146.044 57.0098 145.543C60.3261 145.043 64.9294 146.474 65.9936 146.474C67.0578 146.472 71.1262 146.79 71.4308 147.857Z" fill="#2B478B"/>
<path d="M74.6824 223.935C74.4635 225.824 74.0656 227.109 73.4412 227.526C71.4879 228.834 68.8969 230.462 66.0051 232.073C55.7533 237.79 41.7169 243.308 38.8613 233.645C35.5068 222.296 37.7114 200.984 40.9992 187.747C42.8915 180.122 48.1288 172.119 51.6698 172.129C57.7028 172.138 66.3744 173.732 69.8755 182.371C71.2309 185.718 73.2242 197.313 74.2408 207.938C74.8462 214.266 75.1051 220.249 74.6824 223.935Z" fill="white"/>
<path d="M51.0604 172.203L52.4254 169.126C52.4254 169.126 64.5352 170.36 66.5894 177.319C66.5913 177.317 57.2305 172.351 51.0604 172.203Z" fill="#DFEBFD"/>
<path d="M74.6823 223.935C74.4634 225.824 74.0655 227.109 73.441 227.526C71.4878 228.834 68.8968 230.462 66.0049 232.073C62.9875 230.239 56.7926 225.862 55.3439 220.702C53.4515 213.956 54.7785 205.657 54.7785 205.657L74.6823 223.935Z" fill="#DFEBFD"/>
<path d="M53.5163 182.582C53.5163 182.582 54.5672 211.57 56.2158 217.303C59.0258 227.077 84.6618 230.557 84.6618 230.557C84.6618 230.557 86.1734 228.844 85.4976 226.001C85.4976 226.001 70.1723 213.92 69.723 211.62C69.2756 209.32 73.0622 193.734 68.7331 188.065C64.4058 182.399 56.4252 177.489 53.5163 182.582Z" fill="white"/>
<path d="M21.3789 298.025L21.2951 298.023C20.6041 298.01 20.071 297.446 20.1376 296.797L24.7428 250.798L28.7617 251.156L22.148 297.403C22.0947 297.764 21.7635 298.033 21.3789 298.025Z" fill="#77A4E5"/>
<path d="M45.0826 298.025L44.9989 298.023C44.3078 298.01 43.7748 297.446 43.8414 296.797L48.4466 250.798L52.4654 251.156L45.8518 297.403C45.7985 297.764 45.4691 298.033 45.0826 298.025Z" fill="#77A4E5"/>
<path d="M89.5832 298.025L89.6669 298.023C90.358 298.01 90.891 297.446 90.8263 296.797L86.2211 250.798L82.2023 251.156L88.8159 297.403C88.8673 297.764 89.1986 298.033 89.5832 298.025Z" fill="#77A4E5"/>
<path d="M22.6794 244.283L18.3084 205.864C17.7354 200.327 19.5877 194.906 27.5759 194.487L41.6295 193.631C49.9584 193.286 53.7203 200.22 54.775 205.557L63.1172 247.79L22.6794 244.283Z" fill="#77A4E5"/>
<path d="M25.0286 251.471H87.4034C88.6561 251.471 89.6822 250.444 89.6822 249.192V246.385C89.6822 245.132 88.6561 244.106 87.4034 244.106H22.7498V249.192C22.7498 250.446 23.7759 251.471 25.0286 251.471Z" fill="#77A4E5"/>
<path d="M24.5203 251.47H61.3504C62.3232 251.47 63.1209 250.674 63.1209 249.701V245.878C63.1209 244.905 62.3251 244.109 61.3504 244.109H22.7498V249.703C22.7498 250.674 23.5455 251.47 24.5203 251.47Z" fill="#77A4E5"/>
<path d="M559.111 300H3.87944C3.44729 300 3.09509 299.648 3.09509 299.216V298.502C3.09509 298.071 3.44729 297.717 3.87944 297.717H559.111C559.542 297.717 559.896 298.07 559.896 298.502V299.216C559.896 299.648 559.544 300 559.111 300Z" fill="#2E3552"/>
<path d="M121.519 127.579H99.9262C98.9344 127.579 98.1234 126.768 98.1234 125.776V104.932C98.1234 103.94 98.9344 103.129 99.9262 103.129H121.519C122.511 103.129 123.322 103.94 123.322 104.932V125.776C123.322 126.768 122.511 127.579 121.519 127.579Z" fill="#77A4E5"/>
<path d="M120.584 126.52H100.863C99.9566 126.52 99.216 125.779 99.216 124.873V105.835C99.216 104.929 99.9566 104.188 100.863 104.188H120.584C121.49 104.188 122.231 104.929 122.231 105.835V124.873C122.231 125.778 121.49 126.52 120.584 126.52Z" fill="#DFEBFD"/>
<path d="M110.723 106.941C111.011 106.941 111.244 106.708 111.244 106.42C111.244 106.132 111.011 105.898 110.723 105.898C110.435 105.898 110.201 106.132 110.201 106.42C110.201 106.708 110.435 106.941 110.723 106.941Z" fill="#77A4E5"/>
<path d="M114.869 107.933C115.157 107.933 115.39 107.699 115.39 107.411C115.39 107.123 115.157 106.89 114.869 106.89C114.581 106.89 114.347 107.123 114.347 107.411C114.347 107.699 114.581 107.933 114.869 107.933Z" fill="#77A4E5"/>
<path d="M118.303 110.985C118.591 110.985 118.825 110.752 118.825 110.464C118.825 110.175 118.591 109.942 118.303 109.942C118.015 109.942 117.782 110.175 117.782 110.464C117.782 110.752 118.015 110.985 118.303 110.985Z" fill="#77A4E5"/>
<path d="M119.809 115.507C120.097 115.507 120.331 115.274 120.331 114.986C120.331 114.697 120.097 114.464 119.809 114.464C119.521 114.464 119.288 114.697 119.288 114.986C119.288 115.274 119.521 115.507 119.809 115.507Z" fill="#77A4E5"/>
<path d="M118.526 120.503C118.814 120.503 119.048 120.27 119.048 119.982C119.048 119.694 118.814 119.46 118.526 119.46C118.238 119.46 118.004 119.694 118.004 119.982C118.004 120.27 118.238 120.503 118.526 120.503Z" fill="#77A4E5"/>
<path d="M115.249 123.79C115.538 123.79 115.771 123.556 115.771 123.268C115.771 122.98 115.538 122.747 115.249 122.747C114.961 122.747 114.728 122.98 114.728 123.268C114.728 123.556 114.961 123.79 115.249 123.79Z" fill="#77A4E5"/>
<path d="M110.723 125.115C111.011 125.115 111.244 124.881 111.244 124.593C111.244 124.305 111.011 124.071 110.723 124.071C110.435 124.071 110.201 124.305 110.201 124.593C110.201 124.881 110.435 125.115 110.723 125.115Z" fill="#77A4E5"/>
<path d="M106.561 107.933C106.849 107.933 107.083 107.699 107.083 107.411C107.083 107.123 106.849 106.89 106.561 106.89C106.273 106.89 106.039 107.123 106.039 107.411C106.039 107.699 106.273 107.933 106.561 107.933Z" fill="#77A4E5"/>
<path d="M103.125 110.985C103.413 110.985 103.646 110.751 103.646 110.463C103.646 110.175 103.413 109.941 103.125 109.941C102.837 109.941 102.603 110.175 102.603 110.463C102.603 110.751 102.837 110.985 103.125 110.985Z" fill="#77A4E5"/>
<path d="M101.621 115.507C101.909 115.507 102.143 115.274 102.143 114.986C102.143 114.697 101.909 114.464 101.621 114.464C101.333 114.464 101.099 114.697 101.099 114.986C101.099 115.274 101.333 115.507 101.621 115.507Z" fill="#77A4E5"/>
<path d="M102.902 120.503C103.19 120.503 103.424 120.27 103.424 119.982C103.424 119.694 103.19 119.46 102.902 119.46C102.614 119.46 102.38 119.694 102.38 119.982C102.38 120.27 102.614 120.503 102.902 120.503Z" fill="#77A4E5"/>
<path d="M106.18 123.789C106.468 123.789 106.702 123.556 106.702 123.268C106.702 122.98 106.468 122.746 106.18 122.746C105.892 122.746 105.659 122.98 105.659 123.268C105.659 123.556 105.892 123.789 106.18 123.789Z" fill="#77A4E5"/>
<path d="M111.103 115.507C111.391 115.507 111.625 115.274 111.625 114.986C111.625 114.697 111.391 114.464 111.103 114.464C110.815 114.464 110.582 114.697 110.582 114.986C110.582 115.274 110.815 115.507 111.103 115.507Z" fill="#77A4E5"/>
<path d="M111.176 108.462H111.033V114.984H111.176V108.462Z" fill="#77A4E5"/>
<path d="M114.636 112.437L114.371 112.1L110.915 114.814L111.179 115.151L114.636 112.437Z" fill="#77A4E5"/>
</svg>
