<svg width="237" height="75" viewBox="0 0 237 75" fill="none" xmlns="http://www.w3.org/2000/svg">
<path d="M234.682 65.6025C234.682 66.5353 234.509 67.459 234.171 68.3207C233.834 69.1825 233.339 69.9653 232.716 70.6246C232.092 71.2839 231.352 71.8066 230.538 72.1629C229.723 72.5192 228.85 72.7021 227.969 72.7012H8.27992C6.49933 72.7031 4.7909 71.9564 3.53036 70.6252C2.26981 69.294 1.56036 67.4873 1.55804 65.6025V8.9925C1.56036 7.10682 2.26953 5.29918 3.52982 3.96649C4.79012 2.63381 6.49852 1.88501 8.27992 1.88452H227.967C228.849 1.88452 229.722 2.06839 230.537 2.42562C231.351 2.78285 232.092 3.30645 232.715 3.96651C233.338 4.62658 233.833 5.41017 234.17 6.27254C234.507 7.13491 234.681 8.05916 234.681 8.9925L234.682 65.6025Z" fill="white"/>
<path d="M227.97 74.353H8.28022C6.08674 74.3525 3.98302 73.4309 2.43068 71.7905C0.878338 70.1501 0.0041736 67.9247 0 65.6029L0 8.99476C0.00324494 6.67171 0.876832 4.44487 2.42912 2.80275C3.98141 1.16063 6.08565 0.237312 8.28022 0.235352L227.968 0.235352C230.162 0.238291 232.266 1.16192 233.818 2.80383C235.37 4.44574 236.244 6.67201 236.248 8.99476V65.6029C236.252 70.4292 232.531 74.353 227.97 74.353Z" fill="#446482"/>
<path d="M234.682 65.6025C234.682 66.5353 234.509 67.459 234.171 68.3207C233.834 69.1825 233.339 69.9653 232.716 70.6246C232.092 71.2839 231.352 71.8066 230.538 72.1629C229.723 72.5192 228.85 72.7021 227.969 72.7012H8.27992C6.49933 72.7031 4.7909 71.9564 3.53036 70.6252C2.26981 69.294 1.56036 67.4873 1.55804 65.6025V8.9925C1.56036 7.10682 2.26953 5.29918 3.52982 3.96649C4.79012 2.63381 6.49852 1.88501 8.27992 1.88452H227.967C228.849 1.88452 229.722 2.06839 230.537 2.42562C231.351 2.78285 232.092 3.30645 232.715 3.96651C233.338 4.62658 233.833 5.41017 234.17 6.27254C234.507 7.13491 234.681 8.05916 234.681 8.9925L234.682 65.6025Z" fill="black"/>
<path d="M52.7526 36.9038C52.7018 30.9302 57.3733 28.0239 57.5869 27.8886C54.9412 23.8055 50.8405 23.2476 49.3995 23.2031C45.9554 22.8195 42.6146 25.3846 40.8601 25.3846C39.0707 25.3846 36.369 23.2402 33.4571 23.3032C29.7101 23.3644 26.2047 25.6608 24.2822 29.2268C20.3146 36.4979 23.2737 47.1831 27.075 53.0604C28.9765 55.9406 31.1984 59.1526 34.1067 59.0396C36.952 58.9173 38.0149 57.1213 41.4485 57.1213C44.8505 57.1213 45.8486 59.0396 48.8147 58.9673C51.8683 58.9173 53.7909 56.0759 55.6259 53.1716C57.8233 49.8743 58.7058 46.6233 58.7408 46.4565C58.6708 46.4306 52.8121 44.0619 52.7526 36.9038ZM47.1495 19.3368C48.6799 17.311 49.7269 14.5549 49.4363 11.7581C47.2213 11.8618 44.4513 13.3798 42.8562 15.3612C41.445 17.1071 40.1843 19.9688 40.51 22.6601C42.998 22.8565 45.5527 21.3311 47.1495 19.3368Z" fill="white"/>
<path d="M227.969 0.235352H110.297L156.387 74.353H227.969C230.163 74.351 232.267 73.4282 233.819 71.7869C235.371 70.1456 236.245 67.9197 236.249 65.5973V8.99476C236.246 6.67186 235.372 4.44531 233.82 2.80329C232.268 1.16128 230.164 0.237802 227.969 0.235352Z" fill="url(#paint0_linear_192_279)"/>
<path d="M93.9643 58.6266H89.988L87.8098 51.3814H80.2387L78.1638 58.6266H74.2925L81.7953 33.9608H86.4283L93.9643 58.6266ZM87.1532 48.3418L85.1834 41.901C84.975 41.243 84.5828 39.6936 84.0085 37.2544H83.9384C83.7073 38.3035 83.3379 39.853 82.8318 41.901L80.8953 48.3418H87.1532ZM113.221 49.515C113.221 52.5398 112.446 54.9308 110.892 56.686C109.502 58.2485 107.774 59.0288 105.713 59.0288C103.488 59.0288 101.887 58.1891 100.916 56.5062V65.8383H97.1826V46.6866C97.1826 44.7868 97.1353 42.8389 97.0443 40.8408H100.327L100.536 43.6599H100.606C101.851 41.5359 103.74 40.4739 106.275 40.4739C108.257 40.4739 109.912 41.3024 111.236 42.9612C112.558 44.6237 113.221 46.8071 113.221 49.515ZM109.418 49.6596C109.418 47.9284 109.05 46.5013 108.312 45.3762C107.504 44.2067 106.421 43.621 105.062 43.621C104.141 43.621 103.304 43.9472 102.556 44.5904C101.807 45.2391 101.317 46.0861 101.087 47.1352C100.985 47.5275 100.927 47.9313 100.914 48.338V51.3054C100.914 52.5973 101.289 53.689 102.038 54.5823C102.787 55.472 103.761 55.9187 104.959 55.9187C106.365 55.9187 107.459 55.3422 108.242 54.1987C109.026 53.0514 109.418 51.539 109.418 49.6596ZM132.546 49.515C132.546 52.5398 131.771 54.9308 130.218 56.686C128.826 58.2485 127.099 59.0288 125.037 59.0288C122.811 59.0288 121.211 58.1891 120.239 56.5062V65.8383H116.506V46.6866C116.506 44.7868 116.459 42.8389 116.368 40.8408H119.651L119.859 43.6599H119.929C121.172 41.5359 123.062 40.4739 125.599 40.4739C127.579 40.4739 129.234 41.3024 130.561 42.9612C131.881 44.6237 132.546 46.8071 132.546 49.515ZM128.742 49.6596C128.742 47.9284 128.372 46.5013 127.633 45.3762C126.826 44.2067 125.746 43.621 124.387 43.621C123.466 43.621 122.629 43.9472 121.878 44.5904C121.129 45.2391 120.64 46.0861 120.411 47.1352C120.297 47.6245 120.236 48.023 120.236 48.338V51.3054C120.236 52.5973 120.612 53.689 121.358 54.5823C122.107 55.4701 123.081 55.9187 124.282 55.9187C125.69 55.9187 126.784 55.3422 127.565 54.1987C128.349 53.0514 128.742 51.539 128.742 49.6596ZM154.153 51.7076C154.153 53.8076 153.46 55.5146 152.082 56.8324C150.565 58.2707 148.449 58.9917 145.735 58.9917C143.227 58.9917 141.217 58.4801 139.701 57.4552L140.564 54.1616C142.201 55.1884 143.999 55.7 145.957 55.7C147.365 55.7 148.459 55.3626 149.24 54.6935C150.023 54.0226 150.418 53.1255 150.418 52.006C150.418 51.0033 150.091 50.1637 149.448 49.4798C148.802 48.7977 147.734 48.162 146.234 47.5781C142.154 45.9675 140.112 43.6118 140.112 40.5128C140.112 38.4888 140.834 36.8318 142.273 35.5363C143.712 34.2426 145.621 33.5957 147.995 33.5957C150.115 33.5957 151.882 33.9868 153.285 34.7671L152.348 37.9884C151.028 37.2322 149.538 36.8541 147.871 36.8541C146.554 36.8541 145.521 37.197 144.782 37.879C144.16 38.4888 143.845 39.232 143.845 40.1143C143.845 41.0874 144.204 41.8955 144.919 42.5293C145.538 43.1132 146.67 43.7489 148.305 44.431C150.312 45.2873 151.786 46.2844 152.73 47.4299C153.68 48.5753 154.153 50.0043 154.153 51.7076ZM166.527 43.8064H162.412V52.4416C162.412 54.6379 163.137 55.7333 164.59 55.7333C165.258 55.7333 165.811 55.674 166.249 55.5498L166.352 58.5506C165.617 58.8416 164.648 58.988 163.449 58.988C161.975 58.988 160.822 58.5116 159.991 57.559C159.163 56.6063 158.746 55.0105 158.746 52.7641V43.7989H156.294V40.8334H158.746V37.5769L162.412 36.4055V40.8334H166.527V43.8064ZM185.056 49.5873C185.056 52.3211 184.317 54.5656 182.842 56.3209C181.3 58.128 179.248 59.0288 176.689 59.0288C174.221 59.0288 172.258 58.1632 170.794 56.4339C169.33 54.7009 168.598 52.5176 168.598 49.8838C168.598 47.1277 169.355 44.8702 170.862 43.115C172.373 41.358 174.408 40.4794 176.966 40.4794C179.431 40.4794 181.412 41.3468 182.911 43.078C184.343 44.7572 185.056 46.9257 185.056 49.5873ZM181.186 49.6781C181.186 48.0489 180.853 46.6514 180.186 45.4819C179.403 44.0696 178.283 43.3634 176.831 43.3634C175.336 43.3634 174.189 44.0696 173.408 45.4819C172.739 46.6514 172.407 48.073 172.407 49.7522C172.407 51.3833 172.739 52.7845 173.408 53.9503C174.215 55.3626 175.341 56.0688 176.8 56.0688C178.227 56.0688 179.346 55.3478 180.155 53.9151C180.841 52.7178 181.186 51.311 181.186 49.6781ZM197.195 44.3161C196.807 44.2419 196.413 44.2053 196.018 44.2067C194.705 44.2067 193.689 44.7294 192.975 45.7821C192.355 46.7089 192.044 47.8802 192.044 49.2944V58.6266H188.311V46.442C188.314 44.5749 188.278 42.708 188.202 40.8427H191.453L191.59 44.2456H191.693C192.089 43.0761 192.709 42.1327 193.56 41.4265C194.339 40.8095 195.285 40.4753 196.258 40.4739C196.603 40.4739 196.915 40.4998 197.191 40.5461L197.195 44.3161ZM213.89 48.8922C213.9 49.4929 213.854 50.0932 213.753 50.6845H202.554C202.596 52.4416 203.139 53.7872 204.179 54.7139C205.123 55.5406 206.344 55.9557 207.842 55.9557C209.5 55.9557 211.013 55.6777 212.374 55.1161L212.959 57.8574C211.369 58.5913 209.492 58.9565 207.326 58.9565C204.72 58.9565 202.675 58.1447 201.187 56.5247C199.702 54.903 198.958 52.7233 198.958 49.9932C198.958 47.3131 199.65 45.0797 201.035 43.2985C202.484 41.3969 204.444 40.4461 206.909 40.4461C209.331 40.4461 211.164 41.3969 212.409 43.2985C213.395 44.8054 213.89 46.6737 213.89 48.8922ZM210.33 47.8673C210.357 46.694 210.112 45.6839 209.605 44.8295C208.959 43.7285 207.965 43.1799 206.632 43.1799C205.412 43.1799 204.417 43.7155 203.661 44.7905C203.039 45.645 202.67 46.6718 202.556 47.8636L210.33 47.8673Z" fill="white"/>
<path d="M79.1617 25.2401C78.1234 25.2401 77.2252 25.1864 76.4775 25.0955V13.1704C77.5232 12.9994 78.5799 12.9152 79.638 12.9184C83.9191 12.9184 85.8906 15.1481 85.8906 18.7827C85.8906 22.9752 83.5619 25.2401 79.1617 25.2401ZM79.7886 14.4475C79.2108 14.4475 78.7187 14.4845 78.3108 14.5735V23.6387C78.5314 23.6758 78.9551 23.6925 79.5504 23.6925C82.3555 23.6925 83.9523 22.0021 83.9523 18.8364C83.9523 16.0136 82.5078 14.4475 79.7886 14.4475ZM92.0347 25.3309C89.6219 25.3309 88.0583 23.4237 88.0583 20.8344C88.0583 18.1358 89.6551 16.2119 92.1713 16.2119C94.549 16.2119 96.1476 18.0283 96.1476 20.6917C96.1476 23.4237 94.5 25.3309 92.0347 25.3309ZM92.1047 17.6317C90.7793 17.6317 89.93 18.9439 89.93 20.7788C89.93 22.5785 90.7968 23.8908 92.0872 23.8908C93.3777 23.8908 94.2444 22.4877 94.2444 20.7418C94.2444 18.9625 93.3952 17.6317 92.1047 17.6317ZM109.907 16.3917L107.324 25.1326H105.641L104.571 21.3367C104.305 20.4082 104.084 19.4661 103.908 18.5139H103.873C103.738 19.4666 103.482 20.4211 103.211 21.3367L102.073 25.1326H100.373L97.9424 16.3917H99.8281L100.763 20.5472C100.984 21.5369 101.169 22.471 101.323 23.3533H101.358C101.493 22.6175 101.714 21.6982 102.038 20.5657L103.211 16.3936H104.706L105.829 20.4767C106.1 21.4665 106.321 22.4377 106.492 23.3551H106.541C106.66 22.4562 106.848 21.5017 107.102 20.4767L108.105 16.3936L109.907 16.3917ZM119.414 25.1326H117.579V20.1135C117.579 18.5677 117.019 17.7929 115.914 17.7929C114.827 17.7929 114.079 18.7827 114.079 19.9337V25.1326H112.244V18.8902C112.244 18.1173 112.227 17.2888 112.176 16.3899H113.79L113.876 17.7392H113.927C114.421 16.805 115.422 16.2119 116.544 16.2119C118.278 16.2119 119.416 17.615 119.416 19.8985L119.414 25.1326ZM124.474 25.1326H122.638V12.3809H124.474V25.1326ZM131.165 25.3309C128.754 25.3309 127.188 23.4237 127.188 20.8344C127.188 18.1358 128.785 16.2119 131.3 16.2119C133.679 16.2119 135.276 18.0283 135.276 20.6917C135.278 23.4237 133.628 25.3309 131.165 25.3309ZM131.233 17.6317C129.908 17.6317 129.058 18.9439 129.058 20.7788C129.058 22.5785 129.927 23.8908 131.214 23.8908C132.506 23.8908 133.371 22.4877 133.371 20.7418C133.373 18.9625 132.525 17.6317 131.233 17.6317ZM142.511 25.1326L142.378 24.1262H142.329C141.769 24.9361 140.951 25.3309 139.914 25.3309C138.435 25.3309 137.384 24.2337 137.384 22.7583C137.384 20.6009 139.151 19.4851 142.21 19.4851V19.3239C142.21 18.1729 141.634 17.5965 140.496 17.5965C139.681 17.5965 138.967 17.8133 138.338 18.2452L137.965 16.9682C138.729 16.464 139.681 16.2119 140.8 16.2119C142.957 16.2119 144.046 17.4167 144.046 19.828V23.0475C144.046 23.9297 144.083 24.6136 144.166 25.1345L142.511 25.1326ZM142.259 20.7788C140.221 20.7788 139.198 21.3015 139.198 22.5415C139.198 23.4589 139.725 23.9075 140.457 23.9075C141.39 23.9075 142.259 23.1531 142.259 22.1282V20.7788ZM152.957 25.1326L152.871 23.7295H152.82C152.293 24.7897 151.407 25.3309 150.17 25.3309C148.179 25.3309 146.704 23.4775 146.704 20.8697C146.704 18.1358 148.233 16.2101 150.32 16.2101C151.425 16.2101 152.208 16.6049 152.649 17.3982H152.686V12.3809H154.522V22.7769C154.522 23.622 154.542 24.4135 154.591 25.1326H152.957ZM152.686 19.9893C152.686 18.766 151.92 17.7225 150.753 17.7225C149.392 17.7225 148.56 18.9995 148.56 20.7974C148.56 22.56 149.424 23.7666 150.716 23.7666C151.87 23.7666 152.686 22.7046 152.686 21.4461V19.9893ZM166.168 25.3309C163.757 25.3309 162.193 23.4237 162.193 20.8344C162.193 18.1358 163.79 16.2119 166.305 16.2119C168.684 16.2119 170.281 18.0283 170.281 20.6917C170.283 23.4237 168.635 25.3309 166.168 25.3309ZM166.236 17.6317C164.913 17.6317 164.063 18.9439 164.063 20.7788C164.063 22.5785 164.93 23.8908 166.219 23.8908C167.511 23.8908 168.376 22.4877 168.376 20.7418C168.379 18.9625 167.53 17.6317 166.236 17.6317ZM180.149 25.1326H178.312V20.1135C178.312 18.5677 177.752 17.7929 176.647 17.7929C175.56 17.7929 174.814 18.7827 174.814 19.9337V25.1326H172.977V18.8902C172.977 18.1173 172.96 17.2888 172.909 16.3899H174.523L174.609 17.7392H174.66C175.152 16.805 176.155 16.2101 177.276 16.2101C179.009 16.2101 180.149 17.6132 180.149 19.8966V25.1326ZM192.495 17.8485H190.476V22.0929C190.476 23.1735 190.83 23.7129 191.544 23.7129C191.868 23.7129 192.14 23.6758 192.359 23.622L192.409 25.0974C192.054 25.242 191.578 25.3142 190.986 25.3142C189.54 25.3142 188.675 24.4691 188.675 22.256V17.8485H187.47V16.3917H188.675V14.7903L190.476 14.2139V16.3899H192.495V17.8485ZM202.209 25.1326H200.376V20.1505C200.376 18.5862 199.818 17.7948 198.711 17.7948C197.76 17.7948 196.874 18.4787 196.874 19.8632V25.1326H195.041V12.3809H196.874V17.6317H196.911C197.489 16.679 198.326 16.2101 199.394 16.2101C201.141 16.2101 202.209 17.6484 202.209 19.9337V25.1326ZM212.162 21.2292H206.655C206.69 22.8844 207.725 23.8185 209.257 23.8185C210.071 23.8185 210.821 23.6739 211.482 23.4052L211.768 24.7545C210.987 25.1141 210.068 25.2939 208.998 25.2939C206.415 25.2939 204.887 23.5664 204.887 20.8882C204.887 18.2081 206.452 16.1934 208.791 16.1934C210.901 16.1934 212.225 17.8485 212.225 20.3488C212.237 20.6439 212.215 20.9394 212.162 21.2292ZM210.479 19.8447C210.479 18.4954 209.837 17.5427 208.663 17.5427C207.609 17.5427 206.776 18.5139 206.657 19.8447H210.479Z" fill="white"/>
<defs>
<linearGradient id="paint0_linear_192_279" x1="173.271" y1="74.5498" x2="173.271" y2="-192.754" gradientUnits="userSpaceOnUse">
<stop stop-color="#1A1A1A" stop-opacity="0.1"/>
<stop offset="0.123" stop-color="#212121" stop-opacity="0.151"/>
<stop offset="0.308" stop-color="#353535" stop-opacity="0.227"/>
<stop offset="0.532" stop-color="#575757" stop-opacity="0.318"/>
<stop offset="0.783" stop-color="#858585" stop-opacity="0.421"/>
<stop offset="1" stop-color="#B3B3B3" stop-opacity="0.51"/>
</linearGradient>
</defs>
</svg>
