<?xml version="1.0" encoding="UTF-8" standalone="no"?>
<!-- Generator: Adobe Illustrator 18.0.0, SVG Export Plug-In . SVG Version: 6.00 Build 0)  -->

<svg
   version="1.1"
   id="Layer_1"
   x="0px"
   y="0px"
   viewBox="0 0 100 100"
   enable-background="new 0 0 100 100"
   xml:space="preserve"
   sodipodi:docname="ac06def48b0a014cf327a451c6deb719.svg"
   xmlns:inkscape="http://www.inkscape.org/namespaces/inkscape"
   xmlns:sodipodi="http://sodipodi.sourceforge.net/DTD/sodipodi-0.dtd"
   xmlns="http://www.w3.org/2000/svg"
   xmlns:svg="http://www.w3.org/2000/svg"><defs
   id="defs17" /><sodipodi:namedview
   id="namedview15"
   pagecolor="#ffffff"
   bordercolor="#666666"
   borderopacity="1.0"
   inkscape:pageshadow="2"
   inkscape:pageopacity="0.0"
   inkscape:pagecheckerboard="0" />
<g
   id="g12">
	<path
   fill="#ffffff"
   d="M50,93.5c-3.5,0-7-1-9.9-3c-2.9-2-5.2-4.8-6.6-8c-1.4-3.3-1.7-6.9-1-10.3c0.7-3.5,2.4-6.7,4.9-9.2   c2.5-2.5,5.7-4.2,9.2-4.9c3.5-0.7,7.1-0.3,10.3,1c3.3,1.4,6.1,3.7,8,6.6c2,2.9,3,6.4,3,9.9c0,4.7-1.9,9.3-5.3,12.7   C59.3,91.6,54.7,93.5,50,93.5z M50,53.2c-4.4,0-8.8,1.3-12.4,3.8c-3.7,2.5-6.6,6-8.3,10.1c-1.7,4.1-2.1,8.6-1.3,12.9   c0.9,4.3,3,8.3,6.1,11.5c3.1,3.1,7.1,5.3,11.5,6.1c4.3,0.9,8.9,0.4,12.9-1.3c4.1-1.7,7.6-4.6,10.1-8.3c2.5-3.7,3.8-8,3.8-12.4   c0-5.9-2.4-11.6-6.6-15.8C61.6,55.6,55.9,53.2,50,53.2z M53.8,70.6c0,0.6,0.2,1.2,0.7,1.6c0.4,0.4,1,0.7,1.6,0.7   c0.6,0,1.2-0.2,1.6-0.7c0.4-0.4,0.7-1,0.7-1.6c0-3.3-2.6-6.1-6-6.9v-0.3c0-0.6-0.2-1.2-0.7-1.6c-0.4-0.4-1-0.7-1.6-0.7   c-0.6,0-1.2,0.2-1.6,0.7c-0.4,0.4-0.7,1-0.7,1.6v0.3c-3.5,0.9-6,3.6-6,6.9s2.6,6.1,6,6.9v5.2c-0.4-0.2-0.8-0.5-1.1-0.9   c-0.3-0.4-0.4-0.8-0.5-1.3c0-0.3,0-0.6-0.2-0.9c-0.1-0.3-0.3-0.5-0.5-0.7c-0.2-0.2-0.5-0.4-0.7-0.5c-0.3-0.1-0.6-0.2-0.9-0.2   c-0.3,0-0.6,0.1-0.9,0.2c-0.3,0.1-0.5,0.3-0.7,0.5c-0.2,0.2-0.4,0.5-0.5,0.7c-0.1,0.3-0.2,0.6-0.2,0.9c0,3.3,2.6,6.1,6,6.9v0.3   c0,0.6,0.2,1.2,0.7,1.6c0.4,0.4,1,0.7,1.6,0.7c0.6,0,1.2-0.2,1.6-0.7c0.4-0.4,0.7-1,0.7-1.6v-0.3c3.5-0.9,6-3.6,6-6.9   c0-3.3-2.6-6.1-6-6.9v-5.2c0.4,0.2,0.8,0.5,1.1,0.9C53.6,69.7,53.8,70.2,53.8,70.6L53.8,70.6z M84.3,39.2c-3.7,0-7.2,1.4-9.8,3.9   c-1.3-9.3-4-17.7-7.8-24c-1.1-1.9-2.5-3.7-4-5.4c6.6,2,12.6,5.5,17.6,10.3c5,4.7,8.8,10.6,11.1,17.1C89.2,39.8,86.8,39.2,84.3,39.2   z M38.6,39.2c-3,0-5.9,0.9-8.3,2.6c2.6-16,9.5-27.8,17.5-29.7v30.4C45.2,40.3,41.9,39.2,38.6,39.2z M82.1,19.5   C73.8,12.1,63.3,7.8,52.2,7.3V4.3c0-0.6-0.2-1.2-0.7-1.6C51.2,2.2,50.6,2,50,2c-0.6,0-1.2,0.2-1.6,0.7c-0.4,0.4-0.7,1-0.7,1.6v3.1   c-11.4,0.5-22.2,5-30.5,12.7C8.9,27.8,3.5,38.2,2,49.4C1.9,50,2.1,50.6,2.4,51c0.3,0.5,0.8,0.8,1.4,0.9c0.5,0.1,1.1,0,1.6-0.2   s0.9-0.7,1-1.3c0.6-2,1.9-3.7,3.5-4.9c1.7-1.2,3.7-1.9,5.7-1.9s4.1,0.7,5.7,1.9c1.7,1.2,2.9,2.9,3.5,4.9c0.1,0.5,0.4,0.8,0.8,1.1   c0.4,0.3,0.8,0.4,1.3,0.4s0.9-0.2,1.3-0.4c0.4-0.3,0.7-0.7,0.8-1.1c0.6-2,1.9-3.7,3.5-4.9c1.7-1.2,3.7-1.9,5.7-1.9   c2.1,0,4.1,0.7,5.7,1.9c1.7,1.2,2.9,2.9,3.5,4.9c0.1,0.5,0.4,0.8,0.8,1.1c0.4,0.3,0.8,0.4,1.3,0.4c0.5,0,0.9-0.2,1.3-0.4   c0.4-0.3,0.7-0.7,0.8-1.1c0.6-2,1.9-3.7,3.5-4.9c1.7-1.2,3.7-1.9,5.7-1.9c2.1,0,4.1,0.7,5.7,1.9c1.7,1.2,2.9,2.9,3.5,4.9   c0.1,0.5,0.4,0.8,0.8,1.1c0.4,0.3,0.8,0.4,1.3,0.4c0.5,0,0.9-0.2,1.3-0.4c0.4-0.3,0.7-0.7,0.8-1.1c0.6-2,1.9-3.7,3.5-4.9   c1.7-1.2,3.7-1.9,5.7-1.9c2.1,0,4.1,0.7,5.7,1.9c1.7,1.2,2.9,2.9,3.5,4.9c0.1,0.5,0.4,0.8,0.8,1.1c0.4,0.3,0.8,0.4,1.3,0.4   c0.2,0,0.3,0,0.5-0.1c0.5-0.1,1-0.4,1.4-0.9c0.3-0.5,0.5-1,0.4-1.6C96.5,37.9,90.8,27.2,82.1,19.5z"
   id="path2" />
	<path
   fill="#0D213A00"
   d="M53.8,80.6c0-0.5-0.2-0.9-0.5-1.3c-0.3-0.4-0.6-0.7-1.1-0.9v4.3c0.4-0.2,0.8-0.5,1.1-0.9S53.8,81,53.8,80.6   z"
   id="path4" />
	<path
   fill="#0D213A00"
   d="M46.2,70.6c0,0.5,0.2,0.9,0.5,1.3c0.3,0.4,0.6,0.7,1.1,0.9v-4.3c-0.4,0.2-0.8,0.5-1.1,0.9   C46.4,69.7,46.2,70.2,46.2,70.6L46.2,70.6z"
   id="path6" />
	<path
   fill="#0D213A00"
   d="M61.4,39.2c3,0,5.9,0.9,8.3,2.6c-1-7.2-3.4-14.1-6.9-20.4c-3.1-5.2-6.8-8.4-10.6-9.3v30.4   C54.8,40.3,58.1,39.2,61.4,39.2z"
   id="path8" />
	<path
   fill="#0D213A00"
   d="M15.7,39.2c3.7,0,7.2,1.4,9.8,3.9c1.3-9.2,4-17.6,7.7-23.9c1.2-2,2.5-3.8,4-5.5c-6.6,2-12.6,5.5-17.6,10.3   S10.9,34.5,8.6,41C10.8,39.8,13.2,39.2,15.7,39.2z"
   id="path10" />
</g>
</svg>
