<svg width="14" height="20" viewBox="0 0 14 20" fill="none" xmlns="http://www.w3.org/2000/svg">
<path fill-rule="evenodd" clip-rule="evenodd" d="M11.2936 8.24911L10.9701 10.5993H7.08436V18.8249H4.72291V10.5993H1.18072V8.24911H4.72291V6.09518C4.72291 3.10694 6.5672 1.17508 9.42337 1.17508C10.6466 1.17508 11.4094 1.23972 11.8498 1.29847L11.8155 3.52409L9.99956 3.52761C9.94998 3.52292 8.76689 3.43126 7.91322 4.21152C7.36301 4.71328 7.08436 5.43478 7.08436 6.35371V8.24913L11.2936 8.24911ZM8.7055 5.08226C9.1707 4.651 9.89566 4.698 9.9488 4.70035L12.9785 4.69918L13.0435 0.350177L12.5877 0.238542C12.2949 0.166875 11.3987 0 9.42337 0C5.90599 0 3.54217 2.45006 3.54217 6.09518V7.07403H0V11.7744H3.54217V20H8.26508V11.7744H11.9985L12.6468 7.07403H8.26509V6.3537C8.26509 5.78144 8.41385 5.3537 8.7055 5.08226Z" fill="white"/>
</svg>
