<svg width="237" height="75" viewBox="0 0 237 75" fill="none" xmlns="http://www.w3.org/2000/svg">
<path d="M228.033 74.353H8.77049C3.85902 74.353 0 70.2765 0 65.0883V9.50006C0 4.31182 3.85902 0.235352 8.77049 0.235352H228.033C232.944 0.235352 236.803 4.31182 236.803 9.50006V65.0883C236.803 70.2765 232.944 74.353 228.033 74.353Z" fill="black"/>
<path d="M228.033 1.7177C232.067 1.7177 235.4 5.23829 235.4 9.50006V65.0883C235.4 69.3501 232.067 72.8706 228.033 72.8706H8.77049C4.73607 72.8706 1.40328 69.3501 1.40328 65.0883V9.50006C1.40328 5.23829 4.73607 1.7177 8.77049 1.7177H228.033ZM228.033 0.235352H8.77049C3.85902 0.235352 0 4.49712 0 9.50006V65.0883C0 70.2765 3.85902 74.353 8.77049 74.353H228.033C232.944 74.353 236.803 70.2765 236.803 65.0883V9.50006C236.803 4.49712 232.944 0.235352 228.033 0.235352Z" fill="#446482"/>
<path d="M83.1442 19.1352C83.1442 20.6176 82.7934 21.9146 81.9163 22.8411C80.8639 23.9529 79.636 24.5087 78.0573 24.5087C76.4786 24.5087 75.2508 23.9529 74.1983 22.8411C73.1459 21.7293 72.6196 20.4323 72.6196 18.7646C72.6196 17.097 73.1459 15.7999 74.1983 14.6882C75.2508 13.5764 76.4786 13.0205 78.0573 13.0205C78.759 13.0205 79.4606 13.2058 80.1623 13.5764C80.8639 13.947 81.3901 14.3176 81.7409 14.8734L80.8639 15.7999C80.1622 14.8734 79.2852 14.5029 78.0573 14.5029C77.0049 14.5029 75.9524 14.8734 75.2508 15.7999C74.3737 16.5411 74.0229 17.6529 74.0229 18.9499C74.0229 20.247 74.3737 21.3587 75.2508 22.0999C76.1278 22.8411 77.0049 23.397 78.0573 23.397C79.2852 23.397 80.1623 23.0264 81.0393 22.0999C81.5655 21.544 81.9163 20.8029 81.9163 19.8764H78.0573V18.394H83.1442V19.1352ZM91.2131 14.5029H86.477V18.0234H90.8622V19.3205H86.477V22.8411H91.2131V24.3234H85.0737V13.2058H91.2131V14.5029ZM97.0016 24.3234H95.5983V14.5029H92.6163V13.2058H99.9836V14.5029H97.0016V24.3234ZM105.07 24.3234V13.2058H106.474V24.3234H105.07ZM112.438 24.3234H111.034V14.5029H108.052V13.2058H115.244V14.5029H112.262V24.3234H112.438ZM129.102 22.8411C128.049 23.9529 126.821 24.5087 125.243 24.5087C123.664 24.5087 122.436 23.9529 121.384 22.8411C120.331 21.7293 119.805 20.4323 119.805 18.7646C119.805 17.097 120.331 15.7999 121.384 14.6882C122.436 13.5764 123.664 13.0205 125.243 13.0205C126.821 13.0205 128.049 13.5764 129.102 14.6882C130.154 15.7999 130.68 17.097 130.68 18.7646C130.68 20.4323 130.154 21.7293 129.102 22.8411ZM122.436 21.9146C123.138 22.6558 124.19 23.2117 125.243 23.2117C126.295 23.2117 127.347 22.8411 128.049 21.9146C128.751 21.1734 129.277 20.0617 129.277 18.7646C129.277 17.4676 128.926 16.3558 128.049 15.6146C127.347 14.8734 126.295 14.3176 125.243 14.3176C124.19 14.3176 123.138 14.6882 122.436 15.6146C121.734 16.3558 121.208 17.4676 121.208 18.7646C121.208 20.0617 121.559 21.1734 122.436 21.9146ZM132.61 24.3234V13.2058H134.188L139.275 21.9146V13.2058H140.679V24.3234H139.275L133.838 15.244V24.3234H132.61Z" fill="white"/>
<path d="M119.454 40.6295C115.244 40.6295 111.912 43.9648 111.912 48.5971C111.912 53.0442 115.244 56.5648 119.454 56.5648C123.664 56.5648 126.997 53.2295 126.997 48.5971C126.997 43.7795 123.664 40.6295 119.454 40.6295ZM119.454 53.2295C117.174 53.2295 115.244 51.1912 115.244 48.4118C115.244 45.6324 117.174 43.5942 119.454 43.5942C121.735 43.5942 123.664 45.4471 123.664 48.4118C123.664 51.1912 121.735 53.2295 119.454 53.2295ZM103.141 40.6295C98.9313 40.6295 95.5985 43.9648 95.5985 48.5971C95.5985 53.0442 98.9313 56.5648 103.141 56.5648C107.351 56.5648 110.684 53.2295 110.684 48.5971C110.684 43.7795 107.351 40.6295 103.141 40.6295ZM103.141 53.2295C100.861 53.2295 98.9313 51.1912 98.9313 48.4118C98.9313 45.6324 100.861 43.5942 103.141 43.5942C105.421 43.5942 107.351 45.4471 107.351 48.4118C107.351 51.1912 105.421 53.2295 103.141 53.2295ZM83.6706 43.0383V46.3736H91.2132C91.0378 48.2265 90.3362 49.7089 89.4591 50.6354C88.4067 51.7471 86.6526 53.0442 83.6706 53.0442C78.9346 53.0442 75.4264 49.153 75.4264 44.1501C75.4264 39.1471 79.11 35.2559 83.6706 35.2559C86.1264 35.2559 88.0559 36.3677 89.4591 37.6648L91.7395 35.2559C89.81 33.403 87.3542 31.9207 83.846 31.9207C77.5313 31.9207 72.0936 37.4795 72.0936 44.1501C72.0936 50.8207 77.5313 56.3795 83.846 56.3795C87.3542 56.3795 89.81 55.2677 91.9149 52.8589C94.0198 50.6354 94.7214 47.4854 94.7214 45.0765C94.7214 44.3354 94.7214 43.5942 94.546 43.0383H83.6706ZM163.307 45.6324C162.605 43.7795 160.851 40.6295 156.992 40.6295C153.133 40.6295 149.976 43.7795 149.976 48.5971C149.976 53.0442 153.133 56.5648 157.343 56.5648C160.676 56.5648 162.78 54.3412 163.482 53.0442L161.026 51.1912C160.149 52.4883 159.097 53.4148 157.343 53.4148C155.589 53.4148 154.536 52.6736 153.659 51.0059L163.658 46.5589L163.307 45.6324ZM153.133 48.2265C153.133 45.2618 155.413 43.5942 156.992 43.5942C158.22 43.5942 159.448 44.3354 159.798 45.2618L153.133 48.2265ZM144.889 55.8236H148.221V32.6618H144.889V55.8236ZM139.626 42.2971C138.749 41.3707 137.346 40.4442 135.592 40.4442C131.908 40.4442 128.4 43.9648 128.4 48.4118C128.4 52.8589 131.733 56.1942 135.592 56.1942C137.346 56.1942 138.749 55.2677 139.451 54.3412H139.626V55.453C139.626 58.4177 138.048 60.0854 135.592 60.0854C133.662 60.0854 132.259 58.603 131.908 57.3059L129.102 58.603C129.979 60.6412 132.084 63.2354 135.767 63.2354C139.626 63.2354 142.784 60.8265 142.784 55.0824V41.0001H139.626V42.2971ZM135.767 53.2295C133.487 53.2295 131.558 51.1912 131.558 48.4118C131.558 45.6324 133.487 43.5942 135.767 43.5942C138.048 43.5942 139.802 45.6324 139.802 48.4118C139.802 51.1912 138.048 53.2295 135.767 53.2295ZM178.567 32.6618H170.674V55.8236H174.007V47.1148H178.567C182.251 47.1148 185.759 44.3354 185.759 39.8883C185.759 35.4412 182.251 32.6618 178.567 32.6618ZM178.743 43.7795H174.007V35.8118H178.743C181.198 35.8118 182.602 38.0354 182.602 39.703C182.426 41.7412 181.023 43.7795 178.743 43.7795ZM198.915 40.4442C196.459 40.4442 194.003 41.5559 193.126 43.9648L196.108 45.2618C196.81 43.9648 197.862 43.5942 199.09 43.5942C200.844 43.5942 202.423 44.7059 202.598 46.5589V46.7442C202.072 46.3736 200.669 45.8177 199.266 45.8177C196.108 45.8177 192.951 47.6707 192.951 51.0059C192.951 54.1559 195.582 56.1942 198.389 56.1942C200.669 56.1942 201.721 55.0824 202.598 53.9707H202.774V55.8236H205.931V46.9295C205.58 42.853 202.598 40.4442 198.915 40.4442ZM198.564 53.2295C197.512 53.2295 195.933 52.6736 195.933 51.1912C195.933 49.3383 197.862 48.7824 199.441 48.7824C200.844 48.7824 201.546 49.153 202.423 49.5236C202.072 51.7471 200.318 53.2295 198.564 53.2295ZM216.982 41.0001L213.298 51.0059H213.123L209.264 41.0001H205.756L211.544 55.0824L208.212 62.8648H211.544L220.49 41.0001H216.982ZM187.513 55.8236H190.846V32.6618H187.513V55.8236Z" fill="white"/>
<path d="M18.2429 14.1326C17.7167 14.6885 17.5413 15.6149 17.5413 16.7267V57.6767C17.5413 58.7885 17.8921 59.7149 18.4183 60.2708L18.5937 60.4561L40.3445 37.4796V37.109L18.2429 14.1326Z" fill="url(#paint0_linear_192_266)"/>
<path d="M47.3607 45.2622L40.1689 37.6651V37.1093L47.3607 29.5122L47.5361 29.6975L56.1312 34.8857C58.5869 36.3681 58.5869 38.7769 56.1312 40.2593L47.3607 45.2622Z" fill="url(#paint1_linear_192_266)"/>
<path d="M47.5359 45.0768L40.1687 37.2944L18.2425 60.4562C19.1195 61.3827 20.3474 61.3827 21.9261 60.6415L47.5359 45.0768Z" fill="url(#paint2_linear_192_266)"/>
<path d="M47.5359 29.512L21.9261 14.1325C20.3474 13.2061 19.1195 13.3914 18.2425 14.3178L40.1687 37.2943L47.5359 29.512Z" fill="url(#paint3_linear_192_266)"/>
<path opacity="0.2" d="M47.3605 44.8914L21.9261 60.0855C20.5228 61.0119 19.295 60.8266 18.4179 60.0855L18.2425 60.2708L18.4179 60.4561C19.295 61.1972 20.5228 61.3825 21.9261 60.4561L47.3605 44.8914Z" fill="black"/>
<path opacity="0.12" d="M18.2429 60.0856C17.7167 59.5297 17.5413 58.6033 17.5413 57.4915V57.6768C17.5413 58.7886 17.8921 59.715 18.4183 60.2709V60.0856H18.2429ZM56.1314 39.7033L47.3609 44.8915L47.5363 45.0768L56.1314 39.8886C57.3593 39.1474 57.8855 38.2209 57.8855 37.2944C57.8855 38.2209 57.1839 38.9621 56.1314 39.7033Z" fill="black"/>
<path opacity="0.25" d="M21.9264 14.318L56.1313 34.8857C57.1838 35.6269 57.8854 36.368 57.8854 37.2945C57.8854 36.368 57.3592 35.4416 56.1313 34.7004L21.9264 14.1327C19.4706 12.6504 17.5411 13.7622 17.5411 16.7269V16.9122C17.5411 14.1327 19.4706 12.8357 21.9264 14.318Z" fill="white"/>
<defs>
<linearGradient id="paint0_linear_192_266" x1="38.2396" y1="16.3746" x2="7.18848" y2="45.7676" gradientUnits="userSpaceOnUse">
<stop stop-color="#00A0FF"/>
<stop offset="0.007" stop-color="#00A1FF"/>
<stop offset="0.26" stop-color="#00BEFF"/>
<stop offset="0.512" stop-color="#00D2FF"/>
<stop offset="0.76" stop-color="#00DFFF"/>
<stop offset="1" stop-color="#00E3FF"/>
</linearGradient>
<linearGradient id="paint1_linear_192_266" x1="59.3482" y1="37.2964" x2="16.9043" y2="37.2964" gradientUnits="userSpaceOnUse">
<stop stop-color="#FFE000"/>
<stop offset="0.409" stop-color="#FFBD00"/>
<stop offset="0.775" stop-color="#FFA500"/>
<stop offset="1" stop-color="#FF9C00"/>
</linearGradient>
<linearGradient id="paint2_linear_192_266" x1="43.5489" y1="41.5488" x2="1.44292" y2="81.4086" gradientUnits="userSpaceOnUse">
<stop stop-color="#FF3A44"/>
<stop offset="1" stop-color="#C31162"/>
</linearGradient>
<linearGradient id="paint3_linear_192_266" x1="12.7995" y1="0.561606" x2="31.6027" y2="18.3618" gradientUnits="userSpaceOnUse">
<stop stop-color="#32A071"/>
<stop offset="0.069" stop-color="#2DA771"/>
<stop offset="0.476" stop-color="#15CF74"/>
<stop offset="0.801" stop-color="#06E775"/>
<stop offset="1" stop-color="#00F076"/>
</linearGradient>
</defs>
</svg>
