<svg width="60" height="60" viewBox="0 0 60 60" fill="none" xmlns="http://www.w3.org/2000/svg">
<circle cx="30" cy="30" r="30" fill="#EBEAEA"/>
<path fill-rule="evenodd" clip-rule="evenodd" d="M36.7273 19.2486C36.641 19.1698 36.5386 19.1073 36.4258 19.0646C36.313 19.022 36.1921 19 36.07 19C35.9479 19 35.827 19.022 35.7142 19.0646C35.6014 19.1073 35.499 19.1698 35.4127 19.2486L24.2727 29.4012C24.1863 29.4798 24.1177 29.5732 24.0709 29.676C24.0241 29.7787 24 29.8889 24 30.0002C24 30.1115 24.0241 30.2217 24.0709 30.3245C24.1177 30.4273 24.1863 30.5206 24.2727 30.5992L35.4127 40.7519C35.5871 40.9108 35.8235 41 36.07 41C36.3165 41 36.553 40.9108 36.7273 40.7519C36.9016 40.593 36.9995 40.3775 36.9995 40.1529C36.9995 39.9282 36.9016 39.7127 36.7273 39.5539L26.2427 30.0002L36.7273 20.4466C36.8137 20.368 36.8823 20.2746 36.9291 20.1718C36.9759 20.069 37 19.9589 37 19.8476C37 19.7363 36.9759 19.6261 36.9291 19.5233C36.8823 19.4205 36.8137 19.3272 36.7273 19.2486Z" fill="#FF452E"/>
</svg>
