<svg width="18" height="18" viewBox="0 0 18 18" fill="none" xmlns="http://www.w3.org/2000/svg">
<path d="M10.1714 7.71094V17.6836H6.79639V5.00391H9.96045L10.1714 7.71094ZM9.6792 10.8984H8.76514C8.76514 9.96094 8.88623 9.11719 9.12842 8.36719C9.37061 7.60938 9.71045 6.96484 10.1479 6.43359C10.5854 5.89453 11.105 5.48438 11.7065 5.20312C12.3159 4.91406 12.9956 4.76953 13.7456 4.76953C14.3394 4.76953 14.8823 4.85547 15.3745 5.02734C15.8667 5.19922 16.2886 5.47266 16.6401 5.84766C16.9995 6.22266 17.2729 6.71875 17.4604 7.33594C17.6558 7.95312 17.7534 8.70703 17.7534 9.59766V17.6836H14.355V9.58594C14.355 9.02344 14.2769 8.58594 14.1206 8.27344C13.9644 7.96094 13.7339 7.74219 13.4292 7.61719C13.1323 7.48438 12.7651 7.41797 12.3276 7.41797C11.8745 7.41797 11.48 7.50781 11.144 7.6875C10.8159 7.86719 10.5425 8.11719 10.3237 8.4375C10.1128 8.75 9.95264 9.11719 9.84326 9.53906C9.73389 9.96094 9.6792 10.4141 9.6792 10.8984Z" fill="white"/>
<path d="M3.59766 5.00391V17.6836H0.210938V5.00391H3.59766ZM0 1.69922C0 1.20703 0.171875 0.800781 0.515625 0.480469C0.859375 0.160156 1.32031 0 1.89844 0C2.46875 0 2.92578 0.160156 3.26953 0.480469C3.62109 0.800781 3.79688 1.20703 3.79688 1.69922C3.79688 2.19141 3.62109 2.59766 3.26953 2.91797C2.92578 3.23828 2.46875 3.39844 1.89844 3.39844C1.32031 3.39844 0.859375 3.23828 0.515625 2.91797C0.171875 2.59766 0 2.19141 0 1.69922Z" fill="white"/>
</svg>
