<svg width="189" height="78" viewBox="0 0 189 78" fill="none" xmlns="http://www.w3.org/2000/svg">
<path d="M180.245 72.458C179.299 72.458 178.457 72.2939 177.717 71.9659C176.977 71.6313 176.392 71.1392 175.961 70.4895C175.536 69.8333 175.324 69.0163 175.324 68.0385C175.324 67.2151 175.475 66.5236 175.777 65.9639C176.08 65.4042 176.491 64.9539 177.012 64.613C177.533 64.272 178.125 64.0147 178.788 63.841C179.457 63.6673 180.158 63.5451 180.891 63.4743C181.753 63.3843 182.448 63.3006 182.976 63.2234C183.503 63.1398 183.886 63.0176 184.124 62.8568C184.362 62.6959 184.481 62.4579 184.481 62.1427V62.0848C184.481 61.4737 184.288 61.0008 183.902 60.6663C183.523 60.3318 182.982 60.1646 182.281 60.1646C181.541 60.1646 180.953 60.3286 180.515 60.6567C180.078 60.9783 179.788 61.3836 179.647 61.8725L175.845 61.5637C176.038 60.6631 176.417 59.8847 176.983 59.2286C177.55 58.566 178.28 58.0578 179.174 57.7039C180.074 57.3437 181.117 57.1636 182.3 57.1636C183.124 57.1636 183.912 57.2601 184.664 57.4531C185.424 57.646 186.096 57.9452 186.681 58.3505C187.273 58.7557 187.739 59.2768 188.08 59.9137C188.421 60.5441 188.592 61.3 188.592 62.1813V72.1781H184.693V70.1228H184.578C184.34 70.586 184.021 70.9945 183.622 71.3483C183.223 71.6957 182.744 71.9691 182.185 72.1685C181.625 72.3615 180.978 72.458 180.245 72.458ZM181.422 69.621C182.027 69.621 182.561 69.502 183.024 69.264C183.487 69.0196 183.851 68.6915 184.114 68.2798C184.378 67.868 184.51 67.4017 184.51 66.8806V65.3077C184.381 65.3914 184.204 65.4685 183.979 65.5393C183.761 65.6036 183.513 65.6648 183.236 65.7227C182.96 65.7741 182.683 65.8224 182.406 65.8674C182.13 65.906 181.879 65.9414 181.654 65.9735C181.171 66.0443 180.75 66.1569 180.39 66.3113C180.029 66.4657 179.75 66.6747 179.55 66.9385C179.351 67.1958 179.251 67.5175 179.251 67.9034C179.251 68.4631 179.454 68.8909 179.859 69.1868C180.271 69.4763 180.792 69.621 181.422 69.621Z" fill="black"/>
<path d="M166.767 72.4676C165.249 72.4676 163.943 72.146 162.849 71.5027C161.762 70.853 160.926 69.9523 160.341 68.8008C159.762 67.6493 159.472 66.3241 159.472 64.8253C159.472 63.3071 159.765 61.9754 160.35 60.8304C160.942 59.6789 161.782 58.7815 162.869 58.1382C163.956 57.4884 165.249 57.1636 166.748 57.1636C168.041 57.1636 169.173 57.3984 170.144 57.868C171.116 58.3376 171.885 58.997 172.451 59.8461C173.017 60.6953 173.329 61.6924 173.387 62.8375H169.508C169.398 62.0977 169.109 61.5026 168.639 61.0523C168.176 60.5956 167.568 60.3672 166.815 60.3672C166.179 60.3672 165.622 60.5409 165.146 60.8883C164.676 61.2292 164.31 61.7278 164.046 62.3839C163.782 63.0401 163.65 63.8346 163.65 64.7674C163.65 65.713 163.779 66.5171 164.036 67.1797C164.3 67.8423 164.67 68.3473 165.146 68.6947C165.622 69.0421 166.179 69.2158 166.815 69.2158C167.285 69.2158 167.706 69.1193 168.079 68.9263C168.459 68.7333 168.771 68.4535 169.015 68.0868C169.266 67.7137 169.43 67.2666 169.508 66.7455H173.387C173.322 67.8777 173.014 68.8748 172.46 69.7368C171.914 70.5924 171.158 71.2614 170.193 71.7439C169.228 72.2264 168.086 72.4676 166.767 72.4676Z" fill="black"/>
<path d="M152.667 72.1782V57.3566H156.778V72.1782H152.667ZM154.732 55.446C154.121 55.446 153.597 55.2434 153.159 54.8381C152.728 54.4264 152.513 53.9343 152.513 53.3617C152.513 52.7956 152.728 52.31 153.159 51.9047C153.597 51.493 154.121 51.2871 154.732 51.2871C155.343 51.2871 155.864 51.493 156.295 51.9047C156.733 52.31 156.951 52.7956 156.951 53.3617C156.951 53.9343 156.733 54.4264 156.295 54.8381C155.864 55.2434 155.343 55.446 154.732 55.446Z" fill="black"/>
<path d="M141.548 72.1782V57.3566H145.533V59.9426H145.688C145.958 59.0227 146.412 58.328 147.048 57.8583C147.685 57.3823 148.419 57.1443 149.248 57.1443C149.454 57.1443 149.676 57.1572 149.914 57.1829C150.152 57.2086 150.361 57.244 150.542 57.289V60.9365C150.349 60.8786 150.082 60.8272 149.741 60.7821C149.4 60.7371 149.088 60.7146 148.805 60.7146C148.2 60.7146 147.66 60.8465 147.183 61.1102C146.714 61.3675 146.341 61.7278 146.064 62.191C145.794 62.6541 145.659 63.1881 145.659 63.7928V72.1782H141.548Z" fill="black"/>
<path d="M139.037 57.3564V60.4442H129.889V57.3564H139.037ZM131.983 72.178V56.2853C131.983 55.211 132.192 54.32 132.61 53.6124C133.035 52.9048 133.614 52.374 134.347 52.0202C135.081 51.6664 135.914 51.4895 136.846 51.4895C137.477 51.4895 138.053 51.5377 138.574 51.6342C139.101 51.7307 139.494 51.8176 139.751 51.8948L139.018 54.9826C138.857 54.9311 138.657 54.8829 138.419 54.8379C138.188 54.7928 137.95 54.7703 137.705 54.7703C137.101 54.7703 136.679 54.9118 136.441 55.1949C136.203 55.4715 136.084 55.8607 136.084 56.3625V72.178H131.983Z" fill="black"/>
<path d="M114.489 72.1781H110.011L116.834 52.416H122.218L129.031 72.1781H124.553L119.603 56.932H119.449L114.489 72.1781ZM114.209 64.4103H124.785V67.6718H114.209V64.4103Z" fill="black"/>
<path d="M85.0432 77.7361C84.5221 77.7361 84.0332 77.6943 83.5765 77.6107C83.1261 77.5335 82.753 77.4338 82.4571 77.3115L83.3835 74.243C83.8659 74.391 84.3002 74.4714 84.6861 74.4843C85.0786 74.4971 85.4163 74.4071 85.6993 74.2141C85.9888 74.0211 86.2236 73.693 86.4037 73.2298L86.645 72.6026L81.3281 57.3564H85.6511L88.7196 68.241H88.874L91.9715 57.3564H96.3234L90.5627 73.7798C90.286 74.5775 89.9097 75.2723 89.4337 75.8641C88.9641 76.4624 88.369 76.9223 87.6485 77.244C86.928 77.5721 86.0596 77.7361 85.0432 77.7361Z" fill="black"/>
<path d="M79.8274 57.3564V60.4443H70.9016V57.3564H79.8274ZM72.928 53.8054H77.0387V67.6235C77.0387 68.003 77.0966 68.2989 77.2124 68.5112C77.3282 68.7171 77.489 68.8618 77.6948 68.9454C77.9071 69.0291 78.1516 69.0709 78.4282 69.0709C78.6212 69.0709 78.8142 69.0548 79.0072 69.0226C79.2002 68.984 79.3481 68.9551 79.451 68.9358L80.0976 71.9947C79.8917 72.059 79.6022 72.133 79.2291 72.2166C78.856 72.3067 78.4025 72.3613 77.8685 72.3806C76.8778 72.4192 76.0094 72.2874 75.2632 71.985C74.5234 71.6827 73.9476 71.2131 73.5359 70.5762C73.1242 69.9393 72.9216 69.1352 72.928 68.1638V53.8054Z" fill="black"/>
<path d="M64.5405 72.1782V57.3566H68.6512V72.1782H64.5405ZM66.6055 55.446C65.9944 55.446 65.4701 55.2434 65.0326 54.8381C64.6016 54.4264 64.3861 53.9343 64.3861 53.3617C64.3861 52.7956 64.6016 52.31 65.0326 51.9047C65.4701 51.493 65.9944 51.2871 66.6055 51.2871C67.2166 51.2871 67.7377 51.493 68.1687 51.9047C68.6061 52.31 68.8249 52.7956 68.8249 53.3617C68.8249 53.9343 68.6061 54.4264 68.1687 54.8381C67.7377 55.2434 67.2166 55.446 66.6055 55.446Z" fill="black"/>
<path d="M53.4221 72.1782V57.3566H57.4074V59.9426H57.5617C57.8319 59.0227 58.2855 58.328 58.9223 57.8583C59.5592 57.3823 60.2925 57.1443 61.1224 57.1443C61.3283 57.1443 61.5502 57.1572 61.7882 57.1829C62.0262 57.2086 62.2353 57.244 62.4154 57.289V60.9365C62.2224 60.8786 61.9555 60.8272 61.6145 60.7821C61.2736 60.7371 60.9616 60.7146 60.6785 60.7146C60.0738 60.7146 59.5335 60.8465 59.0574 61.1102C58.5878 61.3675 58.2147 61.7278 57.9381 62.191C57.6679 62.6541 57.5328 63.1881 57.5328 63.7928V72.1782H53.4221Z" fill="black"/>
<path d="M41.8857 72.458C40.9401 72.458 40.0973 72.2939 39.3575 71.9659C38.6178 71.6313 38.0324 71.1392 37.6013 70.4895C37.1768 69.8333 36.9645 69.0163 36.9645 68.0385C36.9645 67.2151 37.1157 66.5236 37.418 65.9639C37.7204 65.4042 38.1321 64.9539 38.6531 64.613C39.1742 64.272 39.766 64.0147 40.4286 63.841C41.0977 63.6673 41.7989 63.5451 42.5322 63.4743C43.3942 63.3843 44.089 63.3006 44.6165 63.2234C45.144 63.1398 45.5268 63.0176 45.7648 62.8568C46.0028 62.6959 46.1218 62.4579 46.1218 62.1427V62.0848C46.1218 61.4737 45.9288 61.0008 45.5429 60.6663C45.1633 60.3318 44.6229 60.1646 43.9217 60.1646C43.182 60.1646 42.5933 60.3286 42.1559 60.6567C41.7184 60.9783 41.429 61.3836 41.2874 61.8725L37.4855 61.5637C37.6785 60.6631 38.0581 59.8847 38.6242 59.2286C39.1903 58.566 39.9204 58.0578 40.8146 57.7039C41.7152 57.3437 42.7574 57.1636 43.941 57.1636C44.7645 57.1636 45.5525 57.2601 46.3052 57.4531C47.0643 57.646 47.7365 57.9452 48.3219 58.3505C48.9137 58.7557 49.3801 59.2768 49.7211 59.9137C50.062 60.5441 50.2325 61.3 50.2325 62.1813V72.1781H46.3341V70.1228H46.2183C45.9803 70.586 45.6619 70.9945 45.263 71.3483C44.8642 71.6957 44.3849 71.9691 43.8253 72.1685C43.2656 72.3615 42.6191 72.458 41.8857 72.458ZM43.0629 69.621C43.6676 69.621 44.2016 69.502 44.6648 69.264C45.1279 69.0196 45.4914 68.6915 45.7551 68.2798C46.0189 67.868 46.1508 67.4017 46.1508 66.8806V65.3077C46.0221 65.3914 45.8452 65.4685 45.6201 65.5393C45.4013 65.6036 45.1537 65.6648 44.877 65.7227C44.6004 65.7741 44.3238 65.8224 44.0472 65.8674C43.7706 65.906 43.5197 65.9414 43.2945 65.9735C42.8121 66.0443 42.3907 66.1569 42.0304 66.3113C41.6702 66.4657 41.3904 66.6747 41.1909 66.9385C40.9915 67.1958 40.8918 67.5175 40.8918 67.9034C40.8918 68.4631 41.0944 68.8909 41.4997 69.1868C41.9114 69.4763 42.4325 69.621 43.0629 69.621Z" fill="black"/>
<path d="M24.8136 63.6094V72.1781H20.7029V52.416H24.6978V59.9715H24.8715C25.206 59.0967 25.7464 58.4116 26.4926 57.9162C27.2388 57.4144 28.1748 57.1636 29.3006 57.1636C30.3299 57.1636 31.2273 57.3887 31.9928 57.839C32.7648 58.2829 33.363 58.923 33.7876 59.7593C34.2186 60.5891 34.4309 61.583 34.4245 62.7409V72.1781H30.3138V63.4743C30.3202 62.5608 30.0887 61.85 29.6191 61.3418C29.1559 60.8336 28.5061 60.5795 27.6699 60.5795C27.1102 60.5795 26.6148 60.6985 26.1838 60.9365C25.7593 61.1745 25.4247 61.5219 25.1803 61.9786C24.9423 62.4289 24.82 62.9725 24.8136 63.6094Z" fill="black"/>
<path d="M17.784 59.3346H13.5575C13.4803 58.7878 13.3227 58.3021 13.0847 57.8775C12.8467 57.4465 12.5411 57.0798 12.168 56.7775C11.7949 56.4751 11.3639 56.2436 10.875 56.0827C10.3925 55.9219 9.86819 55.8415 9.30209 55.8415C8.27924 55.8415 7.38828 56.0956 6.62918 56.6038C5.87009 57.1056 5.28148 57.8389 4.86333 58.8039C4.44519 59.7624 4.23612 60.9268 4.23612 62.297C4.23612 63.7058 4.44519 64.8895 4.86333 65.848C5.28791 66.8065 5.87974 67.5302 6.63883 68.0191C7.39792 68.508 8.27603 68.7525 9.27314 68.7525C9.83281 68.7525 10.3507 68.6785 10.8267 68.5306C11.3092 68.3826 11.737 68.1671 12.1101 67.884C12.4832 67.5946 12.792 67.244 13.0364 66.8322C13.2873 66.4205 13.461 65.9509 13.5575 65.4234L17.784 65.4427C17.6746 66.3498 17.4012 67.2247 16.9638 68.0674C16.5328 68.9037 15.9506 69.6531 15.2172 70.3157C14.4903 70.9719 13.6218 71.4929 12.6119 71.8789C11.6083 72.2585 10.4729 72.4482 9.20559 72.4482C7.44296 72.4482 5.86688 72.0494 4.47735 71.2517C3.09426 70.454 2.00066 69.2993 1.19653 67.7875C0.398845 66.2758 0 64.4456 0 62.297C0 60.1419 0.405278 58.3085 1.21583 56.7968C2.02639 55.285 3.12643 54.1335 4.51595 53.3423C5.90547 52.5446 7.46869 52.1458 9.20559 52.1458C10.3507 52.1458 11.4121 52.3066 12.3899 52.6282C13.3742 52.9499 14.2458 53.4195 15.0049 54.037C15.764 54.6482 16.3816 55.3976 16.8576 56.2854C17.3401 57.1731 17.6489 58.1895 17.784 59.3346Z" fill="black"/>
<path d="M64.3119 39.2797C63.123 39.1523 61.8918 39.0674 60.703 38.94C55.8203 38.3456 51.3623 36.7322 47.6685 33.3356C45.5031 31.3401 43.9746 28.9625 42.9556 26.2027C42.8707 25.948 42.616 25.6508 42.4037 25.4809C41.8093 25.0564 41.2149 24.7167 40.663 24.2072C41.5121 24.5469 42.3188 24.929 43.1679 25.2686C47.4561 27.0094 51.8718 28.0708 56.4996 27.9859C60.3633 27.9435 64.0571 27.1368 67.6236 25.7357C71.1476 24.3346 74.6291 22.7636 78.1106 21.3201C79.3419 20.8106 80.5731 20.3011 81.8044 19.8341C83.6301 19.1547 85.4558 18.5603 87.239 17.9235C87.4513 17.8386 87.7485 17.6263 87.8334 17.414C90.0837 12.1917 92.3339 7.01185 94.5842 1.78956C94.754 1.36499 94.9663 0.897951 95.2635 0.515832C95.773 -0.205948 96.5372 -0.163511 97.0043 0.600727C97.3864 1.28005 97.726 2.0443 98.0233 2.76608C100.146 7.69117 102.227 12.6163 104.307 17.5413C104.434 17.881 104.647 18.0084 104.986 18.1358C106.515 18.7302 108.086 19.2821 109.614 20.0039C111.058 20.6832 112.459 21.5748 113.86 22.424C111.1 21.3625 108.298 20.3435 105.284 19.6642C105.411 19.9614 105.453 20.2162 105.581 20.4285C107.279 24.4195 108.977 28.453 110.761 32.444C111.312 33.6752 112.034 34.7791 112.756 35.9255C113.563 37.1143 114.752 37.5814 116.195 37.5814C116.535 37.5814 116.832 37.5814 117.172 37.6663C117.341 37.7087 117.511 37.9635 117.554 38.1333C117.554 38.2182 117.341 38.4305 117.172 38.5154C116.959 38.6004 116.705 38.6003 116.492 38.6003C112.629 38.5579 108.807 38.5154 104.944 38.473C104.774 38.473 104.604 38.473 104.477 38.388C104.349 38.3031 104.137 38.1758 104.137 38.0909C104.137 37.9635 104.307 37.8361 104.434 37.7087H104.477C105.326 37.4115 105.453 37.1143 105.114 36.2652C104.604 34.949 104.052 33.6328 103.543 32.3166C101.802 27.9859 100.104 23.6553 98.3629 19.3246C98.2355 18.9849 98.0657 18.9 97.6836 18.9C93.5227 18.9425 89.5317 19.919 85.6256 21.3201C82.0167 22.5938 78.5776 24.3346 75.0112 25.8206C70.9777 27.5189 66.9018 29.1323 62.5287 29.8116C59.5566 30.2787 56.5421 30.3211 53.5701 29.8116C53.4002 29.7692 53.2304 29.7692 52.8907 29.7267C53.2729 30.1937 53.5276 30.5334 53.8673 30.8731C57.2214 34.4395 61.2549 36.3501 66.18 36.2652C68.0906 36.2227 70.0012 36.2227 71.8268 35.5434C74.2894 34.6093 75.6905 32.7836 76.4123 30.3211C76.4548 30.1513 76.4548 29.8965 76.5397 29.7691C76.6246 29.5993 76.8369 29.387 76.9643 29.387C77.1341 29.387 77.3888 29.5569 77.4313 29.7267C77.5162 29.9814 77.5586 30.2786 77.5162 30.5759C77.2614 32.9535 76.9642 35.3311 76.2 37.6663C77.8559 37.7087 79.1721 37.0294 79.9363 35.6283C80.743 34.2272 81.3374 32.6987 82.0167 31.2127C82.8234 29.387 83.5877 27.5613 84.3944 25.7357C84.4793 25.5658 84.5217 25.396 84.6491 25.0139C83.7575 25.4385 82.9507 25.7781 82.229 26.1178C79.5541 27.3915 76.8793 28.7502 74.162 29.939C70.5956 31.4675 66.9018 32.1468 62.9957 31.7647C62.1041 31.6797 61.2124 31.5099 60.3208 31.2976C61.6795 31.2127 63.0381 31.1278 64.3968 31.0004C66.5621 30.7881 68.7274 30.3636 70.723 29.5144C73.8224 28.1982 76.8369 26.7547 79.8514 25.3111C82.4413 24.0798 85.0736 23.0184 87.9183 22.4664C90.4233 21.9569 92.9283 21.8296 95.4333 22.2117C95.5607 22.2117 95.6456 22.2541 95.7305 22.2541C93.7775 22.5938 91.782 22.9335 89.8289 23.2731C89.5742 23.3156 89.277 23.5279 89.192 23.7402C87.7909 27.1368 86.3899 30.5334 85.0312 33.9725C84.7765 34.6093 84.6491 35.3311 84.5641 36.0529C84.4368 37.0719 84.9038 37.5814 85.9653 37.6663C86.4323 37.7087 86.9418 37.6238 87.4088 37.7087C87.6636 37.7512 88.0032 37.9635 88.0457 38.1333C88.1306 38.5579 87.7485 38.6853 87.3664 38.6853C86.5597 38.6853 85.7954 38.6428 84.9887 38.6428C81.9742 38.6428 79.0022 38.6853 75.9877 38.6853C75.5631 38.6853 75.181 38.5154 74.7564 38.4305C74.6715 38.4305 74.5442 38.3881 74.4592 38.4305C72.2939 39.0249 70.0436 39.1948 67.7934 39.2797C67.7085 39.2797 67.5811 39.3221 67.4962 39.3646C66.4772 39.2797 65.4158 39.2797 64.3119 39.2797ZM91.8669 16.9469C93.735 16.862 95.4758 16.7771 97.3439 16.6922C96.4948 14.4419 95.6456 12.2766 94.7965 10.0688C94.7116 10.0688 94.6691 10.0688 94.5842 10.0688C93.6501 12.3615 92.7585 14.6118 91.8669 16.9469Z" fill="#FF452E"/>
<path d="M50.6826 25.7783C49.6212 25.5236 48.6447 25.3113 47.6682 25.0141C45.9274 24.4197 44.2291 23.7828 42.5307 23.146C42.3185 23.0611 42.1062 22.8063 42.1062 22.594C41.2146 15.8008 43.0403 9.94163 48.3475 5.3562C50.7676 3.27578 53.6122 2.00206 56.6692 1.28028C60.2356 0.473582 63.8445 0.303752 67.4959 0.643413C70.5953 0.940616 73.6523 1.4501 76.7517 1.83222C77.2187 1.91714 77.431 2.17188 77.431 2.68138C77.3036 5.22883 77.1762 7.77629 77.0064 10.3238C77.0064 10.621 76.9639 10.9606 76.8366 11.2154C76.7516 11.4276 76.4544 11.5126 76.2846 11.6824C76.1572 11.5126 75.945 11.3427 75.9025 11.1305C75.6902 10.2388 75.6477 9.26231 75.3505 8.41316C74.6288 6.29028 72.9729 5.10146 70.9774 4.29476C68.1327 3.19086 65.1607 3.02104 62.1462 3.19087C59.896 3.31825 57.6882 3.70036 55.7351 4.88918C52.9329 6.58748 51.1921 9.09249 50.343 12.1919C49.1542 16.6075 49.1117 21.0231 50.5553 25.3962C50.6402 25.4811 50.6402 25.6085 50.6826 25.7783Z" fill="#FF452E"/>
<path d="M140.141 3.78491C140.183 3.78491 140.226 3.78491 140.311 3.78491C139.716 6.205 139.122 8.6251 138.443 11.0452C137.466 14.6116 135.471 17.5837 132.881 20.1736C130.291 22.7635 127.149 24.3769 123.54 24.9288C120.398 25.3959 117.426 24.6741 114.581 23.2305C114.327 23.1032 114.157 22.806 113.902 22.6361C113.902 22.5937 113.902 22.5512 113.902 22.4663C115.006 22.2964 116.11 22.0842 117.171 21.9143C119.676 21.5747 122.054 20.768 124.304 19.749C128.592 17.8384 132.286 15.206 135.173 11.4273C135.301 11.2575 135.343 11.0452 135.428 10.8753C135.173 11.0027 135.088 11.215 134.919 11.3424C132.923 12.8284 131.012 14.3993 128.932 15.758C125.875 17.7535 122.521 19.1546 118.912 20.0037C117.214 20.3859 115.473 20.5982 113.732 20.8954C113.69 20.0887 113.605 19.3244 113.562 18.5177C113.647 18.0507 113.647 17.5412 113.775 17.0742C114.029 16.0127 114.157 14.8664 114.709 13.9323C115.77 12.1491 117.468 11.0452 119.337 10.1536C122.351 8.75246 125.663 8.24298 128.89 7.64857C131.522 7.18154 134.197 6.79943 136.787 6.24748C138.315 5.90782 139.419 5.1011 140.141 3.78491Z" fill="#FF452E"/>
<path d="M131.48 29.4293C126.894 29.4718 122.564 28.4528 118.53 26.3724C118.53 26.2875 118.573 26.2026 118.573 26.1176C118.742 26.1176 118.955 26.1176 119.124 26.1176C120.356 26.2026 121.629 26.4573 122.861 26.3724C124.092 26.2875 125.323 25.9054 126.512 25.5657C127.489 25.2685 128.338 24.759 129.314 24.4193C129.527 24.3344 129.909 24.5043 130.163 24.6316C131.777 25.5657 133.39 26.4998 134.961 27.4338C135.301 27.6461 135.725 27.7735 136.065 27.9858C136.277 28.1131 136.49 28.2405 136.66 28.3679C136.49 28.5802 136.362 28.7925 136.192 28.9623C135.089 29.7266 134.07 30.5757 132.881 31.2126C130.885 32.274 128.762 32.9958 126.512 33.1656C124.219 33.3354 121.969 32.9958 119.889 31.8494C117.851 30.7455 116.662 28.8774 115.558 26.9243C115.346 26.5422 115.176 26.0752 115.006 25.6082C120.059 28.8349 125.451 30.5757 131.48 29.4293Z" fill="#FF452E"/>
<circle cx="102.227" cy="65.8092" r="3.82119" fill="#FF452E"/>
</svg>
