<svg version="1.2" xmlns="http://www.w3.org/2000/svg" viewBox="0 0 328 208" width="328" height="208">
	<title>Vox-logo-7c810d96222afbf29f8fbfdd3b0f82d3-svg</title>
	<style>
		.s0 { fill: #697783 } 
	</style>
	<g id="Vox-logo">
		<path id="Shape" fill-rule="evenodd" class="s0" d="m135.5 65.9l-40.5 85.7h-24.1l-10.3-98c-0.3-5.3-2-8.2-6.6-8.2h-3.6l0.6-1.5h57.3l-0.3 1.5h-3.8c-6.7 0-9.7 2.7-9.2 8.6l6.5 75.8 26.4-58.4c2.9-6.2 4.6-11.4 4.6-15.3 0-7.1-4.2-10.7-9.3-10.7h-5.9l0.3-1.5h40.7l-0.4 1.5h-3.2c-6.5 0-12.9 7.8-19.2 20.5zm115.3 24.7c-2.6 3.1-6.4 11.4-8.9 14.7 4 19.3 9.3 35.3 16.7 35.3 4.2 0 7.8-2.3 11.4-5.9l1.2 1.7c-5.7 7.2-16.8 17.5-28.7 17.5-10.1 0-16-11.6-18.5-23.4-8.1 11.1-11.7 23.4-24.9 23.4-6.2 0-11-4.6-11-11.4 0-6.1 5.2-13.3 12.8-13.3 6.6 0 11.7 4.8 12.5 12.4 1.9-1.6 5.9-9.9 9.9-14.3-4.4-21.5-9-35.7-14.7-35.7-4.9 0-11 4.9-15.7 10.1 0.2 2.4 0.4 4.3 0.4 7 0 18.6-13 45.2-43.7 45.2-18.7 0-30.6-12.7-30.6-29.4 0-24.4 21.3-46 45.4-46 12.9 0 22 6.8 26.2 16.9-8 8.5-17.5 16.5-23.8 18.4 2.5-11.6 3.7-20.7 3.7-26.2 0-5.1-1.9-7.6-6.3-7.6-6.5 0-8.6 4.4-12.7 21.5 0 10.4 3.4 16.3 9.3 16.3 5.7 0 12.7-3.4 19.2-8.9 14-11.8 29.4-30.8 42.7-30.8 11.8 0 16.5 13.3 18.4 23.6 9.3-16.4 14.7-25.3 25.9-25.3 6.2 0 10.6 4.5 10.6 10.6 0 7.2-4.9 13.5-12.5 13.5-8.8 0-12.6-6.4-14.3-9.9zm-85.5 30.1c-1.3 0.1-2.6 0.3-4.1 0.3-6.5 0-10.9-6.2-11.3-12.5-3 13.7-5.8 28.7-5.8 36.3 0 6.1 2.2 7.2 5.8 7.2 7.1 0 9.4-5.3 15.4-31.3z"/>
	</g>
</svg>