<svg version="1.2" xmlns="http://www.w3.org/2000/svg" viewBox="0 0 328 208" width="328" height="208">
	<title>FT-logo-e4a9d097786994138501983a4e110a7f-svg</title>
	<style>
		.s0 { fill: #697783 } 
	</style>
	<g id="FT-logo">
		<g id="Group">
			<path id="Combined-Shape" fill-rule="evenodd" class="s0" d="m111.6 60.5v100.8h-100.8v-100.8zm-51.7 14.3h-38v1.7c4.3 0.2 5.6 0.8 5.6 5.5v31.1c0 4.8-1.3 5.3-5.8 5.5v1.7h21.6v-1.7c-5.4-0.2-6.7-0.7-6.7-5.5v-14.9h3.4c5.9 0 8.6 1.4 9.5 6.7h1.7v-16h-1.7c-0.9 4.7-2.4 6-9.5 6h-3.4v-14.4c0-1.9 0.5-2.3 2.5-2.3h6.9c8.9 0 10.7 1.6 12.3 6.6h1.9zm43 0h-39.9l-0.9 10.1h2.3c1.4-4.9 3.6-6.7 8.4-6.7h5.6v34.9c0 4.8-1.3 5.3-6.4 5.5v1.8h22v-1.8c-5.2-0.2-6.5-0.7-6.5-5.5v-34.9h5.7c4.8 0 6.9 1.8 8.4 6.7h2.3z"/>
			<path id="FinancialTimes" fill-rule="evenodd" class="s0" d="m135 119.5c0 2.3 0.6 2.6 3.2 2.7v0.8h-10.3v-0.8c2.1-0.1 2.8-0.4 2.8-2.7v-14.9c0-2.2-0.7-2.5-2.7-2.6v-0.8h18.2l0.1 4.8h-0.9c-0.8-2.5-1.6-3.2-5.9-3.2h-3.3c-1 0-1.2 0.2-1.2 1.1v6.9h3.7c3.4 0 4.2-0.6 4.6-2.9h0.8v7.7h-0.8c-0.5-2.6-1.7-3.2-4.6-3.2h-3.7zm21.5 0c0 2.3 0.6 2.5 3.2 2.6v0.8h-10.8v-0.8c2.6-0.1 3.2-0.3 3.2-2.6v-14.9c0-2.3-0.6-2.5-3.2-2.6v-0.8h10.8v0.8c-2.6 0.1-3.2 0.3-3.2 2.6zm25.7-14.2c0-2.2-0.6-3-3-3.3v-0.8h7.7v0.8c-2.3 0.3-2.9 1.1-2.9 3.3v18.2h-1.1l-14.9-17.2v12.6c0 2.1 0.6 3 3 3.3v0.8h-7.7v-0.8c2.3-0.3 2.9-1.2 2.9-3.3v-14.7c-0.7-1.3-1.6-1.9-2.9-2.2v-0.8h5.9l13 15zm17.8 17.7v-0.8c1.5 0 2.3-0.3 2.3-1.4 0-0.9-1-3.3-1.3-4h-7.9c-0.2 0.7-1.2 3.1-1.2 4 0 1.1 0.7 1.4 2.2 1.4v0.8h-6.9v-0.8c1.4-0.3 2.1-0.7 2.7-2.1l8-19.4h1l7.7 18.8c0.8 2 1.2 2.7 2.9 2.7v0.8zm0.3-7.8l-3.3-8.6-3.2 8.6zm30.2-9.9c0-2.1-0.6-3-2.9-3.3v-0.8h7.7v0.8c-2.4 0.3-3 1.2-3 3.3v18.2h-1.1l-14.9-17.2v12.6c0 2.2 0.6 3 3 3.3v0.8h-7.7v-0.8c2.4-0.3 2.9-1.1 2.9-3.3v-14.6c-0.7-1.3-1.6-1.9-2.9-2.3v-0.8h5.9l13 15v-10.9zm27.6 12.6c-2.3 3.9-5.3 5.6-9.8 5.6-7.1 0-11.3-4.6-11.3-11.6 0-4.9 3.9-11.2 11.5-11.2 2.3 0 5.5 1.3 6 1.3 0.6 0 0.8-0.4 1.3-1.3h1.1l0.5 7.3h-1c-1.3-3.4-3.5-5.8-7.4-5.8-5.1 0-7.3 5.5-7.3 9.7 0 5.9 2.5 9.8 7.9 9.8 4.3 0 6.6-3.1 7.6-4.5zm10.6 1.7c0 2.3 0.6 2.5 3.2 2.6v0.8h-10.8v-0.8c2.6-0.1 3.2-0.3 3.2-2.6v-14.9c0-2.3-0.6-2.5-3.2-2.6v-0.9h10.8v0.9c-2.6 0.1-3.2 0.3-3.2 2.6zm18.3 3.5v-0.8c1.5 0 2.3-0.4 2.3-1.4 0-0.9-1.1-3.3-1.3-4h-7.9c-0.3 0.7-1.3 3.1-1.3 4 0 1 0.8 1.4 2.3 1.4v0.8h-6.9v-0.8c1.3-0.3 2.1-0.8 2.6-2.1l8-19.4h1.1l7.6 18.7c0.9 2.1 1.3 2.8 2.9 2.8v0.8zm0.3-7.8l-3.2-8.7-3.3 8.7zm11.1 7.8v-0.8c2-0.1 2.6-0.4 2.6-2.7v-14.9c0-2.2-0.6-2.5-2.6-2.6v-0.8h10v0.8c-2.4 0.1-3 0.4-3 2.6v15.3c0 1.4 0.4 1.8 2.8 1.8 3.9 0 6.3-0.7 8.1-4.6h0.9l-1.5 5.9zm-165.7 34.3c2.5-0.1 3.1-0.3 3.1-2.6v-16.7h-2.7c-2.6 0-3.6 1-4.3 3.9h-0.9l0.5-5.5h19.1l0.5 5.5h-1c-0.7-2.9-1.7-3.9-4.2-3.9h-2.7v16.7c0 2.3 0.6 2.5 3.1 2.6v0.8h-10.5zm25.1-2.6c0 2.3 0.6 2.5 3.2 2.6v0.9h-10.7v-0.9c2.6-0.1 3.2-0.3 3.2-2.6v-14.9c0-2.3-0.6-2.5-3.2-2.6v-0.8h10.7v0.8c-2.6 0.1-3.2 0.3-3.2 2.6zm26.1-18.3h7.5v0.8c-2 0.1-2.7 0.4-2.7 2.6v14.9c0 2.3 0.7 2.6 2.7 2.7v0.8h-9.8v-0.8c2.2-0.1 2.8-0.4 2.8-2.7v-15.3h-0.1l-7.3 19h-1l-7.1-19v14.7c0 2.1 0.5 3 2.9 3.3v0.8h-7.7v-0.8c2.4-0.3 3-1.2 3-3.3v-14.8c0-1.5-0.7-2.1-3-2.1v-0.8h7.9l5.8 15.1zm10.6 21.8v-0.8c2.1-0.1 2.7-0.4 2.7-2.6v-14.9c0-2.3-0.6-2.6-2.7-2.7v-0.8h18.3l0.1 4.8h-0.9c-0.8-2.4-1.6-3.2-5.9-3.2h-3.3c-1 0-1.2 0.2-1.2 1.1v6.9h3.7c3.4 0 4.2-0.6 4.6-2.9h0.8v7.7h-0.8c-0.5-2.5-1.8-3.2-4.6-3.2h-3.7v7.6c0 1.3 0.4 1.7 4.2 1.7 3.9 0 6.3-0.7 8.1-4.5h0.9l-1.5 5.8zm23.9-6.8c0.9 2.8 3.6 5.9 6.9 5.9 2.7 0 3.7-2 3.7-3.7 0-5-11.3-5.9-11.3-12.1 0-3 2.9-5.6 6.3-5.6 3.2 0 4.4 1.1 5.8 1.1 0.7 0 1-0.4 1.2-1.1h0.8v6.9h-0.8c-0.9-3.1-3.1-5.4-6.1-5.4-2.4 0-3.3 1.5-3.3 3 0 4.5 11.3 4.6 11.3 12.3 0 3.4-2.9 6-6.8 6-3.8 0-4.8-1.3-6.3-1.3-0.6 0-1 0.4-1.1 1.1h-1.2v-7.1z"/>
		</g>
	</g>
</svg>