<svg version="1.2" xmlns="http://www.w3.org/2000/svg" viewBox="0 0 18 18" width="18" height="18"><style>.a{fill:#fff}</style><path fill-rule="evenodd" class="a" d="m14.9 6.4c0 1.5-1 3.6-3 6.4-1.5 2-2.9 3.6-2.9 3.6l-0.6 0.6-0.5-0.6c0 0-1.5-1.6-2.9-3.6-2-2.8-3-4.9-3-6.4 0-3.5 2.9-6.4 6.4-6.4 3.6 0 6.5 2.9 6.5 6.4zm-1.4 0c0-2.7-2.3-5-5.1-5-2.7 0-5 2.3-5 5 0 2.2 3.3 6.4 5 8.5 1.8-2.1 5.1-6.3 5.1-8.5z"/><path class="a" d="m8.4 8.8c1.3 0 2.4-1.1 2.4-2.4 0-1.3-1.1-2.3-2.4-2.3-1.3 0-2.3 1-2.3 2.3 0 1.3 1 2.4 2.3 2.4z"/></svg>