<svg width="60" height="49" viewBox="0 0 60 49" fill="none" xmlns="http://www.w3.org/2000/svg">
<path d="M13.5643 7.95249H18.1905C18.7864 7.95249 19.2739 7.46495 19.2739 6.86907C19.2739 6.27319 18.7864 5.78564 18.1905 5.78564H13.5643C12.9684 5.78564 12.4808 6.27319 12.4808 6.86907C12.4808 7.46495 12.9684 7.95249 13.5643 7.95249Z" fill="#25243F"/>
<path d="M13.5643 12.4703H18.1905C18.7864 12.4703 19.2739 11.9828 19.2739 11.3869C19.2739 10.791 18.7864 10.3035 18.1905 10.3035H13.5643C12.9684 10.3035 12.4808 10.791 12.4808 11.3869C12.4808 11.9828 12.9684 12.4703 13.5643 12.4703Z" fill="#25243F"/>
<path d="M13.5643 16.9771H18.1905C18.7864 16.9771 19.2739 16.4896 19.2739 15.8937C19.2739 15.2978 18.7864 14.8103 18.1905 14.8103H13.5643C12.9684 14.8103 12.4808 15.2978 12.4808 15.8937C12.4808 16.4896 12.9684 16.9771 13.5643 16.9771Z" fill="#25243F"/>
<path d="M13.5643 21.4845H18.1905C18.7864 21.4845 19.2739 20.9969 19.2739 20.4011C19.2739 19.8052 18.7864 19.3176 18.1905 19.3176H13.5643C12.9684 19.3176 12.4808 19.8052 12.4808 20.4011C12.4808 20.9969 12.9684 21.4845 13.5643 21.4845Z" fill="#25243F"/>
<path d="M13.5643 25.9913H18.1905C18.7864 25.9913 19.2739 25.5038 19.2739 24.9079C19.2739 24.312 18.7864 23.8245 18.1905 23.8245H13.5643C12.9684 23.8245 12.4808 24.312 12.4808 24.9079C12.4808 25.5038 12.9684 25.9913 13.5643 25.9913Z" fill="#25243F"/>
<path d="M13.5643 30.4984H18.1905C18.7864 30.4984 19.2739 30.0108 19.2739 29.415C19.2739 28.8191 18.7864 28.3315 18.1905 28.3315H13.5643C12.9684 28.3315 12.4808 28.8191 12.4808 29.415C12.4808 30.0108 12.9684 30.4984 13.5643 30.4984Z" fill="#25243F"/>
<path d="M23.7376 7.95249H28.3638C28.9597 7.95249 29.4472 7.46495 29.4472 6.86907C29.4472 6.27319 28.9597 5.78564 28.3638 5.78564H23.7376C23.1417 5.78564 22.6542 6.27319 22.6542 6.86907C22.6542 7.46495 23.1417 7.95249 23.7376 7.95249Z" fill="#25243F"/>
<path d="M23.7376 12.4703H28.3638C28.9597 12.4703 29.4472 11.9828 29.4472 11.3869C29.4472 10.791 28.9597 10.3035 28.3638 10.3035H23.7376C23.1417 10.3035 22.6542 10.791 22.6542 11.3869C22.6542 11.9828 23.1417 12.4703 23.7376 12.4703Z" fill="#25243F"/>
<path d="M23.7376 16.9771H28.3638C28.9597 16.9771 29.4472 16.4896 29.4472 15.8937C29.4472 15.2978 28.9597 14.8103 28.3638 14.8103H23.7376C23.1417 14.8103 22.6542 15.2978 22.6542 15.8937C22.6542 16.4896 23.1417 16.9771 23.7376 16.9771Z" fill="#25243F"/>
<path d="M23.7376 21.4845H28.3638C28.9597 21.4845 29.4472 20.9969 29.4472 20.4011C29.4472 19.8052 28.9597 19.3176 28.3638 19.3176H23.7376C23.1417 19.3176 22.6542 19.8052 22.6542 20.4011C22.6542 20.9969 23.1417 21.4845 23.7376 21.4845Z" fill="#25243F"/>
<path d="M23.7376 25.9913H28.3638C28.9597 25.9913 29.4472 25.5038 29.4472 24.9079C29.4472 24.312 28.9597 23.8245 28.3638 23.8245H23.7376C23.1417 23.8245 22.6542 24.312 22.6542 24.9079C22.6542 25.5038 23.1417 25.9913 23.7376 25.9913Z" fill="#25243F"/>
<path d="M23.7376 30.4984H28.3638C28.9597 30.4984 29.4472 30.0108 29.4472 29.415C29.4472 28.8191 28.9597 28.3315 28.3638 28.3315H23.7376C23.1417 28.3315 22.6542 28.8191 22.6542 29.415C22.6542 30.0108 23.1417 30.4984 23.7376 30.4984Z" fill="#25243F"/>
<path d="M38.7323 20.7369H46.013C46.6088 20.7369 47.0964 20.2494 47.0964 19.6535C47.0964 19.0576 46.6088 18.5701 46.013 18.5701H38.7323C38.1365 18.5701 37.6489 19.0576 37.6489 19.6535C37.6489 20.2494 38.1256 20.7369 38.7323 20.7369Z" fill="#25243F"/>
<path d="M38.7323 26.3919H46.013C46.6088 26.3919 47.0964 25.9044 47.0964 25.3085C47.0964 24.7126 46.6088 24.2251 46.013 24.2251H38.7323C38.1365 24.2251 37.6489 24.7126 37.6489 25.3085C37.6489 25.9044 38.1256 26.3919 38.7323 26.3919Z" fill="#25243F"/>
<path d="M38.7323 32.0587H46.013C46.6088 32.0587 47.0964 31.5712 47.0964 30.9753C47.0964 30.3794 46.6088 29.8918 46.013 29.8918H38.7323C38.1365 29.8918 37.6489 30.3794 37.6489 30.9753C37.6489 31.5712 38.1256 32.0587 38.7323 32.0587Z" fill="#25243F"/>
<path d="M38.7323 37.725H46.013C46.6088 37.725 47.0964 37.2374 47.0964 36.6415C47.0964 36.0456 46.6088 35.5581 46.013 35.5581H38.7323C38.1365 35.5581 37.6489 36.0456 37.6489 36.6415C37.6489 37.2374 38.1256 37.725 38.7323 37.725Z" fill="#25243F"/>
<path d="M58.9166 45.9047H52.481V9.29577C52.481 8.69989 51.9935 8.21235 51.3976 8.21235H34.4204V1.08342C34.4204 0.487541 33.9328 0 33.3369 0H8.60238C8.0065 0 7.51896 0.487541 7.51896 1.08342V9.29577V45.9047H1.08342C0.487541 45.9047 0 46.3922 0 46.9881C0 47.584 0.487541 48.0715 1.08342 48.0715H8.60238H17.5081H24.4312H33.3369H51.3976H58.9166C59.5125 48.0715 60 47.584 60 46.9881C60 46.3922 59.5125 45.9047 58.9166 45.9047ZM23.3478 45.9047H18.5915V39.7725H23.3478V45.9047ZM32.2535 9.29577V45.9047H25.5146V38.6891C25.5146 38.0932 25.0271 37.6056 24.4312 37.6056H17.5081C16.9122 37.6056 16.4247 38.0932 16.4247 38.6891V45.9047H9.68581V9.29577V2.16685H32.2535V9.29577ZM50.3142 45.9047H34.4204V10.3792H50.3142V45.9047Z" fill="#25243F"/>
</svg>
