<svg width="60" height="56" viewBox="0 0 60 56" fill="none" xmlns="http://www.w3.org/2000/svg">
<path d="M46.7056 29.1159C46.3197 29.1159 45.9384 29.1364 45.5609 29.1683L45.504 24.7416C45.9255 24.6368 46.2384 24.2563 46.2384 23.8021V21.4269H48.2049C48.7397 21.4269 49.1726 20.994 49.1726 20.4593V16.3972C49.1726 16.3934 49.1718 16.3896 49.1718 16.3858C49.1718 16.3759 49.1696 16.3661 49.1688 16.3562C49.165 16.2711 49.1498 16.1906 49.1255 16.1124C49.1202 16.0956 49.1164 16.0789 49.1103 16.063C49.0792 15.9794 49.0382 15.9012 48.9865 15.8306C48.9774 15.8177 48.9668 15.807 48.9569 15.7941C48.8999 15.7235 48.8361 15.6597 48.7624 15.608C48.7594 15.6057 48.7579 15.6027 48.7548 15.6012L48.748 15.5966L48.7457 15.5951L26.3739 0.170899C26.0435 -0.0569663 25.606 -0.0569663 25.2756 0.170899L2.90604 15.5936L2.90376 15.5951L2.89693 15.5997C2.89389 15.6019 2.89237 15.605 2.88933 15.6065C2.81566 15.6589 2.75185 15.7227 2.69489 15.7926C2.68501 15.8047 2.67438 15.8161 2.66527 15.829C2.61362 15.8997 2.5726 15.9779 2.54146 16.0615C2.53538 16.0782 2.53083 16.0949 2.52627 16.1116C2.50196 16.1891 2.48677 16.2703 2.48297 16.3547C2.48221 16.3645 2.47994 16.3744 2.47994 16.3843C2.47994 16.3881 2.47918 16.3919 2.47918 16.3957V20.4585C2.47918 20.9932 2.91212 21.4262 3.44684 21.4262H5.24318V23.8013C5.24318 24.2547 5.55612 24.636 5.97767 24.7409L5.72854 44.1489H5.12545C4.59073 44.1489 4.15778 44.5819 4.15778 45.1166V47.1013L3.44836 47.1005H3.4476C3.19087 47.1005 2.94478 47.2023 2.76401 47.3839C2.58247 47.5654 2.47994 47.8115 2.47994 48.0682V50.397C2.47994 50.4745 2.49133 50.5489 2.5088 50.6211H0.967669C0.432944 50.6211 0 51.054 0 51.5887V54.734C0 55.2687 0.432944 55.7017 0.967669 55.7017H46.1503C46.1891 55.7017 46.2263 55.6949 46.2643 55.6903C46.4116 55.6949 46.5582 55.7017 46.7071 55.7017C54.0368 55.7017 60 49.7385 60 42.4088C60 35.0791 54.0352 29.1159 46.7056 29.1159ZM41.4556 24.7705H43.5679L43.6286 29.4797C42.8524 29.6643 42.1027 29.9164 41.3857 30.2309L41.4556 24.7705ZM40.7218 22.8351V21.6867H44.3016V22.8351H40.7218ZM39.5202 24.7416L39.4367 31.2874C35.8121 33.6641 33.4119 37.7603 33.4119 42.4088C33.4119 44.0692 33.7203 45.6581 34.2793 47.1256L30.5507 47.1226V45.1173C30.5507 44.5826 30.1177 44.1497 29.583 44.1497H28.9799L28.7308 24.7416C29.1523 24.6376 29.4653 24.2563 29.4653 23.8021V21.4269H38.7865V23.8021C38.7865 24.2563 39.0987 24.6376 39.5202 24.7416ZM27.5299 21.4277V22.8351H23.9494V21.4277H27.5299ZM27.0446 44.1497H24.4348L24.6839 24.7705H26.7962L27.0446 44.1497ZM28.6153 46.085V47.121L22.864 47.1165V46.085H28.6153ZM25.8247 2.14269L45.0953 15.4288H6.55493L25.8247 2.14269ZM4.41375 17.3649H47.2357V19.4924H4.41375V17.3649ZM7.17776 22.8351V21.6867H10.7583V22.8351H7.17776ZM10.2729 44.1497H7.66311L7.91225 24.7705H10.0246L10.2729 44.1497ZM11.8437 46.085V46.9167H6.09236V46.085H11.8437ZM12.8114 44.1497H12.2083L11.9591 24.7424C12.3807 24.6383 12.6936 24.257 12.6936 23.8028V21.4277H22.0148V23.8028C22.0148 24.2563 22.3278 24.6376 22.7493 24.7424L22.5002 44.1504H21.8971C21.3624 44.1504 20.9294 44.5834 20.9294 45.1181V47.1157L13.779 47.1104V45.1181C13.779 44.5834 13.3453 44.1497 12.8114 44.1497ZM4.41375 50.3977V49.0374L35.2037 49.0617C35.5204 49.6078 35.8751 50.1281 36.264 50.6218H4.38565C4.40236 50.5497 4.41375 50.4752 4.41375 50.3977ZM1.93382 53.7671V52.5572H38.1318C38.6566 53.0015 39.2149 53.4078 39.805 53.7671H1.93382ZM46.7056 53.7671C40.4431 53.7671 35.348 48.672 35.348 42.4095C35.348 36.147 40.4431 31.052 46.7056 31.052C52.9681 31.052 58.0631 36.147 58.0631 42.4095C58.0631 48.672 52.9681 53.7671 46.7056 53.7671ZM50.5481 44.0213C50.8254 44.8553 50.7342 45.7425 50.2907 46.5195C49.7719 47.4294 48.8202 48.0986 47.6725 48.3629V49.759C47.6725 50.2937 47.2395 50.7266 46.7048 50.7266C46.1701 50.7266 45.7371 50.2937 45.7371 49.759V48.4153C44.4596 48.1905 43.3514 47.4537 42.8076 46.3721C42.5675 45.8944 42.7597 45.3126 43.2375 45.0733C43.7137 44.8325 44.2963 45.0254 44.5363 45.5032C44.932 46.2909 46.101 46.7223 47.1985 46.4861C47.8381 46.3486 48.3523 46.0106 48.609 45.5609C48.7275 45.3536 48.8407 45.0247 48.7108 44.6335C48.4336 43.7995 47.895 43.6339 46.54 43.4023C45.27 43.1858 43.5314 42.8896 42.8615 40.8775C42.5842 40.0435 42.6754 39.1564 43.119 38.3794C43.6377 37.4694 44.5895 36.8003 45.7371 36.5359V35.0601C45.7371 34.5254 46.1701 34.0925 46.7048 34.0925C47.2395 34.0925 47.6725 34.5254 47.6725 35.0601V36.4835C48.95 36.7084 50.0582 37.4451 50.6021 38.5267C50.8421 39.0045 50.6499 39.5863 50.1722 39.8263C49.6944 40.0663 49.1126 39.8742 48.8726 39.3964C48.4768 38.6087 47.3071 38.1773 46.2096 38.4135C45.57 38.551 45.0566 38.8883 44.7999 39.3387C44.6814 39.546 44.5682 39.8749 44.6981 40.2661C44.9753 41.0986 45.5123 41.2641 46.8658 41.4943C48.1373 41.7108 49.8775 42.007 50.5481 44.0213Z" fill="#25243F"/>
</svg>
