<svg version="1.2" xmlns="http://www.w3.org/2000/svg" viewBox="0 0 18 17" width="18" height="17"><style>.a{fill:#fff}</style><path class="a" d="m16.9 11.6c-0.6-1.1-2.6-2.3-2.7-2.3q-0.4-0.2-0.7-0.2-0.6 0-0.9 0.5c-0.3 0.3-0.7 0.7-0.7 0.8-0.7 0.4-1.2 0.4-1.8-0.2l-3.3-3.3c-0.6-0.5-0.6-1.1-0.2-1.8 0.1 0 0.5-0.4 0.9-0.7q0.3-0.2 0.4-0.6c0.1-0.3 0-0.6-0.2-1 0-0.1-1.2-2.1-2.3-2.6q-0.3-0.2-0.6-0.2c-0.4 0-0.8 0.1-1 0.4l-0.7 0.7q-1.8 1.7-1.3 3.9 0.4 1.7 2.4 3.7l4.1 4.1q2.1 2.1 4 2.4c-0.3 0.7-1 1.2-1.8 1.2-0.9 0-1.7-0.5-1.9-1.4l-0.3-0.8c0-0.2-0.2-0.3-0.4-0.3-0.1 0-0.3 0.1-0.3 0.3l-0.5 1.5-0.5-1.5c0-0.2-0.2-0.3-0.4-0.3-0.1 0-0.3 0.1-0.3 0.3l-0.5 1.5-0.5-1.5c0-0.2-0.2-0.3-0.4-0.3-0.1 0-0.3 0.1-0.3 0.3l-0.5 1.5-0.5-1.5c0-0.2-0.2-0.3-0.4-0.3-0.1 0-0.3 0.1-0.3 0.3l-0.5 1.5-0.5-1.5c0-0.2-0.2-0.3-0.4-0.3-0.1 0-0.3 0.1-0.3 0.3l-0.8 2.4c0 0.2 0.1 0.3 0.2 0.4q0 0 0.1 0c0.1 0 0.2-0.1 0.3-0.2l0.5-1.9 0.5 1.5c0.1 0.2 0.2 0.3 0.4 0.3 0.2 0 0.3-0.1 0.4-0.3l0.4-1.5 0.5 1.5c0.1 0.2 0.2 0.3 0.4 0.3 0.2 0 0.3-0.1 0.4-0.3l0.4-1.5 0.5 1.5c0.1 0.2 0.2 0.3 0.4 0.3 0.2 0 0.3-0.1 0.4-0.3l0.4-1.5 0.5 1.5c0.1 0.2 0.2 0.3 0.4 0.3 0.2 0 0.3-0.1 0.4-0.3l0.4-1.5 0.1 0.3c0.4 1.1 1.3 1.8 2.5 1.8 1.1 0 2.1-0.7 2.4-1.7q0 0 0.1 0 0 0 0 0 1.6 0 2.9-1.3l0.7-0.8c0.4-0.4 0.5-1.1 0.3-1.6z"/></svg>