<svg width="60" height="60" viewBox="0 0 60 60" fill="none" xmlns="http://www.w3.org/2000/svg">
<circle cx="30" cy="30" r="30" transform="matrix(-1 0 0 1 60 0)" fill="#EBEAEA"/>
<path fill-rule="evenodd" clip-rule="evenodd" d="M24.2727 19.2486C24.359 19.1698 24.4614 19.1073 24.5742 19.0646C24.687 19.022 24.8079 19 24.93 19C25.0521 19 25.173 19.022 25.2858 19.0646C25.3986 19.1073 25.501 19.1698 25.5873 19.2486L36.7273 29.4012C36.8137 29.4798 36.8823 29.5732 36.9291 29.676C36.9759 29.7787 37 29.8889 37 30.0002C37 30.1115 36.9759 30.2217 36.9291 30.3245C36.8823 30.4273 36.8137 30.5206 36.7273 30.5992L25.5873 40.7519C25.4129 40.9108 25.1765 41 24.93 41C24.6835 41 24.447 40.9108 24.2727 40.7519C24.0984 40.593 24.0005 40.3775 24.0005 40.1529C24.0005 39.9282 24.0984 39.7127 24.2727 39.5539L34.7573 30.0002L24.2727 20.4466C24.1863 20.368 24.1177 20.2746 24.0709 20.1718C24.0241 20.069 24 19.9589 24 19.8476C24 19.7363 24.0241 19.6261 24.0709 19.5233C24.1177 19.4205 24.1863 19.3272 24.2727 19.2486Z" fill="#FF452E"/>
</svg>
