<svg width="16" height="16" viewBox="0 0 16 16" fill="none" xmlns="http://www.w3.org/2000/svg">
    <path d="M15.7468 13.5156L12.5844 10.3569L12.2852 10.0574C11.9477 9.71641 11.3946 9.71641 11.057 10.0574L10.9262 10.1882L10.1469 9.40896L10.1467 9.4087C12.0249 7.15638 11.908 3.79149 9.79447 1.67825C7.55681 -0.559416 3.91564 -0.559416 1.67825 1.67825C-0.559416 3.91591 -0.559416 7.55681 1.67825 9.79447C1.84529 9.96152 2.02033 10.1158 2.20176 10.2578C2.21269 10.2663 2.22334 10.2748 2.23427 10.2834C4.34751 11.9133 7.34527 11.8678 9.40896 10.1467L10.1882 10.926L10.1216 10.9928L10.0723 11.0419C9.73133 11.3794 9.73133 11.9325 10.0723 12.27L10.3718 12.5692L13.531 15.7319C13.6053 15.8057 13.6901 15.8635 13.7801 15.9051C13.806 15.9171 13.8323 15.9272 13.859 15.9365C13.872 15.9413 13.8856 15.9453 13.8989 15.9493C13.9797 15.973 14.0631 15.985 14.1464 15.985C14.3689 15.985 14.5916 15.9006 14.7621 15.7319L15.7468 14.7472C16.0844 14.4062 16.0844 13.8566 15.7468 13.5156ZM2.66906 8.80339C0.977829 7.11215 0.977829 4.3603 2.66906 2.66906C4.3603 0.977829 7.11215 0.977829 8.80339 2.66906C10.4078 4.27345 10.4898 6.83215 9.05036 8.53457L8.53457 9.05036C6.83215 10.4901 4.27345 10.4078 2.66906 8.80339Z" fill="white"/>
</svg>
