<svg version="1.2" xmlns="http://www.w3.org/2000/svg" viewBox="0 0 139 139" width="139" height="139"><style>.a{fill:#40aa57}.b{fill:#fff}</style><path class="a" d="m69.5 119c-27.4 0-49.5-22.1-49.5-49.5 0-27.4 22.1-49.5 49.5-49.5 27.4 0 49.5 22.1 49.5 49.5 0 27.4-22.1 49.5-49.5 49.5z"/><path fill-rule="evenodd" class="b" d="m43.8 41h16.6c1.3 0 2.5 0.5 3.4 1.4 0.9 0.8 1.4 2 1.4 3.3v29.2c0 1.3-0.5 2.5-1.4 3.4-0.9 0.8-2.1 1.4-3.4 1.4h-16.6c-1.3 0-2.5-0.6-3.4-1.4-0.9-0.9-1.4-2.1-1.4-3.4v-29.2c0-1.3 0.5-2.5 1.4-3.3 0.9-0.9 2.1-1.4 3.4-1.4zm0 1.6c-0.9 0-1.7 0.3-2.2 0.9-0.6 0.6-1 1.4-1 2.2v29.2c0 0.9 0.4 1.7 1 2.3 0.5 0.5 1.3 0.9 2.2 0.9h16.6c0.9 0 1.7-0.4 2.3-0.9 0.5-0.6 0.9-1.4 0.9-2.3v-29.2c0-0.8-0.4-1.6-0.9-2.2-0.6-0.6-1.4-0.9-2.3-0.9zm6.3 2.3c0 1.1 0.9 1.9 2 1.9 1 0 1.9-0.8 1.9-1.9 0-0.4 0.3-0.8 0.8-0.8h5.5c0.5 0 0.9 0.2 1.2 0.5 0.3 0.3 0.5 0.7 0.5 1.1v29.2c0 0.5-0.2 0.9-0.5 1.2q0 0-0.1 0c-0.3 0.3-0.7 0.4-1.1 0.4h-16.5c-0.5 0-0.9-0.2-1.2-0.4-0.3-0.3-0.4-0.7-0.4-1.2v-29.2c0-0.4 0.1-0.8 0.4-1.1 0.3-0.3 0.7-0.5 1.2-0.5h5.5c0.5 0 0.8 0.4 0.8 0.8zm17.6 47.6h0.4v-2.2c0-0.4 0.4-0.8 0.8-0.8h1.4v-2.3c0-0.4 0.3-0.8 0.7-0.8v-8.8c-0.4 0-0.7-0.4-0.7-0.8v-2.3h-1.4c-0.4 0-0.8-0.4-0.8-0.8 0-0.3 0.2-0.6 0.5-0.7l14.1-8.8c0.3-0.1 0.7-0.1 0.9 0l14.2 8.8c0.4 0.3 0.5 0.7 0.3 1.1-0.2 0.2-0.4 0.4-0.7 0.4h-1.3v2.3c0 0.4-0.3 0.8-0.8 0.8v8.8c0.5 0 0.8 0.4 0.8 0.8v2.3h1.3c0.4 0 0.8 0.4 0.8 0.8v2.2h0.4c0.5 0 0.8 0.3 0.8 0.8v2.9c0 0.4-0.3 0.8-0.8 0.8h-30.9c-0.4 0-0.8-0.4-0.8-0.8v-2.9c0-0.5 0.4-0.8 0.8-0.8zm24.4-14.9v8.8h1.6v-8.8zm-0.7 10.4v1.5h3.1v-1.5zm-6.7-13.5h-3.1v1.5h3.1zm-2.4 3.1v8.8h1.6v-8.8zm-0.7 10.4v1.6h3.1v-1.6zm-6.7-13.5h-3.1v1.5h3.1zm-2.4 3.2v8.8h1.6v-8.8zm-0.7 10.4v1.5h3.1v-1.5zm-19.8-39.7c-1.7 0-3.1-1.1-3.5-2.6h-4.8q0 0 0 0 0 0 0 0v29.2q0 0 0 0 0 0 0 0h16.5 0.1q0 0 0 0v-29.2q0 0 0 0-0.1 0-0.1 0h-4.8c-0.4 1.5-1.8 2.6-3.4 2.6zm0 5.1c1.9 0 3.7 0.8 5 2 1.2 1.3 2 3 2 4.9 0 1.9-0.8 3.6-2 4.9-1.3 1.2-3.1 2-5 2-2 0-3.8-0.8-5-2-1.3-1.3-2.1-3-2.1-4.9 0-1.9 0.8-3.6 2.1-4.9 1.2-1.2 3-2 5-2zm37.8 16.5l-6.7-4.1-11.5 7.1h22.9zm6.8 21.1h-26.9v1.4h26.9zm-10.3-1.6h3.5v-2.3c0-0.4 0.3-0.8 0.7-0.8v-8.8c-0.4 0-0.7-0.4-0.7-0.8v-2.3h-3.5v2.3c0 0.4-0.3 0.8-0.8 0.8v8.8c0.5 0 0.8 0.4 0.8 0.8zm-9.8 0h3.5v-2.3c0-0.4 0.3-0.8 0.7-0.8v-8.8c-0.4-0.1-0.7-0.4-0.7-0.8v-2.3h-3.5v2.3c0 0.4-0.3 0.7-0.7 0.8v8.8c0.4 0 0.7 0.4 0.7 0.8zm21.3 4.5h-29.3v1.4h29.3zm-3.4-19.6h-3v1.6h3zm-38.5-18c-1-0.9-2.4-1.5-3.9-1.5-1.5 0-2.8 0.6-3.8 1.5-1 1-1.6 2.3-1.6 3.8 0 1.5 0.6 2.8 1.6 3.8 1 0.9 2.3 1.5 3.8 1.5 1.5 0 2.9-0.6 3.9-1.5 1-1 1.6-2.3 1.6-3.8 0-1.5-0.6-2.8-1.6-3.8zm-6.3 5.4c0-0.4 0.3-0.7 0.8-0.7 0.4 0 0.8 0.3 0.8 0.7q0 0.3 0.2 0.5 0.2 0.2 0.6 0.2 0.4 0 0.7-0.2 0.2-0.2 0.2-0.5v-0.3q0-0.1 0-0.1-0.1-0.1-0.2-0.1l-1.9-0.7q-0.6-0.2-0.9-0.7-0.3-0.4-0.3-1v-0.4c0-0.6 0.2-1.2 0.7-1.6q0.4-0.3 0.9-0.5v-0.3c0-0.4 0.4-0.7 0.8-0.7 0.5 0 0.8 0.3 0.8 0.7v0.3q0.6 0.2 1 0.5c0.4 0.4 0.7 1 0.7 1.6v0.1c0 0.4-0.3 0.7-0.8 0.7-0.4 0-0.8-0.3-0.8-0.7v-0.1q0-0.2-0.2-0.4-0.3-0.2-0.7-0.2-0.4 0-0.6 0.2-0.2 0.2-0.2 0.4v0.4q0 0.1 0 0.1 0.1 0.1 0.2 0.1l1.8 0.7q0.6 0.2 1 0.7 0.3 0.4 0.3 1v0.3c0 0.7-0.3 1.3-0.7 1.7q-0.4 0.3-1 0.5v0.2c0 0.5-0.3 0.8-0.8 0.8-0.4 0-0.8-0.3-0.8-0.8v-0.2q-0.5-0.2-0.9-0.5c-0.5-0.4-0.7-1-0.7-1.7zm18.5-5.7h6.8v-2c0-0.4 0.4-0.8 0.8-0.8q0.3 0 0.6 0.2l7.5 5.5c0.4 0.2 0.4 0.7 0.2 1.1q-0.1 0.1-0.2 0.1l-7.6 5.5c-0.4 0.3-0.9 0.2-1.1-0.1q-0.2-0.2-0.2-0.5v-2h-6.8c-0.4 0-0.8-0.3-0.8-0.8v-5.5c0-0.4 0.4-0.7 0.8-0.7zm7.6 1.5h-6.8v4h6.8c0.5 0 0.8 0.3 0.8 0.7v1.2l5.5-3.9-5.5-4v1.2c0 0.5-0.3 0.8-0.8 0.8zm-31.1 15c0-0.5 0.3-0.8 0.8-0.8h2c0.4 0 0.8 0.3 0.8 0.8 0 0.4-0.4 0.8-0.8 0.8h-2c-0.5 0-0.8-0.4-0.8-0.8zm5.6 0c0-0.5 0.4-0.8 0.8-0.8h2c0.5 0 0.8 0.3 0.8 0.8 0 0.4-0.3 0.8-0.8 0.8h-2c-0.4 0-0.8-0.4-0.8-0.8zm5.7 0c0-0.5 0.4-0.8 0.8-0.8h2c0.4 0 0.8 0.3 0.8 0.8 0 0.4-0.4 0.8-0.8 0.8h-2c-0.4 0-0.8-0.4-0.8-0.8z"/><path class="a" d="m69.5 119c-27.4 0-49.5-22.1-49.5-49.5 0-27.4 22.1-49.5 49.5-49.5 27.4 0 49.5 22.1 49.5 49.5 0 27.4-22.1 49.5-49.5 49.5z"/><path fill-rule="evenodd" class="b" d="m43.8 41h16.6c1.3 0 2.5 0.5 3.4 1.4 0.9 0.8 1.4 2 1.4 3.3v29.2c0 1.3-0.5 2.5-1.4 3.4-0.9 0.8-2.1 1.4-3.4 1.4h-16.6c-1.3 0-2.5-0.6-3.4-1.4-0.9-0.9-1.4-2.1-1.4-3.4v-29.2c0-1.3 0.5-2.5 1.4-3.3 0.9-0.9 2.1-1.4 3.4-1.4zm0 1.6c-0.9 0-1.7 0.3-2.2 0.9-0.6 0.6-1 1.4-1 2.2v29.2c0 0.9 0.4 1.7 1 2.3 0.5 0.5 1.3 0.9 2.2 0.9h16.6c0.9 0 1.7-0.4 2.3-0.9 0.5-0.6 0.9-1.4 0.9-2.3v-29.2c0-0.8-0.4-1.6-0.9-2.2-0.6-0.6-1.4-0.9-2.3-0.9zm6.3 2.3c0 1.1 0.9 1.9 2 1.9 1 0 1.9-0.8 1.9-1.9 0-0.4 0.3-0.8 0.8-0.8h5.5c0.5 0 0.9 0.2 1.2 0.5 0.3 0.3 0.5 0.7 0.5 1.1v29.2c0 0.5-0.2 0.9-0.5 1.2q0 0-0.1 0c-0.3 0.3-0.7 0.4-1.1 0.4h-16.5c-0.5 0-0.9-0.2-1.2-0.4-0.3-0.3-0.4-0.7-0.4-1.2v-29.2c0-0.4 0.1-0.8 0.4-1.1 0.3-0.3 0.7-0.5 1.2-0.5h5.5c0.5 0 0.8 0.4 0.8 0.8zm17.6 47.6h0.4v-2.2c0-0.4 0.4-0.8 0.8-0.8h1.4v-2.3c0-0.4 0.3-0.8 0.7-0.8v-8.8c-0.4 0-0.7-0.4-0.7-0.8v-2.3h-1.4c-0.4 0-0.8-0.4-0.8-0.8 0-0.3 0.2-0.6 0.5-0.7l14.1-8.8c0.3-0.1 0.7-0.1 0.9 0l14.2 8.8c0.4 0.3 0.5 0.7 0.3 1.1-0.2 0.2-0.4 0.4-0.7 0.4h-1.3v2.3c0 0.4-0.3 0.8-0.8 0.8v8.8c0.5 0 0.8 0.4 0.8 0.8v2.3h1.3c0.4 0 0.8 0.4 0.8 0.8v2.2h0.4c0.5 0 0.8 0.3 0.8 0.8v2.9c0 0.4-0.3 0.8-0.8 0.8h-30.9c-0.4 0-0.8-0.4-0.8-0.8v-2.9c0-0.5 0.4-0.8 0.8-0.8zm24.4-14.9v8.8h1.6v-8.8zm-0.7 10.4v1.5h3.1v-1.5zm-6.7-13.5h-3.1v1.5h3.1zm-2.4 3.1v8.8h1.6v-8.8zm-0.7 10.4v1.6h3.1v-1.6zm-6.7-13.5h-3.1v1.5h3.1zm-2.4 3.2v8.8h1.6v-8.8zm-0.7 10.4v1.5h3.1v-1.5zm-19.8-39.7c-1.7 0-3.1-1.1-3.5-2.6h-4.8q0 0 0 0 0 0 0 0v29.2q0 0 0 0 0 0 0 0h16.5 0.1q0 0 0 0v-29.2q0 0 0 0-0.1 0-0.1 0h-4.8c-0.4 1.5-1.8 2.6-3.4 2.6zm0 5.1c1.9 0 3.7 0.8 5 2 1.2 1.3 2 3 2 4.9 0 1.9-0.8 3.6-2 4.9-1.3 1.2-3.1 2-5 2-2 0-3.8-0.8-5-2-1.3-1.3-2.1-3-2.1-4.9 0-1.9 0.8-3.6 2.1-4.9 1.2-1.2 3-2 5-2zm37.8 16.5l-6.7-4.1-11.5 7.1h22.9zm6.8 21.1h-26.9v1.4h26.9zm-10.3-1.6h3.5v-2.3c0-0.4 0.3-0.8 0.7-0.8v-8.8c-0.4 0-0.7-0.4-0.7-0.8v-2.3h-3.5v2.3c0 0.4-0.3 0.8-0.8 0.8v8.8c0.5 0 0.8 0.4 0.8 0.8zm-9.8 0h3.5v-2.3c0-0.4 0.3-0.8 0.7-0.8v-8.8c-0.4-0.1-0.7-0.4-0.7-0.8v-2.3h-3.5v2.3c0 0.4-0.3 0.7-0.7 0.8v8.8c0.4 0 0.7 0.4 0.7 0.8zm21.3 4.5h-29.3v1.4h29.3zm-3.4-19.6h-3v1.6h3zm-38.5-18c-1-0.9-2.4-1.5-3.9-1.5-1.5 0-2.8 0.6-3.8 1.5-1 1-1.6 2.3-1.6 3.8 0 1.5 0.6 2.8 1.6 3.8 1 0.9 2.3 1.5 3.8 1.5 1.5 0 2.9-0.6 3.9-1.5 1-1 1.6-2.3 1.6-3.8 0-1.5-0.6-2.8-1.6-3.8zm-6.3 5.4c0-0.4 0.3-0.7 0.8-0.7 0.4 0 0.8 0.3 0.8 0.7q0 0.3 0.2 0.5 0.2 0.2 0.6 0.2 0.4 0 0.7-0.2 0.2-0.2 0.2-0.5v-0.3q0-0.1 0-0.1-0.1-0.1-0.2-0.1l-1.9-0.7q-0.6-0.2-0.9-0.7-0.3-0.4-0.3-1v-0.4c0-0.6 0.2-1.2 0.7-1.6q0.4-0.3 0.9-0.5v-0.3c0-0.4 0.4-0.7 0.8-0.7 0.5 0 0.8 0.3 0.8 0.7v0.3q0.6 0.2 1 0.5c0.4 0.4 0.7 1 0.7 1.6v0.1c0 0.4-0.3 0.7-0.8 0.7-0.4 0-0.8-0.3-0.8-0.7v-0.1q0-0.2-0.2-0.4-0.3-0.2-0.7-0.2-0.4 0-0.6 0.2-0.2 0.2-0.2 0.4v0.4q0 0.1 0 0.1 0.1 0.1 0.2 0.1l1.8 0.7q0.6 0.2 1 0.7 0.3 0.4 0.3 1v0.3c0 0.7-0.3 1.3-0.7 1.7q-0.4 0.3-1 0.5v0.2c0 0.5-0.3 0.8-0.8 0.8-0.4 0-0.8-0.3-0.8-0.8v-0.2q-0.5-0.2-0.9-0.5c-0.5-0.4-0.7-1-0.7-1.7zm18.5-5.7h6.8v-2c0-0.4 0.4-0.8 0.8-0.8q0.3 0 0.6 0.2l7.5 5.5c0.4 0.2 0.4 0.7 0.2 1.1q-0.1 0.1-0.2 0.1l-7.6 5.5c-0.4 0.3-0.9 0.2-1.1-0.1q-0.2-0.2-0.2-0.5v-2h-6.8c-0.4 0-0.8-0.3-0.8-0.8v-5.5c0-0.4 0.4-0.7 0.8-0.7zm7.6 1.5h-6.8v4h6.8c0.5 0 0.8 0.3 0.8 0.7v1.2l5.5-3.9-5.5-4v1.2c0 0.5-0.3 0.8-0.8 0.8zm-31.1 15c0-0.5 0.3-0.8 0.8-0.8h2c0.4 0 0.8 0.3 0.8 0.8 0 0.4-0.4 0.8-0.8 0.8h-2c-0.5 0-0.8-0.4-0.8-0.8zm5.6 0c0-0.5 0.4-0.8 0.8-0.8h2c0.5 0 0.8 0.3 0.8 0.8 0 0.4-0.3 0.8-0.8 0.8h-2c-0.4 0-0.8-0.4-0.8-0.8zm5.7 0c0-0.5 0.4-0.8 0.8-0.8h2c0.4 0 0.8 0.3 0.8 0.8 0 0.4-0.4 0.8-0.8 0.8h-2c-0.4 0-0.8-0.4-0.8-0.8z"/><path class="a" d="m69.5 138.3c-38 0-68.8-30.8-68.8-68.8 0-38 30.8-68.8 68.8-68.8 38 0 68.8 30.8 68.8 68.8 0 38-30.8 68.8-68.8 68.8z"/><path fill-rule="evenodd" class="b" d="m33.8 29.9h23c1.9 0 3.6 0.8 4.8 1.9 1.2 1.2 1.9 2.9 1.9 4.7v40.5c0 1.8-0.7 3.5-1.9 4.7-1.2 1.2-2.9 1.9-4.8 1.9h-23c-1.8 0-3.5-0.7-4.7-1.9-1.2-1.2-2-2.9-2-4.7v-40.5c0-1.8 0.8-3.5 2-4.7 1.2-1.2 2.9-1.9 4.7-1.9zm0 2.2c-1.2 0-2.3 0.5-3.1 1.3-0.8 0.8-1.3 1.9-1.3 3.1v40.5c0 1.2 0.5 2.3 1.3 3.1 0.8 0.8 1.9 1.3 3.1 1.3h23c1.3 0 2.4-0.5 3.2-1.3 0.8-0.8 1.3-1.9 1.3-3.1v-40.5c0-1.2-0.5-2.3-1.3-3.1-0.8-0.8-1.9-1.3-3.2-1.3zm8.9 3.3c0 1.4 1.2 2.6 2.6 2.6 1.5 0 2.7-1.2 2.7-2.6 0-0.7 0.5-1.1 1.1-1.1h7.7c0.6 0 1.2 0.2 1.6 0.6 0.4 0.4 0.7 1 0.7 1.6v40.5c0 0.7-0.3 1.2-0.7 1.6q0 0-0.1 0.1c-0.4 0.3-0.9 0.6-1.5 0.6h-23c-0.6 0-1.2-0.3-1.6-0.7-0.4-0.4-0.6-0.9-0.6-1.6v-40.5c0-0.6 0.2-1.2 0.6-1.6 0.4-0.4 1-0.6 1.6-0.6h7.8c0.6 0 1.1 0.4 1.1 1.1zm24.4 66h0.6v-3c0-0.6 0.5-1.1 1.1-1.1h1.8v-3.2c0-0.6 0.5-1.1 1-1.1v-12.3c-0.5 0-1-0.5-1-1.1v-3.2h-1.8c-0.6 0-1.1-0.5-1.1-1.1 0-0.4 0.2-0.8 0.6-0.9l19.6-12.2c0.4-0.3 0.9-0.2 1.3 0l19.7 12.2c0.5 0.3 0.7 1 0.4 1.5-0.3 0.3-0.6 0.5-1 0.5h-1.8v3.2c0 0.6-0.5 1.1-1.1 1.1v12.3c0.6 0 1.1 0.5 1.1 1.1v3.2h1.8c0.6 0 1.1 0.5 1.1 1.1v3h0.6c0.6 0 1.1 0.5 1.1 1.1v4.1c0 0.6-0.5 1.1-1.1 1.1h-42.9c-0.6 0-1.1-0.5-1.1-1.1v-4.1c0-0.6 0.5-1.1 1.1-1.1zm33.9-20.7v12.3h2.2v-12.3zm-1 14.5v2.1h4.3v-2.1zm-13.6-18.8v2.1h4.3v-2.1zm1 4.3v12.3h2.2v-12.3zm-1 14.5v2.1h4.3v-2.1zm-13.6-18.8v2.1h4.3v-2.1zm1 4.3v12.3h2.2v-12.3zm-1 14.5v2.1h4.2v-2.1zm-27.5-55.1c-2.3 0-4.2-1.5-4.7-3.7h-6.8q0 0 0 0.1 0 0 0 0v40.5q0 0.1 0 0.1 0 0 0 0h23 0.1q0 0 0-0.1v-40.5q0 0 0 0-0.1-0.1-0.1-0.1h-6.7c-0.5 2.2-2.4 3.7-4.8 3.7zm0 7.1c2.7 0 5.2 1 7 2.8 1.8 1.7 2.9 4.1 2.9 6.8 0 2.6-1.1 5-2.9 6.7-1.8 1.8-4.3 2.8-7 2.8-2.7 0-5.1-1-6.9-2.8-1.8-1.7-2.9-4.1-2.9-6.7 0-2.7 1.1-5.1 2.9-6.8 1.8-1.8 4.2-2.8 6.9-2.8zm52.5 22.9l-9.2-5.7-16 9.8h31.9zm-28 29.4v1.9h37.3v-1.9zm23-2.2h4.9v-3.2c0-0.6 0.4-1.1 1-1.1v-12.3c-0.6 0-1-0.5-1-1.1v-3.2h-4.9v3.2c0 0.6-0.4 1.1-1 1.1v12.3c0.6 0 1 0.5 1 1.1zm-13.5 0h4.8v-3.2c0-0.6 0.5-1.1 1-1.1v-12.3c-0.5 0-1-0.5-1-1.1v-3.2h-4.8v3.2c0 0.6-0.5 1.1-1.1 1.1v12.3c0.6 0 1.1 0.5 1.1 1.1zm-11.2 6.2v2h40.7v-2zm31.8-27.1v2.1h4.3v-2.1zm-49.3-24.9c-1.4-1.4-3.3-2.2-5.4-2.2-2.1 0-3.9 0.8-5.3 2.2-1.4 1.3-2.2 3.2-2.2 5.2 0 2.1 0.8 3.9 2.2 5.2 1.4 1.4 3.2 2.2 5.3 2.2 2.1 0 4-0.8 5.4-2.2 1.4-1.3 2.2-3.1 2.2-5.2 0-2-0.8-3.9-2.2-5.2zm-8.8 7.5c0-0.6 0.5-1.1 1.1-1.1 0.6 0 1.1 0.5 1.1 1.1q0 0.4 0.3 0.6c0.3 0.2 0.6 0.4 0.9 0.4 0.4 0 0.7-0.2 0.9-0.4q0.3-0.2 0.3-0.6v-0.5q0-0.1 0-0.1-0.1-0.1-0.2-0.2l-2.6-0.9q-0.8-0.3-1.3-0.9-0.5-0.7-0.5-1.5v-0.5c0-0.9 0.4-1.7 1.1-2.2q0.5-0.5 1.2-0.8v-0.3c0-0.6 0.5-1.1 1.1-1.1 0.7 0 1.2 0.5 1.2 1.1v0.3q0.7 0.3 1.2 0.8c0.7 0.5 1.1 1.3 1.1 2.2 0 0.6-0.5 1.1-1.1 1.1-0.7 0-1.2-0.5-1.2-1.1q0-0.4-0.3-0.6c-0.2-0.2-0.5-0.3-0.9-0.3-0.3 0-0.6 0.1-0.9 0.3q-0.3 0.2-0.3 0.6v0.5q0 0.1 0.1 0.2 0.1 0 0.2 0.1l2.6 1q0.8 0.2 1.3 0.9 0.5 0.6 0.5 1.4v0.5c0 0.9-0.4 1.7-1.1 2.3q-0.5 0.4-1.2 0.7v0.3c0 0.6-0.5 1.1-1.2 1.1-0.6 0-1.1-0.5-1.1-1.1v-0.3q-0.7-0.3-1.2-0.7c-0.7-0.6-1.1-1.4-1.1-2.3zm25.8-8.1h9.4v-2.7c0-0.6 0.5-1.1 1.2-1.1q0.4 0 0.7 0.3l10.5 7.6c0.5 0.3 0.6 1 0.2 1.5q-0.1 0.2-0.2 0.3l-10.6 7.6c-0.5 0.4-1.2 0.2-1.5-0.2q-0.3-0.3-0.3-0.7v-2.7h-9.4c-0.6 0-1.1-0.5-1.1-1.1v-7.7c0-0.6 0.5-1.1 1.1-1.1zm10.5 2.2h-9.4v5.5h9.4c0.7 0 1.2 0.5 1.2 1.1v1.7l7.6-5.5-7.6-5.5v1.6c0 0.6-0.5 1.1-1.2 1.1zm-43.2 20.8c0-0.6 0.5-1.1 1.1-1.1h2.7c0.7 0 1.2 0.5 1.2 1.1 0 0.6-0.5 1.1-1.2 1.1h-2.7c-0.6 0-1.1-0.5-1.1-1.1zm7.8 0c0-0.6 0.5-1.1 1.2-1.1h2.7c0.6 0 1.1 0.5 1.1 1.1 0 0.6-0.5 1.1-1.1 1.1h-2.7c-0.7 0-1.2-0.5-1.2-1.1zm7.9 0c0-0.6 0.5-1.1 1.1-1.1h2.8c0.6 0 1.1 0.5 1.1 1.1 0 0.6-0.5 1.1-1.1 1.1h-2.8c-0.6 0-1.1-0.5-1.1-1.1z"/><path class="a" d="m69.5 138.3c-38 0-68.8-30.8-68.8-68.8 0-38 30.8-68.8 68.8-68.8 38 0 68.8 30.8 68.8 68.8 0 38-30.8 68.8-68.8 68.8z"/><path fill-rule="evenodd" class="b" d="m33.8 29.9h23c1.9 0 3.6 0.8 4.8 1.9 1.2 1.2 1.9 2.9 1.9 4.7v40.5c0 1.8-0.7 3.5-1.9 4.7-1.2 1.2-2.9 1.9-4.8 1.9h-23c-1.8 0-3.5-0.7-4.7-1.9-1.2-1.2-2-2.9-2-4.7v-40.5c0-1.8 0.8-3.5 2-4.7 1.2-1.2 2.9-1.9 4.7-1.9zm0 2.2c-1.2 0-2.3 0.5-3.1 1.3-0.8 0.8-1.3 1.9-1.3 3.1v40.5c0 1.2 0.5 2.3 1.3 3.1 0.8 0.8 1.9 1.3 3.1 1.3h23c1.3 0 2.4-0.5 3.2-1.3 0.8-0.8 1.3-1.9 1.3-3.1v-40.5c0-1.2-0.5-2.3-1.3-3.1-0.8-0.8-1.9-1.3-3.2-1.3zm8.9 3.3c0 1.4 1.2 2.6 2.6 2.6 1.5 0 2.7-1.2 2.7-2.6 0-0.7 0.5-1.1 1.1-1.1h7.7c0.6 0 1.2 0.2 1.6 0.6 0.4 0.4 0.7 1 0.7 1.6v40.5c0 0.7-0.3 1.2-0.7 1.6q0 0-0.1 0.1c-0.4 0.3-0.9 0.6-1.5 0.6h-23c-0.6 0-1.2-0.3-1.6-0.7-0.4-0.4-0.6-0.9-0.6-1.6v-40.5c0-0.6 0.2-1.2 0.6-1.6 0.4-0.4 1-0.6 1.6-0.6h7.8c0.6 0 1.1 0.4 1.1 1.1zm24.4 66h0.6v-3c0-0.6 0.5-1.1 1.1-1.1h1.8v-3.2c0-0.6 0.5-1.1 1-1.1v-12.3c-0.5 0-1-0.5-1-1.1v-3.2h-1.8c-0.6 0-1.1-0.5-1.1-1.1 0-0.4 0.2-0.8 0.6-0.9l19.6-12.2c0.4-0.3 0.9-0.2 1.3 0l19.7 12.2c0.5 0.3 0.7 1 0.4 1.5-0.3 0.3-0.6 0.5-1 0.5h-1.8v3.2c0 0.6-0.5 1.1-1.1 1.1v12.3c0.6 0 1.1 0.5 1.1 1.1v3.2h1.8c0.6 0 1.1 0.5 1.1 1.1v3h0.6c0.6 0 1.1 0.5 1.1 1.1v4.1c0 0.6-0.5 1.1-1.1 1.1h-42.9c-0.6 0-1.1-0.5-1.1-1.1v-4.1c0-0.6 0.5-1.1 1.1-1.1zm33.9-20.7v12.3h2.2v-12.3zm-1 14.5v2.1h4.3v-2.1zm-13.6-18.8v2.1h4.3v-2.1zm1 4.3v12.3h2.2v-12.3zm-1 14.5v2.1h4.3v-2.1zm-13.6-18.8v2.1h4.3v-2.1zm1 4.3v12.3h2.2v-12.3zm-1 14.5v2.1h4.2v-2.1zm-27.5-55.1c-2.3 0-4.2-1.5-4.7-3.7h-6.8q0 0 0 0.1 0 0 0 0v40.5q0 0.1 0 0.1 0 0 0 0h23 0.1q0 0 0-0.1v-40.5q0 0 0 0-0.1-0.1-0.1-0.1h-6.7c-0.5 2.2-2.4 3.7-4.8 3.7zm0 7.1c2.7 0 5.2 1 7 2.8 1.8 1.7 2.9 4.1 2.9 6.8 0 2.6-1.1 5-2.9 6.7-1.8 1.8-4.3 2.8-7 2.8-2.7 0-5.1-1-6.9-2.8-1.8-1.7-2.9-4.1-2.9-6.7 0-2.7 1.1-5.1 2.9-6.8 1.8-1.8 4.2-2.8 6.9-2.8zm52.5 22.9l-9.2-5.7-16 9.8h31.9zm-28 29.4v1.9h37.3v-1.9zm23-2.2h4.9v-3.2c0-0.6 0.4-1.1 1-1.1v-12.3c-0.6 0-1-0.5-1-1.1v-3.2h-4.9v3.2c0 0.6-0.4 1.1-1 1.1v12.3c0.6 0 1 0.5 1 1.1zm-13.5 0h4.8v-3.2c0-0.6 0.5-1.1 1-1.1v-12.3c-0.5 0-1-0.5-1-1.1v-3.2h-4.8v3.2c0 0.6-0.5 1.1-1.1 1.1v12.3c0.6 0 1.1 0.5 1.1 1.1zm-11.2 6.2v2h40.7v-2zm31.8-27.1v2.1h4.3v-2.1zm-49.3-24.9c-1.4-1.4-3.3-2.2-5.4-2.2-2.1 0-3.9 0.8-5.3 2.2-1.4 1.3-2.2 3.2-2.2 5.2 0 2.1 0.8 3.9 2.2 5.2 1.4 1.4 3.2 2.2 5.3 2.2 2.1 0 4-0.8 5.4-2.2 1.4-1.3 2.2-3.1 2.2-5.2 0-2-0.8-3.9-2.2-5.2zm-8.8 7.5c0-0.6 0.5-1.1 1.1-1.1 0.6 0 1.1 0.5 1.1 1.1q0 0.4 0.3 0.6c0.3 0.2 0.6 0.4 0.9 0.4 0.4 0 0.7-0.2 0.9-0.4q0.3-0.2 0.3-0.6v-0.5q0-0.1 0-0.1-0.1-0.1-0.2-0.2l-2.6-0.9q-0.8-0.3-1.3-0.9-0.5-0.7-0.5-1.5v-0.5c0-0.9 0.4-1.7 1.1-2.2q0.5-0.5 1.2-0.8v-0.3c0-0.6 0.5-1.1 1.1-1.1 0.7 0 1.2 0.5 1.2 1.1v0.3q0.7 0.3 1.2 0.8c0.7 0.5 1.1 1.3 1.1 2.2 0 0.6-0.5 1.1-1.1 1.1-0.7 0-1.2-0.5-1.2-1.1q0-0.4-0.3-0.6c-0.2-0.2-0.5-0.3-0.9-0.3-0.3 0-0.6 0.1-0.9 0.3q-0.3 0.2-0.3 0.6v0.5q0 0.1 0.1 0.2 0.1 0 0.2 0.1l2.6 1q0.8 0.2 1.3 0.9 0.5 0.6 0.5 1.4v0.5c0 0.9-0.4 1.7-1.1 2.3q-0.5 0.4-1.2 0.7v0.3c0 0.6-0.5 1.1-1.2 1.1-0.6 0-1.1-0.5-1.1-1.1v-0.3q-0.7-0.3-1.2-0.7c-0.7-0.6-1.1-1.4-1.1-2.3zm25.8-8.1h9.4v-2.7c0-0.6 0.5-1.1 1.2-1.1q0.4 0 0.7 0.3l10.5 7.6c0.5 0.3 0.6 1 0.2 1.5q-0.1 0.2-0.2 0.3l-10.6 7.6c-0.5 0.4-1.2 0.2-1.5-0.2q-0.3-0.3-0.3-0.7v-2.7h-9.4c-0.6 0-1.1-0.5-1.1-1.1v-7.7c0-0.6 0.5-1.1 1.1-1.1zm10.5 2.2h-9.4v5.5h9.4c0.7 0 1.2 0.5 1.2 1.1v1.7l7.6-5.5-7.6-5.5v1.6c0 0.6-0.5 1.1-1.2 1.1zm-43.2 20.8c0-0.6 0.5-1.1 1.1-1.1h2.7c0.7 0 1.2 0.5 1.2 1.1 0 0.6-0.5 1.1-1.2 1.1h-2.7c-0.6 0-1.1-0.5-1.1-1.1zm7.8 0c0-0.6 0.5-1.1 1.2-1.1h2.7c0.6 0 1.1 0.5 1.1 1.1 0 0.6-0.5 1.1-1.1 1.1h-2.7c-0.7 0-1.2-0.5-1.2-1.1zm7.9 0c0-0.6 0.5-1.1 1.1-1.1h2.8c0.6 0 1.1 0.5 1.1 1.1 0 0.6-0.5 1.1-1.1 1.1h-2.8c-0.6 0-1.1-0.5-1.1-1.1z"/></svg>