<svg version="1.2" xmlns="http://www.w3.org/2000/svg" viewBox="0 0 139 140" width="139" height="140"><style>.a{fill:#ff452e}.b{fill:#fff}</style><path class="a" d="m69.5 120c-27.4 0-49.5-22.3-49.5-50 0-27.7 22.1-50 49.5-50 27.4 0 49.5 22.3 49.5 50 0 27.7-22.1 50-49.5 50z"/><path fill-rule="evenodd" class="b" d="m41.9 92.3h5.6q-0.1-0.4-0.1-0.9v-10.3h-1.9c-2 0-3.6-1.6-3.6-3.5v-12.3c0-2 1.6-3.6 3.5-3.6h2c0-4 0-6.8 0-10.8 0-1.4 1.2-2.6 2.6-2.6h14.6c1.7-1.4 3.8-2.3 6.2-2.3 2.4 0 4.5 0.9 6.2 2.3h15c2.4 0 5.1 1.9 5.1 4.9q0 0 0 0v38.2q0 0.5-0.2 0.9h0.5c0.5 0 0.9 0.4 0.9 0.8 0 0.5-0.4 0.9-0.9 0.9h-55.5c-0.5 0-0.9-0.4-0.9-0.9 0-0.4 0.4-0.8 0.9-0.8zm50.1-42.3h-13.4c1.3 1.9 1.9 4.1 1.7 6.3h11.9c1.7 0 3.1-1.4 3.1-3.1 0.1-1.9-1.8-3.2-3.3-3.2zm-21.2-2.3c-4.3 0-7.8 3.5-7.8 7.9q0 0.4 0 0.7h7.1c-1.3-0.3-2.3-1.4-2.3-2.9 0-1.3 0.9-2.4 2.1-2.8v-0.5c0-0.5 0.4-0.9 0.9-0.9q0 0 0 0c0.5 0 0.8 0.4 0.8 0.9l0.1 0.5c1.2 0.4 2.1 1.5 2.1 2.8 0 0.5-0.4 0.9-0.9 0.9-0.4 0-0.8-0.4-0.8-0.9 0-0.7-0.6-1.2-1.3-1.2-0.7 0-1.3 0.5-1.3 1.2 0 0.7 0.6 1.3 1.3 1.3 1.2 0 2.2 0.7 2.7 1.6h5.1c0.5-4.5-3.1-8.6-7.8-8.6zm-21.7 8.6h12.2q-0.1-0.3-0.1-0.7c0-2.1 0.7-4 1.8-5.6h-13c-0.5 0-0.9 0.4-0.9 0.9zm-5.5 11.1c0 1 0.8 1.8 1.8 1.8-0.1 0 1.9 0 2 0v-5.8h-2c-1 0-1.8 0.8-1.8 1.8zm1.9 11.9h15.8c1.8 0 3.3-1.5 3.3-3.3v-1.8c0-1.8-1.5-3.3-3.3-3.3h-15.7c-0.6 0-1.4-0.1-2-0.5v7.1c0 1 0.9 1.8 1.9 1.8zm3.6 1.7v10.3c0 0.5 0.4 0.9 0.9 0.9h44.5c0.4 0 0.8-0.4 0.8-0.9v-34.5c-0.9 0.8-2.1 1.2-3.1 1.2-42.5 0 2.9 0-43.1 0v11.2h3.7v-1.7c0-0.5 0.4-0.9 0.9-0.9 0.4 0 0.8 0.4 0.8 0.9v1.7h6.8c2.7 0 5 2.2 5 5v1.8c0 2.8-2.3 5-5 5h-6.8v1.7c0 0.5-0.4 0.9-0.8 0.9-0.5 0-0.9-0.4-0.9-0.9v-1.7z"/><path class="b" d="m53.7 88.6h2.5c0.5 0 0.9-0.4 0.9-0.9 0-0.4-0.4-0.8-0.9-0.8h-1.7v-1.8c0-0.4-0.4-0.8-0.8-0.8-0.5 0-0.9 0.4-0.9 0.8v2.6c0 0.5 0.4 0.9 0.9 0.9z"/><path class="b" d="m78.8 88.6h5.6c0.5 0 0.9-0.4 0.9-0.9 0-0.4-0.4-0.8-0.9-0.8h-5.6c-0.5 0-0.9 0.4-0.9 0.8 0 0.5 0.4 0.9 0.9 0.9z"/><path class="b" d="m69.4 88.6h5.6c0.5 0 0.9-0.4 0.9-0.9 0-0.4-0.4-0.8-0.9-0.8h-5.6c-0.5 0-0.9 0.4-0.9 0.8 0 0.5 0.4 0.9 0.9 0.9z"/><path class="b" d="m60 88.6h5.6c0.5 0 0.9-0.4 0.9-0.9 0-0.4-0.4-0.8-0.9-0.8h-5.6c-0.5 0-0.9 0.4-0.9 0.8 0 0.5 0.4 0.9 0.9 0.9z"/><path class="b" d="m88.2 88.6h2.6c0.5 0 0.9-0.4 0.9-0.9v-2.6c0-0.4-0.4-0.8-0.9-0.8-0.5 0-0.9 0.4-0.9 0.8v1.8h-1.7c-0.5 0-0.9 0.4-0.9 0.8 0 0.5 0.4 0.9 0.9 0.9z"/><path class="b" d="m90.8 76c-0.5 0-0.9 0.4-0.9 0.8v5c0 0.5 0.4 0.9 0.9 0.9 0.5 0 0.9-0.4 0.9-0.9v-5c0-0.4-0.4-0.8-0.9-0.8z"/><path class="b" d="m90.8 67.7c-0.5 0-0.9 0.4-0.9 0.8v5c0 0.5 0.4 0.9 0.9 0.9 0.5 0 0.9-0.4 0.9-0.9v-5c0-0.4-0.4-0.8-0.9-0.8z"/><path class="b" d="m88.2 63.5h1.7v1.7c0 0.5 0.4 0.9 0.9 0.9 0.5 0 0.9-0.4 0.9-0.9v-2.6c0-0.5-0.4-0.8-0.9-0.8h-2.6c-0.5 0-0.9 0.3-0.9 0.8 0 0.5 0.4 0.9 0.9 0.9z"/><path class="b" d="m65.6 61.8h-5.6c-0.5 0-0.9 0.3-0.9 0.8 0 0.5 0.4 0.9 0.9 0.9h5.6c0.5 0 0.9-0.4 0.9-0.9 0-0.5-0.4-0.8-0.9-0.8z"/><path class="b" d="m78.8 63.5h5.6c0.5 0 0.9-0.4 0.9-0.9 0-0.5-0.4-0.8-0.9-0.8-4.3 0.2-6.5-0.7-6.5 0.8 0 0.5 0.4 0.9 0.9 0.9z"/><path class="b" d="m69.4 63.5h5.6c0.5 0 0.9-0.4 0.9-0.9 0-0.5-0.4-0.8-0.9-0.8h-5.6c-0.5 0-0.9 0.3-0.9 0.8 0 0.5 0.4 0.9 0.9 0.9z"/><path class="b" d="m56.2 61.8h-2.5c-0.5 0-0.9 0.3-0.9 0.8v2.6c0 0.5 0.4 0.9 0.9 0.9 0.4 0 0.8-0.4 0.8-0.9v-1.7h1.7c0.5 0 0.9-0.4 0.9-0.9 0-0.5-0.4-0.8-0.9-0.8z"/><path fill-rule="evenodd" class="b" d="m60.4 78.1c-1.6 0-2.9-1.3-2.9-2.9 0-1.6 1.3-2.9 2.9-2.9 1.6 0 2.9 1.3 2.9 2.9 0 1.6-1.3 2.9-2.9 2.9zm1.2-2.9c0-0.7-0.5-1.2-1.2-1.2-0.6 0-1.1 0.5-1.1 1.2 0 0.6 0.5 1.2 1.1 1.2 0.7 0 1.2-0.6 1.2-1.2z"/><path class="a" d="m69.5 139.6c-38 0-68.8-31-68.8-69.4 0-38.4 30.8-69.5 68.8-69.5 38 0 68.8 31.1 68.8 69.5 0 38.4-30.8 69.4-68.8 69.4z"/><path fill-rule="evenodd" class="b" d="m31.1 101.1h7.9q-0.2-0.5-0.2-1.2v-14.3h-2.7c-2.7 0-4.9-2.2-4.9-4.9v-17.1c0-2.7 2.2-4.9 4.8-4.9h2.8c0-5.6 0-9.5 0-15 0-2 1.6-3.7 3.6-3.7h20.3c2.3-1.9 5.3-3.1 8.6-3.1 3.3 0 6.3 1.2 8.6 3.1h20.9c3.3 0 7 2.8 7 6.8q0 0 0 0v53.1q0 0.7-0.2 1.2h0.7c0.6 0 1.1 0.6 1.1 1.2 0 0.7-0.5 1.2-1.1 1.2h-77.2c-0.7 0-1.2-0.5-1.2-1.2 0-0.6 0.5-1.2 1.2-1.2zm69.7-58.7h-18.7c1.8 2.6 2.7 5.7 2.4 8.8h16.5c2.4 0 4.4-2 4.4-4.3 0-2.7-2.5-4.5-4.6-4.5zm-29.5-3.1c-6 0-10.9 4.8-10.9 10.8q0 0.6 0.1 1.1h9.9c-1.9-0.4-3.2-2-3.2-4 0-1.9 1.2-3.4 2.9-4v-0.7c0-0.6 0.5-1.2 1.2-1.2q0 0 0 0c0.6 0 1.2 0.5 1.2 1.2v0.7c1.7 0.5 3 2.1 3 4 0 0.6-0.6 1.2-1.2 1.2-0.7 0-1.2-0.6-1.2-1.2 0-1-0.8-1.8-1.8-1.8-1 0-1.7 0.8-1.7 1.8 0 1 0.7 1.7 1.7 1.7 1.6 0 3 1 3.7 2.3h7.1c0.7-6.3-4.3-11.9-10.8-11.9zm-30.1 11.9h16.9q-0.1-0.5-0.1-1.1c0-2.8 1-5.5 2.5-7.7h-18.1c-0.7 0-1.2 0.6-1.2 1.3zm-7.6 15.4c0 1.4 1.1 2.5 2.4 2.5-0.1 0 2.6 0 2.8 0v-8h-2.8c-1.3 0-2.4 1.1-2.4 2.4zm2.5 16.5h21.9c2.6 0 4.7-2 4.7-4.5v-2.6c0-2.5-2.1-4.5-4.7-4.5h-21.6c-1 0-2-0.2-2.8-0.7v9.8c0 1.4 1.1 2.5 2.5 2.5zm5.1 2.4v14.3c0 0.7 0.5 1.3 1.2 1.3h61.8c0.6 0 1.2-0.6 1.2-1.3v-47.9c-1.2 1.1-3 1.7-4.4 1.7-59 0 4.1 0-59.8 0v15.5h5.1v-2.4c0-0.6 0.5-1.2 1.2-1.2 0.7 0 1.2 0.6 1.2 1.2v2.4h9.3c3.9 0 7 3.1 7 6.9v2.6c0 3.8-3.1 6.9-7 6.9h-9.3v2.4c0 0.7-0.5 1.2-1.2 1.2-0.7 0-1.2-0.5-1.2-1.2v-2.4z"/><path class="b" d="m47.5 96h3.6c0.7 0 1.2-0.5 1.2-1.2 0-0.6-0.5-1.2-1.2-1.2h-2.4v-2.4c0-0.6-0.5-1.2-1.2-1.2-0.7 0-1.2 0.6-1.2 1.2v3.6c0 0.7 0.5 1.2 1.2 1.2z"/><path class="b" d="m82.4 96h7.9c0.6 0 1.2-0.5 1.2-1.2 0-0.6-0.6-1.2-1.2-1.2h-7.9c-0.6 0-1.2 0.6-1.2 1.2 0 0.7 0.6 1.2 1.2 1.2z"/><path class="b" d="m69.4 96h7.8c0.7 0 1.2-0.5 1.2-1.2 0-0.6-0.5-1.2-1.2-1.2h-7.8c-0.7 0-1.2 0.6-1.2 1.2 0 0.7 0.5 1.2 1.2 1.2z"/><path class="b" d="m56.3 96h7.9c0.6 0 1.1-0.5 1.1-1.2 0-0.6-0.5-1.2-1.1-1.2h-7.9c-0.6 0-1.2 0.6-1.2 1.2 0 0.7 0.6 1.2 1.2 1.2z"/><path class="b" d="m95.5 96h3.6c0.6 0 1.2-0.5 1.2-1.2v-3.6c0-0.6-0.6-1.2-1.2-1.2-0.7 0-1.2 0.6-1.2 1.2v2.4h-2.4c-0.7 0-1.2 0.6-1.2 1.2 0 0.7 0.5 1.2 1.2 1.2z"/><path class="b" d="m99.1 78.5c-0.7 0-1.2 0.5-1.2 1.2v6.9c0 0.7 0.5 1.2 1.2 1.2 0.6 0 1.2-0.5 1.2-1.2v-6.9c0-0.7-0.6-1.2-1.2-1.2z"/><path class="b" d="m99.1 67c-0.7 0-1.2 0.5-1.2 1.2v6.9c0 0.6 0.5 1.2 1.2 1.2 0.6 0 1.2-0.6 1.2-1.2v-6.9c0-0.7-0.6-1.2-1.2-1.2z"/><path class="b" d="m95.5 61.1h2.4v2.4c0 0.7 0.5 1.2 1.2 1.2 0.6 0 1.2-0.5 1.2-1.2v-3.5c0-0.7-0.6-1.2-1.2-1.2h-3.6c-0.7 0-1.2 0.5-1.2 1.2 0 0.6 0.5 1.1 1.2 1.1z"/><path class="b" d="m64.2 58.8h-7.9c-0.6 0-1.2 0.5-1.2 1.2 0 0.6 0.6 1.1 1.2 1.1h7.9c0.6 0 1.1-0.5 1.1-1.1 0-0.7-0.5-1.2-1.1-1.2z"/><path class="b" d="m82.4 61.1h7.9c0.6 0 1.2-0.5 1.2-1.2 0-0.6-0.6-1.1-1.2-1.1-6 0.3-9.1-0.9-9.1 1.1 0 0.7 0.6 1.2 1.2 1.2z"/><path class="b" d="m69.4 61.1h7.8c0.7 0 1.2-0.5 1.2-1.1 0-0.7-0.5-1.2-1.2-1.2h-7.8c-0.7 0-1.2 0.5-1.2 1.2 0 0.6 0.5 1.1 1.2 1.1z"/><path class="b" d="m51.1 58.8h-3.6c-0.7 0-1.2 0.5-1.2 1.2v3.5c0 0.7 0.5 1.2 1.2 1.2 0.7 0 1.2-0.5 1.2-1.2v-2.4h2.4c0.7 0 1.2-0.5 1.2-1.1 0-0.7-0.5-1.2-1.2-1.2z"/><path fill-rule="evenodd" class="b" d="m56.9 81.4c-2.2 0-4-1.8-4-4 0-2.2 1.8-4.1 4-4.1 2.2 0 4 1.9 4 4.1 0 2.2-1.8 4-4 4zm1.7-4c0-0.9-0.8-1.7-1.7-1.7-0.9 0-1.6 0.8-1.6 1.7 0 0.9 0.7 1.6 1.6 1.6 0.9 0 1.7-0.7 1.7-1.6z"/><path class="a" d="m69.5 139.6c-38 0-68.8-31-68.8-69.4 0-38.4 30.8-69.5 68.8-69.5 38 0 68.8 31.1 68.8 69.5 0 38.4-30.8 69.4-68.8 69.4z"/><path fill-rule="evenodd" class="b" d="m31.1 101.1h7.9q-0.2-0.5-0.2-1.2v-14.3h-2.7c-2.7 0-4.9-2.2-4.9-4.9v-17.1c0-2.7 2.2-4.9 4.8-4.9h2.8c0-5.6 0-9.5 0-15 0-2 1.6-3.7 3.6-3.7h20.3c2.3-1.9 5.3-3.1 8.6-3.1 3.3 0 6.3 1.2 8.6 3.1h20.9c3.3 0 7 2.8 7 6.8q0 0 0 0v53.1q0 0.7-0.2 1.2h0.7c0.6 0 1.1 0.6 1.1 1.2 0 0.7-0.5 1.2-1.1 1.2h-77.2c-0.7 0-1.2-0.5-1.2-1.2 0-0.6 0.5-1.2 1.2-1.2zm69.7-58.7h-18.7c1.8 2.6 2.7 5.7 2.4 8.8h16.5c2.4 0 4.4-2 4.4-4.3 0-2.7-2.5-4.5-4.6-4.5zm-29.5-3.1c-6 0-10.9 4.8-10.9 10.8q0 0.6 0.1 1.1h9.9c-1.9-0.4-3.2-2-3.2-4 0-1.9 1.2-3.4 2.9-4v-0.7c0-0.6 0.5-1.2 1.2-1.2q0 0 0 0c0.6 0 1.2 0.5 1.2 1.2v0.7c1.7 0.5 3 2.1 3 4 0 0.6-0.6 1.2-1.2 1.2-0.7 0-1.2-0.6-1.2-1.2 0-1-0.8-1.8-1.8-1.8-1 0-1.7 0.8-1.7 1.8 0 1 0.7 1.7 1.7 1.7 1.6 0 3 1 3.7 2.3h7.1c0.7-6.3-4.3-11.9-10.8-11.9zm-30.1 11.9h16.9q-0.1-0.5-0.1-1.1c0-2.8 1-5.5 2.5-7.7h-18.1c-0.7 0-1.2 0.6-1.2 1.3zm-7.6 15.4c0 1.4 1.1 2.5 2.4 2.5-0.1 0 2.6 0 2.8 0v-8h-2.8c-1.3 0-2.4 1.1-2.4 2.4zm2.5 16.5h21.9c2.6 0 4.7-2 4.7-4.5v-2.6c0-2.5-2.1-4.5-4.7-4.5h-21.6c-1 0-2-0.2-2.8-0.7v9.8c0 1.4 1.1 2.5 2.5 2.5zm5.1 2.4v14.3c0 0.7 0.5 1.3 1.2 1.3h61.8c0.6 0 1.2-0.6 1.2-1.3v-47.9c-1.2 1.1-3 1.7-4.4 1.7-59 0 4.1 0-59.8 0v15.5h5.1v-2.4c0-0.6 0.5-1.2 1.2-1.2 0.7 0 1.2 0.6 1.2 1.2v2.4h9.3c3.9 0 7 3.1 7 6.9v2.6c0 3.8-3.1 6.9-7 6.9h-9.3v2.4c0 0.7-0.5 1.2-1.2 1.2-0.7 0-1.2-0.5-1.2-1.2v-2.4z"/><path class="b" d="m47.5 96h3.6c0.7 0 1.2-0.5 1.2-1.2 0-0.6-0.5-1.2-1.2-1.2h-2.4v-2.4c0-0.6-0.5-1.2-1.2-1.2-0.7 0-1.2 0.6-1.2 1.2v3.6c0 0.7 0.5 1.2 1.2 1.2z"/><path class="b" d="m82.4 96h7.9c0.6 0 1.2-0.5 1.2-1.2 0-0.6-0.6-1.2-1.2-1.2h-7.9c-0.6 0-1.2 0.6-1.2 1.2 0 0.7 0.6 1.2 1.2 1.2z"/><path class="b" d="m69.4 96h7.8c0.7 0 1.2-0.5 1.2-1.2 0-0.6-0.5-1.2-1.2-1.2h-7.8c-0.7 0-1.2 0.6-1.2 1.2 0 0.7 0.5 1.2 1.2 1.2z"/><path class="b" d="m56.3 96h7.9c0.6 0 1.1-0.5 1.1-1.2 0-0.6-0.5-1.2-1.1-1.2h-7.9c-0.6 0-1.2 0.6-1.2 1.2 0 0.7 0.6 1.2 1.2 1.2z"/><path class="b" d="m95.5 96h3.6c0.6 0 1.2-0.5 1.2-1.2v-3.6c0-0.6-0.6-1.2-1.2-1.2-0.7 0-1.2 0.6-1.2 1.2v2.4h-2.4c-0.7 0-1.2 0.6-1.2 1.2 0 0.7 0.5 1.2 1.2 1.2z"/><path class="b" d="m99.1 78.5c-0.7 0-1.2 0.5-1.2 1.2v6.9c0 0.7 0.5 1.2 1.2 1.2 0.6 0 1.2-0.5 1.2-1.2v-6.9c0-0.7-0.6-1.2-1.2-1.2z"/><path class="b" d="m99.1 67c-0.7 0-1.2 0.5-1.2 1.2v6.9c0 0.6 0.5 1.2 1.2 1.2 0.6 0 1.2-0.6 1.2-1.2v-6.9c0-0.7-0.6-1.2-1.2-1.2z"/><path class="b" d="m95.5 61.1h2.4v2.4c0 0.7 0.5 1.2 1.2 1.2 0.6 0 1.2-0.5 1.2-1.2v-3.5c0-0.7-0.6-1.2-1.2-1.2h-3.6c-0.7 0-1.2 0.5-1.2 1.2 0 0.6 0.5 1.1 1.2 1.1z"/><path class="b" d="m64.2 58.8h-7.9c-0.6 0-1.2 0.5-1.2 1.2 0 0.6 0.6 1.1 1.2 1.1h7.9c0.6 0 1.1-0.5 1.1-1.1 0-0.7-0.5-1.2-1.1-1.2z"/><path class="b" d="m82.4 61.1h7.9c0.6 0 1.2-0.5 1.2-1.2 0-0.6-0.6-1.1-1.2-1.1-6 0.3-9.1-0.9-9.1 1.1 0 0.7 0.6 1.2 1.2 1.2z"/><path class="b" d="m69.4 61.1h7.8c0.7 0 1.2-0.5 1.2-1.1 0-0.7-0.5-1.2-1.2-1.2h-7.8c-0.7 0-1.2 0.5-1.2 1.2 0 0.6 0.5 1.1 1.2 1.1z"/><path class="b" d="m51.1 58.8h-3.6c-0.7 0-1.2 0.5-1.2 1.2v3.5c0 0.7 0.5 1.2 1.2 1.2 0.7 0 1.2-0.5 1.2-1.2v-2.4h2.4c0.7 0 1.2-0.5 1.2-1.1 0-0.7-0.5-1.2-1.2-1.2z"/><path fill-rule="evenodd" class="b" d="m56.9 81.4c-2.2 0-4-1.8-4-4 0-2.2 1.8-4.1 4-4.1 2.2 0 4 1.9 4 4.1 0 2.2-1.8 4-4 4zm1.7-4c0-0.9-0.8-1.7-1.7-1.7-0.9 0-1.6 0.8-1.6 1.7 0 0.9 0.7 1.6 1.6 1.6 0.9 0 1.7-0.7 1.7-1.6z"/></svg>