<svg version="1.2" xmlns="http://www.w3.org/2000/svg" viewBox="0 0 18 18" width="18" height="18"><style>.a{fill:#fff}</style><path fill-rule="evenodd" class="a" d="m8.5 17c-4.7 0-8.5-3.8-8.5-8.5 0-4.7 3.8-8.5 8.5-8.5 4.7 0 8.5 3.8 8.5 8.5 0 4.7-3.8 8.5-8.5 8.5zm-6.9-5.1c1.1 2 3 3.6 5.2 4.1-0.6-0.9-1.1-2.4-1.4-4.1zm14.1-0.8q0.4-1.3 0.4-2.6 0-1.3-0.4-2.5l-4-0.1q0.1 1.3 0.1 2.6 0 1.3-0.1 2.6zm-0.4 0.8h-3.7c-0.3 1.7-0.8 3.2-1.5 4.1 2.3-0.5 4.2-2.1 5.2-4.1zm-9.2-0.8h4.8q0.1-1.3 0.1-2.6 0-1.3-0.1-2.6h-4.8q-0.2 1.3-0.2 2.6 0 1.3 0.2 2.6zm0.1 0.8c0.4 2.5 1.3 4.2 2.3 4.2 0.9 0 1.8-1.7 2.2-4.2zm-4.6-6.8h3.8c0.3-1.7 0.8-3.2 1.4-4.1-2.3 0.5-4.1 2.1-5.2 4.1zm13.8 0c-1-2-2.9-3.6-5.2-4.1 0.6 0.9 1.2 2.4 1.4 4.1zm-9.1 0h4.5c-0.4-2.5-1.3-4.3-2.2-4.3-0.9 0-1.8 1.8-2.3 4.3zm-4.9 6h3.9q-0.1-1.3-0.1-2.6 0-1.3 0.1-2.6h-3.9q-0.5 1.3-0.5 2.6 0 1.3 0.5 2.6z"/></svg>